G04 #@! TF.GenerationSoftware,KiCad,Pcbnew,(5.1.5)-3*
G04 #@! TF.CreationDate,2020-10-12T20:48:49-07:00*
G04 #@! TF.ProjectId,tool_head,746f6f6c-5f68-4656-9164-2e6b69636164,B*
G04 #@! TF.SameCoordinates,Original*
G04 #@! TF.FileFunction,Profile,NP*
%FSLAX46Y46*%
G04 Gerber Fmt 4.6, Leading zero omitted, Abs format (unit mm)*
G04 Created by KiCad (PCBNEW (5.1.5)-3) date 2020-10-12 20:48:49*
%MOMM*%
%LPD*%
G04 APERTURE LIST*
%ADD10C,0.200000*%
G04 APERTURE END LIST*
D10*
X179669999Y-40500000D02*
X141669999Y-40500000D01*
X139670000Y-42500001D02*
G75*
G02X141669999Y-40500000I2000000J1D01*
G01*
X145670000Y-47750000D02*
X144670000Y-47750000D01*
X141670000Y-82500000D02*
G75*
G02X139670000Y-80500000I0J2000000D01*
G01*
X139669999Y-42500000D02*
X139670000Y-80500000D01*
X141670000Y-82500000D02*
X179669999Y-82500000D01*
X181669998Y-80500000D02*
X181669998Y-42500000D01*
X181669999Y-80500000D02*
G75*
G02X179669999Y-82500000I-2000000J0D01*
G01*
X176670079Y-78750000D02*
X175670078Y-78750000D01*
X176670060Y-75249926D02*
G75*
G02X176670079Y-78749926I10J-1750000D01*
G01*
X176670059Y-75249926D02*
X175670061Y-75249931D01*
X175670079Y-78749931D02*
G75*
G02X175670061Y-75249931I-9J1750000D01*
G01*
X179669999Y-40500001D02*
G75*
G02X181669998Y-42500000I0J-1999999D01*
G01*
X176670060Y-44249927D02*
G75*
G02X176670079Y-47749927I10J-1750000D01*
G01*
X176670059Y-44249927D02*
X175670061Y-44249932D01*
X175670079Y-47749932D02*
G75*
G02X175670061Y-44249932I-9J1750000D01*
G01*
X176670079Y-47750000D02*
X175670078Y-47750000D01*
X144670080Y-47749932D02*
G75*
G02X144670062Y-44249932I-9J1750000D01*
G01*
X145670060Y-44249927D02*
X144670062Y-44249932D01*
X145670061Y-44249927D02*
G75*
G02X145670080Y-47749927I10J-1750000D01*
G01*
X145670080Y-78750000D02*
X144670079Y-78750000D01*
X145670061Y-75249926D02*
G75*
G02X145670080Y-78749926I10J-1750000D01*
G01*
X144670080Y-78749931D02*
G75*
G02X144670062Y-75249931I-9J1750000D01*
G01*
X145670060Y-75249926D02*
X144670062Y-75249931D01*
M02*
