G04 #@! TF.GenerationSoftware,KiCad,Pcbnew,(5.1.5)-3*
G04 #@! TF.CreationDate,2020-07-07T21:27:08-07:00*
G04 #@! TF.ProjectId,tool_head,746f6f6c-5f68-4656-9164-2e6b69636164,B*
G04 #@! TF.SameCoordinates,Original*
G04 #@! TF.FileFunction,Copper,L2,Bot*
G04 #@! TF.FilePolarity,Positive*
%FSLAX46Y46*%
G04 Gerber Fmt 4.6, Leading zero omitted, Abs format (unit mm)*
G04 Created by KiCad (PCBNEW (5.1.5)-3) date 2020-07-07 21:27:08*
%MOMM*%
%LPD*%
G04 APERTURE LIST*
%ADD10C,1.450000*%
%ADD11O,1.900000X1.200000*%
%ADD12R,1.700000X1.700000*%
%ADD13O,1.700000X1.700000*%
%ADD14C,2.600000*%
%ADD15R,2.600000X2.600000*%
%ADD16C,0.100000*%
%ADD17O,1.700000X2.000000*%
%ADD18C,1.750000*%
%ADD19C,2.000000*%
%ADD20C,0.800000*%
%ADD21C,0.250000*%
%ADD22C,2.000000*%
%ADD23C,0.254000*%
G04 APERTURE END LIST*
D10*
X143632500Y-51250000D03*
X143632500Y-56250000D03*
D11*
X140932500Y-50250000D03*
X140932500Y-57250000D03*
D12*
X176670000Y-63500000D03*
D13*
X179210000Y-63500000D03*
X176670000Y-66040000D03*
X179210000Y-66040000D03*
X176670000Y-68580000D03*
X179210000Y-68580000D03*
X176670000Y-71120000D03*
X179210000Y-71120000D03*
D14*
X144920000Y-66330000D03*
D15*
X144920000Y-61250000D03*
X176420000Y-58000000D03*
D14*
X176420000Y-52920000D03*
G04 #@! TA.AperFunction,ComponentPad*
D16*
G36*
X155794504Y-43251204D02*
G01*
X155818773Y-43254804D01*
X155842571Y-43260765D01*
X155865671Y-43269030D01*
X155887849Y-43279520D01*
X155908893Y-43292133D01*
X155928598Y-43306747D01*
X155946777Y-43323223D01*
X155963253Y-43341402D01*
X155977867Y-43361107D01*
X155990480Y-43382151D01*
X156000970Y-43404329D01*
X156009235Y-43427429D01*
X156015196Y-43451227D01*
X156018796Y-43475496D01*
X156020000Y-43500000D01*
X156020000Y-45000000D01*
X156018796Y-45024504D01*
X156015196Y-45048773D01*
X156009235Y-45072571D01*
X156000970Y-45095671D01*
X155990480Y-45117849D01*
X155977867Y-45138893D01*
X155963253Y-45158598D01*
X155946777Y-45176777D01*
X155928598Y-45193253D01*
X155908893Y-45207867D01*
X155887849Y-45220480D01*
X155865671Y-45230970D01*
X155842571Y-45239235D01*
X155818773Y-45245196D01*
X155794504Y-45248796D01*
X155770000Y-45250000D01*
X154570000Y-45250000D01*
X154545496Y-45248796D01*
X154521227Y-45245196D01*
X154497429Y-45239235D01*
X154474329Y-45230970D01*
X154452151Y-45220480D01*
X154431107Y-45207867D01*
X154411402Y-45193253D01*
X154393223Y-45176777D01*
X154376747Y-45158598D01*
X154362133Y-45138893D01*
X154349520Y-45117849D01*
X154339030Y-45095671D01*
X154330765Y-45072571D01*
X154324804Y-45048773D01*
X154321204Y-45024504D01*
X154320000Y-45000000D01*
X154320000Y-43500000D01*
X154321204Y-43475496D01*
X154324804Y-43451227D01*
X154330765Y-43427429D01*
X154339030Y-43404329D01*
X154349520Y-43382151D01*
X154362133Y-43361107D01*
X154376747Y-43341402D01*
X154393223Y-43323223D01*
X154411402Y-43306747D01*
X154431107Y-43292133D01*
X154452151Y-43279520D01*
X154474329Y-43269030D01*
X154497429Y-43260765D01*
X154521227Y-43254804D01*
X154545496Y-43251204D01*
X154570000Y-43250000D01*
X155770000Y-43250000D01*
X155794504Y-43251204D01*
G37*
G04 #@! TD.AperFunction*
D17*
X152670000Y-44250000D03*
D12*
X164090000Y-42750000D03*
D13*
X166630000Y-42750000D03*
X169170000Y-42750000D03*
D18*
X142420000Y-71000000D03*
X148920000Y-71000000D03*
D19*
X166170000Y-48750000D03*
X154770000Y-48750000D03*
D12*
X160920000Y-78000000D03*
D13*
X160920000Y-80540000D03*
X156670000Y-80540000D03*
D12*
X156670000Y-78000000D03*
D20*
X154482800Y-73500000D03*
X158218800Y-73549600D03*
X150155000Y-73401100D03*
X156694000Y-57902000D03*
X167225000Y-56474700D03*
X170670000Y-69481100D03*
X169597000Y-73747900D03*
X170670000Y-65455800D03*
X151719000Y-65336200D03*
X159998000Y-64058800D03*
X165057000Y-77653600D03*
X164608000Y-72833100D03*
X156613000Y-71703400D03*
X160501000Y-45649200D03*
X163244000Y-51937500D03*
X150620000Y-76845400D03*
X163549000Y-65874000D03*
X150782000Y-80450700D03*
X157572000Y-52441900D03*
X170420000Y-57750000D03*
X171420000Y-57750000D03*
X172420000Y-57750000D03*
X173420000Y-57750000D03*
X173420000Y-56750000D03*
X172420000Y-56750000D03*
X171420000Y-56750000D03*
X170420000Y-56750000D03*
X170420000Y-55750000D03*
X171420000Y-55750000D03*
X172420000Y-55750000D03*
X173420000Y-55750000D03*
X162416000Y-67901700D03*
X155867000Y-59154200D03*
X161889000Y-73331100D03*
X154078000Y-58548400D03*
X162175000Y-53625800D03*
X156469000Y-60239300D03*
X161521100Y-62646900D03*
X157367700Y-61925300D03*
X164634000Y-56875000D03*
X164641000Y-74080100D03*
X168343000Y-80078200D03*
X164976000Y-66352600D03*
X160511000Y-73715800D03*
X156207000Y-69411900D03*
X168670000Y-52000000D03*
X169670000Y-52000000D03*
X170670000Y-52000000D03*
X171670000Y-52000000D03*
X172670000Y-52000000D03*
X171670000Y-51000000D03*
X170670000Y-51000000D03*
X169670000Y-51000000D03*
X168670000Y-51000000D03*
X168670000Y-50000000D03*
X169670000Y-50000000D03*
X170670000Y-50000000D03*
X171670000Y-50000000D03*
X172670000Y-50000000D03*
X172670000Y-51000000D03*
X168670000Y-49000000D03*
X169670000Y-49000000D03*
X170670000Y-49000000D03*
X171670000Y-49000000D03*
X172670000Y-49000000D03*
X155605000Y-58150000D03*
X170220500Y-60458000D03*
X159979000Y-57604400D03*
X160051600Y-65965100D03*
X161898200Y-81630800D03*
X148818000Y-76845400D03*
X145912000Y-52441900D03*
X169664700Y-70434600D03*
X167463600Y-67739900D03*
D21*
X158218800Y-73549600D02*
X154532400Y-73549600D01*
X154532400Y-73549600D02*
X154482800Y-73500000D01*
X160920000Y-80540000D02*
X159744700Y-80540000D01*
X155867000Y-59154200D02*
X155583500Y-59154200D01*
X155583500Y-59154200D02*
X154879600Y-58450300D01*
X154879600Y-58450300D02*
X154879600Y-58291000D01*
X154879600Y-58291000D02*
X154407500Y-57818900D01*
X154407500Y-57818900D02*
X153733000Y-57818900D01*
X153733000Y-57818900D02*
X153329800Y-58222100D01*
X153329800Y-58222100D02*
X153329800Y-78904400D01*
X153329800Y-78904400D02*
X156140700Y-81715300D01*
X156140700Y-81715300D02*
X158569400Y-81715300D01*
X158569400Y-81715300D02*
X159744700Y-80540000D01*
X160920000Y-80540000D02*
X160920000Y-79364700D01*
X160920000Y-79364700D02*
X161728000Y-79364700D01*
X161728000Y-79364700D02*
X162618100Y-78474600D01*
X162618100Y-78474600D02*
X162618100Y-68103800D01*
X162618100Y-68103800D02*
X162416000Y-67901700D01*
X154078000Y-58548400D02*
X154078000Y-65520100D01*
X154078000Y-65520100D02*
X161889000Y-73331100D01*
X156670000Y-79364700D02*
X157480000Y-79364700D01*
X157480000Y-79364700D02*
X157845300Y-78999400D01*
X157845300Y-78999400D02*
X157845300Y-77407400D01*
X157845300Y-77407400D02*
X161889000Y-73363700D01*
X161889000Y-73363700D02*
X161889000Y-73331100D01*
X156670000Y-80540000D02*
X156670000Y-79364700D01*
X156469000Y-60239300D02*
X158921800Y-57786500D01*
X158921800Y-57786500D02*
X158921800Y-56879000D01*
X158921800Y-56879000D02*
X162175000Y-53625800D01*
X157367700Y-61925300D02*
X160799500Y-61925300D01*
X160799500Y-61925300D02*
X161521100Y-62646900D01*
X164634000Y-56875000D02*
X164634000Y-66010600D01*
X164634000Y-66010600D02*
X164976000Y-66352600D01*
X164976000Y-66352600D02*
X163862900Y-67465700D01*
X163862900Y-67465700D02*
X163862900Y-73302000D01*
X163862900Y-73302000D02*
X164641000Y-74080100D01*
X168343000Y-80078200D02*
X168343000Y-77782100D01*
X168343000Y-77782100D02*
X164641000Y-74080100D01*
X160511000Y-73715800D02*
X156207100Y-69411900D01*
X156207100Y-69411900D02*
X156207000Y-69411900D01*
D22*
X179210000Y-63500000D02*
X179210000Y-66040000D01*
X176420000Y-52920000D02*
X179210000Y-55710000D01*
X179210000Y-55710000D02*
X179210000Y-63500000D01*
X179210000Y-66040000D02*
X179210000Y-68580000D01*
X166170000Y-48750000D02*
X172250000Y-48750000D01*
X172250000Y-48750000D02*
X176420000Y-52920000D01*
D21*
X164634000Y-56875000D02*
X164634000Y-51786000D01*
X166170000Y-50250000D02*
X166170000Y-48750000D01*
X164634000Y-51786000D02*
X166170000Y-50250000D01*
D22*
X154770000Y-48750000D02*
X148420000Y-55100000D01*
X148420000Y-55100000D02*
X148420000Y-62830000D01*
X148420000Y-62830000D02*
X144920000Y-66330000D01*
D21*
X152670000Y-44250000D02*
X153845300Y-44250000D01*
X155605000Y-58150000D02*
X155605000Y-52206900D01*
X155605000Y-52206900D02*
X156159900Y-51652000D01*
X156159900Y-51652000D02*
X156159900Y-47739900D01*
X156159900Y-47739900D02*
X153845300Y-45425300D01*
X153845300Y-45425300D02*
X153845300Y-44250000D01*
X179210000Y-71120000D02*
X179210000Y-69944700D01*
X179210000Y-69944700D02*
X178695800Y-69944700D01*
X178695800Y-69944700D02*
X177884600Y-69133500D01*
X177884600Y-69133500D02*
X177884600Y-68076100D01*
X177884600Y-68076100D02*
X177213100Y-67404600D01*
X177213100Y-67404600D02*
X176313900Y-67404600D01*
X176313900Y-67404600D02*
X170220500Y-61311200D01*
X170220500Y-61311200D02*
X170220500Y-60458000D01*
X159979000Y-57604400D02*
X164090000Y-53493400D01*
X164090000Y-53493400D02*
X164090000Y-42750000D01*
X161898200Y-81630800D02*
X163156200Y-80372800D01*
X163156200Y-80372800D02*
X163156200Y-67563200D01*
X163156200Y-67563200D02*
X161558100Y-65965100D01*
X161558100Y-65965100D02*
X160051600Y-65965100D01*
X145912000Y-52441900D02*
X142570200Y-55783700D01*
X142570200Y-55783700D02*
X142570200Y-68956300D01*
X142570200Y-68956300D02*
X148818000Y-75204100D01*
X148818000Y-75204100D02*
X148818000Y-76845400D01*
X167463600Y-67739900D02*
X167463600Y-68233500D01*
X167463600Y-68233500D02*
X169664700Y-70434600D01*
D23*
G36*
X155982733Y-41290713D02*
G01*
X155810713Y-41462733D01*
X155675557Y-41665008D01*
X155582460Y-41889764D01*
X155535000Y-42128363D01*
X155535000Y-42371637D01*
X155582460Y-42610236D01*
X155584144Y-42614301D01*
X155455750Y-42615000D01*
X155297000Y-42773750D01*
X155297000Y-44123000D01*
X156496250Y-44123000D01*
X156655000Y-43964250D01*
X156657061Y-43485000D01*
X156891637Y-43485000D01*
X157130236Y-43437540D01*
X157354992Y-43344443D01*
X157557267Y-43209287D01*
X157729287Y-43037267D01*
X157864443Y-42834992D01*
X157957540Y-42610236D01*
X158005000Y-42371637D01*
X158005000Y-42128363D01*
X157957540Y-41889764D01*
X157864443Y-41665008D01*
X157729287Y-41462733D01*
X157557267Y-41290713D01*
X157473887Y-41235000D01*
X179634042Y-41235000D01*
X179915020Y-41262550D01*
X180150712Y-41333710D01*
X180368087Y-41449290D01*
X180558877Y-41604894D01*
X180715806Y-41794589D01*
X180832907Y-42011162D01*
X180905708Y-42246343D01*
X180934999Y-42525034D01*
X180934998Y-80464063D01*
X180907450Y-80745021D01*
X180836290Y-80980712D01*
X180720710Y-81198088D01*
X180565103Y-81388879D01*
X180375407Y-81545811D01*
X180158842Y-81662906D01*
X179923655Y-81735709D01*
X179644971Y-81765000D01*
X162926783Y-81765000D01*
X162933200Y-81732739D01*
X162933200Y-81670601D01*
X163667204Y-80936598D01*
X163696201Y-80912801D01*
X163791174Y-80797076D01*
X163861746Y-80665047D01*
X163905203Y-80521786D01*
X163916200Y-80410133D01*
X163916200Y-80410125D01*
X163919876Y-80372800D01*
X163916200Y-80335475D01*
X163916200Y-74819011D01*
X163981226Y-74884037D01*
X164150744Y-74997305D01*
X164339102Y-75075326D01*
X164539061Y-75115100D01*
X164601199Y-75115100D01*
X167583001Y-78096903D01*
X167583000Y-79374489D01*
X167539063Y-79418426D01*
X167425795Y-79587944D01*
X167347774Y-79776302D01*
X167308000Y-79976261D01*
X167308000Y-80180139D01*
X167347774Y-80380098D01*
X167425795Y-80568456D01*
X167539063Y-80737974D01*
X167683226Y-80882137D01*
X167852744Y-80995405D01*
X168041102Y-81073426D01*
X168241061Y-81113200D01*
X168444939Y-81113200D01*
X168644898Y-81073426D01*
X168833256Y-80995405D01*
X169002774Y-80882137D01*
X169146937Y-80737974D01*
X169260205Y-80568456D01*
X169338226Y-80380098D01*
X169378000Y-80180139D01*
X169378000Y-79976261D01*
X169338226Y-79776302D01*
X169260205Y-79587944D01*
X169146937Y-79418426D01*
X169103000Y-79374489D01*
X169103000Y-77819433D01*
X169106677Y-77782100D01*
X169092003Y-77633114D01*
X169048546Y-77489853D01*
X168977974Y-77357824D01*
X168906799Y-77271097D01*
X168883001Y-77242099D01*
X168854003Y-77218301D01*
X168581248Y-76945546D01*
X173188138Y-76945546D01*
X173188604Y-77012199D01*
X173188139Y-77078775D01*
X173189140Y-77088988D01*
X173224842Y-77428657D01*
X173238245Y-77493951D01*
X173250721Y-77559351D01*
X173253686Y-77569175D01*
X173354685Y-77895441D01*
X173380503Y-77956860D01*
X173405455Y-78018618D01*
X173410273Y-78027679D01*
X173572719Y-78328113D01*
X173609985Y-78383362D01*
X173646449Y-78439084D01*
X173652935Y-78447037D01*
X173870643Y-78710197D01*
X173917954Y-78757178D01*
X173964521Y-78804730D01*
X173972428Y-78811272D01*
X174237103Y-79027134D01*
X174292606Y-79064010D01*
X174347557Y-79101635D01*
X174356579Y-79106513D01*
X174356583Y-79106516D01*
X174356587Y-79106518D01*
X174658146Y-79266858D01*
X174719785Y-79292263D01*
X174780968Y-79318486D01*
X174790767Y-79321520D01*
X174790773Y-79321522D01*
X175117735Y-79420235D01*
X175183100Y-79433177D01*
X175248243Y-79447023D01*
X175258449Y-79448096D01*
X175525812Y-79474310D01*
X175525993Y-79474365D01*
X175633973Y-79485000D01*
X176706184Y-79485000D01*
X176744298Y-79481246D01*
X176766242Y-79481246D01*
X176776448Y-79480174D01*
X177115859Y-79442101D01*
X177181057Y-79428242D01*
X177246366Y-79415311D01*
X177256168Y-79412277D01*
X177256174Y-79412275D01*
X177581723Y-79309003D01*
X177642998Y-79282740D01*
X177704543Y-79257373D01*
X177713566Y-79252495D01*
X177713570Y-79252493D01*
X177713573Y-79252491D01*
X178012864Y-79087952D01*
X178067852Y-79050300D01*
X178123316Y-79013450D01*
X178131223Y-79006909D01*
X178392856Y-78787370D01*
X178439482Y-78739757D01*
X178486734Y-78692833D01*
X178493215Y-78684886D01*
X178493220Y-78684881D01*
X178493224Y-78684876D01*
X178707230Y-78418703D01*
X178743735Y-78362916D01*
X178780957Y-78307732D01*
X178785775Y-78298671D01*
X178944007Y-77995996D01*
X178968976Y-77934195D01*
X178994775Y-77872821D01*
X178997741Y-77862997D01*
X179094172Y-77535351D01*
X179106658Y-77469895D01*
X179120049Y-77404656D01*
X179121051Y-77394442D01*
X179152003Y-77054309D01*
X179151537Y-76987618D01*
X179152001Y-76921081D01*
X179151000Y-76910868D01*
X179115298Y-76571199D01*
X179101895Y-76505905D01*
X179089419Y-76440505D01*
X179086455Y-76430688D01*
X179086454Y-76430682D01*
X179086451Y-76430676D01*
X178985455Y-76104415D01*
X178959628Y-76042976D01*
X178934684Y-75981238D01*
X178929867Y-75972177D01*
X178767420Y-75671742D01*
X178730147Y-75616484D01*
X178693691Y-75560774D01*
X178687205Y-75552821D01*
X178469498Y-75289661D01*
X178422204Y-75242697D01*
X178375618Y-75195125D01*
X178367711Y-75188583D01*
X178103035Y-74972721D01*
X178047539Y-74935850D01*
X177992581Y-74898220D01*
X177983554Y-74893339D01*
X177681991Y-74732998D01*
X177620360Y-74707596D01*
X177559171Y-74681371D01*
X177549367Y-74678336D01*
X177222404Y-74579622D01*
X177157046Y-74566681D01*
X177091896Y-74552834D01*
X177081690Y-74551761D01*
X176741780Y-74518434D01*
X176741778Y-74518434D01*
X176706160Y-74514926D01*
X175633953Y-74514932D01*
X175596601Y-74518611D01*
X175573900Y-74518611D01*
X175563693Y-74519683D01*
X175224282Y-74557756D01*
X175159084Y-74571615D01*
X175093775Y-74584546D01*
X175083973Y-74587580D01*
X175083967Y-74587582D01*
X174758418Y-74690854D01*
X174697166Y-74717107D01*
X174635600Y-74742483D01*
X174626572Y-74747364D01*
X174327279Y-74911903D01*
X174272290Y-74949555D01*
X174216824Y-74986407D01*
X174208916Y-74992948D01*
X173947283Y-75212488D01*
X173900655Y-75260104D01*
X173853408Y-75307023D01*
X173846922Y-75314976D01*
X173632912Y-75581152D01*
X173596407Y-75636938D01*
X173559185Y-75692123D01*
X173554370Y-75701179D01*
X173554367Y-75701183D01*
X173554367Y-75701184D01*
X173396134Y-76003858D01*
X173371161Y-76065668D01*
X173345364Y-76127037D01*
X173342400Y-76136854D01*
X173342398Y-76136860D01*
X173342398Y-76136862D01*
X173245969Y-76464506D01*
X173233483Y-76529965D01*
X173220092Y-76595199D01*
X173219091Y-76605412D01*
X173188138Y-76945546D01*
X168581248Y-76945546D01*
X165676000Y-74040299D01*
X165676000Y-73978161D01*
X165636226Y-73778202D01*
X165558205Y-73589844D01*
X165444937Y-73420326D01*
X165300774Y-73276163D01*
X165131256Y-73162895D01*
X164942898Y-73084874D01*
X164742939Y-73045100D01*
X164680801Y-73045100D01*
X164622900Y-72987199D01*
X164622900Y-71476890D01*
X175228524Y-71476890D01*
X175273175Y-71624099D01*
X175398359Y-71886920D01*
X175572412Y-72120269D01*
X175788645Y-72315178D01*
X176038748Y-72464157D01*
X176313109Y-72561481D01*
X176543000Y-72440814D01*
X176543000Y-71247000D01*
X175349845Y-71247000D01*
X175228524Y-71476890D01*
X164622900Y-71476890D01*
X164622900Y-67780501D01*
X164765440Y-67637961D01*
X166428600Y-67637961D01*
X166428600Y-67841839D01*
X166468374Y-68041798D01*
X166546395Y-68230156D01*
X166659663Y-68399674D01*
X166746001Y-68486012D01*
X166758054Y-68525747D01*
X166828626Y-68657776D01*
X166923600Y-68773501D01*
X166952598Y-68797299D01*
X168629700Y-70474403D01*
X168629700Y-70536539D01*
X168669474Y-70736498D01*
X168747495Y-70924856D01*
X168860763Y-71094374D01*
X169004926Y-71238537D01*
X169174444Y-71351805D01*
X169362802Y-71429826D01*
X169562761Y-71469600D01*
X169766639Y-71469600D01*
X169966598Y-71429826D01*
X170154956Y-71351805D01*
X170324474Y-71238537D01*
X170468637Y-71094374D01*
X170581905Y-70924856D01*
X170659926Y-70736498D01*
X170699700Y-70536539D01*
X170699700Y-70332661D01*
X170659926Y-70132702D01*
X170581905Y-69944344D01*
X170468637Y-69774826D01*
X170324474Y-69630663D01*
X170154956Y-69517395D01*
X169966598Y-69439374D01*
X169766639Y-69399600D01*
X169704503Y-69399600D01*
X168425985Y-68121083D01*
X168458826Y-68041798D01*
X168498600Y-67841839D01*
X168498600Y-67637961D01*
X168458826Y-67438002D01*
X168380805Y-67249644D01*
X168267537Y-67080126D01*
X168123374Y-66935963D01*
X167953856Y-66822695D01*
X167765498Y-66744674D01*
X167565539Y-66704900D01*
X167361661Y-66704900D01*
X167161702Y-66744674D01*
X166973344Y-66822695D01*
X166803826Y-66935963D01*
X166659663Y-67080126D01*
X166546395Y-67249644D01*
X166468374Y-67438002D01*
X166428600Y-67637961D01*
X164765440Y-67637961D01*
X165015802Y-67387600D01*
X165077939Y-67387600D01*
X165277898Y-67347826D01*
X165466256Y-67269805D01*
X165635774Y-67156537D01*
X165779937Y-67012374D01*
X165893205Y-66842856D01*
X165971226Y-66654498D01*
X166011000Y-66454539D01*
X166011000Y-66250661D01*
X165971226Y-66050702D01*
X165893205Y-65862344D01*
X165779937Y-65692826D01*
X165635774Y-65548663D01*
X165466256Y-65435395D01*
X165394000Y-65405465D01*
X165394000Y-57578711D01*
X165437937Y-57534774D01*
X165551205Y-57365256D01*
X165629226Y-57176898D01*
X165669000Y-56976939D01*
X165669000Y-56773061D01*
X165629226Y-56573102D01*
X165551205Y-56384744D01*
X165437937Y-56215226D01*
X165394000Y-56171289D01*
X165394000Y-52100801D01*
X166681004Y-50813798D01*
X166710001Y-50790001D01*
X166785421Y-50698102D01*
X166804974Y-50674277D01*
X166875546Y-50542247D01*
X166875546Y-50542246D01*
X166919003Y-50398986D01*
X166920381Y-50385000D01*
X167285000Y-50385000D01*
X167285000Y-52000000D01*
X167290432Y-52082883D01*
X167307469Y-52212293D01*
X167350373Y-52372414D01*
X167400323Y-52493004D01*
X167483210Y-52636567D01*
X167562670Y-52740120D01*
X167679880Y-52857330D01*
X167783433Y-52936790D01*
X167926996Y-53019677D01*
X168047586Y-53069627D01*
X168207707Y-53112531D01*
X168337117Y-53129568D01*
X168420000Y-53135000D01*
X174155492Y-53135000D01*
X174245144Y-53128639D01*
X174307506Y-53119745D01*
X174531348Y-53343588D01*
X174559361Y-53484419D01*
X174705225Y-53836566D01*
X174916987Y-54153491D01*
X175186509Y-54423013D01*
X175503434Y-54634775D01*
X175855581Y-54780639D01*
X175996414Y-54808652D01*
X177249689Y-56061928D01*
X175379954Y-56061928D01*
X173515460Y-54197434D01*
X173453011Y-54142668D01*
X173349457Y-54063208D01*
X173205897Y-53980323D01*
X173085307Y-53930373D01*
X172925186Y-53887469D01*
X172795776Y-53870432D01*
X172712893Y-53865000D01*
X169670000Y-53865000D01*
X169587117Y-53870432D01*
X169457707Y-53887469D01*
X169297586Y-53930373D01*
X169176996Y-53980323D01*
X169033433Y-54063210D01*
X168929880Y-54142670D01*
X168812670Y-54259880D01*
X168733210Y-54363433D01*
X168650323Y-54506996D01*
X168600373Y-54627586D01*
X168557469Y-54787707D01*
X168540432Y-54917117D01*
X168535000Y-55000000D01*
X168535000Y-57750000D01*
X168540432Y-57832883D01*
X168557469Y-57962293D01*
X168600373Y-58122414D01*
X168650323Y-58243004D01*
X168733210Y-58386567D01*
X168812670Y-58490120D01*
X168929880Y-58607330D01*
X169033433Y-58686790D01*
X169176996Y-58769677D01*
X169297586Y-58819627D01*
X169457707Y-58862531D01*
X169587117Y-58879568D01*
X169670000Y-58885000D01*
X174481928Y-58885000D01*
X174481928Y-59300000D01*
X174494188Y-59424482D01*
X174530498Y-59544180D01*
X174589463Y-59654494D01*
X174668815Y-59751185D01*
X174765506Y-59830537D01*
X174875820Y-59889502D01*
X174995518Y-59925812D01*
X175120000Y-59938072D01*
X177575001Y-59938072D01*
X177575001Y-62017345D01*
X177520000Y-62011928D01*
X175820000Y-62011928D01*
X175695518Y-62024188D01*
X175575820Y-62060498D01*
X175465506Y-62119463D01*
X175368815Y-62198815D01*
X175289463Y-62295506D01*
X175230498Y-62405820D01*
X175194188Y-62525518D01*
X175181928Y-62650000D01*
X175181928Y-64350000D01*
X175194188Y-64474482D01*
X175230498Y-64594180D01*
X175289463Y-64704494D01*
X175368815Y-64801185D01*
X175465506Y-64880537D01*
X175575820Y-64939502D01*
X175648380Y-64961513D01*
X175516525Y-65093368D01*
X175354010Y-65336589D01*
X175344251Y-65360149D01*
X171055454Y-61071353D01*
X171137705Y-60948256D01*
X171215726Y-60759898D01*
X171255500Y-60559939D01*
X171255500Y-60356061D01*
X171215726Y-60156102D01*
X171137705Y-59967744D01*
X171024437Y-59798226D01*
X170880274Y-59654063D01*
X170710756Y-59540795D01*
X170522398Y-59462774D01*
X170322439Y-59423000D01*
X170118561Y-59423000D01*
X169918602Y-59462774D01*
X169730244Y-59540795D01*
X169560726Y-59654063D01*
X169416563Y-59798226D01*
X169303295Y-59967744D01*
X169225274Y-60156102D01*
X169185500Y-60356061D01*
X169185500Y-60559939D01*
X169225274Y-60759898D01*
X169303295Y-60948256D01*
X169416563Y-61117774D01*
X169460500Y-61161711D01*
X169460500Y-61273878D01*
X169456824Y-61311200D01*
X169460500Y-61348522D01*
X169460500Y-61348532D01*
X169471497Y-61460185D01*
X169494419Y-61535750D01*
X169514954Y-61603446D01*
X169585526Y-61735476D01*
X169619041Y-61776314D01*
X169680499Y-61851201D01*
X169709503Y-61875004D01*
X175497035Y-67662537D01*
X175354010Y-67876589D01*
X175242068Y-68146842D01*
X175185000Y-68433740D01*
X175185000Y-68726260D01*
X175242068Y-69013158D01*
X175354010Y-69283411D01*
X175516525Y-69526632D01*
X175723368Y-69733475D01*
X175905534Y-69855195D01*
X175788645Y-69924822D01*
X175572412Y-70119731D01*
X175398359Y-70353080D01*
X175273175Y-70615901D01*
X175228524Y-70763110D01*
X175349845Y-70993000D01*
X176543000Y-70993000D01*
X176543000Y-70973000D01*
X176797000Y-70973000D01*
X176797000Y-70993000D01*
X176817000Y-70993000D01*
X176817000Y-71247000D01*
X176797000Y-71247000D01*
X176797000Y-72440814D01*
X177026891Y-72561481D01*
X177301252Y-72464157D01*
X177551355Y-72315178D01*
X177767588Y-72120269D01*
X177938900Y-71890594D01*
X178056525Y-72066632D01*
X178263368Y-72273475D01*
X178506589Y-72435990D01*
X178776842Y-72547932D01*
X179063740Y-72605000D01*
X179356260Y-72605000D01*
X179643158Y-72547932D01*
X179913411Y-72435990D01*
X180156632Y-72273475D01*
X180363475Y-72066632D01*
X180525990Y-71823411D01*
X180637932Y-71553158D01*
X180695000Y-71266260D01*
X180695000Y-70973740D01*
X180637932Y-70686842D01*
X180525990Y-70416589D01*
X180363475Y-70173368D01*
X180156632Y-69966525D01*
X180124192Y-69944849D01*
X180371714Y-69741714D01*
X180576031Y-69492752D01*
X180727852Y-69208715D01*
X180821343Y-68900516D01*
X180845000Y-68660322D01*
X180845000Y-55790322D01*
X180852911Y-55710000D01*
X180821343Y-55389483D01*
X180727852Y-55081285D01*
X180655574Y-54946063D01*
X180576031Y-54797248D01*
X180371714Y-54548286D01*
X180309320Y-54497081D01*
X178308652Y-52496414D01*
X178280639Y-52355581D01*
X178134775Y-52003434D01*
X177923013Y-51686509D01*
X177653491Y-51416987D01*
X177336566Y-51205225D01*
X176984419Y-51059361D01*
X176843588Y-51031348D01*
X173462925Y-47650687D01*
X173411714Y-47588286D01*
X173162752Y-47383969D01*
X172878715Y-47232148D01*
X172570516Y-47138657D01*
X172330322Y-47115000D01*
X172330319Y-47115000D01*
X172250000Y-47107089D01*
X172169681Y-47115000D01*
X166008967Y-47115000D01*
X165929807Y-47130746D01*
X165849484Y-47138657D01*
X165772249Y-47162086D01*
X165693088Y-47177832D01*
X165618521Y-47208719D01*
X165541285Y-47232148D01*
X165470102Y-47270196D01*
X165395537Y-47301082D01*
X165328431Y-47345921D01*
X165257248Y-47383969D01*
X165194854Y-47435174D01*
X165127748Y-47480013D01*
X165070681Y-47537080D01*
X165008286Y-47588286D01*
X164957080Y-47650681D01*
X164900013Y-47707748D01*
X164855174Y-47774854D01*
X164850000Y-47781159D01*
X164850000Y-45945547D01*
X173188138Y-45945547D01*
X173188604Y-46012200D01*
X173188139Y-46078776D01*
X173189140Y-46088989D01*
X173224842Y-46428658D01*
X173238245Y-46493952D01*
X173250721Y-46559352D01*
X173253686Y-46569176D01*
X173354685Y-46895442D01*
X173380503Y-46956861D01*
X173405455Y-47018619D01*
X173410273Y-47027680D01*
X173572719Y-47328114D01*
X173609985Y-47383363D01*
X173646449Y-47439085D01*
X173652935Y-47447038D01*
X173870643Y-47710198D01*
X173917954Y-47757179D01*
X173964521Y-47804731D01*
X173972428Y-47811273D01*
X174237103Y-48027135D01*
X174292606Y-48064011D01*
X174347557Y-48101636D01*
X174356579Y-48106514D01*
X174356583Y-48106517D01*
X174356587Y-48106519D01*
X174658146Y-48266859D01*
X174719785Y-48292264D01*
X174780968Y-48318487D01*
X174790767Y-48321521D01*
X174790773Y-48321523D01*
X175117735Y-48420236D01*
X175183100Y-48433178D01*
X175248243Y-48447024D01*
X175258449Y-48448097D01*
X175525816Y-48474311D01*
X175525993Y-48474365D01*
X175633973Y-48485000D01*
X176706184Y-48485000D01*
X176744288Y-48481247D01*
X176766242Y-48481247D01*
X176776448Y-48480175D01*
X177115859Y-48442102D01*
X177181057Y-48428243D01*
X177246366Y-48415312D01*
X177256168Y-48412278D01*
X177256174Y-48412276D01*
X177581723Y-48309004D01*
X177642998Y-48282741D01*
X177704543Y-48257374D01*
X177713566Y-48252496D01*
X177713570Y-48252494D01*
X177713573Y-48252492D01*
X178012864Y-48087953D01*
X178067852Y-48050301D01*
X178123316Y-48013451D01*
X178131223Y-48006910D01*
X178392856Y-47787371D01*
X178439482Y-47739758D01*
X178486734Y-47692834D01*
X178493215Y-47684887D01*
X178493220Y-47684882D01*
X178493224Y-47684877D01*
X178707230Y-47418704D01*
X178743735Y-47362917D01*
X178780957Y-47307733D01*
X178785775Y-47298672D01*
X178944007Y-46995997D01*
X178968976Y-46934196D01*
X178994775Y-46872822D01*
X178997741Y-46862998D01*
X179094172Y-46535352D01*
X179106658Y-46469896D01*
X179120049Y-46404657D01*
X179121051Y-46394443D01*
X179152003Y-46054310D01*
X179151537Y-45987619D01*
X179152001Y-45921082D01*
X179151000Y-45910869D01*
X179115298Y-45571200D01*
X179101895Y-45505906D01*
X179089419Y-45440506D01*
X179086455Y-45430689D01*
X179086454Y-45430683D01*
X179086451Y-45430677D01*
X178985455Y-45104416D01*
X178959628Y-45042977D01*
X178934684Y-44981239D01*
X178929867Y-44972178D01*
X178767420Y-44671743D01*
X178730147Y-44616485D01*
X178693691Y-44560775D01*
X178687205Y-44552822D01*
X178469498Y-44289662D01*
X178422204Y-44242698D01*
X178375618Y-44195126D01*
X178367711Y-44188584D01*
X178103035Y-43972722D01*
X178047539Y-43935851D01*
X177992581Y-43898221D01*
X177983554Y-43893340D01*
X177681991Y-43732999D01*
X177620360Y-43707597D01*
X177559171Y-43681372D01*
X177549367Y-43678337D01*
X177222404Y-43579623D01*
X177157046Y-43566682D01*
X177091896Y-43552835D01*
X177081690Y-43551762D01*
X176741780Y-43518435D01*
X176741778Y-43518435D01*
X176706160Y-43514927D01*
X175633953Y-43514933D01*
X175596601Y-43518612D01*
X175573900Y-43518612D01*
X175563693Y-43519684D01*
X175224282Y-43557757D01*
X175159084Y-43571616D01*
X175093775Y-43584547D01*
X175083973Y-43587581D01*
X175083967Y-43587583D01*
X174758418Y-43690855D01*
X174697166Y-43717108D01*
X174635600Y-43742484D01*
X174626572Y-43747365D01*
X174327279Y-43911904D01*
X174272290Y-43949556D01*
X174216824Y-43986408D01*
X174208916Y-43992949D01*
X173947283Y-44212489D01*
X173900655Y-44260105D01*
X173853408Y-44307024D01*
X173846922Y-44314977D01*
X173632912Y-44581153D01*
X173596407Y-44636939D01*
X173559185Y-44692124D01*
X173554370Y-44701180D01*
X173554367Y-44701184D01*
X173554367Y-44701185D01*
X173396134Y-45003859D01*
X173371161Y-45065669D01*
X173345364Y-45127038D01*
X173342400Y-45136855D01*
X173342398Y-45136861D01*
X173342398Y-45136863D01*
X173245969Y-45464507D01*
X173233483Y-45529966D01*
X173220092Y-45595200D01*
X173219091Y-45605413D01*
X173188138Y-45945547D01*
X164850000Y-45945547D01*
X164850000Y-44238072D01*
X164940000Y-44238072D01*
X165064482Y-44225812D01*
X165184180Y-44189502D01*
X165294494Y-44130537D01*
X165391185Y-44051185D01*
X165470537Y-43954494D01*
X165529502Y-43844180D01*
X165551513Y-43771620D01*
X165683368Y-43903475D01*
X165926589Y-44065990D01*
X166196842Y-44177932D01*
X166483740Y-44235000D01*
X166776260Y-44235000D01*
X167063158Y-44177932D01*
X167333411Y-44065990D01*
X167576632Y-43903475D01*
X167783475Y-43696632D01*
X167905195Y-43514466D01*
X167974822Y-43631355D01*
X168169731Y-43847588D01*
X168403080Y-44021641D01*
X168665901Y-44146825D01*
X168813110Y-44191476D01*
X169043000Y-44070155D01*
X169043000Y-42877000D01*
X169297000Y-42877000D01*
X169297000Y-44070155D01*
X169526890Y-44191476D01*
X169674099Y-44146825D01*
X169936920Y-44021641D01*
X170170269Y-43847588D01*
X170365178Y-43631355D01*
X170514157Y-43381252D01*
X170611481Y-43106891D01*
X170490814Y-42877000D01*
X169297000Y-42877000D01*
X169043000Y-42877000D01*
X169023000Y-42877000D01*
X169023000Y-42623000D01*
X169043000Y-42623000D01*
X169043000Y-41429845D01*
X169297000Y-41429845D01*
X169297000Y-42623000D01*
X170490814Y-42623000D01*
X170611481Y-42393109D01*
X170514157Y-42118748D01*
X170365178Y-41868645D01*
X170170269Y-41652412D01*
X169936920Y-41478359D01*
X169674099Y-41353175D01*
X169526890Y-41308524D01*
X169297000Y-41429845D01*
X169043000Y-41429845D01*
X168813110Y-41308524D01*
X168665901Y-41353175D01*
X168403080Y-41478359D01*
X168169731Y-41652412D01*
X167974822Y-41868645D01*
X167905195Y-41985534D01*
X167783475Y-41803368D01*
X167576632Y-41596525D01*
X167333411Y-41434010D01*
X167063158Y-41322068D01*
X166776260Y-41265000D01*
X166483740Y-41265000D01*
X166196842Y-41322068D01*
X165926589Y-41434010D01*
X165683368Y-41596525D01*
X165551513Y-41728380D01*
X165529502Y-41655820D01*
X165470537Y-41545506D01*
X165391185Y-41448815D01*
X165294494Y-41369463D01*
X165184180Y-41310498D01*
X165064482Y-41274188D01*
X164940000Y-41261928D01*
X163240000Y-41261928D01*
X163115518Y-41274188D01*
X162995820Y-41310498D01*
X162885506Y-41369463D01*
X162788815Y-41448815D01*
X162709463Y-41545506D01*
X162650498Y-41655820D01*
X162614188Y-41775518D01*
X162601928Y-41900000D01*
X162601928Y-43600000D01*
X162614188Y-43724482D01*
X162650498Y-43844180D01*
X162709463Y-43954494D01*
X162788815Y-44051185D01*
X162885506Y-44130537D01*
X162995820Y-44189502D01*
X163115518Y-44225812D01*
X163240000Y-44238072D01*
X163330001Y-44238072D01*
X163330000Y-53178598D01*
X163172627Y-53335971D01*
X163170226Y-53323902D01*
X163092205Y-53135544D01*
X162978937Y-52966026D01*
X162834774Y-52821863D01*
X162665256Y-52708595D01*
X162476898Y-52630574D01*
X162276939Y-52590800D01*
X162073061Y-52590800D01*
X161873102Y-52630574D01*
X161684744Y-52708595D01*
X161515226Y-52821863D01*
X161371063Y-52966026D01*
X161257795Y-53135544D01*
X161179774Y-53323902D01*
X161140000Y-53523861D01*
X161140000Y-53585998D01*
X158410798Y-56315201D01*
X158381800Y-56338999D01*
X158358002Y-56367997D01*
X158358001Y-56367998D01*
X158286826Y-56454724D01*
X158216254Y-56586754D01*
X158191164Y-56669467D01*
X158172798Y-56730014D01*
X158161800Y-56841667D01*
X158161800Y-56841678D01*
X158158124Y-56879000D01*
X158161800Y-56916322D01*
X158161800Y-57471698D01*
X156838493Y-58795006D01*
X156784205Y-58663944D01*
X156670937Y-58494426D01*
X156604902Y-58428391D01*
X156640000Y-58251939D01*
X156640000Y-58048061D01*
X156600226Y-57848102D01*
X156522205Y-57659744D01*
X156408937Y-57490226D01*
X156365000Y-57446289D01*
X156365000Y-52521701D01*
X156670903Y-52215798D01*
X156699901Y-52192001D01*
X156734654Y-52149654D01*
X156794874Y-52076277D01*
X156865446Y-51944247D01*
X156902930Y-51820676D01*
X156908903Y-51800986D01*
X156919900Y-51689333D01*
X156919900Y-51689324D01*
X156923576Y-51652001D01*
X156919900Y-51614678D01*
X156919900Y-47777225D01*
X156923576Y-47739900D01*
X156919900Y-47702575D01*
X156919900Y-47702567D01*
X156908903Y-47590914D01*
X156865446Y-47447653D01*
X156794874Y-47315624D01*
X156699901Y-47199899D01*
X156670903Y-47176101D01*
X155297002Y-45802201D01*
X155297002Y-45726252D01*
X155455750Y-45885000D01*
X156020000Y-45888072D01*
X156144482Y-45875812D01*
X156264180Y-45839502D01*
X156374494Y-45780537D01*
X156471185Y-45701185D01*
X156550537Y-45604494D01*
X156609502Y-45494180D01*
X156645812Y-45374482D01*
X156658072Y-45250000D01*
X156655000Y-44535750D01*
X156496250Y-44377000D01*
X155297000Y-44377000D01*
X155297000Y-44397000D01*
X155043000Y-44397000D01*
X155043000Y-44377000D01*
X155023000Y-44377000D01*
X155023000Y-44123000D01*
X155043000Y-44123000D01*
X155043000Y-42773750D01*
X154884250Y-42615000D01*
X154320000Y-42611928D01*
X154195518Y-42624188D01*
X154075820Y-42660498D01*
X153965506Y-42719463D01*
X153868815Y-42798815D01*
X153789463Y-42895506D01*
X153730498Y-43005820D01*
X153719945Y-43040608D01*
X153499014Y-42859294D01*
X153241034Y-42721401D01*
X152961111Y-42636487D01*
X152670000Y-42607815D01*
X152378890Y-42636487D01*
X152098967Y-42721401D01*
X151840987Y-42859294D01*
X151614866Y-43044866D01*
X151429294Y-43270986D01*
X151291401Y-43528966D01*
X151206487Y-43808889D01*
X151185000Y-44027050D01*
X151185000Y-44472949D01*
X151206487Y-44691110D01*
X151291401Y-44971033D01*
X151429294Y-45229013D01*
X151614866Y-45455134D01*
X151840986Y-45640706D01*
X152098966Y-45778599D01*
X152378889Y-45863513D01*
X152670000Y-45892185D01*
X152961110Y-45863513D01*
X153181965Y-45796517D01*
X153210326Y-45849576D01*
X153242988Y-45889374D01*
X153305299Y-45965301D01*
X153334303Y-45989104D01*
X154480774Y-47135576D01*
X154449483Y-47138658D01*
X154372256Y-47162085D01*
X154293088Y-47177832D01*
X154218513Y-47208722D01*
X154141285Y-47232149D01*
X154070110Y-47270193D01*
X153995537Y-47301082D01*
X153928426Y-47345924D01*
X153857247Y-47383970D01*
X153794857Y-47435172D01*
X153727748Y-47480013D01*
X153670676Y-47537085D01*
X147320687Y-53887075D01*
X147258286Y-53938286D01*
X147053969Y-54187249D01*
X146902148Y-54471286D01*
X146808657Y-54779485D01*
X146785000Y-55019678D01*
X146777089Y-55100000D01*
X146785000Y-55180320D01*
X146785001Y-59659982D01*
X146750537Y-59595506D01*
X146671185Y-59498815D01*
X146574494Y-59419463D01*
X146464180Y-59360498D01*
X146344482Y-59324188D01*
X146220000Y-59311928D01*
X145205750Y-59315000D01*
X145047000Y-59473750D01*
X145047000Y-61123000D01*
X145067000Y-61123000D01*
X145067000Y-61377000D01*
X145047000Y-61377000D01*
X145047000Y-63026250D01*
X145205750Y-63185000D01*
X145751110Y-63186652D01*
X144496414Y-64441348D01*
X144355581Y-64469361D01*
X144003434Y-64615225D01*
X143686509Y-64826987D01*
X143416987Y-65096509D01*
X143330200Y-65226395D01*
X143330200Y-63115117D01*
X143375820Y-63139502D01*
X143495518Y-63175812D01*
X143620000Y-63188072D01*
X144634250Y-63185000D01*
X144793000Y-63026250D01*
X144793000Y-61377000D01*
X144773000Y-61377000D01*
X144773000Y-61123000D01*
X144793000Y-61123000D01*
X144793000Y-59473750D01*
X144634250Y-59315000D01*
X143620000Y-59311928D01*
X143495518Y-59324188D01*
X143375820Y-59360498D01*
X143330200Y-59384883D01*
X143330200Y-57576170D01*
X143438349Y-57602719D01*
X143705982Y-57614604D01*
X143970791Y-57574048D01*
X144222600Y-57482609D01*
X144329535Y-57425450D01*
X144392028Y-57189133D01*
X143632500Y-56429605D01*
X143618358Y-56443748D01*
X143438753Y-56264143D01*
X143452895Y-56250000D01*
X143812105Y-56250000D01*
X144571633Y-57009528D01*
X144807950Y-56947035D01*
X144921350Y-56704322D01*
X144985219Y-56444151D01*
X144997104Y-56176518D01*
X144956548Y-55911709D01*
X144865109Y-55659900D01*
X144807950Y-55552965D01*
X144571633Y-55490472D01*
X143812105Y-56250000D01*
X143452895Y-56250000D01*
X143438753Y-56235858D01*
X143618358Y-56056253D01*
X143632500Y-56070395D01*
X144392028Y-55310867D01*
X144334683Y-55094018D01*
X145951802Y-53476900D01*
X146013939Y-53476900D01*
X146213898Y-53437126D01*
X146402256Y-53359105D01*
X146571774Y-53245837D01*
X146715937Y-53101674D01*
X146829205Y-52932156D01*
X146907226Y-52743798D01*
X146947000Y-52543839D01*
X146947000Y-52339961D01*
X146907226Y-52140002D01*
X146829205Y-51951644D01*
X146715937Y-51782126D01*
X146571774Y-51637963D01*
X146402256Y-51524695D01*
X146213898Y-51446674D01*
X146013939Y-51406900D01*
X145810061Y-51406900D01*
X145610102Y-51446674D01*
X145421744Y-51524695D01*
X145252226Y-51637963D01*
X145108063Y-51782126D01*
X144994795Y-51951644D01*
X144916774Y-52140002D01*
X144877000Y-52339961D01*
X144877000Y-52402098D01*
X142059203Y-55219896D01*
X142030199Y-55243699D01*
X141975076Y-55310867D01*
X141935226Y-55359424D01*
X141887826Y-55448102D01*
X141864654Y-55491454D01*
X141821197Y-55634715D01*
X141810200Y-55746368D01*
X141810200Y-55746378D01*
X141806524Y-55783700D01*
X141810200Y-55821022D01*
X141810200Y-56131513D01*
X141647996Y-56063507D01*
X141409500Y-56015000D01*
X141059500Y-56015000D01*
X141059500Y-57123000D01*
X141079500Y-57123000D01*
X141079500Y-57377000D01*
X141059500Y-57377000D01*
X141059500Y-58485000D01*
X141409500Y-58485000D01*
X141647996Y-58436493D01*
X141810200Y-58368487D01*
X141810201Y-68918968D01*
X141806524Y-68956300D01*
X141810201Y-68993633D01*
X141821198Y-69105286D01*
X141834380Y-69148742D01*
X141864654Y-69248546D01*
X141935226Y-69380576D01*
X141978822Y-69433697D01*
X142030200Y-69496301D01*
X142059198Y-69520099D01*
X142069279Y-69530180D01*
X141979549Y-69548029D01*
X141704747Y-69661856D01*
X141457431Y-69827107D01*
X141247107Y-70037431D01*
X141081856Y-70284747D01*
X140968029Y-70559549D01*
X140910000Y-70851278D01*
X140910000Y-71148722D01*
X140968029Y-71440451D01*
X141081856Y-71715253D01*
X141247107Y-71962569D01*
X141457431Y-72172893D01*
X141704747Y-72338144D01*
X141979549Y-72451971D01*
X142271278Y-72510000D01*
X142568722Y-72510000D01*
X142860451Y-72451971D01*
X143135253Y-72338144D01*
X143382569Y-72172893D01*
X143592893Y-71962569D01*
X143758144Y-71715253D01*
X143871971Y-71440451D01*
X143889820Y-71350721D01*
X148058000Y-75518903D01*
X148058001Y-76141688D01*
X148014063Y-76185626D01*
X148011693Y-76189173D01*
X147985456Y-76104415D01*
X147959629Y-76042976D01*
X147934685Y-75981238D01*
X147929868Y-75972177D01*
X147767421Y-75671742D01*
X147730148Y-75616484D01*
X147693692Y-75560774D01*
X147687206Y-75552821D01*
X147469499Y-75289661D01*
X147422205Y-75242697D01*
X147375619Y-75195125D01*
X147367712Y-75188583D01*
X147103036Y-74972721D01*
X147047540Y-74935850D01*
X146992582Y-74898220D01*
X146983555Y-74893339D01*
X146681992Y-74732998D01*
X146620361Y-74707596D01*
X146559172Y-74681371D01*
X146549368Y-74678336D01*
X146222405Y-74579622D01*
X146157047Y-74566681D01*
X146091897Y-74552834D01*
X146081691Y-74551761D01*
X145741781Y-74518434D01*
X145741779Y-74518434D01*
X145706161Y-74514926D01*
X144633954Y-74514932D01*
X144596602Y-74518611D01*
X144573901Y-74518611D01*
X144563694Y-74519683D01*
X144224283Y-74557756D01*
X144159085Y-74571615D01*
X144093776Y-74584546D01*
X144083974Y-74587580D01*
X144083968Y-74587582D01*
X143758419Y-74690854D01*
X143697167Y-74717107D01*
X143635601Y-74742483D01*
X143626573Y-74747364D01*
X143327280Y-74911903D01*
X143272291Y-74949555D01*
X143216825Y-74986407D01*
X143208917Y-74992948D01*
X142947284Y-75212488D01*
X142900656Y-75260104D01*
X142853409Y-75307023D01*
X142846923Y-75314976D01*
X142632913Y-75581152D01*
X142596408Y-75636938D01*
X142559186Y-75692123D01*
X142554371Y-75701179D01*
X142554368Y-75701183D01*
X142554368Y-75701184D01*
X142396135Y-76003858D01*
X142371162Y-76065668D01*
X142345365Y-76127037D01*
X142342401Y-76136854D01*
X142342399Y-76136860D01*
X142342399Y-76136862D01*
X142245970Y-76464506D01*
X142233484Y-76529965D01*
X142220093Y-76595199D01*
X142219092Y-76605412D01*
X142188139Y-76945546D01*
X142188605Y-77012199D01*
X142188140Y-77078775D01*
X142189141Y-77088988D01*
X142224843Y-77428657D01*
X142238246Y-77493951D01*
X142250722Y-77559351D01*
X142253687Y-77569175D01*
X142354686Y-77895441D01*
X142380504Y-77956860D01*
X142405456Y-78018618D01*
X142410274Y-78027679D01*
X142572720Y-78328113D01*
X142609986Y-78383362D01*
X142646450Y-78439084D01*
X142652936Y-78447037D01*
X142870644Y-78710197D01*
X142917955Y-78757178D01*
X142964522Y-78804730D01*
X142972429Y-78811272D01*
X143237104Y-79027134D01*
X143292607Y-79064010D01*
X143347558Y-79101635D01*
X143356580Y-79106513D01*
X143356584Y-79106516D01*
X143356588Y-79106518D01*
X143658147Y-79266858D01*
X143719786Y-79292263D01*
X143780969Y-79318486D01*
X143790768Y-79321520D01*
X143790774Y-79321522D01*
X144117736Y-79420235D01*
X144183101Y-79433177D01*
X144248244Y-79447023D01*
X144258450Y-79448096D01*
X144525813Y-79474310D01*
X144525994Y-79474365D01*
X144633974Y-79485000D01*
X145706185Y-79485000D01*
X145744299Y-79481246D01*
X145766243Y-79481246D01*
X145776449Y-79480174D01*
X146115860Y-79442101D01*
X146181058Y-79428242D01*
X146246367Y-79415311D01*
X146256169Y-79412277D01*
X146256175Y-79412275D01*
X146581724Y-79309003D01*
X146642999Y-79282740D01*
X146704544Y-79257373D01*
X146713567Y-79252495D01*
X146713571Y-79252493D01*
X146713574Y-79252491D01*
X147012865Y-79087952D01*
X147067853Y-79050300D01*
X147123317Y-79013450D01*
X147131224Y-79006909D01*
X147392857Y-78787370D01*
X147439483Y-78739757D01*
X147486735Y-78692833D01*
X147493216Y-78684886D01*
X147493221Y-78684881D01*
X147493225Y-78684876D01*
X147707231Y-78418703D01*
X147743736Y-78362916D01*
X147780958Y-78307732D01*
X147785776Y-78298671D01*
X147944008Y-77995996D01*
X147968977Y-77934195D01*
X147994776Y-77872821D01*
X147997742Y-77862997D01*
X148082819Y-77573930D01*
X148158226Y-77649337D01*
X148327744Y-77762605D01*
X148516102Y-77840626D01*
X148716061Y-77880400D01*
X148919939Y-77880400D01*
X149119898Y-77840626D01*
X149308256Y-77762605D01*
X149477774Y-77649337D01*
X149621937Y-77505174D01*
X149735205Y-77335656D01*
X149813226Y-77147298D01*
X149853000Y-76947339D01*
X149853000Y-76743461D01*
X149813226Y-76543502D01*
X149735205Y-76355144D01*
X149621937Y-76185626D01*
X149578000Y-76141689D01*
X149578000Y-75241422D01*
X149581676Y-75204099D01*
X149578000Y-75166776D01*
X149578000Y-75166767D01*
X149567003Y-75055114D01*
X149523546Y-74911853D01*
X149452974Y-74779824D01*
X149420188Y-74739874D01*
X149381799Y-74693096D01*
X149381795Y-74693092D01*
X149358001Y-74664099D01*
X149329009Y-74640306D01*
X146734943Y-72046240D01*
X148053365Y-72046240D01*
X148134025Y-72297868D01*
X148402329Y-72426267D01*
X148690526Y-72499855D01*
X148987543Y-72515804D01*
X149281963Y-72473501D01*
X149562474Y-72374572D01*
X149705975Y-72297868D01*
X149786635Y-72046240D01*
X148920000Y-71179605D01*
X148053365Y-72046240D01*
X146734943Y-72046240D01*
X145756245Y-71067543D01*
X147404196Y-71067543D01*
X147446499Y-71361963D01*
X147545428Y-71642474D01*
X147622132Y-71785975D01*
X147873760Y-71866635D01*
X148740395Y-71000000D01*
X149099605Y-71000000D01*
X149966240Y-71866635D01*
X150217868Y-71785975D01*
X150346267Y-71517671D01*
X150419855Y-71229474D01*
X150435804Y-70932457D01*
X150393501Y-70638037D01*
X150294572Y-70357526D01*
X150217868Y-70214025D01*
X149966240Y-70133365D01*
X149099605Y-71000000D01*
X148740395Y-71000000D01*
X147873760Y-70133365D01*
X147622132Y-70214025D01*
X147493733Y-70482329D01*
X147420145Y-70770526D01*
X147404196Y-71067543D01*
X145756245Y-71067543D01*
X144642462Y-69953760D01*
X148053365Y-69953760D01*
X148920000Y-70820395D01*
X149786635Y-69953760D01*
X149705975Y-69702132D01*
X149437671Y-69573733D01*
X149149474Y-69500145D01*
X148852457Y-69484196D01*
X148558037Y-69526499D01*
X148277526Y-69625428D01*
X148134025Y-69702132D01*
X148053365Y-69953760D01*
X144642462Y-69953760D01*
X143330200Y-68641499D01*
X143330200Y-67433605D01*
X143416987Y-67563491D01*
X143686509Y-67833013D01*
X144003434Y-68044775D01*
X144355581Y-68190639D01*
X144729419Y-68265000D01*
X145110581Y-68265000D01*
X145484419Y-68190639D01*
X145836566Y-68044775D01*
X146153491Y-67833013D01*
X146423013Y-67563491D01*
X146634775Y-67246566D01*
X146780639Y-66894419D01*
X146808652Y-66753586D01*
X149519319Y-64042920D01*
X149581714Y-63991714D01*
X149786031Y-63742752D01*
X149937852Y-63458715D01*
X150031343Y-63150516D01*
X150055000Y-62910322D01*
X150055000Y-62910320D01*
X150062911Y-62830001D01*
X150055000Y-62749681D01*
X150055000Y-55777238D01*
X155399900Y-50432339D01*
X155399900Y-51337198D01*
X155093998Y-51643101D01*
X155065000Y-51666899D01*
X155041202Y-51695897D01*
X155041201Y-51695898D01*
X154970026Y-51782624D01*
X154899454Y-51914654D01*
X154889632Y-51947035D01*
X154855998Y-52057914D01*
X154853539Y-52082883D01*
X154841324Y-52206900D01*
X154845001Y-52244232D01*
X154845000Y-57194779D01*
X154831776Y-57183926D01*
X154699747Y-57113354D01*
X154556486Y-57069897D01*
X154444833Y-57058900D01*
X154444822Y-57058900D01*
X154407500Y-57055224D01*
X154370178Y-57058900D01*
X153770323Y-57058900D01*
X153733000Y-57055224D01*
X153695677Y-57058900D01*
X153695667Y-57058900D01*
X153584014Y-57069897D01*
X153440753Y-57113354D01*
X153308724Y-57183926D01*
X153192999Y-57278899D01*
X153169196Y-57307903D01*
X152818803Y-57658296D01*
X152789799Y-57682099D01*
X152734671Y-57749274D01*
X152694826Y-57797824D01*
X152633035Y-57913426D01*
X152624254Y-57929854D01*
X152580797Y-58073115D01*
X152569800Y-58184768D01*
X152569800Y-58184778D01*
X152566124Y-58222100D01*
X152569800Y-58259422D01*
X152569801Y-78867067D01*
X152566124Y-78904400D01*
X152569801Y-78941733D01*
X152580798Y-79053386D01*
X152583189Y-79061268D01*
X152624254Y-79196646D01*
X152694826Y-79328676D01*
X152725103Y-79365568D01*
X152789800Y-79444401D01*
X152818798Y-79468199D01*
X155115598Y-81765000D01*
X141705947Y-81765000D01*
X141424979Y-81737451D01*
X141189288Y-81666291D01*
X140971912Y-81550711D01*
X140781121Y-81395104D01*
X140624189Y-81205408D01*
X140507094Y-80988843D01*
X140434291Y-80753656D01*
X140405000Y-80474972D01*
X140404999Y-58474729D01*
X140455500Y-58485000D01*
X140805500Y-58485000D01*
X140805500Y-57377000D01*
X140785500Y-57377000D01*
X140785500Y-57123000D01*
X140805500Y-57123000D01*
X140805500Y-56015000D01*
X140455500Y-56015000D01*
X140404999Y-56025271D01*
X140404999Y-52189133D01*
X142872972Y-52189133D01*
X142935465Y-52425450D01*
X143178178Y-52538850D01*
X143438349Y-52602719D01*
X143705982Y-52614604D01*
X143970791Y-52574048D01*
X144222600Y-52482609D01*
X144329535Y-52425450D01*
X144392028Y-52189133D01*
X143632500Y-51429605D01*
X142872972Y-52189133D01*
X140404999Y-52189133D01*
X140404998Y-51474729D01*
X140455500Y-51485000D01*
X140805500Y-51485000D01*
X140805500Y-50377000D01*
X141059500Y-50377000D01*
X141059500Y-51485000D01*
X141409500Y-51485000D01*
X141647996Y-51436493D01*
X141872446Y-51342390D01*
X142074225Y-51206307D01*
X142245578Y-51033474D01*
X142308671Y-50938164D01*
X142279781Y-51055849D01*
X142267896Y-51323482D01*
X142308452Y-51588291D01*
X142399891Y-51840100D01*
X142457050Y-51947035D01*
X142693367Y-52009528D01*
X143452895Y-51250000D01*
X143812105Y-51250000D01*
X144571633Y-52009528D01*
X144807950Y-51947035D01*
X144921350Y-51704322D01*
X144985219Y-51444151D01*
X144997104Y-51176518D01*
X144956548Y-50911709D01*
X144865109Y-50659900D01*
X144807950Y-50552965D01*
X144571633Y-50490472D01*
X143812105Y-51250000D01*
X143452895Y-51250000D01*
X142693367Y-50490472D01*
X142465003Y-50550862D01*
X142351231Y-50377000D01*
X141059500Y-50377000D01*
X140805500Y-50377000D01*
X140785500Y-50377000D01*
X140785500Y-50310867D01*
X142872972Y-50310867D01*
X143632500Y-51070395D01*
X144392028Y-50310867D01*
X144329535Y-50074550D01*
X144086822Y-49961150D01*
X143826651Y-49897281D01*
X143559018Y-49885396D01*
X143294209Y-49925952D01*
X143042400Y-50017391D01*
X142935465Y-50074550D01*
X142872972Y-50310867D01*
X140785500Y-50310867D01*
X140785500Y-50123000D01*
X140805500Y-50123000D01*
X140805500Y-49015000D01*
X141059500Y-49015000D01*
X141059500Y-50123000D01*
X142351231Y-50123000D01*
X142475962Y-49932391D01*
X142472091Y-49894718D01*
X142379921Y-49669467D01*
X142245578Y-49466526D01*
X142074225Y-49293693D01*
X141872446Y-49157610D01*
X141647996Y-49063507D01*
X141409500Y-49015000D01*
X141059500Y-49015000D01*
X140805500Y-49015000D01*
X140455500Y-49015000D01*
X140404998Y-49025271D01*
X140404998Y-45945547D01*
X142188139Y-45945547D01*
X142188605Y-46012200D01*
X142188140Y-46078776D01*
X142189141Y-46088989D01*
X142224843Y-46428658D01*
X142238246Y-46493952D01*
X142250722Y-46559352D01*
X142253687Y-46569176D01*
X142354686Y-46895442D01*
X142380504Y-46956861D01*
X142405456Y-47018619D01*
X142410274Y-47027680D01*
X142572720Y-47328114D01*
X142609986Y-47383363D01*
X142646450Y-47439085D01*
X142652936Y-47447038D01*
X142870644Y-47710198D01*
X142917955Y-47757179D01*
X142964522Y-47804731D01*
X142972429Y-47811273D01*
X143237104Y-48027135D01*
X143292607Y-48064011D01*
X143347558Y-48101636D01*
X143356580Y-48106514D01*
X143356584Y-48106517D01*
X143356588Y-48106519D01*
X143658147Y-48266859D01*
X143719786Y-48292264D01*
X143780969Y-48318487D01*
X143790768Y-48321521D01*
X143790774Y-48321523D01*
X144117736Y-48420236D01*
X144183101Y-48433178D01*
X144248244Y-48447024D01*
X144258450Y-48448097D01*
X144525701Y-48474300D01*
X144525915Y-48474365D01*
X144633895Y-48485000D01*
X145706105Y-48485000D01*
X145744209Y-48481247D01*
X145766243Y-48481247D01*
X145776449Y-48480175D01*
X146115860Y-48442102D01*
X146181058Y-48428243D01*
X146246367Y-48415312D01*
X146256169Y-48412278D01*
X146256175Y-48412276D01*
X146581724Y-48309004D01*
X146642999Y-48282741D01*
X146704544Y-48257374D01*
X146713567Y-48252496D01*
X146713571Y-48252494D01*
X146713574Y-48252492D01*
X147012865Y-48087953D01*
X147067853Y-48050301D01*
X147123317Y-48013451D01*
X147131224Y-48006910D01*
X147392857Y-47787371D01*
X147439483Y-47739758D01*
X147486735Y-47692834D01*
X147493216Y-47684887D01*
X147493221Y-47684882D01*
X147493225Y-47684877D01*
X147707231Y-47418704D01*
X147743736Y-47362917D01*
X147780958Y-47307733D01*
X147785776Y-47298672D01*
X147944008Y-46995997D01*
X147968977Y-46934196D01*
X147994776Y-46872822D01*
X147997742Y-46862998D01*
X148094173Y-46535352D01*
X148106659Y-46469896D01*
X148120050Y-46404657D01*
X148121052Y-46394443D01*
X148152004Y-46054310D01*
X148151538Y-45987619D01*
X148152002Y-45921082D01*
X148151001Y-45910869D01*
X148115299Y-45571200D01*
X148101896Y-45505906D01*
X148089420Y-45440506D01*
X148086456Y-45430689D01*
X148086455Y-45430683D01*
X148086452Y-45430677D01*
X147985456Y-45104416D01*
X147959629Y-45042977D01*
X147934685Y-44981239D01*
X147929868Y-44972178D01*
X147767421Y-44671743D01*
X147730148Y-44616485D01*
X147693692Y-44560775D01*
X147687206Y-44552822D01*
X147469499Y-44289662D01*
X147422205Y-44242698D01*
X147375619Y-44195126D01*
X147367712Y-44188584D01*
X147103036Y-43972722D01*
X147047540Y-43935851D01*
X146992582Y-43898221D01*
X146983555Y-43893340D01*
X146681992Y-43732999D01*
X146620361Y-43707597D01*
X146559172Y-43681372D01*
X146549368Y-43678337D01*
X146222405Y-43579623D01*
X146157047Y-43566682D01*
X146091897Y-43552835D01*
X146081691Y-43551762D01*
X145741781Y-43518435D01*
X145741779Y-43518435D01*
X145706161Y-43514927D01*
X144633954Y-43514933D01*
X144596602Y-43518612D01*
X144573901Y-43518612D01*
X144563694Y-43519684D01*
X144224283Y-43557757D01*
X144159085Y-43571616D01*
X144093776Y-43584547D01*
X144083974Y-43587581D01*
X144083968Y-43587583D01*
X143758419Y-43690855D01*
X143697167Y-43717108D01*
X143635601Y-43742484D01*
X143626573Y-43747365D01*
X143327280Y-43911904D01*
X143272291Y-43949556D01*
X143216825Y-43986408D01*
X143208917Y-43992949D01*
X142947284Y-44212489D01*
X142900656Y-44260105D01*
X142853409Y-44307024D01*
X142846923Y-44314977D01*
X142632913Y-44581153D01*
X142596408Y-44636939D01*
X142559186Y-44692124D01*
X142554371Y-44701180D01*
X142554368Y-44701184D01*
X142554368Y-44701185D01*
X142396135Y-45003859D01*
X142371162Y-45065669D01*
X142345365Y-45127038D01*
X142342401Y-45136855D01*
X142342399Y-45136861D01*
X142342399Y-45136863D01*
X142245970Y-45464507D01*
X142233484Y-45529966D01*
X142220093Y-45595200D01*
X142219092Y-45605413D01*
X142188139Y-45945547D01*
X140404998Y-45945547D01*
X140404998Y-42535965D01*
X140432548Y-42254978D01*
X140503706Y-42019294D01*
X140619290Y-41801911D01*
X140774895Y-41611120D01*
X140964592Y-41454189D01*
X141181156Y-41337094D01*
X141416343Y-41264291D01*
X141695027Y-41235000D01*
X156066113Y-41235000D01*
X155982733Y-41290713D01*
G37*
X155982733Y-41290713D02*
X155810713Y-41462733D01*
X155675557Y-41665008D01*
X155582460Y-41889764D01*
X155535000Y-42128363D01*
X155535000Y-42371637D01*
X155582460Y-42610236D01*
X155584144Y-42614301D01*
X155455750Y-42615000D01*
X155297000Y-42773750D01*
X155297000Y-44123000D01*
X156496250Y-44123000D01*
X156655000Y-43964250D01*
X156657061Y-43485000D01*
X156891637Y-43485000D01*
X157130236Y-43437540D01*
X157354992Y-43344443D01*
X157557267Y-43209287D01*
X157729287Y-43037267D01*
X157864443Y-42834992D01*
X157957540Y-42610236D01*
X158005000Y-42371637D01*
X158005000Y-42128363D01*
X157957540Y-41889764D01*
X157864443Y-41665008D01*
X157729287Y-41462733D01*
X157557267Y-41290713D01*
X157473887Y-41235000D01*
X179634042Y-41235000D01*
X179915020Y-41262550D01*
X180150712Y-41333710D01*
X180368087Y-41449290D01*
X180558877Y-41604894D01*
X180715806Y-41794589D01*
X180832907Y-42011162D01*
X180905708Y-42246343D01*
X180934999Y-42525034D01*
X180934998Y-80464063D01*
X180907450Y-80745021D01*
X180836290Y-80980712D01*
X180720710Y-81198088D01*
X180565103Y-81388879D01*
X180375407Y-81545811D01*
X180158842Y-81662906D01*
X179923655Y-81735709D01*
X179644971Y-81765000D01*
X162926783Y-81765000D01*
X162933200Y-81732739D01*
X162933200Y-81670601D01*
X163667204Y-80936598D01*
X163696201Y-80912801D01*
X163791174Y-80797076D01*
X163861746Y-80665047D01*
X163905203Y-80521786D01*
X163916200Y-80410133D01*
X163916200Y-80410125D01*
X163919876Y-80372800D01*
X163916200Y-80335475D01*
X163916200Y-74819011D01*
X163981226Y-74884037D01*
X164150744Y-74997305D01*
X164339102Y-75075326D01*
X164539061Y-75115100D01*
X164601199Y-75115100D01*
X167583001Y-78096903D01*
X167583000Y-79374489D01*
X167539063Y-79418426D01*
X167425795Y-79587944D01*
X167347774Y-79776302D01*
X167308000Y-79976261D01*
X167308000Y-80180139D01*
X167347774Y-80380098D01*
X167425795Y-80568456D01*
X167539063Y-80737974D01*
X167683226Y-80882137D01*
X167852744Y-80995405D01*
X168041102Y-81073426D01*
X168241061Y-81113200D01*
X168444939Y-81113200D01*
X168644898Y-81073426D01*
X168833256Y-80995405D01*
X169002774Y-80882137D01*
X169146937Y-80737974D01*
X169260205Y-80568456D01*
X169338226Y-80380098D01*
X169378000Y-80180139D01*
X169378000Y-79976261D01*
X169338226Y-79776302D01*
X169260205Y-79587944D01*
X169146937Y-79418426D01*
X169103000Y-79374489D01*
X169103000Y-77819433D01*
X169106677Y-77782100D01*
X169092003Y-77633114D01*
X169048546Y-77489853D01*
X168977974Y-77357824D01*
X168906799Y-77271097D01*
X168883001Y-77242099D01*
X168854003Y-77218301D01*
X168581248Y-76945546D01*
X173188138Y-76945546D01*
X173188604Y-77012199D01*
X173188139Y-77078775D01*
X173189140Y-77088988D01*
X173224842Y-77428657D01*
X173238245Y-77493951D01*
X173250721Y-77559351D01*
X173253686Y-77569175D01*
X173354685Y-77895441D01*
X173380503Y-77956860D01*
X173405455Y-78018618D01*
X173410273Y-78027679D01*
X173572719Y-78328113D01*
X173609985Y-78383362D01*
X173646449Y-78439084D01*
X173652935Y-78447037D01*
X173870643Y-78710197D01*
X173917954Y-78757178D01*
X173964521Y-78804730D01*
X173972428Y-78811272D01*
X174237103Y-79027134D01*
X174292606Y-79064010D01*
X174347557Y-79101635D01*
X174356579Y-79106513D01*
X174356583Y-79106516D01*
X174356587Y-79106518D01*
X174658146Y-79266858D01*
X174719785Y-79292263D01*
X174780968Y-79318486D01*
X174790767Y-79321520D01*
X174790773Y-79321522D01*
X175117735Y-79420235D01*
X175183100Y-79433177D01*
X175248243Y-79447023D01*
X175258449Y-79448096D01*
X175525812Y-79474310D01*
X175525993Y-79474365D01*
X175633973Y-79485000D01*
X176706184Y-79485000D01*
X176744298Y-79481246D01*
X176766242Y-79481246D01*
X176776448Y-79480174D01*
X177115859Y-79442101D01*
X177181057Y-79428242D01*
X177246366Y-79415311D01*
X177256168Y-79412277D01*
X177256174Y-79412275D01*
X177581723Y-79309003D01*
X177642998Y-79282740D01*
X177704543Y-79257373D01*
X177713566Y-79252495D01*
X177713570Y-79252493D01*
X177713573Y-79252491D01*
X178012864Y-79087952D01*
X178067852Y-79050300D01*
X178123316Y-79013450D01*
X178131223Y-79006909D01*
X178392856Y-78787370D01*
X178439482Y-78739757D01*
X178486734Y-78692833D01*
X178493215Y-78684886D01*
X178493220Y-78684881D01*
X178493224Y-78684876D01*
X178707230Y-78418703D01*
X178743735Y-78362916D01*
X178780957Y-78307732D01*
X178785775Y-78298671D01*
X178944007Y-77995996D01*
X178968976Y-77934195D01*
X178994775Y-77872821D01*
X178997741Y-77862997D01*
X179094172Y-77535351D01*
X179106658Y-77469895D01*
X179120049Y-77404656D01*
X179121051Y-77394442D01*
X179152003Y-77054309D01*
X179151537Y-76987618D01*
X179152001Y-76921081D01*
X179151000Y-76910868D01*
X179115298Y-76571199D01*
X179101895Y-76505905D01*
X179089419Y-76440505D01*
X179086455Y-76430688D01*
X179086454Y-76430682D01*
X179086451Y-76430676D01*
X178985455Y-76104415D01*
X178959628Y-76042976D01*
X178934684Y-75981238D01*
X178929867Y-75972177D01*
X178767420Y-75671742D01*
X178730147Y-75616484D01*
X178693691Y-75560774D01*
X178687205Y-75552821D01*
X178469498Y-75289661D01*
X178422204Y-75242697D01*
X178375618Y-75195125D01*
X178367711Y-75188583D01*
X178103035Y-74972721D01*
X178047539Y-74935850D01*
X177992581Y-74898220D01*
X177983554Y-74893339D01*
X177681991Y-74732998D01*
X177620360Y-74707596D01*
X177559171Y-74681371D01*
X177549367Y-74678336D01*
X177222404Y-74579622D01*
X177157046Y-74566681D01*
X177091896Y-74552834D01*
X177081690Y-74551761D01*
X176741780Y-74518434D01*
X176741778Y-74518434D01*
X176706160Y-74514926D01*
X175633953Y-74514932D01*
X175596601Y-74518611D01*
X175573900Y-74518611D01*
X175563693Y-74519683D01*
X175224282Y-74557756D01*
X175159084Y-74571615D01*
X175093775Y-74584546D01*
X175083973Y-74587580D01*
X175083967Y-74587582D01*
X174758418Y-74690854D01*
X174697166Y-74717107D01*
X174635600Y-74742483D01*
X174626572Y-74747364D01*
X174327279Y-74911903D01*
X174272290Y-74949555D01*
X174216824Y-74986407D01*
X174208916Y-74992948D01*
X173947283Y-75212488D01*
X173900655Y-75260104D01*
X173853408Y-75307023D01*
X173846922Y-75314976D01*
X173632912Y-75581152D01*
X173596407Y-75636938D01*
X173559185Y-75692123D01*
X173554370Y-75701179D01*
X173554367Y-75701183D01*
X173554367Y-75701184D01*
X173396134Y-76003858D01*
X173371161Y-76065668D01*
X173345364Y-76127037D01*
X173342400Y-76136854D01*
X173342398Y-76136860D01*
X173342398Y-76136862D01*
X173245969Y-76464506D01*
X173233483Y-76529965D01*
X173220092Y-76595199D01*
X173219091Y-76605412D01*
X173188138Y-76945546D01*
X168581248Y-76945546D01*
X165676000Y-74040299D01*
X165676000Y-73978161D01*
X165636226Y-73778202D01*
X165558205Y-73589844D01*
X165444937Y-73420326D01*
X165300774Y-73276163D01*
X165131256Y-73162895D01*
X164942898Y-73084874D01*
X164742939Y-73045100D01*
X164680801Y-73045100D01*
X164622900Y-72987199D01*
X164622900Y-71476890D01*
X175228524Y-71476890D01*
X175273175Y-71624099D01*
X175398359Y-71886920D01*
X175572412Y-72120269D01*
X175788645Y-72315178D01*
X176038748Y-72464157D01*
X176313109Y-72561481D01*
X176543000Y-72440814D01*
X176543000Y-71247000D01*
X175349845Y-71247000D01*
X175228524Y-71476890D01*
X164622900Y-71476890D01*
X164622900Y-67780501D01*
X164765440Y-67637961D01*
X166428600Y-67637961D01*
X166428600Y-67841839D01*
X166468374Y-68041798D01*
X166546395Y-68230156D01*
X166659663Y-68399674D01*
X166746001Y-68486012D01*
X166758054Y-68525747D01*
X166828626Y-68657776D01*
X166923600Y-68773501D01*
X166952598Y-68797299D01*
X168629700Y-70474403D01*
X168629700Y-70536539D01*
X168669474Y-70736498D01*
X168747495Y-70924856D01*
X168860763Y-71094374D01*
X169004926Y-71238537D01*
X169174444Y-71351805D01*
X169362802Y-71429826D01*
X169562761Y-71469600D01*
X169766639Y-71469600D01*
X169966598Y-71429826D01*
X170154956Y-71351805D01*
X170324474Y-71238537D01*
X170468637Y-71094374D01*
X170581905Y-70924856D01*
X170659926Y-70736498D01*
X170699700Y-70536539D01*
X170699700Y-70332661D01*
X170659926Y-70132702D01*
X170581905Y-69944344D01*
X170468637Y-69774826D01*
X170324474Y-69630663D01*
X170154956Y-69517395D01*
X169966598Y-69439374D01*
X169766639Y-69399600D01*
X169704503Y-69399600D01*
X168425985Y-68121083D01*
X168458826Y-68041798D01*
X168498600Y-67841839D01*
X168498600Y-67637961D01*
X168458826Y-67438002D01*
X168380805Y-67249644D01*
X168267537Y-67080126D01*
X168123374Y-66935963D01*
X167953856Y-66822695D01*
X167765498Y-66744674D01*
X167565539Y-66704900D01*
X167361661Y-66704900D01*
X167161702Y-66744674D01*
X166973344Y-66822695D01*
X166803826Y-66935963D01*
X166659663Y-67080126D01*
X166546395Y-67249644D01*
X166468374Y-67438002D01*
X166428600Y-67637961D01*
X164765440Y-67637961D01*
X165015802Y-67387600D01*
X165077939Y-67387600D01*
X165277898Y-67347826D01*
X165466256Y-67269805D01*
X165635774Y-67156537D01*
X165779937Y-67012374D01*
X165893205Y-66842856D01*
X165971226Y-66654498D01*
X166011000Y-66454539D01*
X166011000Y-66250661D01*
X165971226Y-66050702D01*
X165893205Y-65862344D01*
X165779937Y-65692826D01*
X165635774Y-65548663D01*
X165466256Y-65435395D01*
X165394000Y-65405465D01*
X165394000Y-57578711D01*
X165437937Y-57534774D01*
X165551205Y-57365256D01*
X165629226Y-57176898D01*
X165669000Y-56976939D01*
X165669000Y-56773061D01*
X165629226Y-56573102D01*
X165551205Y-56384744D01*
X165437937Y-56215226D01*
X165394000Y-56171289D01*
X165394000Y-52100801D01*
X166681004Y-50813798D01*
X166710001Y-50790001D01*
X166785421Y-50698102D01*
X166804974Y-50674277D01*
X166875546Y-50542247D01*
X166875546Y-50542246D01*
X166919003Y-50398986D01*
X166920381Y-50385000D01*
X167285000Y-50385000D01*
X167285000Y-52000000D01*
X167290432Y-52082883D01*
X167307469Y-52212293D01*
X167350373Y-52372414D01*
X167400323Y-52493004D01*
X167483210Y-52636567D01*
X167562670Y-52740120D01*
X167679880Y-52857330D01*
X167783433Y-52936790D01*
X167926996Y-53019677D01*
X168047586Y-53069627D01*
X168207707Y-53112531D01*
X168337117Y-53129568D01*
X168420000Y-53135000D01*
X174155492Y-53135000D01*
X174245144Y-53128639D01*
X174307506Y-53119745D01*
X174531348Y-53343588D01*
X174559361Y-53484419D01*
X174705225Y-53836566D01*
X174916987Y-54153491D01*
X175186509Y-54423013D01*
X175503434Y-54634775D01*
X175855581Y-54780639D01*
X175996414Y-54808652D01*
X177249689Y-56061928D01*
X175379954Y-56061928D01*
X173515460Y-54197434D01*
X173453011Y-54142668D01*
X173349457Y-54063208D01*
X173205897Y-53980323D01*
X173085307Y-53930373D01*
X172925186Y-53887469D01*
X172795776Y-53870432D01*
X172712893Y-53865000D01*
X169670000Y-53865000D01*
X169587117Y-53870432D01*
X169457707Y-53887469D01*
X169297586Y-53930373D01*
X169176996Y-53980323D01*
X169033433Y-54063210D01*
X168929880Y-54142670D01*
X168812670Y-54259880D01*
X168733210Y-54363433D01*
X168650323Y-54506996D01*
X168600373Y-54627586D01*
X168557469Y-54787707D01*
X168540432Y-54917117D01*
X168535000Y-55000000D01*
X168535000Y-57750000D01*
X168540432Y-57832883D01*
X168557469Y-57962293D01*
X168600373Y-58122414D01*
X168650323Y-58243004D01*
X168733210Y-58386567D01*
X168812670Y-58490120D01*
X168929880Y-58607330D01*
X169033433Y-58686790D01*
X169176996Y-58769677D01*
X169297586Y-58819627D01*
X169457707Y-58862531D01*
X169587117Y-58879568D01*
X169670000Y-58885000D01*
X174481928Y-58885000D01*
X174481928Y-59300000D01*
X174494188Y-59424482D01*
X174530498Y-59544180D01*
X174589463Y-59654494D01*
X174668815Y-59751185D01*
X174765506Y-59830537D01*
X174875820Y-59889502D01*
X174995518Y-59925812D01*
X175120000Y-59938072D01*
X177575001Y-59938072D01*
X177575001Y-62017345D01*
X177520000Y-62011928D01*
X175820000Y-62011928D01*
X175695518Y-62024188D01*
X175575820Y-62060498D01*
X175465506Y-62119463D01*
X175368815Y-62198815D01*
X175289463Y-62295506D01*
X175230498Y-62405820D01*
X175194188Y-62525518D01*
X175181928Y-62650000D01*
X175181928Y-64350000D01*
X175194188Y-64474482D01*
X175230498Y-64594180D01*
X175289463Y-64704494D01*
X175368815Y-64801185D01*
X175465506Y-64880537D01*
X175575820Y-64939502D01*
X175648380Y-64961513D01*
X175516525Y-65093368D01*
X175354010Y-65336589D01*
X175344251Y-65360149D01*
X171055454Y-61071353D01*
X171137705Y-60948256D01*
X171215726Y-60759898D01*
X171255500Y-60559939D01*
X171255500Y-60356061D01*
X171215726Y-60156102D01*
X171137705Y-59967744D01*
X171024437Y-59798226D01*
X170880274Y-59654063D01*
X170710756Y-59540795D01*
X170522398Y-59462774D01*
X170322439Y-59423000D01*
X170118561Y-59423000D01*
X169918602Y-59462774D01*
X169730244Y-59540795D01*
X169560726Y-59654063D01*
X169416563Y-59798226D01*
X169303295Y-59967744D01*
X169225274Y-60156102D01*
X169185500Y-60356061D01*
X169185500Y-60559939D01*
X169225274Y-60759898D01*
X169303295Y-60948256D01*
X169416563Y-61117774D01*
X169460500Y-61161711D01*
X169460500Y-61273878D01*
X169456824Y-61311200D01*
X169460500Y-61348522D01*
X169460500Y-61348532D01*
X169471497Y-61460185D01*
X169494419Y-61535750D01*
X169514954Y-61603446D01*
X169585526Y-61735476D01*
X169619041Y-61776314D01*
X169680499Y-61851201D01*
X169709503Y-61875004D01*
X175497035Y-67662537D01*
X175354010Y-67876589D01*
X175242068Y-68146842D01*
X175185000Y-68433740D01*
X175185000Y-68726260D01*
X175242068Y-69013158D01*
X175354010Y-69283411D01*
X175516525Y-69526632D01*
X175723368Y-69733475D01*
X175905534Y-69855195D01*
X175788645Y-69924822D01*
X175572412Y-70119731D01*
X175398359Y-70353080D01*
X175273175Y-70615901D01*
X175228524Y-70763110D01*
X175349845Y-70993000D01*
X176543000Y-70993000D01*
X176543000Y-70973000D01*
X176797000Y-70973000D01*
X176797000Y-70993000D01*
X176817000Y-70993000D01*
X176817000Y-71247000D01*
X176797000Y-71247000D01*
X176797000Y-72440814D01*
X177026891Y-72561481D01*
X177301252Y-72464157D01*
X177551355Y-72315178D01*
X177767588Y-72120269D01*
X177938900Y-71890594D01*
X178056525Y-72066632D01*
X178263368Y-72273475D01*
X178506589Y-72435990D01*
X178776842Y-72547932D01*
X179063740Y-72605000D01*
X179356260Y-72605000D01*
X179643158Y-72547932D01*
X179913411Y-72435990D01*
X180156632Y-72273475D01*
X180363475Y-72066632D01*
X180525990Y-71823411D01*
X180637932Y-71553158D01*
X180695000Y-71266260D01*
X180695000Y-70973740D01*
X180637932Y-70686842D01*
X180525990Y-70416589D01*
X180363475Y-70173368D01*
X180156632Y-69966525D01*
X180124192Y-69944849D01*
X180371714Y-69741714D01*
X180576031Y-69492752D01*
X180727852Y-69208715D01*
X180821343Y-68900516D01*
X180845000Y-68660322D01*
X180845000Y-55790322D01*
X180852911Y-55710000D01*
X180821343Y-55389483D01*
X180727852Y-55081285D01*
X180655574Y-54946063D01*
X180576031Y-54797248D01*
X180371714Y-54548286D01*
X180309320Y-54497081D01*
X178308652Y-52496414D01*
X178280639Y-52355581D01*
X178134775Y-52003434D01*
X177923013Y-51686509D01*
X177653491Y-51416987D01*
X177336566Y-51205225D01*
X176984419Y-51059361D01*
X176843588Y-51031348D01*
X173462925Y-47650687D01*
X173411714Y-47588286D01*
X173162752Y-47383969D01*
X172878715Y-47232148D01*
X172570516Y-47138657D01*
X172330322Y-47115000D01*
X172330319Y-47115000D01*
X172250000Y-47107089D01*
X172169681Y-47115000D01*
X166008967Y-47115000D01*
X165929807Y-47130746D01*
X165849484Y-47138657D01*
X165772249Y-47162086D01*
X165693088Y-47177832D01*
X165618521Y-47208719D01*
X165541285Y-47232148D01*
X165470102Y-47270196D01*
X165395537Y-47301082D01*
X165328431Y-47345921D01*
X165257248Y-47383969D01*
X165194854Y-47435174D01*
X165127748Y-47480013D01*
X165070681Y-47537080D01*
X165008286Y-47588286D01*
X164957080Y-47650681D01*
X164900013Y-47707748D01*
X164855174Y-47774854D01*
X164850000Y-47781159D01*
X164850000Y-45945547D01*
X173188138Y-45945547D01*
X173188604Y-46012200D01*
X173188139Y-46078776D01*
X173189140Y-46088989D01*
X173224842Y-46428658D01*
X173238245Y-46493952D01*
X173250721Y-46559352D01*
X173253686Y-46569176D01*
X173354685Y-46895442D01*
X173380503Y-46956861D01*
X173405455Y-47018619D01*
X173410273Y-47027680D01*
X173572719Y-47328114D01*
X173609985Y-47383363D01*
X173646449Y-47439085D01*
X173652935Y-47447038D01*
X173870643Y-47710198D01*
X173917954Y-47757179D01*
X173964521Y-47804731D01*
X173972428Y-47811273D01*
X174237103Y-48027135D01*
X174292606Y-48064011D01*
X174347557Y-48101636D01*
X174356579Y-48106514D01*
X174356583Y-48106517D01*
X174356587Y-48106519D01*
X174658146Y-48266859D01*
X174719785Y-48292264D01*
X174780968Y-48318487D01*
X174790767Y-48321521D01*
X174790773Y-48321523D01*
X175117735Y-48420236D01*
X175183100Y-48433178D01*
X175248243Y-48447024D01*
X175258449Y-48448097D01*
X175525816Y-48474311D01*
X175525993Y-48474365D01*
X175633973Y-48485000D01*
X176706184Y-48485000D01*
X176744288Y-48481247D01*
X176766242Y-48481247D01*
X176776448Y-48480175D01*
X177115859Y-48442102D01*
X177181057Y-48428243D01*
X177246366Y-48415312D01*
X177256168Y-48412278D01*
X177256174Y-48412276D01*
X177581723Y-48309004D01*
X177642998Y-48282741D01*
X177704543Y-48257374D01*
X177713566Y-48252496D01*
X177713570Y-48252494D01*
X177713573Y-48252492D01*
X178012864Y-48087953D01*
X178067852Y-48050301D01*
X178123316Y-48013451D01*
X178131223Y-48006910D01*
X178392856Y-47787371D01*
X178439482Y-47739758D01*
X178486734Y-47692834D01*
X178493215Y-47684887D01*
X178493220Y-47684882D01*
X178493224Y-47684877D01*
X178707230Y-47418704D01*
X178743735Y-47362917D01*
X178780957Y-47307733D01*
X178785775Y-47298672D01*
X178944007Y-46995997D01*
X178968976Y-46934196D01*
X178994775Y-46872822D01*
X178997741Y-46862998D01*
X179094172Y-46535352D01*
X179106658Y-46469896D01*
X179120049Y-46404657D01*
X179121051Y-46394443D01*
X179152003Y-46054310D01*
X179151537Y-45987619D01*
X179152001Y-45921082D01*
X179151000Y-45910869D01*
X179115298Y-45571200D01*
X179101895Y-45505906D01*
X179089419Y-45440506D01*
X179086455Y-45430689D01*
X179086454Y-45430683D01*
X179086451Y-45430677D01*
X178985455Y-45104416D01*
X178959628Y-45042977D01*
X178934684Y-44981239D01*
X178929867Y-44972178D01*
X178767420Y-44671743D01*
X178730147Y-44616485D01*
X178693691Y-44560775D01*
X178687205Y-44552822D01*
X178469498Y-44289662D01*
X178422204Y-44242698D01*
X178375618Y-44195126D01*
X178367711Y-44188584D01*
X178103035Y-43972722D01*
X178047539Y-43935851D01*
X177992581Y-43898221D01*
X177983554Y-43893340D01*
X177681991Y-43732999D01*
X177620360Y-43707597D01*
X177559171Y-43681372D01*
X177549367Y-43678337D01*
X177222404Y-43579623D01*
X177157046Y-43566682D01*
X177091896Y-43552835D01*
X177081690Y-43551762D01*
X176741780Y-43518435D01*
X176741778Y-43518435D01*
X176706160Y-43514927D01*
X175633953Y-43514933D01*
X175596601Y-43518612D01*
X175573900Y-43518612D01*
X175563693Y-43519684D01*
X175224282Y-43557757D01*
X175159084Y-43571616D01*
X175093775Y-43584547D01*
X175083973Y-43587581D01*
X175083967Y-43587583D01*
X174758418Y-43690855D01*
X174697166Y-43717108D01*
X174635600Y-43742484D01*
X174626572Y-43747365D01*
X174327279Y-43911904D01*
X174272290Y-43949556D01*
X174216824Y-43986408D01*
X174208916Y-43992949D01*
X173947283Y-44212489D01*
X173900655Y-44260105D01*
X173853408Y-44307024D01*
X173846922Y-44314977D01*
X173632912Y-44581153D01*
X173596407Y-44636939D01*
X173559185Y-44692124D01*
X173554370Y-44701180D01*
X173554367Y-44701184D01*
X173554367Y-44701185D01*
X173396134Y-45003859D01*
X173371161Y-45065669D01*
X173345364Y-45127038D01*
X173342400Y-45136855D01*
X173342398Y-45136861D01*
X173342398Y-45136863D01*
X173245969Y-45464507D01*
X173233483Y-45529966D01*
X173220092Y-45595200D01*
X173219091Y-45605413D01*
X173188138Y-45945547D01*
X164850000Y-45945547D01*
X164850000Y-44238072D01*
X164940000Y-44238072D01*
X165064482Y-44225812D01*
X165184180Y-44189502D01*
X165294494Y-44130537D01*
X165391185Y-44051185D01*
X165470537Y-43954494D01*
X165529502Y-43844180D01*
X165551513Y-43771620D01*
X165683368Y-43903475D01*
X165926589Y-44065990D01*
X166196842Y-44177932D01*
X166483740Y-44235000D01*
X166776260Y-44235000D01*
X167063158Y-44177932D01*
X167333411Y-44065990D01*
X167576632Y-43903475D01*
X167783475Y-43696632D01*
X167905195Y-43514466D01*
X167974822Y-43631355D01*
X168169731Y-43847588D01*
X168403080Y-44021641D01*
X168665901Y-44146825D01*
X168813110Y-44191476D01*
X169043000Y-44070155D01*
X169043000Y-42877000D01*
X169297000Y-42877000D01*
X169297000Y-44070155D01*
X169526890Y-44191476D01*
X169674099Y-44146825D01*
X169936920Y-44021641D01*
X170170269Y-43847588D01*
X170365178Y-43631355D01*
X170514157Y-43381252D01*
X170611481Y-43106891D01*
X170490814Y-42877000D01*
X169297000Y-42877000D01*
X169043000Y-42877000D01*
X169023000Y-42877000D01*
X169023000Y-42623000D01*
X169043000Y-42623000D01*
X169043000Y-41429845D01*
X169297000Y-41429845D01*
X169297000Y-42623000D01*
X170490814Y-42623000D01*
X170611481Y-42393109D01*
X170514157Y-42118748D01*
X170365178Y-41868645D01*
X170170269Y-41652412D01*
X169936920Y-41478359D01*
X169674099Y-41353175D01*
X169526890Y-41308524D01*
X169297000Y-41429845D01*
X169043000Y-41429845D01*
X168813110Y-41308524D01*
X168665901Y-41353175D01*
X168403080Y-41478359D01*
X168169731Y-41652412D01*
X167974822Y-41868645D01*
X167905195Y-41985534D01*
X167783475Y-41803368D01*
X167576632Y-41596525D01*
X167333411Y-41434010D01*
X167063158Y-41322068D01*
X166776260Y-41265000D01*
X166483740Y-41265000D01*
X166196842Y-41322068D01*
X165926589Y-41434010D01*
X165683368Y-41596525D01*
X165551513Y-41728380D01*
X165529502Y-41655820D01*
X165470537Y-41545506D01*
X165391185Y-41448815D01*
X165294494Y-41369463D01*
X165184180Y-41310498D01*
X165064482Y-41274188D01*
X164940000Y-41261928D01*
X163240000Y-41261928D01*
X163115518Y-41274188D01*
X162995820Y-41310498D01*
X162885506Y-41369463D01*
X162788815Y-41448815D01*
X162709463Y-41545506D01*
X162650498Y-41655820D01*
X162614188Y-41775518D01*
X162601928Y-41900000D01*
X162601928Y-43600000D01*
X162614188Y-43724482D01*
X162650498Y-43844180D01*
X162709463Y-43954494D01*
X162788815Y-44051185D01*
X162885506Y-44130537D01*
X162995820Y-44189502D01*
X163115518Y-44225812D01*
X163240000Y-44238072D01*
X163330001Y-44238072D01*
X163330000Y-53178598D01*
X163172627Y-53335971D01*
X163170226Y-53323902D01*
X163092205Y-53135544D01*
X162978937Y-52966026D01*
X162834774Y-52821863D01*
X162665256Y-52708595D01*
X162476898Y-52630574D01*
X162276939Y-52590800D01*
X162073061Y-52590800D01*
X161873102Y-52630574D01*
X161684744Y-52708595D01*
X161515226Y-52821863D01*
X161371063Y-52966026D01*
X161257795Y-53135544D01*
X161179774Y-53323902D01*
X161140000Y-53523861D01*
X161140000Y-53585998D01*
X158410798Y-56315201D01*
X158381800Y-56338999D01*
X158358002Y-56367997D01*
X158358001Y-56367998D01*
X158286826Y-56454724D01*
X158216254Y-56586754D01*
X158191164Y-56669467D01*
X158172798Y-56730014D01*
X158161800Y-56841667D01*
X158161800Y-56841678D01*
X158158124Y-56879000D01*
X158161800Y-56916322D01*
X158161800Y-57471698D01*
X156838493Y-58795006D01*
X156784205Y-58663944D01*
X156670937Y-58494426D01*
X156604902Y-58428391D01*
X156640000Y-58251939D01*
X156640000Y-58048061D01*
X156600226Y-57848102D01*
X156522205Y-57659744D01*
X156408937Y-57490226D01*
X156365000Y-57446289D01*
X156365000Y-52521701D01*
X156670903Y-52215798D01*
X156699901Y-52192001D01*
X156734654Y-52149654D01*
X156794874Y-52076277D01*
X156865446Y-51944247D01*
X156902930Y-51820676D01*
X156908903Y-51800986D01*
X156919900Y-51689333D01*
X156919900Y-51689324D01*
X156923576Y-51652001D01*
X156919900Y-51614678D01*
X156919900Y-47777225D01*
X156923576Y-47739900D01*
X156919900Y-47702575D01*
X156919900Y-47702567D01*
X156908903Y-47590914D01*
X156865446Y-47447653D01*
X156794874Y-47315624D01*
X156699901Y-47199899D01*
X156670903Y-47176101D01*
X155297002Y-45802201D01*
X155297002Y-45726252D01*
X155455750Y-45885000D01*
X156020000Y-45888072D01*
X156144482Y-45875812D01*
X156264180Y-45839502D01*
X156374494Y-45780537D01*
X156471185Y-45701185D01*
X156550537Y-45604494D01*
X156609502Y-45494180D01*
X156645812Y-45374482D01*
X156658072Y-45250000D01*
X156655000Y-44535750D01*
X156496250Y-44377000D01*
X155297000Y-44377000D01*
X155297000Y-44397000D01*
X155043000Y-44397000D01*
X155043000Y-44377000D01*
X155023000Y-44377000D01*
X155023000Y-44123000D01*
X155043000Y-44123000D01*
X155043000Y-42773750D01*
X154884250Y-42615000D01*
X154320000Y-42611928D01*
X154195518Y-42624188D01*
X154075820Y-42660498D01*
X153965506Y-42719463D01*
X153868815Y-42798815D01*
X153789463Y-42895506D01*
X153730498Y-43005820D01*
X153719945Y-43040608D01*
X153499014Y-42859294D01*
X153241034Y-42721401D01*
X152961111Y-42636487D01*
X152670000Y-42607815D01*
X152378890Y-42636487D01*
X152098967Y-42721401D01*
X151840987Y-42859294D01*
X151614866Y-43044866D01*
X151429294Y-43270986D01*
X151291401Y-43528966D01*
X151206487Y-43808889D01*
X151185000Y-44027050D01*
X151185000Y-44472949D01*
X151206487Y-44691110D01*
X151291401Y-44971033D01*
X151429294Y-45229013D01*
X151614866Y-45455134D01*
X151840986Y-45640706D01*
X152098966Y-45778599D01*
X152378889Y-45863513D01*
X152670000Y-45892185D01*
X152961110Y-45863513D01*
X153181965Y-45796517D01*
X153210326Y-45849576D01*
X153242988Y-45889374D01*
X153305299Y-45965301D01*
X153334303Y-45989104D01*
X154480774Y-47135576D01*
X154449483Y-47138658D01*
X154372256Y-47162085D01*
X154293088Y-47177832D01*
X154218513Y-47208722D01*
X154141285Y-47232149D01*
X154070110Y-47270193D01*
X153995537Y-47301082D01*
X153928426Y-47345924D01*
X153857247Y-47383970D01*
X153794857Y-47435172D01*
X153727748Y-47480013D01*
X153670676Y-47537085D01*
X147320687Y-53887075D01*
X147258286Y-53938286D01*
X147053969Y-54187249D01*
X146902148Y-54471286D01*
X146808657Y-54779485D01*
X146785000Y-55019678D01*
X146777089Y-55100000D01*
X146785000Y-55180320D01*
X146785001Y-59659982D01*
X146750537Y-59595506D01*
X146671185Y-59498815D01*
X146574494Y-59419463D01*
X146464180Y-59360498D01*
X146344482Y-59324188D01*
X146220000Y-59311928D01*
X145205750Y-59315000D01*
X145047000Y-59473750D01*
X145047000Y-61123000D01*
X145067000Y-61123000D01*
X145067000Y-61377000D01*
X145047000Y-61377000D01*
X145047000Y-63026250D01*
X145205750Y-63185000D01*
X145751110Y-63186652D01*
X144496414Y-64441348D01*
X144355581Y-64469361D01*
X144003434Y-64615225D01*
X143686509Y-64826987D01*
X143416987Y-65096509D01*
X143330200Y-65226395D01*
X143330200Y-63115117D01*
X143375820Y-63139502D01*
X143495518Y-63175812D01*
X143620000Y-63188072D01*
X144634250Y-63185000D01*
X144793000Y-63026250D01*
X144793000Y-61377000D01*
X144773000Y-61377000D01*
X144773000Y-61123000D01*
X144793000Y-61123000D01*
X144793000Y-59473750D01*
X144634250Y-59315000D01*
X143620000Y-59311928D01*
X143495518Y-59324188D01*
X143375820Y-59360498D01*
X143330200Y-59384883D01*
X143330200Y-57576170D01*
X143438349Y-57602719D01*
X143705982Y-57614604D01*
X143970791Y-57574048D01*
X144222600Y-57482609D01*
X144329535Y-57425450D01*
X144392028Y-57189133D01*
X143632500Y-56429605D01*
X143618358Y-56443748D01*
X143438753Y-56264143D01*
X143452895Y-56250000D01*
X143812105Y-56250000D01*
X144571633Y-57009528D01*
X144807950Y-56947035D01*
X144921350Y-56704322D01*
X144985219Y-56444151D01*
X144997104Y-56176518D01*
X144956548Y-55911709D01*
X144865109Y-55659900D01*
X144807950Y-55552965D01*
X144571633Y-55490472D01*
X143812105Y-56250000D01*
X143452895Y-56250000D01*
X143438753Y-56235858D01*
X143618358Y-56056253D01*
X143632500Y-56070395D01*
X144392028Y-55310867D01*
X144334683Y-55094018D01*
X145951802Y-53476900D01*
X146013939Y-53476900D01*
X146213898Y-53437126D01*
X146402256Y-53359105D01*
X146571774Y-53245837D01*
X146715937Y-53101674D01*
X146829205Y-52932156D01*
X146907226Y-52743798D01*
X146947000Y-52543839D01*
X146947000Y-52339961D01*
X146907226Y-52140002D01*
X146829205Y-51951644D01*
X146715937Y-51782126D01*
X146571774Y-51637963D01*
X146402256Y-51524695D01*
X146213898Y-51446674D01*
X146013939Y-51406900D01*
X145810061Y-51406900D01*
X145610102Y-51446674D01*
X145421744Y-51524695D01*
X145252226Y-51637963D01*
X145108063Y-51782126D01*
X144994795Y-51951644D01*
X144916774Y-52140002D01*
X144877000Y-52339961D01*
X144877000Y-52402098D01*
X142059203Y-55219896D01*
X142030199Y-55243699D01*
X141975076Y-55310867D01*
X141935226Y-55359424D01*
X141887826Y-55448102D01*
X141864654Y-55491454D01*
X141821197Y-55634715D01*
X141810200Y-55746368D01*
X141810200Y-55746378D01*
X141806524Y-55783700D01*
X141810200Y-55821022D01*
X141810200Y-56131513D01*
X141647996Y-56063507D01*
X141409500Y-56015000D01*
X141059500Y-56015000D01*
X141059500Y-57123000D01*
X141079500Y-57123000D01*
X141079500Y-57377000D01*
X141059500Y-57377000D01*
X141059500Y-58485000D01*
X141409500Y-58485000D01*
X141647996Y-58436493D01*
X141810200Y-58368487D01*
X141810201Y-68918968D01*
X141806524Y-68956300D01*
X141810201Y-68993633D01*
X141821198Y-69105286D01*
X141834380Y-69148742D01*
X141864654Y-69248546D01*
X141935226Y-69380576D01*
X141978822Y-69433697D01*
X142030200Y-69496301D01*
X142059198Y-69520099D01*
X142069279Y-69530180D01*
X141979549Y-69548029D01*
X141704747Y-69661856D01*
X141457431Y-69827107D01*
X141247107Y-70037431D01*
X141081856Y-70284747D01*
X140968029Y-70559549D01*
X140910000Y-70851278D01*
X140910000Y-71148722D01*
X140968029Y-71440451D01*
X141081856Y-71715253D01*
X141247107Y-71962569D01*
X141457431Y-72172893D01*
X141704747Y-72338144D01*
X141979549Y-72451971D01*
X142271278Y-72510000D01*
X142568722Y-72510000D01*
X142860451Y-72451971D01*
X143135253Y-72338144D01*
X143382569Y-72172893D01*
X143592893Y-71962569D01*
X143758144Y-71715253D01*
X143871971Y-71440451D01*
X143889820Y-71350721D01*
X148058000Y-75518903D01*
X148058001Y-76141688D01*
X148014063Y-76185626D01*
X148011693Y-76189173D01*
X147985456Y-76104415D01*
X147959629Y-76042976D01*
X147934685Y-75981238D01*
X147929868Y-75972177D01*
X147767421Y-75671742D01*
X147730148Y-75616484D01*
X147693692Y-75560774D01*
X147687206Y-75552821D01*
X147469499Y-75289661D01*
X147422205Y-75242697D01*
X147375619Y-75195125D01*
X147367712Y-75188583D01*
X147103036Y-74972721D01*
X147047540Y-74935850D01*
X146992582Y-74898220D01*
X146983555Y-74893339D01*
X146681992Y-74732998D01*
X146620361Y-74707596D01*
X146559172Y-74681371D01*
X146549368Y-74678336D01*
X146222405Y-74579622D01*
X146157047Y-74566681D01*
X146091897Y-74552834D01*
X146081691Y-74551761D01*
X145741781Y-74518434D01*
X145741779Y-74518434D01*
X145706161Y-74514926D01*
X144633954Y-74514932D01*
X144596602Y-74518611D01*
X144573901Y-74518611D01*
X144563694Y-74519683D01*
X144224283Y-74557756D01*
X144159085Y-74571615D01*
X144093776Y-74584546D01*
X144083974Y-74587580D01*
X144083968Y-74587582D01*
X143758419Y-74690854D01*
X143697167Y-74717107D01*
X143635601Y-74742483D01*
X143626573Y-74747364D01*
X143327280Y-74911903D01*
X143272291Y-74949555D01*
X143216825Y-74986407D01*
X143208917Y-74992948D01*
X142947284Y-75212488D01*
X142900656Y-75260104D01*
X142853409Y-75307023D01*
X142846923Y-75314976D01*
X142632913Y-75581152D01*
X142596408Y-75636938D01*
X142559186Y-75692123D01*
X142554371Y-75701179D01*
X142554368Y-75701183D01*
X142554368Y-75701184D01*
X142396135Y-76003858D01*
X142371162Y-76065668D01*
X142345365Y-76127037D01*
X142342401Y-76136854D01*
X142342399Y-76136860D01*
X142342399Y-76136862D01*
X142245970Y-76464506D01*
X142233484Y-76529965D01*
X142220093Y-76595199D01*
X142219092Y-76605412D01*
X142188139Y-76945546D01*
X142188605Y-77012199D01*
X142188140Y-77078775D01*
X142189141Y-77088988D01*
X142224843Y-77428657D01*
X142238246Y-77493951D01*
X142250722Y-77559351D01*
X142253687Y-77569175D01*
X142354686Y-77895441D01*
X142380504Y-77956860D01*
X142405456Y-78018618D01*
X142410274Y-78027679D01*
X142572720Y-78328113D01*
X142609986Y-78383362D01*
X142646450Y-78439084D01*
X142652936Y-78447037D01*
X142870644Y-78710197D01*
X142917955Y-78757178D01*
X142964522Y-78804730D01*
X142972429Y-78811272D01*
X143237104Y-79027134D01*
X143292607Y-79064010D01*
X143347558Y-79101635D01*
X143356580Y-79106513D01*
X143356584Y-79106516D01*
X143356588Y-79106518D01*
X143658147Y-79266858D01*
X143719786Y-79292263D01*
X143780969Y-79318486D01*
X143790768Y-79321520D01*
X143790774Y-79321522D01*
X144117736Y-79420235D01*
X144183101Y-79433177D01*
X144248244Y-79447023D01*
X144258450Y-79448096D01*
X144525813Y-79474310D01*
X144525994Y-79474365D01*
X144633974Y-79485000D01*
X145706185Y-79485000D01*
X145744299Y-79481246D01*
X145766243Y-79481246D01*
X145776449Y-79480174D01*
X146115860Y-79442101D01*
X146181058Y-79428242D01*
X146246367Y-79415311D01*
X146256169Y-79412277D01*
X146256175Y-79412275D01*
X146581724Y-79309003D01*
X146642999Y-79282740D01*
X146704544Y-79257373D01*
X146713567Y-79252495D01*
X146713571Y-79252493D01*
X146713574Y-79252491D01*
X147012865Y-79087952D01*
X147067853Y-79050300D01*
X147123317Y-79013450D01*
X147131224Y-79006909D01*
X147392857Y-78787370D01*
X147439483Y-78739757D01*
X147486735Y-78692833D01*
X147493216Y-78684886D01*
X147493221Y-78684881D01*
X147493225Y-78684876D01*
X147707231Y-78418703D01*
X147743736Y-78362916D01*
X147780958Y-78307732D01*
X147785776Y-78298671D01*
X147944008Y-77995996D01*
X147968977Y-77934195D01*
X147994776Y-77872821D01*
X147997742Y-77862997D01*
X148082819Y-77573930D01*
X148158226Y-77649337D01*
X148327744Y-77762605D01*
X148516102Y-77840626D01*
X148716061Y-77880400D01*
X148919939Y-77880400D01*
X149119898Y-77840626D01*
X149308256Y-77762605D01*
X149477774Y-77649337D01*
X149621937Y-77505174D01*
X149735205Y-77335656D01*
X149813226Y-77147298D01*
X149853000Y-76947339D01*
X149853000Y-76743461D01*
X149813226Y-76543502D01*
X149735205Y-76355144D01*
X149621937Y-76185626D01*
X149578000Y-76141689D01*
X149578000Y-75241422D01*
X149581676Y-75204099D01*
X149578000Y-75166776D01*
X149578000Y-75166767D01*
X149567003Y-75055114D01*
X149523546Y-74911853D01*
X149452974Y-74779824D01*
X149420188Y-74739874D01*
X149381799Y-74693096D01*
X149381795Y-74693092D01*
X149358001Y-74664099D01*
X149329009Y-74640306D01*
X146734943Y-72046240D01*
X148053365Y-72046240D01*
X148134025Y-72297868D01*
X148402329Y-72426267D01*
X148690526Y-72499855D01*
X148987543Y-72515804D01*
X149281963Y-72473501D01*
X149562474Y-72374572D01*
X149705975Y-72297868D01*
X149786635Y-72046240D01*
X148920000Y-71179605D01*
X148053365Y-72046240D01*
X146734943Y-72046240D01*
X145756245Y-71067543D01*
X147404196Y-71067543D01*
X147446499Y-71361963D01*
X147545428Y-71642474D01*
X147622132Y-71785975D01*
X147873760Y-71866635D01*
X148740395Y-71000000D01*
X149099605Y-71000000D01*
X149966240Y-71866635D01*
X150217868Y-71785975D01*
X150346267Y-71517671D01*
X150419855Y-71229474D01*
X150435804Y-70932457D01*
X150393501Y-70638037D01*
X150294572Y-70357526D01*
X150217868Y-70214025D01*
X149966240Y-70133365D01*
X149099605Y-71000000D01*
X148740395Y-71000000D01*
X147873760Y-70133365D01*
X147622132Y-70214025D01*
X147493733Y-70482329D01*
X147420145Y-70770526D01*
X147404196Y-71067543D01*
X145756245Y-71067543D01*
X144642462Y-69953760D01*
X148053365Y-69953760D01*
X148920000Y-70820395D01*
X149786635Y-69953760D01*
X149705975Y-69702132D01*
X149437671Y-69573733D01*
X149149474Y-69500145D01*
X148852457Y-69484196D01*
X148558037Y-69526499D01*
X148277526Y-69625428D01*
X148134025Y-69702132D01*
X148053365Y-69953760D01*
X144642462Y-69953760D01*
X143330200Y-68641499D01*
X143330200Y-67433605D01*
X143416987Y-67563491D01*
X143686509Y-67833013D01*
X144003434Y-68044775D01*
X144355581Y-68190639D01*
X144729419Y-68265000D01*
X145110581Y-68265000D01*
X145484419Y-68190639D01*
X145836566Y-68044775D01*
X146153491Y-67833013D01*
X146423013Y-67563491D01*
X146634775Y-67246566D01*
X146780639Y-66894419D01*
X146808652Y-66753586D01*
X149519319Y-64042920D01*
X149581714Y-63991714D01*
X149786031Y-63742752D01*
X149937852Y-63458715D01*
X150031343Y-63150516D01*
X150055000Y-62910322D01*
X150055000Y-62910320D01*
X150062911Y-62830001D01*
X150055000Y-62749681D01*
X150055000Y-55777238D01*
X155399900Y-50432339D01*
X155399900Y-51337198D01*
X155093998Y-51643101D01*
X155065000Y-51666899D01*
X155041202Y-51695897D01*
X155041201Y-51695898D01*
X154970026Y-51782624D01*
X154899454Y-51914654D01*
X154889632Y-51947035D01*
X154855998Y-52057914D01*
X154853539Y-52082883D01*
X154841324Y-52206900D01*
X154845001Y-52244232D01*
X154845000Y-57194779D01*
X154831776Y-57183926D01*
X154699747Y-57113354D01*
X154556486Y-57069897D01*
X154444833Y-57058900D01*
X154444822Y-57058900D01*
X154407500Y-57055224D01*
X154370178Y-57058900D01*
X153770323Y-57058900D01*
X153733000Y-57055224D01*
X153695677Y-57058900D01*
X153695667Y-57058900D01*
X153584014Y-57069897D01*
X153440753Y-57113354D01*
X153308724Y-57183926D01*
X153192999Y-57278899D01*
X153169196Y-57307903D01*
X152818803Y-57658296D01*
X152789799Y-57682099D01*
X152734671Y-57749274D01*
X152694826Y-57797824D01*
X152633035Y-57913426D01*
X152624254Y-57929854D01*
X152580797Y-58073115D01*
X152569800Y-58184768D01*
X152569800Y-58184778D01*
X152566124Y-58222100D01*
X152569800Y-58259422D01*
X152569801Y-78867067D01*
X152566124Y-78904400D01*
X152569801Y-78941733D01*
X152580798Y-79053386D01*
X152583189Y-79061268D01*
X152624254Y-79196646D01*
X152694826Y-79328676D01*
X152725103Y-79365568D01*
X152789800Y-79444401D01*
X152818798Y-79468199D01*
X155115598Y-81765000D01*
X141705947Y-81765000D01*
X141424979Y-81737451D01*
X141189288Y-81666291D01*
X140971912Y-81550711D01*
X140781121Y-81395104D01*
X140624189Y-81205408D01*
X140507094Y-80988843D01*
X140434291Y-80753656D01*
X140405000Y-80474972D01*
X140404999Y-58474729D01*
X140455500Y-58485000D01*
X140805500Y-58485000D01*
X140805500Y-57377000D01*
X140785500Y-57377000D01*
X140785500Y-57123000D01*
X140805500Y-57123000D01*
X140805500Y-56015000D01*
X140455500Y-56015000D01*
X140404999Y-56025271D01*
X140404999Y-52189133D01*
X142872972Y-52189133D01*
X142935465Y-52425450D01*
X143178178Y-52538850D01*
X143438349Y-52602719D01*
X143705982Y-52614604D01*
X143970791Y-52574048D01*
X144222600Y-52482609D01*
X144329535Y-52425450D01*
X144392028Y-52189133D01*
X143632500Y-51429605D01*
X142872972Y-52189133D01*
X140404999Y-52189133D01*
X140404998Y-51474729D01*
X140455500Y-51485000D01*
X140805500Y-51485000D01*
X140805500Y-50377000D01*
X141059500Y-50377000D01*
X141059500Y-51485000D01*
X141409500Y-51485000D01*
X141647996Y-51436493D01*
X141872446Y-51342390D01*
X142074225Y-51206307D01*
X142245578Y-51033474D01*
X142308671Y-50938164D01*
X142279781Y-51055849D01*
X142267896Y-51323482D01*
X142308452Y-51588291D01*
X142399891Y-51840100D01*
X142457050Y-51947035D01*
X142693367Y-52009528D01*
X143452895Y-51250000D01*
X143812105Y-51250000D01*
X144571633Y-52009528D01*
X144807950Y-51947035D01*
X144921350Y-51704322D01*
X144985219Y-51444151D01*
X144997104Y-51176518D01*
X144956548Y-50911709D01*
X144865109Y-50659900D01*
X144807950Y-50552965D01*
X144571633Y-50490472D01*
X143812105Y-51250000D01*
X143452895Y-51250000D01*
X142693367Y-50490472D01*
X142465003Y-50550862D01*
X142351231Y-50377000D01*
X141059500Y-50377000D01*
X140805500Y-50377000D01*
X140785500Y-50377000D01*
X140785500Y-50310867D01*
X142872972Y-50310867D01*
X143632500Y-51070395D01*
X144392028Y-50310867D01*
X144329535Y-50074550D01*
X144086822Y-49961150D01*
X143826651Y-49897281D01*
X143559018Y-49885396D01*
X143294209Y-49925952D01*
X143042400Y-50017391D01*
X142935465Y-50074550D01*
X142872972Y-50310867D01*
X140785500Y-50310867D01*
X140785500Y-50123000D01*
X140805500Y-50123000D01*
X140805500Y-49015000D01*
X141059500Y-49015000D01*
X141059500Y-50123000D01*
X142351231Y-50123000D01*
X142475962Y-49932391D01*
X142472091Y-49894718D01*
X142379921Y-49669467D01*
X142245578Y-49466526D01*
X142074225Y-49293693D01*
X141872446Y-49157610D01*
X141647996Y-49063507D01*
X141409500Y-49015000D01*
X141059500Y-49015000D01*
X140805500Y-49015000D01*
X140455500Y-49015000D01*
X140404998Y-49025271D01*
X140404998Y-45945547D01*
X142188139Y-45945547D01*
X142188605Y-46012200D01*
X142188140Y-46078776D01*
X142189141Y-46088989D01*
X142224843Y-46428658D01*
X142238246Y-46493952D01*
X142250722Y-46559352D01*
X142253687Y-46569176D01*
X142354686Y-46895442D01*
X142380504Y-46956861D01*
X142405456Y-47018619D01*
X142410274Y-47027680D01*
X142572720Y-47328114D01*
X142609986Y-47383363D01*
X142646450Y-47439085D01*
X142652936Y-47447038D01*
X142870644Y-47710198D01*
X142917955Y-47757179D01*
X142964522Y-47804731D01*
X142972429Y-47811273D01*
X143237104Y-48027135D01*
X143292607Y-48064011D01*
X143347558Y-48101636D01*
X143356580Y-48106514D01*
X143356584Y-48106517D01*
X143356588Y-48106519D01*
X143658147Y-48266859D01*
X143719786Y-48292264D01*
X143780969Y-48318487D01*
X143790768Y-48321521D01*
X143790774Y-48321523D01*
X144117736Y-48420236D01*
X144183101Y-48433178D01*
X144248244Y-48447024D01*
X144258450Y-48448097D01*
X144525701Y-48474300D01*
X144525915Y-48474365D01*
X144633895Y-48485000D01*
X145706105Y-48485000D01*
X145744209Y-48481247D01*
X145766243Y-48481247D01*
X145776449Y-48480175D01*
X146115860Y-48442102D01*
X146181058Y-48428243D01*
X146246367Y-48415312D01*
X146256169Y-48412278D01*
X146256175Y-48412276D01*
X146581724Y-48309004D01*
X146642999Y-48282741D01*
X146704544Y-48257374D01*
X146713567Y-48252496D01*
X146713571Y-48252494D01*
X146713574Y-48252492D01*
X147012865Y-48087953D01*
X147067853Y-48050301D01*
X147123317Y-48013451D01*
X147131224Y-48006910D01*
X147392857Y-47787371D01*
X147439483Y-47739758D01*
X147486735Y-47692834D01*
X147493216Y-47684887D01*
X147493221Y-47684882D01*
X147493225Y-47684877D01*
X147707231Y-47418704D01*
X147743736Y-47362917D01*
X147780958Y-47307733D01*
X147785776Y-47298672D01*
X147944008Y-46995997D01*
X147968977Y-46934196D01*
X147994776Y-46872822D01*
X147997742Y-46862998D01*
X148094173Y-46535352D01*
X148106659Y-46469896D01*
X148120050Y-46404657D01*
X148121052Y-46394443D01*
X148152004Y-46054310D01*
X148151538Y-45987619D01*
X148152002Y-45921082D01*
X148151001Y-45910869D01*
X148115299Y-45571200D01*
X148101896Y-45505906D01*
X148089420Y-45440506D01*
X148086456Y-45430689D01*
X148086455Y-45430683D01*
X148086452Y-45430677D01*
X147985456Y-45104416D01*
X147959629Y-45042977D01*
X147934685Y-44981239D01*
X147929868Y-44972178D01*
X147767421Y-44671743D01*
X147730148Y-44616485D01*
X147693692Y-44560775D01*
X147687206Y-44552822D01*
X147469499Y-44289662D01*
X147422205Y-44242698D01*
X147375619Y-44195126D01*
X147367712Y-44188584D01*
X147103036Y-43972722D01*
X147047540Y-43935851D01*
X146992582Y-43898221D01*
X146983555Y-43893340D01*
X146681992Y-43732999D01*
X146620361Y-43707597D01*
X146559172Y-43681372D01*
X146549368Y-43678337D01*
X146222405Y-43579623D01*
X146157047Y-43566682D01*
X146091897Y-43552835D01*
X146081691Y-43551762D01*
X145741781Y-43518435D01*
X145741779Y-43518435D01*
X145706161Y-43514927D01*
X144633954Y-43514933D01*
X144596602Y-43518612D01*
X144573901Y-43518612D01*
X144563694Y-43519684D01*
X144224283Y-43557757D01*
X144159085Y-43571616D01*
X144093776Y-43584547D01*
X144083974Y-43587581D01*
X144083968Y-43587583D01*
X143758419Y-43690855D01*
X143697167Y-43717108D01*
X143635601Y-43742484D01*
X143626573Y-43747365D01*
X143327280Y-43911904D01*
X143272291Y-43949556D01*
X143216825Y-43986408D01*
X143208917Y-43992949D01*
X142947284Y-44212489D01*
X142900656Y-44260105D01*
X142853409Y-44307024D01*
X142846923Y-44314977D01*
X142632913Y-44581153D01*
X142596408Y-44636939D01*
X142559186Y-44692124D01*
X142554371Y-44701180D01*
X142554368Y-44701184D01*
X142554368Y-44701185D01*
X142396135Y-45003859D01*
X142371162Y-45065669D01*
X142345365Y-45127038D01*
X142342401Y-45136855D01*
X142342399Y-45136861D01*
X142342399Y-45136863D01*
X142245970Y-45464507D01*
X142233484Y-45529966D01*
X142220093Y-45595200D01*
X142219092Y-45605413D01*
X142188139Y-45945547D01*
X140404998Y-45945547D01*
X140404998Y-42535965D01*
X140432548Y-42254978D01*
X140503706Y-42019294D01*
X140619290Y-41801911D01*
X140774895Y-41611120D01*
X140964592Y-41454189D01*
X141181156Y-41337094D01*
X141416343Y-41264291D01*
X141695027Y-41235000D01*
X156066113Y-41235000D01*
X155982733Y-41290713D01*
G36*
X161858100Y-76520605D02*
G01*
X161770000Y-76511928D01*
X161205750Y-76515000D01*
X161047000Y-76673750D01*
X161047000Y-77873000D01*
X161067000Y-77873000D01*
X161067000Y-78127000D01*
X161047000Y-78127000D01*
X161047000Y-78147000D01*
X160793000Y-78147000D01*
X160793000Y-78127000D01*
X159593750Y-78127000D01*
X159435000Y-78285750D01*
X159431928Y-78850000D01*
X159444188Y-78974482D01*
X159480498Y-79094180D01*
X159539463Y-79204494D01*
X159618815Y-79301185D01*
X159715506Y-79380537D01*
X159825820Y-79439502D01*
X159898380Y-79461513D01*
X159766525Y-79593368D01*
X159637204Y-79786911D01*
X159595714Y-79790997D01*
X159452453Y-79834454D01*
X159320424Y-79905026D01*
X159204699Y-79999999D01*
X159180901Y-80028997D01*
X158254599Y-80955300D01*
X158101484Y-80955300D01*
X158155000Y-80686260D01*
X158155000Y-80393740D01*
X158097932Y-80106842D01*
X158015674Y-79908252D01*
X158020001Y-79904701D01*
X158043804Y-79875697D01*
X158356298Y-79563203D01*
X158385301Y-79539401D01*
X158480274Y-79423676D01*
X158550846Y-79291647D01*
X158594303Y-79148386D01*
X158605300Y-79036733D01*
X158605300Y-79036724D01*
X158608976Y-78999401D01*
X158605300Y-78962078D01*
X158605300Y-77722201D01*
X159573638Y-76753864D01*
X159539463Y-76795506D01*
X159480498Y-76905820D01*
X159444188Y-77025518D01*
X159431928Y-77150000D01*
X159435000Y-77714250D01*
X159593750Y-77873000D01*
X160793000Y-77873000D01*
X160793000Y-76673750D01*
X160634250Y-76515000D01*
X160070000Y-76511928D01*
X159945518Y-76524188D01*
X159825820Y-76560498D01*
X159715506Y-76619463D01*
X159673864Y-76653637D01*
X161858100Y-74469402D01*
X161858100Y-76520605D01*
G37*
X161858100Y-76520605D02*
X161770000Y-76511928D01*
X161205750Y-76515000D01*
X161047000Y-76673750D01*
X161047000Y-77873000D01*
X161067000Y-77873000D01*
X161067000Y-78127000D01*
X161047000Y-78127000D01*
X161047000Y-78147000D01*
X160793000Y-78147000D01*
X160793000Y-78127000D01*
X159593750Y-78127000D01*
X159435000Y-78285750D01*
X159431928Y-78850000D01*
X159444188Y-78974482D01*
X159480498Y-79094180D01*
X159539463Y-79204494D01*
X159618815Y-79301185D01*
X159715506Y-79380537D01*
X159825820Y-79439502D01*
X159898380Y-79461513D01*
X159766525Y-79593368D01*
X159637204Y-79786911D01*
X159595714Y-79790997D01*
X159452453Y-79834454D01*
X159320424Y-79905026D01*
X159204699Y-79999999D01*
X159180901Y-80028997D01*
X158254599Y-80955300D01*
X158101484Y-80955300D01*
X158155000Y-80686260D01*
X158155000Y-80393740D01*
X158097932Y-80106842D01*
X158015674Y-79908252D01*
X158020001Y-79904701D01*
X158043804Y-79875697D01*
X158356298Y-79563203D01*
X158385301Y-79539401D01*
X158480274Y-79423676D01*
X158550846Y-79291647D01*
X158594303Y-79148386D01*
X158605300Y-79036733D01*
X158605300Y-79036724D01*
X158608976Y-78999401D01*
X158605300Y-78962078D01*
X158605300Y-77722201D01*
X159573638Y-76753864D01*
X159539463Y-76795506D01*
X159480498Y-76905820D01*
X159444188Y-77025518D01*
X159431928Y-77150000D01*
X159435000Y-77714250D01*
X159593750Y-77873000D01*
X160793000Y-77873000D01*
X160793000Y-76673750D01*
X160634250Y-76515000D01*
X160070000Y-76511928D01*
X159945518Y-76524188D01*
X159825820Y-76560498D01*
X159715506Y-76619463D01*
X159673864Y-76653637D01*
X161858100Y-74469402D01*
X161858100Y-76520605D01*
G36*
X159476000Y-73755602D02*
G01*
X159476000Y-73817739D01*
X159515774Y-74017698D01*
X159593795Y-74206056D01*
X159707063Y-74375574D01*
X159754693Y-74423204D01*
X157651563Y-76526336D01*
X157644482Y-76524188D01*
X157520000Y-76511928D01*
X156955750Y-76515000D01*
X156797000Y-76673750D01*
X156797000Y-77873000D01*
X156817000Y-77873000D01*
X156817000Y-78127000D01*
X156797000Y-78127000D01*
X156797000Y-78147000D01*
X156543000Y-78147000D01*
X156543000Y-78127000D01*
X155343750Y-78127000D01*
X155185000Y-78285750D01*
X155181928Y-78850000D01*
X155194188Y-78974482D01*
X155230498Y-79094180D01*
X155289463Y-79204494D01*
X155368815Y-79301185D01*
X155465506Y-79380537D01*
X155575820Y-79439502D01*
X155648380Y-79461513D01*
X155516525Y-79593368D01*
X155354010Y-79836589D01*
X155348967Y-79848765D01*
X154089800Y-78589599D01*
X154089800Y-77150000D01*
X155181928Y-77150000D01*
X155185000Y-77714250D01*
X155343750Y-77873000D01*
X156543000Y-77873000D01*
X156543000Y-76673750D01*
X156384250Y-76515000D01*
X155820000Y-76511928D01*
X155695518Y-76524188D01*
X155575820Y-76560498D01*
X155465506Y-76619463D01*
X155368815Y-76698815D01*
X155289463Y-76795506D01*
X155230498Y-76905820D01*
X155194188Y-77025518D01*
X155181928Y-77150000D01*
X154089800Y-77150000D01*
X154089800Y-74457490D01*
X154180902Y-74495226D01*
X154380861Y-74535000D01*
X154584739Y-74535000D01*
X154784698Y-74495226D01*
X154973056Y-74417205D01*
X155134099Y-74309600D01*
X157515089Y-74309600D01*
X157559026Y-74353537D01*
X157728544Y-74466805D01*
X157916902Y-74544826D01*
X158116861Y-74584600D01*
X158320739Y-74584600D01*
X158520698Y-74544826D01*
X158709056Y-74466805D01*
X158878574Y-74353537D01*
X159022737Y-74209374D01*
X159136005Y-74039856D01*
X159214026Y-73851498D01*
X159253800Y-73651539D01*
X159253800Y-73533402D01*
X159476000Y-73755602D01*
G37*
X159476000Y-73755602D02*
X159476000Y-73817739D01*
X159515774Y-74017698D01*
X159593795Y-74206056D01*
X159707063Y-74375574D01*
X159754693Y-74423204D01*
X157651563Y-76526336D01*
X157644482Y-76524188D01*
X157520000Y-76511928D01*
X156955750Y-76515000D01*
X156797000Y-76673750D01*
X156797000Y-77873000D01*
X156817000Y-77873000D01*
X156817000Y-78127000D01*
X156797000Y-78127000D01*
X156797000Y-78147000D01*
X156543000Y-78147000D01*
X156543000Y-78127000D01*
X155343750Y-78127000D01*
X155185000Y-78285750D01*
X155181928Y-78850000D01*
X155194188Y-78974482D01*
X155230498Y-79094180D01*
X155289463Y-79204494D01*
X155368815Y-79301185D01*
X155465506Y-79380537D01*
X155575820Y-79439502D01*
X155648380Y-79461513D01*
X155516525Y-79593368D01*
X155354010Y-79836589D01*
X155348967Y-79848765D01*
X154089800Y-78589599D01*
X154089800Y-77150000D01*
X155181928Y-77150000D01*
X155185000Y-77714250D01*
X155343750Y-77873000D01*
X156543000Y-77873000D01*
X156543000Y-76673750D01*
X156384250Y-76515000D01*
X155820000Y-76511928D01*
X155695518Y-76524188D01*
X155575820Y-76560498D01*
X155465506Y-76619463D01*
X155368815Y-76698815D01*
X155289463Y-76795506D01*
X155230498Y-76905820D01*
X155194188Y-77025518D01*
X155181928Y-77150000D01*
X154089800Y-77150000D01*
X154089800Y-74457490D01*
X154180902Y-74495226D01*
X154380861Y-74535000D01*
X154584739Y-74535000D01*
X154784698Y-74495226D01*
X154973056Y-74417205D01*
X155134099Y-74309600D01*
X157515089Y-74309600D01*
X157559026Y-74353537D01*
X157728544Y-74466805D01*
X157916902Y-74544826D01*
X158116861Y-74584600D01*
X158320739Y-74584600D01*
X158520698Y-74544826D01*
X158709056Y-74466805D01*
X158878574Y-74353537D01*
X159022737Y-74209374D01*
X159136005Y-74039856D01*
X159214026Y-73851498D01*
X159253800Y-73651539D01*
X159253800Y-73533402D01*
X159476000Y-73755602D01*
G36*
X155901334Y-68418235D02*
G01*
X155716744Y-68494695D01*
X155547226Y-68607963D01*
X155403063Y-68752126D01*
X155289795Y-68921644D01*
X155211774Y-69110002D01*
X155172000Y-69309961D01*
X155172000Y-69513839D01*
X155211774Y-69713798D01*
X155289795Y-69902156D01*
X155403063Y-70071674D01*
X155547226Y-70215837D01*
X155716744Y-70329105D01*
X155905102Y-70407126D01*
X156105061Y-70446900D01*
X156167299Y-70446900D01*
X158234998Y-72514600D01*
X158116861Y-72514600D01*
X157916902Y-72554374D01*
X157728544Y-72632395D01*
X157559026Y-72745663D01*
X157515089Y-72789600D01*
X155236111Y-72789600D01*
X155142574Y-72696063D01*
X154973056Y-72582795D01*
X154784698Y-72504774D01*
X154584739Y-72465000D01*
X154380861Y-72465000D01*
X154180902Y-72504774D01*
X154089800Y-72542510D01*
X154089800Y-66606701D01*
X155901334Y-68418235D01*
G37*
X155901334Y-68418235D02*
X155716744Y-68494695D01*
X155547226Y-68607963D01*
X155403063Y-68752126D01*
X155289795Y-68921644D01*
X155211774Y-69110002D01*
X155172000Y-69309961D01*
X155172000Y-69513839D01*
X155211774Y-69713798D01*
X155289795Y-69902156D01*
X155403063Y-70071674D01*
X155547226Y-70215837D01*
X155716744Y-70329105D01*
X155905102Y-70407126D01*
X156105061Y-70446900D01*
X156167299Y-70446900D01*
X158234998Y-72514600D01*
X158116861Y-72514600D01*
X157916902Y-72554374D01*
X157728544Y-72632395D01*
X157559026Y-72745663D01*
X157515089Y-72789600D01*
X155236111Y-72789600D01*
X155142574Y-72696063D01*
X154973056Y-72582795D01*
X154784698Y-72504774D01*
X154584739Y-72465000D01*
X154380861Y-72465000D01*
X154180902Y-72504774D01*
X154089800Y-72542510D01*
X154089800Y-66606701D01*
X155901334Y-68418235D01*
G36*
X163874000Y-56171289D02*
G01*
X163830063Y-56215226D01*
X163716795Y-56384744D01*
X163638774Y-56573102D01*
X163599000Y-56773061D01*
X163599000Y-56976939D01*
X163638774Y-57176898D01*
X163716795Y-57365256D01*
X163830063Y-57534774D01*
X163874000Y-57578711D01*
X163874001Y-65973268D01*
X163870324Y-66010600D01*
X163874001Y-66047933D01*
X163880517Y-66114085D01*
X163884998Y-66159585D01*
X163928454Y-66302846D01*
X163936291Y-66317508D01*
X163460800Y-66792999D01*
X162121904Y-65454103D01*
X162098101Y-65425099D01*
X161982376Y-65330126D01*
X161850347Y-65259554D01*
X161707086Y-65216097D01*
X161595433Y-65205100D01*
X161595422Y-65205100D01*
X161558100Y-65201424D01*
X161520778Y-65205100D01*
X160755311Y-65205100D01*
X160711374Y-65161163D01*
X160541856Y-65047895D01*
X160353498Y-64969874D01*
X160153539Y-64930100D01*
X159949661Y-64930100D01*
X159749702Y-64969874D01*
X159561344Y-65047895D01*
X159391826Y-65161163D01*
X159247663Y-65305326D01*
X159134395Y-65474844D01*
X159056374Y-65663202D01*
X159016600Y-65863161D01*
X159016600Y-66067039D01*
X159056374Y-66266998D01*
X159134395Y-66455356D01*
X159247663Y-66624874D01*
X159391826Y-66769037D01*
X159561344Y-66882305D01*
X159749702Y-66960326D01*
X159949661Y-67000100D01*
X160153539Y-67000100D01*
X160353498Y-66960326D01*
X160541856Y-66882305D01*
X160711374Y-66769037D01*
X160755311Y-66725100D01*
X161243299Y-66725100D01*
X161686094Y-67167895D01*
X161612063Y-67241926D01*
X161498795Y-67411444D01*
X161420774Y-67599802D01*
X161381000Y-67799761D01*
X161381000Y-68003639D01*
X161420774Y-68203598D01*
X161498795Y-68391956D01*
X161612063Y-68561474D01*
X161756226Y-68705637D01*
X161858101Y-68773707D01*
X161858101Y-72225399D01*
X154838000Y-65205299D01*
X154838000Y-59483502D01*
X154915034Y-59560536D01*
X154949795Y-59644456D01*
X155063063Y-59813974D01*
X155207226Y-59958137D01*
X155376744Y-60071405D01*
X155441762Y-60098337D01*
X155434000Y-60137361D01*
X155434000Y-60341239D01*
X155473774Y-60541198D01*
X155551795Y-60729556D01*
X155665063Y-60899074D01*
X155809226Y-61043237D01*
X155978744Y-61156505D01*
X156167102Y-61234526D01*
X156367061Y-61274300D01*
X156557900Y-61274300D01*
X156450495Y-61435044D01*
X156372474Y-61623402D01*
X156332700Y-61823361D01*
X156332700Y-62027239D01*
X156372474Y-62227198D01*
X156450495Y-62415556D01*
X156563763Y-62585074D01*
X156707926Y-62729237D01*
X156877444Y-62842505D01*
X157065802Y-62920526D01*
X157265761Y-62960300D01*
X157469639Y-62960300D01*
X157669598Y-62920526D01*
X157857956Y-62842505D01*
X158027474Y-62729237D01*
X158071411Y-62685300D01*
X160484699Y-62685300D01*
X160486100Y-62686701D01*
X160486100Y-62748839D01*
X160525874Y-62948798D01*
X160603895Y-63137156D01*
X160717163Y-63306674D01*
X160861326Y-63450837D01*
X161030844Y-63564105D01*
X161219202Y-63642126D01*
X161419161Y-63681900D01*
X161623039Y-63681900D01*
X161822998Y-63642126D01*
X162011356Y-63564105D01*
X162180874Y-63450837D01*
X162325037Y-63306674D01*
X162438305Y-63137156D01*
X162516326Y-62948798D01*
X162556100Y-62748839D01*
X162556100Y-62544961D01*
X162516326Y-62345002D01*
X162438305Y-62156644D01*
X162325037Y-61987126D01*
X162180874Y-61842963D01*
X162011356Y-61729695D01*
X161822998Y-61651674D01*
X161623039Y-61611900D01*
X161560901Y-61611900D01*
X161363303Y-61414302D01*
X161339501Y-61385299D01*
X161223776Y-61290326D01*
X161091747Y-61219754D01*
X160948486Y-61176297D01*
X160836833Y-61165300D01*
X160836822Y-61165300D01*
X160799500Y-61161624D01*
X160762178Y-61165300D01*
X158071411Y-61165300D01*
X158027474Y-61121363D01*
X157857956Y-61008095D01*
X157669598Y-60930074D01*
X157469639Y-60890300D01*
X157278800Y-60890300D01*
X157386205Y-60729556D01*
X157464226Y-60541198D01*
X157504000Y-60341239D01*
X157504000Y-60279101D01*
X159352519Y-58430583D01*
X159488744Y-58521605D01*
X159677102Y-58599626D01*
X159877061Y-58639400D01*
X160080939Y-58639400D01*
X160280898Y-58599626D01*
X160469256Y-58521605D01*
X160638774Y-58408337D01*
X160782937Y-58264174D01*
X160896205Y-58094656D01*
X160974226Y-57906298D01*
X161014000Y-57706339D01*
X161014000Y-57644201D01*
X163874000Y-54784201D01*
X163874000Y-56171289D01*
G37*
X163874000Y-56171289D02*
X163830063Y-56215226D01*
X163716795Y-56384744D01*
X163638774Y-56573102D01*
X163599000Y-56773061D01*
X163599000Y-56976939D01*
X163638774Y-57176898D01*
X163716795Y-57365256D01*
X163830063Y-57534774D01*
X163874000Y-57578711D01*
X163874001Y-65973268D01*
X163870324Y-66010600D01*
X163874001Y-66047933D01*
X163880517Y-66114085D01*
X163884998Y-66159585D01*
X163928454Y-66302846D01*
X163936291Y-66317508D01*
X163460800Y-66792999D01*
X162121904Y-65454103D01*
X162098101Y-65425099D01*
X161982376Y-65330126D01*
X161850347Y-65259554D01*
X161707086Y-65216097D01*
X161595433Y-65205100D01*
X161595422Y-65205100D01*
X161558100Y-65201424D01*
X161520778Y-65205100D01*
X160755311Y-65205100D01*
X160711374Y-65161163D01*
X160541856Y-65047895D01*
X160353498Y-64969874D01*
X160153539Y-64930100D01*
X159949661Y-64930100D01*
X159749702Y-64969874D01*
X159561344Y-65047895D01*
X159391826Y-65161163D01*
X159247663Y-65305326D01*
X159134395Y-65474844D01*
X159056374Y-65663202D01*
X159016600Y-65863161D01*
X159016600Y-66067039D01*
X159056374Y-66266998D01*
X159134395Y-66455356D01*
X159247663Y-66624874D01*
X159391826Y-66769037D01*
X159561344Y-66882305D01*
X159749702Y-66960326D01*
X159949661Y-67000100D01*
X160153539Y-67000100D01*
X160353498Y-66960326D01*
X160541856Y-66882305D01*
X160711374Y-66769037D01*
X160755311Y-66725100D01*
X161243299Y-66725100D01*
X161686094Y-67167895D01*
X161612063Y-67241926D01*
X161498795Y-67411444D01*
X161420774Y-67599802D01*
X161381000Y-67799761D01*
X161381000Y-68003639D01*
X161420774Y-68203598D01*
X161498795Y-68391956D01*
X161612063Y-68561474D01*
X161756226Y-68705637D01*
X161858101Y-68773707D01*
X161858101Y-72225399D01*
X154838000Y-65205299D01*
X154838000Y-59483502D01*
X154915034Y-59560536D01*
X154949795Y-59644456D01*
X155063063Y-59813974D01*
X155207226Y-59958137D01*
X155376744Y-60071405D01*
X155441762Y-60098337D01*
X155434000Y-60137361D01*
X155434000Y-60341239D01*
X155473774Y-60541198D01*
X155551795Y-60729556D01*
X155665063Y-60899074D01*
X155809226Y-61043237D01*
X155978744Y-61156505D01*
X156167102Y-61234526D01*
X156367061Y-61274300D01*
X156557900Y-61274300D01*
X156450495Y-61435044D01*
X156372474Y-61623402D01*
X156332700Y-61823361D01*
X156332700Y-62027239D01*
X156372474Y-62227198D01*
X156450495Y-62415556D01*
X156563763Y-62585074D01*
X156707926Y-62729237D01*
X156877444Y-62842505D01*
X157065802Y-62920526D01*
X157265761Y-62960300D01*
X157469639Y-62960300D01*
X157669598Y-62920526D01*
X157857956Y-62842505D01*
X158027474Y-62729237D01*
X158071411Y-62685300D01*
X160484699Y-62685300D01*
X160486100Y-62686701D01*
X160486100Y-62748839D01*
X160525874Y-62948798D01*
X160603895Y-63137156D01*
X160717163Y-63306674D01*
X160861326Y-63450837D01*
X161030844Y-63564105D01*
X161219202Y-63642126D01*
X161419161Y-63681900D01*
X161623039Y-63681900D01*
X161822998Y-63642126D01*
X162011356Y-63564105D01*
X162180874Y-63450837D01*
X162325037Y-63306674D01*
X162438305Y-63137156D01*
X162516326Y-62948798D01*
X162556100Y-62748839D01*
X162556100Y-62544961D01*
X162516326Y-62345002D01*
X162438305Y-62156644D01*
X162325037Y-61987126D01*
X162180874Y-61842963D01*
X162011356Y-61729695D01*
X161822998Y-61651674D01*
X161623039Y-61611900D01*
X161560901Y-61611900D01*
X161363303Y-61414302D01*
X161339501Y-61385299D01*
X161223776Y-61290326D01*
X161091747Y-61219754D01*
X160948486Y-61176297D01*
X160836833Y-61165300D01*
X160836822Y-61165300D01*
X160799500Y-61161624D01*
X160762178Y-61165300D01*
X158071411Y-61165300D01*
X158027474Y-61121363D01*
X157857956Y-61008095D01*
X157669598Y-60930074D01*
X157469639Y-60890300D01*
X157278800Y-60890300D01*
X157386205Y-60729556D01*
X157464226Y-60541198D01*
X157504000Y-60341239D01*
X157504000Y-60279101D01*
X159352519Y-58430583D01*
X159488744Y-58521605D01*
X159677102Y-58599626D01*
X159877061Y-58639400D01*
X160080939Y-58639400D01*
X160280898Y-58599626D01*
X160469256Y-58521605D01*
X160638774Y-58408337D01*
X160782937Y-58264174D01*
X160896205Y-58094656D01*
X160974226Y-57906298D01*
X161014000Y-57706339D01*
X161014000Y-57644201D01*
X163874000Y-54784201D01*
X163874000Y-56171289D01*
G36*
X172809150Y-54640769D02*
G01*
X172898845Y-54677922D01*
X172982528Y-54742134D01*
X176232967Y-57992573D01*
X176277397Y-58059067D01*
X176289515Y-58119990D01*
X176278282Y-58123000D01*
X169678328Y-58123000D01*
X169573743Y-58109231D01*
X169484045Y-58072077D01*
X169407024Y-58012976D01*
X169347923Y-57935955D01*
X169310769Y-57846257D01*
X169297000Y-57741672D01*
X169297000Y-55008328D01*
X169310769Y-54903743D01*
X169347923Y-54814045D01*
X169407024Y-54737024D01*
X169484045Y-54677923D01*
X169573743Y-54640769D01*
X169678328Y-54627000D01*
X172704565Y-54627000D01*
X172809150Y-54640769D01*
G37*
X172809150Y-54640769D02*
X172898845Y-54677922D01*
X172982528Y-54742134D01*
X176232967Y-57992573D01*
X176277397Y-58059067D01*
X176289515Y-58119990D01*
X176278282Y-58123000D01*
X169678328Y-58123000D01*
X169573743Y-58109231D01*
X169484045Y-58072077D01*
X169407024Y-58012976D01*
X169347923Y-57935955D01*
X169310769Y-57846257D01*
X169297000Y-57741672D01*
X169297000Y-55008328D01*
X169310769Y-54903743D01*
X169347923Y-54814045D01*
X169407024Y-54737024D01*
X169484045Y-54677923D01*
X169573743Y-54640769D01*
X169678328Y-54627000D01*
X172704565Y-54627000D01*
X172809150Y-54640769D01*
G36*
X172868318Y-48585192D02*
G01*
X172967046Y-48612406D01*
X173048712Y-48659499D01*
X173115916Y-48725610D01*
X173168525Y-48813482D01*
X174493609Y-51842243D01*
X174524114Y-51952146D01*
X174522796Y-52057098D01*
X174492191Y-52157500D01*
X174434741Y-52245341D01*
X174355026Y-52313621D01*
X174259402Y-52356896D01*
X174146481Y-52373000D01*
X168428328Y-52373000D01*
X168323743Y-52359231D01*
X168234045Y-52322077D01*
X168157024Y-52262976D01*
X168097923Y-52185955D01*
X168060769Y-52096257D01*
X168047000Y-51991672D01*
X168047000Y-48335585D01*
X168063345Y-48221839D01*
X168107249Y-48125646D01*
X168176465Y-48045706D01*
X168265390Y-47988491D01*
X168366824Y-47958633D01*
X168481735Y-47958538D01*
X172868318Y-48585192D01*
G37*
X172868318Y-48585192D02*
X172967046Y-48612406D01*
X173048712Y-48659499D01*
X173115916Y-48725610D01*
X173168525Y-48813482D01*
X174493609Y-51842243D01*
X174524114Y-51952146D01*
X174522796Y-52057098D01*
X174492191Y-52157500D01*
X174434741Y-52245341D01*
X174355026Y-52313621D01*
X174259402Y-52356896D01*
X174146481Y-52373000D01*
X168428328Y-52373000D01*
X168323743Y-52359231D01*
X168234045Y-52322077D01*
X168157024Y-52262976D01*
X168097923Y-52185955D01*
X168060769Y-52096257D01*
X168047000Y-51991672D01*
X168047000Y-48335585D01*
X168063345Y-48221839D01*
X168107249Y-48125646D01*
X168176465Y-48045706D01*
X168265390Y-47988491D01*
X168366824Y-47958633D01*
X168481735Y-47958538D01*
X172868318Y-48585192D01*
M02*
