G04 #@! TF.GenerationSoftware,KiCad,Pcbnew,(5.1.5)-3*
G04 #@! TF.CreationDate,2020-07-07T21:27:08-07:00*
G04 #@! TF.ProjectId,tool_head,746f6f6c-5f68-4656-9164-2e6b69636164,B*
G04 #@! TF.SameCoordinates,Original*
G04 #@! TF.FileFunction,Soldermask,Top*
G04 #@! TF.FilePolarity,Negative*
%FSLAX46Y46*%
G04 Gerber Fmt 4.6, Leading zero omitted, Abs format (unit mm)*
G04 Created by KiCad (PCBNEW (5.1.5)-3) date 2020-07-07 21:27:08*
%MOMM*%
%LPD*%
G04 APERTURE LIST*
%ADD10C,0.100000*%
G04 APERTURE END LIST*
D10*
G36*
X161033512Y-79643927D02*
G01*
X161182812Y-79673624D01*
X161346784Y-79741544D01*
X161494354Y-79840147D01*
X161619853Y-79965646D01*
X161718456Y-80113216D01*
X161786376Y-80277188D01*
X161821000Y-80451259D01*
X161821000Y-80628741D01*
X161786376Y-80802812D01*
X161718456Y-80966784D01*
X161619853Y-81114354D01*
X161494354Y-81239853D01*
X161346784Y-81338456D01*
X161182812Y-81406376D01*
X161033512Y-81436073D01*
X161008742Y-81441000D01*
X160831258Y-81441000D01*
X160806488Y-81436073D01*
X160657188Y-81406376D01*
X160493216Y-81338456D01*
X160345646Y-81239853D01*
X160220147Y-81114354D01*
X160121544Y-80966784D01*
X160053624Y-80802812D01*
X160019000Y-80628741D01*
X160019000Y-80451259D01*
X160053624Y-80277188D01*
X160121544Y-80113216D01*
X160220147Y-79965646D01*
X160345646Y-79840147D01*
X160493216Y-79741544D01*
X160657188Y-79673624D01*
X160806488Y-79643927D01*
X160831258Y-79639000D01*
X161008742Y-79639000D01*
X161033512Y-79643927D01*
G37*
G36*
X156783512Y-79643927D02*
G01*
X156932812Y-79673624D01*
X157096784Y-79741544D01*
X157244354Y-79840147D01*
X157369853Y-79965646D01*
X157468456Y-80113216D01*
X157536376Y-80277188D01*
X157571000Y-80451259D01*
X157571000Y-80628741D01*
X157536376Y-80802812D01*
X157468456Y-80966784D01*
X157369853Y-81114354D01*
X157244354Y-81239853D01*
X157096784Y-81338456D01*
X156932812Y-81406376D01*
X156783512Y-81436073D01*
X156758742Y-81441000D01*
X156581258Y-81441000D01*
X156556488Y-81436073D01*
X156407188Y-81406376D01*
X156243216Y-81338456D01*
X156095646Y-81239853D01*
X155970147Y-81114354D01*
X155871544Y-80966784D01*
X155803624Y-80802812D01*
X155769000Y-80628741D01*
X155769000Y-80451259D01*
X155803624Y-80277188D01*
X155871544Y-80113216D01*
X155970147Y-79965646D01*
X156095646Y-79840147D01*
X156243216Y-79741544D01*
X156407188Y-79673624D01*
X156556488Y-79643927D01*
X156581258Y-79639000D01*
X156758742Y-79639000D01*
X156783512Y-79643927D01*
G37*
G36*
X153979468Y-78753565D02*
G01*
X154018138Y-78765296D01*
X154053777Y-78784346D01*
X154085017Y-78809983D01*
X154110654Y-78841223D01*
X154129704Y-78876862D01*
X154141435Y-78915532D01*
X154146000Y-78961888D01*
X154146000Y-80038112D01*
X154141435Y-80084468D01*
X154129704Y-80123138D01*
X154110654Y-80158777D01*
X154085017Y-80190017D01*
X154053777Y-80215654D01*
X154018138Y-80234704D01*
X153979468Y-80246435D01*
X153933112Y-80251000D01*
X153281888Y-80251000D01*
X153235532Y-80246435D01*
X153196862Y-80234704D01*
X153161223Y-80215654D01*
X153129983Y-80190017D01*
X153104346Y-80158777D01*
X153085296Y-80123138D01*
X153073565Y-80084468D01*
X153069000Y-80038112D01*
X153069000Y-78961888D01*
X153073565Y-78915532D01*
X153085296Y-78876862D01*
X153104346Y-78841223D01*
X153129983Y-78809983D01*
X153161223Y-78784346D01*
X153196862Y-78765296D01*
X153235532Y-78753565D01*
X153281888Y-78749000D01*
X153933112Y-78749000D01*
X153979468Y-78753565D01*
G37*
G36*
X152104468Y-78753565D02*
G01*
X152143138Y-78765296D01*
X152178777Y-78784346D01*
X152210017Y-78809983D01*
X152235654Y-78841223D01*
X152254704Y-78876862D01*
X152266435Y-78915532D01*
X152271000Y-78961888D01*
X152271000Y-80038112D01*
X152266435Y-80084468D01*
X152254704Y-80123138D01*
X152235654Y-80158777D01*
X152210017Y-80190017D01*
X152178777Y-80215654D01*
X152143138Y-80234704D01*
X152104468Y-80246435D01*
X152058112Y-80251000D01*
X151406888Y-80251000D01*
X151360532Y-80246435D01*
X151321862Y-80234704D01*
X151286223Y-80215654D01*
X151254983Y-80190017D01*
X151229346Y-80158777D01*
X151210296Y-80123138D01*
X151198565Y-80084468D01*
X151194000Y-80038112D01*
X151194000Y-78961888D01*
X151198565Y-78915532D01*
X151210296Y-78876862D01*
X151229346Y-78841223D01*
X151254983Y-78809983D01*
X151286223Y-78784346D01*
X151321862Y-78765296D01*
X151360532Y-78753565D01*
X151406888Y-78749000D01*
X152058112Y-78749000D01*
X152104468Y-78753565D01*
G37*
G36*
X170229468Y-78003565D02*
G01*
X170268138Y-78015296D01*
X170303777Y-78034346D01*
X170335017Y-78059983D01*
X170360654Y-78091223D01*
X170379704Y-78126862D01*
X170391435Y-78165532D01*
X170396000Y-78211888D01*
X170396000Y-79288112D01*
X170391435Y-79334468D01*
X170379704Y-79373138D01*
X170360654Y-79408777D01*
X170335017Y-79440017D01*
X170303777Y-79465654D01*
X170268138Y-79484704D01*
X170229468Y-79496435D01*
X170183112Y-79501000D01*
X169531888Y-79501000D01*
X169485532Y-79496435D01*
X169446862Y-79484704D01*
X169411223Y-79465654D01*
X169379983Y-79440017D01*
X169354346Y-79408777D01*
X169335296Y-79373138D01*
X169323565Y-79334468D01*
X169319000Y-79288112D01*
X169319000Y-78211888D01*
X169323565Y-78165532D01*
X169335296Y-78126862D01*
X169354346Y-78091223D01*
X169379983Y-78059983D01*
X169411223Y-78034346D01*
X169446862Y-78015296D01*
X169485532Y-78003565D01*
X169531888Y-77999000D01*
X170183112Y-77999000D01*
X170229468Y-78003565D01*
G37*
G36*
X168354468Y-78003565D02*
G01*
X168393138Y-78015296D01*
X168428777Y-78034346D01*
X168460017Y-78059983D01*
X168485654Y-78091223D01*
X168504704Y-78126862D01*
X168516435Y-78165532D01*
X168521000Y-78211888D01*
X168521000Y-79288112D01*
X168516435Y-79334468D01*
X168504704Y-79373138D01*
X168485654Y-79408777D01*
X168460017Y-79440017D01*
X168428777Y-79465654D01*
X168393138Y-79484704D01*
X168354468Y-79496435D01*
X168308112Y-79501000D01*
X167656888Y-79501000D01*
X167610532Y-79496435D01*
X167571862Y-79484704D01*
X167536223Y-79465654D01*
X167504983Y-79440017D01*
X167479346Y-79408777D01*
X167460296Y-79373138D01*
X167448565Y-79334468D01*
X167444000Y-79288112D01*
X167444000Y-78211888D01*
X167448565Y-78165532D01*
X167460296Y-78126862D01*
X167479346Y-78091223D01*
X167504983Y-78059983D01*
X167536223Y-78034346D01*
X167571862Y-78015296D01*
X167610532Y-78003565D01*
X167656888Y-77999000D01*
X168308112Y-77999000D01*
X168354468Y-78003565D01*
G37*
G36*
X166229468Y-78003565D02*
G01*
X166268138Y-78015296D01*
X166303777Y-78034346D01*
X166335017Y-78059983D01*
X166360654Y-78091223D01*
X166379704Y-78126862D01*
X166391435Y-78165532D01*
X166396000Y-78211888D01*
X166396000Y-79288112D01*
X166391435Y-79334468D01*
X166379704Y-79373138D01*
X166360654Y-79408777D01*
X166335017Y-79440017D01*
X166303777Y-79465654D01*
X166268138Y-79484704D01*
X166229468Y-79496435D01*
X166183112Y-79501000D01*
X165531888Y-79501000D01*
X165485532Y-79496435D01*
X165446862Y-79484704D01*
X165411223Y-79465654D01*
X165379983Y-79440017D01*
X165354346Y-79408777D01*
X165335296Y-79373138D01*
X165323565Y-79334468D01*
X165319000Y-79288112D01*
X165319000Y-78211888D01*
X165323565Y-78165532D01*
X165335296Y-78126862D01*
X165354346Y-78091223D01*
X165379983Y-78059983D01*
X165411223Y-78034346D01*
X165446862Y-78015296D01*
X165485532Y-78003565D01*
X165531888Y-77999000D01*
X166183112Y-77999000D01*
X166229468Y-78003565D01*
G37*
G36*
X164354468Y-78003565D02*
G01*
X164393138Y-78015296D01*
X164428777Y-78034346D01*
X164460017Y-78059983D01*
X164485654Y-78091223D01*
X164504704Y-78126862D01*
X164516435Y-78165532D01*
X164521000Y-78211888D01*
X164521000Y-79288112D01*
X164516435Y-79334468D01*
X164504704Y-79373138D01*
X164485654Y-79408777D01*
X164460017Y-79440017D01*
X164428777Y-79465654D01*
X164393138Y-79484704D01*
X164354468Y-79496435D01*
X164308112Y-79501000D01*
X163656888Y-79501000D01*
X163610532Y-79496435D01*
X163571862Y-79484704D01*
X163536223Y-79465654D01*
X163504983Y-79440017D01*
X163479346Y-79408777D01*
X163460296Y-79373138D01*
X163448565Y-79334468D01*
X163444000Y-79288112D01*
X163444000Y-78211888D01*
X163448565Y-78165532D01*
X163460296Y-78126862D01*
X163479346Y-78091223D01*
X163504983Y-78059983D01*
X163536223Y-78034346D01*
X163571862Y-78015296D01*
X163610532Y-78003565D01*
X163656888Y-77999000D01*
X164308112Y-77999000D01*
X164354468Y-78003565D01*
G37*
G36*
X157571000Y-78901000D02*
G01*
X155769000Y-78901000D01*
X155769000Y-77099000D01*
X157571000Y-77099000D01*
X157571000Y-78901000D01*
G37*
G36*
X161821000Y-78901000D02*
G01*
X160019000Y-78901000D01*
X160019000Y-77099000D01*
X161821000Y-77099000D01*
X161821000Y-78901000D01*
G37*
G36*
X153979468Y-76753565D02*
G01*
X154018138Y-76765296D01*
X154053777Y-76784346D01*
X154085017Y-76809983D01*
X154110654Y-76841223D01*
X154129704Y-76876862D01*
X154141435Y-76915532D01*
X154146000Y-76961888D01*
X154146000Y-78038112D01*
X154141435Y-78084468D01*
X154129704Y-78123138D01*
X154110654Y-78158777D01*
X154085017Y-78190017D01*
X154053777Y-78215654D01*
X154018138Y-78234704D01*
X153979468Y-78246435D01*
X153933112Y-78251000D01*
X153281888Y-78251000D01*
X153235532Y-78246435D01*
X153196862Y-78234704D01*
X153161223Y-78215654D01*
X153129983Y-78190017D01*
X153104346Y-78158777D01*
X153085296Y-78123138D01*
X153073565Y-78084468D01*
X153069000Y-78038112D01*
X153069000Y-76961888D01*
X153073565Y-76915532D01*
X153085296Y-76876862D01*
X153104346Y-76841223D01*
X153129983Y-76809983D01*
X153161223Y-76784346D01*
X153196862Y-76765296D01*
X153235532Y-76753565D01*
X153281888Y-76749000D01*
X153933112Y-76749000D01*
X153979468Y-76753565D01*
G37*
G36*
X152104468Y-76753565D02*
G01*
X152143138Y-76765296D01*
X152178777Y-76784346D01*
X152210017Y-76809983D01*
X152235654Y-76841223D01*
X152254704Y-76876862D01*
X152266435Y-76915532D01*
X152271000Y-76961888D01*
X152271000Y-78038112D01*
X152266435Y-78084468D01*
X152254704Y-78123138D01*
X152235654Y-78158777D01*
X152210017Y-78190017D01*
X152178777Y-78215654D01*
X152143138Y-78234704D01*
X152104468Y-78246435D01*
X152058112Y-78251000D01*
X151406888Y-78251000D01*
X151360532Y-78246435D01*
X151321862Y-78234704D01*
X151286223Y-78215654D01*
X151254983Y-78190017D01*
X151229346Y-78158777D01*
X151210296Y-78123138D01*
X151198565Y-78084468D01*
X151194000Y-78038112D01*
X151194000Y-76961888D01*
X151198565Y-76915532D01*
X151210296Y-76876862D01*
X151229346Y-76841223D01*
X151254983Y-76809983D01*
X151286223Y-76784346D01*
X151321862Y-76765296D01*
X151360532Y-76753565D01*
X151406888Y-76749000D01*
X152058112Y-76749000D01*
X152104468Y-76753565D01*
G37*
G36*
X164354468Y-75753565D02*
G01*
X164393138Y-75765296D01*
X164428777Y-75784346D01*
X164460017Y-75809983D01*
X164485654Y-75841223D01*
X164504704Y-75876862D01*
X164516435Y-75915532D01*
X164521000Y-75961888D01*
X164521000Y-77038112D01*
X164516435Y-77084468D01*
X164504704Y-77123138D01*
X164485654Y-77158777D01*
X164460017Y-77190017D01*
X164428777Y-77215654D01*
X164393138Y-77234704D01*
X164354468Y-77246435D01*
X164308112Y-77251000D01*
X163656888Y-77251000D01*
X163610532Y-77246435D01*
X163571862Y-77234704D01*
X163536223Y-77215654D01*
X163504983Y-77190017D01*
X163479346Y-77158777D01*
X163460296Y-77123138D01*
X163448565Y-77084468D01*
X163444000Y-77038112D01*
X163444000Y-75961888D01*
X163448565Y-75915532D01*
X163460296Y-75876862D01*
X163479346Y-75841223D01*
X163504983Y-75809983D01*
X163536223Y-75784346D01*
X163571862Y-75765296D01*
X163610532Y-75753565D01*
X163656888Y-75749000D01*
X164308112Y-75749000D01*
X164354468Y-75753565D01*
G37*
G36*
X170229468Y-75753565D02*
G01*
X170268138Y-75765296D01*
X170303777Y-75784346D01*
X170335017Y-75809983D01*
X170360654Y-75841223D01*
X170379704Y-75876862D01*
X170391435Y-75915532D01*
X170396000Y-75961888D01*
X170396000Y-77038112D01*
X170391435Y-77084468D01*
X170379704Y-77123138D01*
X170360654Y-77158777D01*
X170335017Y-77190017D01*
X170303777Y-77215654D01*
X170268138Y-77234704D01*
X170229468Y-77246435D01*
X170183112Y-77251000D01*
X169531888Y-77251000D01*
X169485532Y-77246435D01*
X169446862Y-77234704D01*
X169411223Y-77215654D01*
X169379983Y-77190017D01*
X169354346Y-77158777D01*
X169335296Y-77123138D01*
X169323565Y-77084468D01*
X169319000Y-77038112D01*
X169319000Y-75961888D01*
X169323565Y-75915532D01*
X169335296Y-75876862D01*
X169354346Y-75841223D01*
X169379983Y-75809983D01*
X169411223Y-75784346D01*
X169446862Y-75765296D01*
X169485532Y-75753565D01*
X169531888Y-75749000D01*
X170183112Y-75749000D01*
X170229468Y-75753565D01*
G37*
G36*
X168354468Y-75753565D02*
G01*
X168393138Y-75765296D01*
X168428777Y-75784346D01*
X168460017Y-75809983D01*
X168485654Y-75841223D01*
X168504704Y-75876862D01*
X168516435Y-75915532D01*
X168521000Y-75961888D01*
X168521000Y-77038112D01*
X168516435Y-77084468D01*
X168504704Y-77123138D01*
X168485654Y-77158777D01*
X168460017Y-77190017D01*
X168428777Y-77215654D01*
X168393138Y-77234704D01*
X168354468Y-77246435D01*
X168308112Y-77251000D01*
X167656888Y-77251000D01*
X167610532Y-77246435D01*
X167571862Y-77234704D01*
X167536223Y-77215654D01*
X167504983Y-77190017D01*
X167479346Y-77158777D01*
X167460296Y-77123138D01*
X167448565Y-77084468D01*
X167444000Y-77038112D01*
X167444000Y-75961888D01*
X167448565Y-75915532D01*
X167460296Y-75876862D01*
X167479346Y-75841223D01*
X167504983Y-75809983D01*
X167536223Y-75784346D01*
X167571862Y-75765296D01*
X167610532Y-75753565D01*
X167656888Y-75749000D01*
X168308112Y-75749000D01*
X168354468Y-75753565D01*
G37*
G36*
X166229468Y-75753565D02*
G01*
X166268138Y-75765296D01*
X166303777Y-75784346D01*
X166335017Y-75809983D01*
X166360654Y-75841223D01*
X166379704Y-75876862D01*
X166391435Y-75915532D01*
X166396000Y-75961888D01*
X166396000Y-77038112D01*
X166391435Y-77084468D01*
X166379704Y-77123138D01*
X166360654Y-77158777D01*
X166335017Y-77190017D01*
X166303777Y-77215654D01*
X166268138Y-77234704D01*
X166229468Y-77246435D01*
X166183112Y-77251000D01*
X165531888Y-77251000D01*
X165485532Y-77246435D01*
X165446862Y-77234704D01*
X165411223Y-77215654D01*
X165379983Y-77190017D01*
X165354346Y-77158777D01*
X165335296Y-77123138D01*
X165323565Y-77084468D01*
X165319000Y-77038112D01*
X165319000Y-75961888D01*
X165323565Y-75915532D01*
X165335296Y-75876862D01*
X165354346Y-75841223D01*
X165379983Y-75809983D01*
X165411223Y-75784346D01*
X165446862Y-75765296D01*
X165485532Y-75753565D01*
X165531888Y-75749000D01*
X166183112Y-75749000D01*
X166229468Y-75753565D01*
G37*
G36*
X151901000Y-74826000D02*
G01*
X150739000Y-74826000D01*
X150739000Y-72174000D01*
X151901000Y-72174000D01*
X151901000Y-74826000D01*
G37*
G36*
X154101000Y-74826000D02*
G01*
X152939000Y-74826000D01*
X152939000Y-74074000D01*
X154101000Y-74074000D01*
X154101000Y-74826000D01*
G37*
G36*
X171171000Y-73901000D02*
G01*
X170169000Y-73901000D01*
X170169000Y-72999000D01*
X171171000Y-72999000D01*
X171171000Y-73901000D01*
G37*
G36*
X173171000Y-72951000D02*
G01*
X172169000Y-72951000D01*
X172169000Y-72049000D01*
X173171000Y-72049000D01*
X173171000Y-72951000D01*
G37*
G36*
X154101000Y-72926000D02*
G01*
X152939000Y-72926000D01*
X152939000Y-72174000D01*
X154101000Y-72174000D01*
X154101000Y-72926000D01*
G37*
G36*
X158104468Y-71253565D02*
G01*
X158143138Y-71265296D01*
X158178777Y-71284346D01*
X158210017Y-71309983D01*
X158235654Y-71341223D01*
X158254704Y-71376862D01*
X158266435Y-71415532D01*
X158271000Y-71461888D01*
X158271000Y-72538112D01*
X158266435Y-72584468D01*
X158254704Y-72623138D01*
X158235654Y-72658777D01*
X158210017Y-72690017D01*
X158178777Y-72715654D01*
X158143138Y-72734704D01*
X158104468Y-72746435D01*
X158058112Y-72751000D01*
X157406888Y-72751000D01*
X157360532Y-72746435D01*
X157321862Y-72734704D01*
X157286223Y-72715654D01*
X157254983Y-72690017D01*
X157229346Y-72658777D01*
X157210296Y-72623138D01*
X157198565Y-72584468D01*
X157194000Y-72538112D01*
X157194000Y-71461888D01*
X157198565Y-71415532D01*
X157210296Y-71376862D01*
X157229346Y-71341223D01*
X157254983Y-71309983D01*
X157286223Y-71284346D01*
X157321862Y-71265296D01*
X157360532Y-71253565D01*
X157406888Y-71249000D01*
X158058112Y-71249000D01*
X158104468Y-71253565D01*
G37*
G36*
X159979468Y-71253565D02*
G01*
X160018138Y-71265296D01*
X160053777Y-71284346D01*
X160085017Y-71309983D01*
X160110654Y-71341223D01*
X160129704Y-71376862D01*
X160141435Y-71415532D01*
X160146000Y-71461888D01*
X160146000Y-72538112D01*
X160141435Y-72584468D01*
X160129704Y-72623138D01*
X160110654Y-72658777D01*
X160085017Y-72690017D01*
X160053777Y-72715654D01*
X160018138Y-72734704D01*
X159979468Y-72746435D01*
X159933112Y-72751000D01*
X159281888Y-72751000D01*
X159235532Y-72746435D01*
X159196862Y-72734704D01*
X159161223Y-72715654D01*
X159129983Y-72690017D01*
X159104346Y-72658777D01*
X159085296Y-72623138D01*
X159073565Y-72584468D01*
X159069000Y-72538112D01*
X159069000Y-71461888D01*
X159073565Y-71415532D01*
X159085296Y-71376862D01*
X159104346Y-71341223D01*
X159129983Y-71309983D01*
X159161223Y-71284346D01*
X159196862Y-71265296D01*
X159235532Y-71253565D01*
X159281888Y-71249000D01*
X159933112Y-71249000D01*
X159979468Y-71253565D01*
G37*
G36*
X163104468Y-70753565D02*
G01*
X163143138Y-70765296D01*
X163178777Y-70784346D01*
X163210017Y-70809983D01*
X163235654Y-70841223D01*
X163254704Y-70876862D01*
X163266435Y-70915532D01*
X163271000Y-70961888D01*
X163271000Y-72038112D01*
X163266435Y-72084468D01*
X163254704Y-72123138D01*
X163235654Y-72158777D01*
X163210017Y-72190017D01*
X163178777Y-72215654D01*
X163143138Y-72234704D01*
X163104468Y-72246435D01*
X163058112Y-72251000D01*
X162406888Y-72251000D01*
X162360532Y-72246435D01*
X162321862Y-72234704D01*
X162286223Y-72215654D01*
X162254983Y-72190017D01*
X162229346Y-72158777D01*
X162210296Y-72123138D01*
X162198565Y-72084468D01*
X162194000Y-72038112D01*
X162194000Y-70961888D01*
X162198565Y-70915532D01*
X162210296Y-70876862D01*
X162229346Y-70841223D01*
X162254983Y-70809983D01*
X162286223Y-70784346D01*
X162321862Y-70765296D01*
X162360532Y-70753565D01*
X162406888Y-70749000D01*
X163058112Y-70749000D01*
X163104468Y-70753565D01*
G37*
G36*
X164979468Y-70753565D02*
G01*
X165018138Y-70765296D01*
X165053777Y-70784346D01*
X165085017Y-70809983D01*
X165110654Y-70841223D01*
X165129704Y-70876862D01*
X165141435Y-70915532D01*
X165146000Y-70961888D01*
X165146000Y-72038112D01*
X165141435Y-72084468D01*
X165129704Y-72123138D01*
X165110654Y-72158777D01*
X165085017Y-72190017D01*
X165053777Y-72215654D01*
X165018138Y-72234704D01*
X164979468Y-72246435D01*
X164933112Y-72251000D01*
X164281888Y-72251000D01*
X164235532Y-72246435D01*
X164196862Y-72234704D01*
X164161223Y-72215654D01*
X164129983Y-72190017D01*
X164104346Y-72158777D01*
X164085296Y-72123138D01*
X164073565Y-72084468D01*
X164069000Y-72038112D01*
X164069000Y-70961888D01*
X164073565Y-70915532D01*
X164085296Y-70876862D01*
X164104346Y-70841223D01*
X164129983Y-70809983D01*
X164161223Y-70784346D01*
X164196862Y-70765296D01*
X164235532Y-70753565D01*
X164281888Y-70749000D01*
X164933112Y-70749000D01*
X164979468Y-70753565D01*
G37*
G36*
X168979468Y-70753565D02*
G01*
X169018138Y-70765296D01*
X169053777Y-70784346D01*
X169085017Y-70809983D01*
X169110654Y-70841223D01*
X169129704Y-70876862D01*
X169141435Y-70915532D01*
X169146000Y-70961888D01*
X169146000Y-72038112D01*
X169141435Y-72084468D01*
X169129704Y-72123138D01*
X169110654Y-72158777D01*
X169085017Y-72190017D01*
X169053777Y-72215654D01*
X169018138Y-72234704D01*
X168979468Y-72246435D01*
X168933112Y-72251000D01*
X168281888Y-72251000D01*
X168235532Y-72246435D01*
X168196862Y-72234704D01*
X168161223Y-72215654D01*
X168129983Y-72190017D01*
X168104346Y-72158777D01*
X168085296Y-72123138D01*
X168073565Y-72084468D01*
X168069000Y-72038112D01*
X168069000Y-70961888D01*
X168073565Y-70915532D01*
X168085296Y-70876862D01*
X168104346Y-70841223D01*
X168129983Y-70809983D01*
X168161223Y-70784346D01*
X168196862Y-70765296D01*
X168235532Y-70753565D01*
X168281888Y-70749000D01*
X168933112Y-70749000D01*
X168979468Y-70753565D01*
G37*
G36*
X167104468Y-70753565D02*
G01*
X167143138Y-70765296D01*
X167178777Y-70784346D01*
X167210017Y-70809983D01*
X167235654Y-70841223D01*
X167254704Y-70876862D01*
X167266435Y-70915532D01*
X167271000Y-70961888D01*
X167271000Y-72038112D01*
X167266435Y-72084468D01*
X167254704Y-72123138D01*
X167235654Y-72158777D01*
X167210017Y-72190017D01*
X167178777Y-72215654D01*
X167143138Y-72234704D01*
X167104468Y-72246435D01*
X167058112Y-72251000D01*
X166406888Y-72251000D01*
X166360532Y-72246435D01*
X166321862Y-72234704D01*
X166286223Y-72215654D01*
X166254983Y-72190017D01*
X166229346Y-72158777D01*
X166210296Y-72123138D01*
X166198565Y-72084468D01*
X166194000Y-72038112D01*
X166194000Y-70961888D01*
X166198565Y-70915532D01*
X166210296Y-70876862D01*
X166229346Y-70841223D01*
X166254983Y-70809983D01*
X166286223Y-70784346D01*
X166321862Y-70765296D01*
X166360532Y-70753565D01*
X166406888Y-70749000D01*
X167058112Y-70749000D01*
X167104468Y-70753565D01*
G37*
G36*
X179323512Y-70223927D02*
G01*
X179472812Y-70253624D01*
X179636784Y-70321544D01*
X179784354Y-70420147D01*
X179909853Y-70545646D01*
X180008456Y-70693216D01*
X180076376Y-70857188D01*
X180097964Y-70965722D01*
X180108413Y-71018250D01*
X180111000Y-71031259D01*
X180111000Y-71208741D01*
X180076376Y-71382812D01*
X180008456Y-71546784D01*
X179909853Y-71694354D01*
X179784354Y-71819853D01*
X179636784Y-71918456D01*
X179472812Y-71986376D01*
X179323512Y-72016073D01*
X179298742Y-72021000D01*
X179121258Y-72021000D01*
X179096488Y-72016073D01*
X178947188Y-71986376D01*
X178783216Y-71918456D01*
X178635646Y-71819853D01*
X178510147Y-71694354D01*
X178411544Y-71546784D01*
X178343624Y-71382812D01*
X178309000Y-71208741D01*
X178309000Y-71031259D01*
X178311588Y-71018250D01*
X178322036Y-70965722D01*
X178343624Y-70857188D01*
X178411544Y-70693216D01*
X178510147Y-70545646D01*
X178635646Y-70420147D01*
X178783216Y-70321544D01*
X178947188Y-70253624D01*
X179096488Y-70223927D01*
X179121258Y-70219000D01*
X179298742Y-70219000D01*
X179323512Y-70223927D01*
G37*
G36*
X176783512Y-70223927D02*
G01*
X176932812Y-70253624D01*
X177096784Y-70321544D01*
X177244354Y-70420147D01*
X177369853Y-70545646D01*
X177468456Y-70693216D01*
X177536376Y-70857188D01*
X177557964Y-70965722D01*
X177568413Y-71018250D01*
X177571000Y-71031259D01*
X177571000Y-71208741D01*
X177536376Y-71382812D01*
X177468456Y-71546784D01*
X177369853Y-71694354D01*
X177244354Y-71819853D01*
X177096784Y-71918456D01*
X176932812Y-71986376D01*
X176783512Y-72016073D01*
X176758742Y-72021000D01*
X176581258Y-72021000D01*
X176556488Y-72016073D01*
X176407188Y-71986376D01*
X176243216Y-71918456D01*
X176095646Y-71819853D01*
X175970147Y-71694354D01*
X175871544Y-71546784D01*
X175803624Y-71382812D01*
X175769000Y-71208741D01*
X175769000Y-71031259D01*
X175771588Y-71018250D01*
X175782036Y-70965722D01*
X175803624Y-70857188D01*
X175871544Y-70693216D01*
X175970147Y-70545646D01*
X176095646Y-70420147D01*
X176243216Y-70321544D01*
X176407188Y-70253624D01*
X176556488Y-70223927D01*
X176581258Y-70219000D01*
X176758742Y-70219000D01*
X176783512Y-70223927D01*
G37*
G36*
X171171000Y-72001000D02*
G01*
X170169000Y-72001000D01*
X170169000Y-71099000D01*
X171171000Y-71099000D01*
X171171000Y-72001000D01*
G37*
G36*
X142690104Y-70109585D02*
G01*
X142858626Y-70179389D01*
X143010291Y-70280728D01*
X143139272Y-70409709D01*
X143240611Y-70561374D01*
X143310415Y-70729896D01*
X143346000Y-70908797D01*
X143346000Y-71091203D01*
X143310415Y-71270104D01*
X143240611Y-71438626D01*
X143139272Y-71590291D01*
X143010291Y-71719272D01*
X142858626Y-71820611D01*
X142690104Y-71890415D01*
X142511203Y-71926000D01*
X142328797Y-71926000D01*
X142149896Y-71890415D01*
X141981374Y-71820611D01*
X141829709Y-71719272D01*
X141700728Y-71590291D01*
X141599389Y-71438626D01*
X141529585Y-71270104D01*
X141494000Y-71091203D01*
X141494000Y-70908797D01*
X141529585Y-70729896D01*
X141599389Y-70561374D01*
X141700728Y-70409709D01*
X141829709Y-70280728D01*
X141981374Y-70179389D01*
X142149896Y-70109585D01*
X142328797Y-70074000D01*
X142511203Y-70074000D01*
X142690104Y-70109585D01*
G37*
G36*
X149190104Y-70109585D02*
G01*
X149358626Y-70179389D01*
X149510291Y-70280728D01*
X149639272Y-70409709D01*
X149740611Y-70561374D01*
X149810415Y-70729896D01*
X149846000Y-70908797D01*
X149846000Y-71091203D01*
X149810415Y-71270104D01*
X149740611Y-71438626D01*
X149639272Y-71590291D01*
X149510291Y-71719272D01*
X149358626Y-71820611D01*
X149190104Y-71890415D01*
X149011203Y-71926000D01*
X148828797Y-71926000D01*
X148649896Y-71890415D01*
X148481374Y-71820611D01*
X148329709Y-71719272D01*
X148200728Y-71590291D01*
X148099389Y-71438626D01*
X148029585Y-71270104D01*
X147994000Y-71091203D01*
X147994000Y-70908797D01*
X148029585Y-70729896D01*
X148099389Y-70561374D01*
X148200728Y-70409709D01*
X148329709Y-70280728D01*
X148481374Y-70179389D01*
X148649896Y-70109585D01*
X148828797Y-70074000D01*
X149011203Y-70074000D01*
X149190104Y-70109585D01*
G37*
G36*
X153479468Y-69753565D02*
G01*
X153518138Y-69765296D01*
X153553777Y-69784346D01*
X153585017Y-69809983D01*
X153610654Y-69841223D01*
X153629704Y-69876862D01*
X153641435Y-69915532D01*
X153646000Y-69961888D01*
X153646000Y-71038112D01*
X153641435Y-71084468D01*
X153629704Y-71123138D01*
X153610654Y-71158777D01*
X153585017Y-71190017D01*
X153553777Y-71215654D01*
X153518138Y-71234704D01*
X153479468Y-71246435D01*
X153433112Y-71251000D01*
X152781888Y-71251000D01*
X152735532Y-71246435D01*
X152696862Y-71234704D01*
X152661223Y-71215654D01*
X152629983Y-71190017D01*
X152604346Y-71158777D01*
X152585296Y-71123138D01*
X152573565Y-71084468D01*
X152569000Y-71038112D01*
X152569000Y-69961888D01*
X152573565Y-69915532D01*
X152585296Y-69876862D01*
X152604346Y-69841223D01*
X152629983Y-69809983D01*
X152661223Y-69784346D01*
X152696862Y-69765296D01*
X152735532Y-69753565D01*
X152781888Y-69749000D01*
X153433112Y-69749000D01*
X153479468Y-69753565D01*
G37*
G36*
X151604468Y-69753565D02*
G01*
X151643138Y-69765296D01*
X151678777Y-69784346D01*
X151710017Y-69809983D01*
X151735654Y-69841223D01*
X151754704Y-69876862D01*
X151766435Y-69915532D01*
X151771000Y-69961888D01*
X151771000Y-71038112D01*
X151766435Y-71084468D01*
X151754704Y-71123138D01*
X151735654Y-71158777D01*
X151710017Y-71190017D01*
X151678777Y-71215654D01*
X151643138Y-71234704D01*
X151604468Y-71246435D01*
X151558112Y-71251000D01*
X150906888Y-71251000D01*
X150860532Y-71246435D01*
X150821862Y-71234704D01*
X150786223Y-71215654D01*
X150754983Y-71190017D01*
X150729346Y-71158777D01*
X150710296Y-71123138D01*
X150698565Y-71084468D01*
X150694000Y-71038112D01*
X150694000Y-69961888D01*
X150698565Y-69915532D01*
X150710296Y-69876862D01*
X150729346Y-69841223D01*
X150754983Y-69809983D01*
X150786223Y-69784346D01*
X150821862Y-69765296D01*
X150860532Y-69753565D01*
X150906888Y-69749000D01*
X151558112Y-69749000D01*
X151604468Y-69753565D01*
G37*
G36*
X159979468Y-69253565D02*
G01*
X160018138Y-69265296D01*
X160053777Y-69284346D01*
X160085017Y-69309983D01*
X160110654Y-69341223D01*
X160129704Y-69376862D01*
X160141435Y-69415532D01*
X160146000Y-69461888D01*
X160146000Y-70538112D01*
X160141435Y-70584468D01*
X160129704Y-70623138D01*
X160110654Y-70658777D01*
X160085017Y-70690017D01*
X160053777Y-70715654D01*
X160018138Y-70734704D01*
X159979468Y-70746435D01*
X159933112Y-70751000D01*
X159281888Y-70751000D01*
X159235532Y-70746435D01*
X159196862Y-70734704D01*
X159161223Y-70715654D01*
X159129983Y-70690017D01*
X159104346Y-70658777D01*
X159085296Y-70623138D01*
X159073565Y-70584468D01*
X159069000Y-70538112D01*
X159069000Y-69461888D01*
X159073565Y-69415532D01*
X159085296Y-69376862D01*
X159104346Y-69341223D01*
X159129983Y-69309983D01*
X159161223Y-69284346D01*
X159196862Y-69265296D01*
X159235532Y-69253565D01*
X159281888Y-69249000D01*
X159933112Y-69249000D01*
X159979468Y-69253565D01*
G37*
G36*
X158104468Y-69253565D02*
G01*
X158143138Y-69265296D01*
X158178777Y-69284346D01*
X158210017Y-69309983D01*
X158235654Y-69341223D01*
X158254704Y-69376862D01*
X158266435Y-69415532D01*
X158271000Y-69461888D01*
X158271000Y-70538112D01*
X158266435Y-70584468D01*
X158254704Y-70623138D01*
X158235654Y-70658777D01*
X158210017Y-70690017D01*
X158178777Y-70715654D01*
X158143138Y-70734704D01*
X158104468Y-70746435D01*
X158058112Y-70751000D01*
X157406888Y-70751000D01*
X157360532Y-70746435D01*
X157321862Y-70734704D01*
X157286223Y-70715654D01*
X157254983Y-70690017D01*
X157229346Y-70658777D01*
X157210296Y-70623138D01*
X157198565Y-70584468D01*
X157194000Y-70538112D01*
X157194000Y-69461888D01*
X157198565Y-69415532D01*
X157210296Y-69376862D01*
X157229346Y-69341223D01*
X157254983Y-69309983D01*
X157286223Y-69284346D01*
X157321862Y-69265296D01*
X157360532Y-69253565D01*
X157406888Y-69249000D01*
X158058112Y-69249000D01*
X158104468Y-69253565D01*
G37*
G36*
X168979468Y-68503565D02*
G01*
X169018138Y-68515296D01*
X169053777Y-68534346D01*
X169085017Y-68559983D01*
X169110654Y-68591223D01*
X169129704Y-68626862D01*
X169141435Y-68665532D01*
X169146000Y-68711888D01*
X169146000Y-69788112D01*
X169141435Y-69834468D01*
X169129704Y-69873138D01*
X169110654Y-69908777D01*
X169085017Y-69940017D01*
X169053777Y-69965654D01*
X169018138Y-69984704D01*
X168979468Y-69996435D01*
X168933112Y-70001000D01*
X168281888Y-70001000D01*
X168235532Y-69996435D01*
X168196862Y-69984704D01*
X168161223Y-69965654D01*
X168129983Y-69940017D01*
X168104346Y-69908777D01*
X168085296Y-69873138D01*
X168073565Y-69834468D01*
X168069000Y-69788112D01*
X168069000Y-68711888D01*
X168073565Y-68665532D01*
X168085296Y-68626862D01*
X168104346Y-68591223D01*
X168129983Y-68559983D01*
X168161223Y-68534346D01*
X168196862Y-68515296D01*
X168235532Y-68503565D01*
X168281888Y-68499000D01*
X168933112Y-68499000D01*
X168979468Y-68503565D01*
G37*
G36*
X167104468Y-68503565D02*
G01*
X167143138Y-68515296D01*
X167178777Y-68534346D01*
X167210017Y-68559983D01*
X167235654Y-68591223D01*
X167254704Y-68626862D01*
X167266435Y-68665532D01*
X167271000Y-68711888D01*
X167271000Y-69788112D01*
X167266435Y-69834468D01*
X167254704Y-69873138D01*
X167235654Y-69908777D01*
X167210017Y-69940017D01*
X167178777Y-69965654D01*
X167143138Y-69984704D01*
X167104468Y-69996435D01*
X167058112Y-70001000D01*
X166406888Y-70001000D01*
X166360532Y-69996435D01*
X166321862Y-69984704D01*
X166286223Y-69965654D01*
X166254983Y-69940017D01*
X166229346Y-69908777D01*
X166210296Y-69873138D01*
X166198565Y-69834468D01*
X166194000Y-69788112D01*
X166194000Y-68711888D01*
X166198565Y-68665532D01*
X166210296Y-68626862D01*
X166229346Y-68591223D01*
X166254983Y-68559983D01*
X166286223Y-68534346D01*
X166321862Y-68515296D01*
X166360532Y-68503565D01*
X166406888Y-68499000D01*
X167058112Y-68499000D01*
X167104468Y-68503565D01*
G37*
G36*
X163104468Y-68503565D02*
G01*
X163143138Y-68515296D01*
X163178777Y-68534346D01*
X163210017Y-68559983D01*
X163235654Y-68591223D01*
X163254704Y-68626862D01*
X163266435Y-68665532D01*
X163271000Y-68711888D01*
X163271000Y-69788112D01*
X163266435Y-69834468D01*
X163254704Y-69873138D01*
X163235654Y-69908777D01*
X163210017Y-69940017D01*
X163178777Y-69965654D01*
X163143138Y-69984704D01*
X163104468Y-69996435D01*
X163058112Y-70001000D01*
X162406888Y-70001000D01*
X162360532Y-69996435D01*
X162321862Y-69984704D01*
X162286223Y-69965654D01*
X162254983Y-69940017D01*
X162229346Y-69908777D01*
X162210296Y-69873138D01*
X162198565Y-69834468D01*
X162194000Y-69788112D01*
X162194000Y-68711888D01*
X162198565Y-68665532D01*
X162210296Y-68626862D01*
X162229346Y-68591223D01*
X162254983Y-68559983D01*
X162286223Y-68534346D01*
X162321862Y-68515296D01*
X162360532Y-68503565D01*
X162406888Y-68499000D01*
X163058112Y-68499000D01*
X163104468Y-68503565D01*
G37*
G36*
X164979468Y-68503565D02*
G01*
X165018138Y-68515296D01*
X165053777Y-68534346D01*
X165085017Y-68559983D01*
X165110654Y-68591223D01*
X165129704Y-68626862D01*
X165141435Y-68665532D01*
X165146000Y-68711888D01*
X165146000Y-69788112D01*
X165141435Y-69834468D01*
X165129704Y-69873138D01*
X165110654Y-69908777D01*
X165085017Y-69940017D01*
X165053777Y-69965654D01*
X165018138Y-69984704D01*
X164979468Y-69996435D01*
X164933112Y-70001000D01*
X164281888Y-70001000D01*
X164235532Y-69996435D01*
X164196862Y-69984704D01*
X164161223Y-69965654D01*
X164129983Y-69940017D01*
X164104346Y-69908777D01*
X164085296Y-69873138D01*
X164073565Y-69834468D01*
X164069000Y-69788112D01*
X164069000Y-68711888D01*
X164073565Y-68665532D01*
X164085296Y-68626862D01*
X164104346Y-68591223D01*
X164129983Y-68559983D01*
X164161223Y-68534346D01*
X164196862Y-68515296D01*
X164235532Y-68503565D01*
X164281888Y-68499000D01*
X164933112Y-68499000D01*
X164979468Y-68503565D01*
G37*
G36*
X176783512Y-67683927D02*
G01*
X176932812Y-67713624D01*
X177096784Y-67781544D01*
X177244354Y-67880147D01*
X177369853Y-68005646D01*
X177468456Y-68153216D01*
X177536376Y-68317188D01*
X177571000Y-68491259D01*
X177571000Y-68668741D01*
X177536376Y-68842812D01*
X177468456Y-69006784D01*
X177369853Y-69154354D01*
X177244354Y-69279853D01*
X177096784Y-69378456D01*
X176932812Y-69446376D01*
X176783512Y-69476073D01*
X176758742Y-69481000D01*
X176581258Y-69481000D01*
X176556488Y-69476073D01*
X176407188Y-69446376D01*
X176243216Y-69378456D01*
X176095646Y-69279853D01*
X175970147Y-69154354D01*
X175871544Y-69006784D01*
X175803624Y-68842812D01*
X175769000Y-68668741D01*
X175769000Y-68491259D01*
X175803624Y-68317188D01*
X175871544Y-68153216D01*
X175970147Y-68005646D01*
X176095646Y-67880147D01*
X176243216Y-67781544D01*
X176407188Y-67713624D01*
X176556488Y-67683927D01*
X176581258Y-67679000D01*
X176758742Y-67679000D01*
X176783512Y-67683927D01*
G37*
G36*
X179323512Y-67683927D02*
G01*
X179472812Y-67713624D01*
X179636784Y-67781544D01*
X179784354Y-67880147D01*
X179909853Y-68005646D01*
X180008456Y-68153216D01*
X180076376Y-68317188D01*
X180111000Y-68491259D01*
X180111000Y-68668741D01*
X180076376Y-68842812D01*
X180008456Y-69006784D01*
X179909853Y-69154354D01*
X179784354Y-69279853D01*
X179636784Y-69378456D01*
X179472812Y-69446376D01*
X179323512Y-69476073D01*
X179298742Y-69481000D01*
X179121258Y-69481000D01*
X179096488Y-69476073D01*
X178947188Y-69446376D01*
X178783216Y-69378456D01*
X178635646Y-69279853D01*
X178510147Y-69154354D01*
X178411544Y-69006784D01*
X178343624Y-68842812D01*
X178309000Y-68668741D01*
X178309000Y-68491259D01*
X178343624Y-68317188D01*
X178411544Y-68153216D01*
X178510147Y-68005646D01*
X178635646Y-67880147D01*
X178783216Y-67781544D01*
X178947188Y-67713624D01*
X179096488Y-67683927D01*
X179121258Y-67679000D01*
X179298742Y-67679000D01*
X179323512Y-67683927D01*
G37*
G36*
X171171000Y-68901000D02*
G01*
X170169000Y-68901000D01*
X170169000Y-67999000D01*
X171171000Y-67999000D01*
X171171000Y-68901000D01*
G37*
G36*
X159254468Y-67403565D02*
G01*
X159293138Y-67415296D01*
X159328777Y-67434346D01*
X159360017Y-67459983D01*
X159385654Y-67491223D01*
X159404704Y-67526862D01*
X159416435Y-67565532D01*
X159421000Y-67611888D01*
X159421000Y-68263112D01*
X159416435Y-68309468D01*
X159404704Y-68348138D01*
X159385654Y-68383777D01*
X159360017Y-68415017D01*
X159328777Y-68440654D01*
X159293138Y-68459704D01*
X159254468Y-68471435D01*
X159208112Y-68476000D01*
X158131888Y-68476000D01*
X158085532Y-68471435D01*
X158046862Y-68459704D01*
X158011223Y-68440654D01*
X157979983Y-68415017D01*
X157954346Y-68383777D01*
X157935296Y-68348138D01*
X157923565Y-68309468D01*
X157919000Y-68263112D01*
X157919000Y-67611888D01*
X157923565Y-67565532D01*
X157935296Y-67526862D01*
X157954346Y-67491223D01*
X157979983Y-67459983D01*
X158011223Y-67434346D01*
X158046862Y-67415296D01*
X158085532Y-67403565D01*
X158131888Y-67399000D01*
X159208112Y-67399000D01*
X159254468Y-67403565D01*
G37*
G36*
X153504468Y-67403565D02*
G01*
X153543138Y-67415296D01*
X153578777Y-67434346D01*
X153610017Y-67459983D01*
X153635654Y-67491223D01*
X153654704Y-67526862D01*
X153666435Y-67565532D01*
X153671000Y-67611888D01*
X153671000Y-68263112D01*
X153666435Y-68309468D01*
X153654704Y-68348138D01*
X153635654Y-68383777D01*
X153610017Y-68415017D01*
X153578777Y-68440654D01*
X153543138Y-68459704D01*
X153504468Y-68471435D01*
X153458112Y-68476000D01*
X152381888Y-68476000D01*
X152335532Y-68471435D01*
X152296862Y-68459704D01*
X152261223Y-68440654D01*
X152229983Y-68415017D01*
X152204346Y-68383777D01*
X152185296Y-68348138D01*
X152173565Y-68309468D01*
X152169000Y-68263112D01*
X152169000Y-67611888D01*
X152173565Y-67565532D01*
X152185296Y-67526862D01*
X152204346Y-67491223D01*
X152229983Y-67459983D01*
X152261223Y-67434346D01*
X152296862Y-67415296D01*
X152335532Y-67403565D01*
X152381888Y-67399000D01*
X153458112Y-67399000D01*
X153504468Y-67403565D01*
G37*
G36*
X173171000Y-67951000D02*
G01*
X172169000Y-67951000D01*
X172169000Y-67049000D01*
X173171000Y-67049000D01*
X173171000Y-67951000D01*
G37*
G36*
X145314072Y-65030918D02*
G01*
X145559939Y-65132759D01*
X145569279Y-65139000D01*
X145781211Y-65280609D01*
X145969391Y-65468789D01*
X146019976Y-65544495D01*
X146086239Y-65643663D01*
X146117242Y-65690063D01*
X146219082Y-65935928D01*
X146271000Y-66196937D01*
X146271000Y-66463063D01*
X146240906Y-66614354D01*
X146219082Y-66724072D01*
X146117241Y-66969939D01*
X146064414Y-67049000D01*
X145969391Y-67191211D01*
X145781211Y-67379391D01*
X145721191Y-67419495D01*
X145559939Y-67527241D01*
X145559938Y-67527242D01*
X145559937Y-67527242D01*
X145314072Y-67629082D01*
X145053063Y-67681000D01*
X144786937Y-67681000D01*
X144525928Y-67629082D01*
X144280063Y-67527242D01*
X144280062Y-67527242D01*
X144280061Y-67527241D01*
X144118809Y-67419495D01*
X144058789Y-67379391D01*
X143870609Y-67191211D01*
X143775586Y-67049000D01*
X143722759Y-66969939D01*
X143620918Y-66724072D01*
X143599094Y-66614354D01*
X143569000Y-66463063D01*
X143569000Y-66196937D01*
X143620918Y-65935928D01*
X143722758Y-65690063D01*
X143753762Y-65643663D01*
X143820024Y-65544495D01*
X143870609Y-65468789D01*
X144058789Y-65280609D01*
X144270721Y-65139000D01*
X144280061Y-65132759D01*
X144525928Y-65030918D01*
X144786937Y-64979000D01*
X145053063Y-64979000D01*
X145314072Y-65030918D01*
G37*
G36*
X171171000Y-67001000D02*
G01*
X170169000Y-67001000D01*
X170169000Y-66099000D01*
X171171000Y-66099000D01*
X171171000Y-67001000D01*
G37*
G36*
X176783512Y-65143927D02*
G01*
X176932812Y-65173624D01*
X177096784Y-65241544D01*
X177244354Y-65340147D01*
X177369853Y-65465646D01*
X177468456Y-65613216D01*
X177536376Y-65777188D01*
X177571000Y-65951259D01*
X177571000Y-66128741D01*
X177536376Y-66302812D01*
X177468456Y-66466784D01*
X177369853Y-66614354D01*
X177244354Y-66739853D01*
X177096784Y-66838456D01*
X176932812Y-66906376D01*
X176783512Y-66936073D01*
X176758742Y-66941000D01*
X176581258Y-66941000D01*
X176556488Y-66936073D01*
X176407188Y-66906376D01*
X176243216Y-66838456D01*
X176095646Y-66739853D01*
X175970147Y-66614354D01*
X175871544Y-66466784D01*
X175803624Y-66302812D01*
X175769000Y-66128741D01*
X175769000Y-65951259D01*
X175803624Y-65777188D01*
X175871544Y-65613216D01*
X175970147Y-65465646D01*
X176095646Y-65340147D01*
X176243216Y-65241544D01*
X176407188Y-65173624D01*
X176556488Y-65143927D01*
X176581258Y-65139000D01*
X176758742Y-65139000D01*
X176783512Y-65143927D01*
G37*
G36*
X179323512Y-65143927D02*
G01*
X179472812Y-65173624D01*
X179636784Y-65241544D01*
X179784354Y-65340147D01*
X179909853Y-65465646D01*
X180008456Y-65613216D01*
X180076376Y-65777188D01*
X180111000Y-65951259D01*
X180111000Y-66128741D01*
X180076376Y-66302812D01*
X180008456Y-66466784D01*
X179909853Y-66614354D01*
X179784354Y-66739853D01*
X179636784Y-66838456D01*
X179472812Y-66906376D01*
X179323512Y-66936073D01*
X179298742Y-66941000D01*
X179121258Y-66941000D01*
X179096488Y-66936073D01*
X178947188Y-66906376D01*
X178783216Y-66838456D01*
X178635646Y-66739853D01*
X178510147Y-66614354D01*
X178411544Y-66466784D01*
X178343624Y-66302812D01*
X178309000Y-66128741D01*
X178309000Y-65951259D01*
X178343624Y-65777188D01*
X178411544Y-65613216D01*
X178510147Y-65465646D01*
X178635646Y-65340147D01*
X178783216Y-65241544D01*
X178947188Y-65173624D01*
X179096488Y-65143927D01*
X179121258Y-65139000D01*
X179298742Y-65139000D01*
X179323512Y-65143927D01*
G37*
G36*
X153504468Y-65528565D02*
G01*
X153543138Y-65540296D01*
X153578777Y-65559346D01*
X153610017Y-65584983D01*
X153635654Y-65616223D01*
X153654704Y-65651862D01*
X153666435Y-65690532D01*
X153671000Y-65736888D01*
X153671000Y-66388112D01*
X153666435Y-66434468D01*
X153654704Y-66473138D01*
X153635654Y-66508777D01*
X153610017Y-66540017D01*
X153578777Y-66565654D01*
X153543138Y-66584704D01*
X153504468Y-66596435D01*
X153458112Y-66601000D01*
X152381888Y-66601000D01*
X152335532Y-66596435D01*
X152296862Y-66584704D01*
X152261223Y-66565654D01*
X152229983Y-66540017D01*
X152204346Y-66508777D01*
X152185296Y-66473138D01*
X152173565Y-66434468D01*
X152169000Y-66388112D01*
X152169000Y-65736888D01*
X152173565Y-65690532D01*
X152185296Y-65651862D01*
X152204346Y-65616223D01*
X152229983Y-65584983D01*
X152261223Y-65559346D01*
X152296862Y-65540296D01*
X152335532Y-65528565D01*
X152381888Y-65524000D01*
X153458112Y-65524000D01*
X153504468Y-65528565D01*
G37*
G36*
X159254468Y-65528565D02*
G01*
X159293138Y-65540296D01*
X159328777Y-65559346D01*
X159360017Y-65584983D01*
X159385654Y-65616223D01*
X159404704Y-65651862D01*
X159416435Y-65690532D01*
X159421000Y-65736888D01*
X159421000Y-66388112D01*
X159416435Y-66434468D01*
X159404704Y-66473138D01*
X159385654Y-66508777D01*
X159360017Y-66540017D01*
X159328777Y-66565654D01*
X159293138Y-66584704D01*
X159254468Y-66596435D01*
X159208112Y-66601000D01*
X158131888Y-66601000D01*
X158085532Y-66596435D01*
X158046862Y-66584704D01*
X158011223Y-66565654D01*
X157979983Y-66540017D01*
X157954346Y-66508777D01*
X157935296Y-66473138D01*
X157923565Y-66434468D01*
X157919000Y-66388112D01*
X157919000Y-65736888D01*
X157923565Y-65690532D01*
X157935296Y-65651862D01*
X157954346Y-65616223D01*
X157979983Y-65584983D01*
X158011223Y-65559346D01*
X158046862Y-65540296D01*
X158085532Y-65528565D01*
X158131888Y-65524000D01*
X159208112Y-65524000D01*
X159254468Y-65528565D01*
G37*
G36*
X163104468Y-64003565D02*
G01*
X163143138Y-64015296D01*
X163178777Y-64034346D01*
X163210017Y-64059983D01*
X163235654Y-64091223D01*
X163254704Y-64126862D01*
X163266435Y-64165532D01*
X163271000Y-64211888D01*
X163271000Y-65288112D01*
X163266435Y-65334468D01*
X163254704Y-65373138D01*
X163235654Y-65408777D01*
X163210017Y-65440017D01*
X163178777Y-65465654D01*
X163143138Y-65484704D01*
X163104468Y-65496435D01*
X163058112Y-65501000D01*
X162406888Y-65501000D01*
X162360532Y-65496435D01*
X162321862Y-65484704D01*
X162286223Y-65465654D01*
X162254983Y-65440017D01*
X162229346Y-65408777D01*
X162210296Y-65373138D01*
X162198565Y-65334468D01*
X162194000Y-65288112D01*
X162194000Y-64211888D01*
X162198565Y-64165532D01*
X162210296Y-64126862D01*
X162229346Y-64091223D01*
X162254983Y-64059983D01*
X162286223Y-64034346D01*
X162321862Y-64015296D01*
X162360532Y-64003565D01*
X162406888Y-63999000D01*
X163058112Y-63999000D01*
X163104468Y-64003565D01*
G37*
G36*
X164979468Y-64003565D02*
G01*
X165018138Y-64015296D01*
X165053777Y-64034346D01*
X165085017Y-64059983D01*
X165110654Y-64091223D01*
X165129704Y-64126862D01*
X165141435Y-64165532D01*
X165146000Y-64211888D01*
X165146000Y-65288112D01*
X165141435Y-65334468D01*
X165129704Y-65373138D01*
X165110654Y-65408777D01*
X165085017Y-65440017D01*
X165053777Y-65465654D01*
X165018138Y-65484704D01*
X164979468Y-65496435D01*
X164933112Y-65501000D01*
X164281888Y-65501000D01*
X164235532Y-65496435D01*
X164196862Y-65484704D01*
X164161223Y-65465654D01*
X164129983Y-65440017D01*
X164104346Y-65408777D01*
X164085296Y-65373138D01*
X164073565Y-65334468D01*
X164069000Y-65288112D01*
X164069000Y-64211888D01*
X164073565Y-64165532D01*
X164085296Y-64126862D01*
X164104346Y-64091223D01*
X164129983Y-64059983D01*
X164161223Y-64034346D01*
X164196862Y-64015296D01*
X164235532Y-64003565D01*
X164281888Y-63999000D01*
X164933112Y-63999000D01*
X164979468Y-64003565D01*
G37*
G36*
X167104468Y-64003565D02*
G01*
X167143138Y-64015296D01*
X167178777Y-64034346D01*
X167210017Y-64059983D01*
X167235654Y-64091223D01*
X167254704Y-64126862D01*
X167266435Y-64165532D01*
X167271000Y-64211888D01*
X167271000Y-65288112D01*
X167266435Y-65334468D01*
X167254704Y-65373138D01*
X167235654Y-65408777D01*
X167210017Y-65440017D01*
X167178777Y-65465654D01*
X167143138Y-65484704D01*
X167104468Y-65496435D01*
X167058112Y-65501000D01*
X166406888Y-65501000D01*
X166360532Y-65496435D01*
X166321862Y-65484704D01*
X166286223Y-65465654D01*
X166254983Y-65440017D01*
X166229346Y-65408777D01*
X166210296Y-65373138D01*
X166198565Y-65334468D01*
X166194000Y-65288112D01*
X166194000Y-64211888D01*
X166198565Y-64165532D01*
X166210296Y-64126862D01*
X166229346Y-64091223D01*
X166254983Y-64059983D01*
X166286223Y-64034346D01*
X166321862Y-64015296D01*
X166360532Y-64003565D01*
X166406888Y-63999000D01*
X167058112Y-63999000D01*
X167104468Y-64003565D01*
G37*
G36*
X168979468Y-64003565D02*
G01*
X169018138Y-64015296D01*
X169053777Y-64034346D01*
X169085017Y-64059983D01*
X169110654Y-64091223D01*
X169129704Y-64126862D01*
X169141435Y-64165532D01*
X169146000Y-64211888D01*
X169146000Y-65288112D01*
X169141435Y-65334468D01*
X169129704Y-65373138D01*
X169110654Y-65408777D01*
X169085017Y-65440017D01*
X169053777Y-65465654D01*
X169018138Y-65484704D01*
X168979468Y-65496435D01*
X168933112Y-65501000D01*
X168281888Y-65501000D01*
X168235532Y-65496435D01*
X168196862Y-65484704D01*
X168161223Y-65465654D01*
X168129983Y-65440017D01*
X168104346Y-65408777D01*
X168085296Y-65373138D01*
X168073565Y-65334468D01*
X168069000Y-65288112D01*
X168069000Y-64211888D01*
X168073565Y-64165532D01*
X168085296Y-64126862D01*
X168104346Y-64091223D01*
X168129983Y-64059983D01*
X168161223Y-64034346D01*
X168196862Y-64015296D01*
X168235532Y-64003565D01*
X168281888Y-63999000D01*
X168933112Y-63999000D01*
X168979468Y-64003565D01*
G37*
G36*
X171171000Y-64901000D02*
G01*
X170169000Y-64901000D01*
X170169000Y-63999000D01*
X171171000Y-63999000D01*
X171171000Y-64901000D01*
G37*
G36*
X153504468Y-63653565D02*
G01*
X153543138Y-63665296D01*
X153578777Y-63684346D01*
X153610017Y-63709983D01*
X153635654Y-63741223D01*
X153654704Y-63776862D01*
X153666435Y-63815532D01*
X153671000Y-63861888D01*
X153671000Y-64513112D01*
X153666435Y-64559468D01*
X153654704Y-64598138D01*
X153635654Y-64633777D01*
X153610017Y-64665017D01*
X153578777Y-64690654D01*
X153543138Y-64709704D01*
X153504468Y-64721435D01*
X153458112Y-64726000D01*
X152381888Y-64726000D01*
X152335532Y-64721435D01*
X152296862Y-64709704D01*
X152261223Y-64690654D01*
X152229983Y-64665017D01*
X152204346Y-64633777D01*
X152185296Y-64598138D01*
X152173565Y-64559468D01*
X152169000Y-64513112D01*
X152169000Y-63861888D01*
X152173565Y-63815532D01*
X152185296Y-63776862D01*
X152204346Y-63741223D01*
X152229983Y-63709983D01*
X152261223Y-63684346D01*
X152296862Y-63665296D01*
X152335532Y-63653565D01*
X152381888Y-63649000D01*
X153458112Y-63649000D01*
X153504468Y-63653565D01*
G37*
G36*
X159254468Y-63653565D02*
G01*
X159293138Y-63665296D01*
X159328777Y-63684346D01*
X159360017Y-63709983D01*
X159385654Y-63741223D01*
X159404704Y-63776862D01*
X159416435Y-63815532D01*
X159421000Y-63861888D01*
X159421000Y-64513112D01*
X159416435Y-64559468D01*
X159404704Y-64598138D01*
X159385654Y-64633777D01*
X159360017Y-64665017D01*
X159328777Y-64690654D01*
X159293138Y-64709704D01*
X159254468Y-64721435D01*
X159208112Y-64726000D01*
X158131888Y-64726000D01*
X158085532Y-64721435D01*
X158046862Y-64709704D01*
X158011223Y-64690654D01*
X157979983Y-64665017D01*
X157954346Y-64633777D01*
X157935296Y-64598138D01*
X157923565Y-64559468D01*
X157919000Y-64513112D01*
X157919000Y-63861888D01*
X157923565Y-63815532D01*
X157935296Y-63776862D01*
X157954346Y-63741223D01*
X157979983Y-63709983D01*
X158011223Y-63684346D01*
X158046862Y-63665296D01*
X158085532Y-63653565D01*
X158131888Y-63649000D01*
X159208112Y-63649000D01*
X159254468Y-63653565D01*
G37*
G36*
X177571000Y-64401000D02*
G01*
X175769000Y-64401000D01*
X175769000Y-62599000D01*
X177571000Y-62599000D01*
X177571000Y-64401000D01*
G37*
G36*
X179323512Y-62603927D02*
G01*
X179472812Y-62633624D01*
X179636784Y-62701544D01*
X179784354Y-62800147D01*
X179909853Y-62925646D01*
X180008456Y-63073216D01*
X180076376Y-63237188D01*
X180111000Y-63411259D01*
X180111000Y-63588741D01*
X180076376Y-63762812D01*
X180008456Y-63926784D01*
X179909853Y-64074354D01*
X179784354Y-64199853D01*
X179636784Y-64298456D01*
X179472812Y-64366376D01*
X179323512Y-64396073D01*
X179298742Y-64401000D01*
X179121258Y-64401000D01*
X179096488Y-64396073D01*
X178947188Y-64366376D01*
X178783216Y-64298456D01*
X178635646Y-64199853D01*
X178510147Y-64074354D01*
X178411544Y-63926784D01*
X178343624Y-63762812D01*
X178309000Y-63588741D01*
X178309000Y-63411259D01*
X178343624Y-63237188D01*
X178411544Y-63073216D01*
X178510147Y-62925646D01*
X178635646Y-62800147D01*
X178783216Y-62701544D01*
X178947188Y-62633624D01*
X179096488Y-62603927D01*
X179121258Y-62599000D01*
X179298742Y-62599000D01*
X179323512Y-62603927D01*
G37*
G36*
X173171000Y-63951000D02*
G01*
X172169000Y-63951000D01*
X172169000Y-63049000D01*
X173171000Y-63049000D01*
X173171000Y-63951000D01*
G37*
G36*
X164979468Y-61753565D02*
G01*
X165018138Y-61765296D01*
X165053777Y-61784346D01*
X165085017Y-61809983D01*
X165110654Y-61841223D01*
X165129704Y-61876862D01*
X165141435Y-61915532D01*
X165146000Y-61961888D01*
X165146000Y-63038112D01*
X165141435Y-63084468D01*
X165129704Y-63123138D01*
X165110654Y-63158777D01*
X165085017Y-63190017D01*
X165053777Y-63215654D01*
X165018138Y-63234704D01*
X164979468Y-63246435D01*
X164933112Y-63251000D01*
X164281888Y-63251000D01*
X164235532Y-63246435D01*
X164196862Y-63234704D01*
X164161223Y-63215654D01*
X164129983Y-63190017D01*
X164104346Y-63158777D01*
X164085296Y-63123138D01*
X164073565Y-63084468D01*
X164069000Y-63038112D01*
X164069000Y-61961888D01*
X164073565Y-61915532D01*
X164085296Y-61876862D01*
X164104346Y-61841223D01*
X164129983Y-61809983D01*
X164161223Y-61784346D01*
X164196862Y-61765296D01*
X164235532Y-61753565D01*
X164281888Y-61749000D01*
X164933112Y-61749000D01*
X164979468Y-61753565D01*
G37*
G36*
X168979468Y-61753565D02*
G01*
X169018138Y-61765296D01*
X169053777Y-61784346D01*
X169085017Y-61809983D01*
X169110654Y-61841223D01*
X169129704Y-61876862D01*
X169141435Y-61915532D01*
X169146000Y-61961888D01*
X169146000Y-63038112D01*
X169141435Y-63084468D01*
X169129704Y-63123138D01*
X169110654Y-63158777D01*
X169085017Y-63190017D01*
X169053777Y-63215654D01*
X169018138Y-63234704D01*
X168979468Y-63246435D01*
X168933112Y-63251000D01*
X168281888Y-63251000D01*
X168235532Y-63246435D01*
X168196862Y-63234704D01*
X168161223Y-63215654D01*
X168129983Y-63190017D01*
X168104346Y-63158777D01*
X168085296Y-63123138D01*
X168073565Y-63084468D01*
X168069000Y-63038112D01*
X168069000Y-61961888D01*
X168073565Y-61915532D01*
X168085296Y-61876862D01*
X168104346Y-61841223D01*
X168129983Y-61809983D01*
X168161223Y-61784346D01*
X168196862Y-61765296D01*
X168235532Y-61753565D01*
X168281888Y-61749000D01*
X168933112Y-61749000D01*
X168979468Y-61753565D01*
G37*
G36*
X167104468Y-61753565D02*
G01*
X167143138Y-61765296D01*
X167178777Y-61784346D01*
X167210017Y-61809983D01*
X167235654Y-61841223D01*
X167254704Y-61876862D01*
X167266435Y-61915532D01*
X167271000Y-61961888D01*
X167271000Y-63038112D01*
X167266435Y-63084468D01*
X167254704Y-63123138D01*
X167235654Y-63158777D01*
X167210017Y-63190017D01*
X167178777Y-63215654D01*
X167143138Y-63234704D01*
X167104468Y-63246435D01*
X167058112Y-63251000D01*
X166406888Y-63251000D01*
X166360532Y-63246435D01*
X166321862Y-63234704D01*
X166286223Y-63215654D01*
X166254983Y-63190017D01*
X166229346Y-63158777D01*
X166210296Y-63123138D01*
X166198565Y-63084468D01*
X166194000Y-63038112D01*
X166194000Y-61961888D01*
X166198565Y-61915532D01*
X166210296Y-61876862D01*
X166229346Y-61841223D01*
X166254983Y-61809983D01*
X166286223Y-61784346D01*
X166321862Y-61765296D01*
X166360532Y-61753565D01*
X166406888Y-61749000D01*
X167058112Y-61749000D01*
X167104468Y-61753565D01*
G37*
G36*
X163104468Y-61753565D02*
G01*
X163143138Y-61765296D01*
X163178777Y-61784346D01*
X163210017Y-61809983D01*
X163235654Y-61841223D01*
X163254704Y-61876862D01*
X163266435Y-61915532D01*
X163271000Y-61961888D01*
X163271000Y-63038112D01*
X163266435Y-63084468D01*
X163254704Y-63123138D01*
X163235654Y-63158777D01*
X163210017Y-63190017D01*
X163178777Y-63215654D01*
X163143138Y-63234704D01*
X163104468Y-63246435D01*
X163058112Y-63251000D01*
X162406888Y-63251000D01*
X162360532Y-63246435D01*
X162321862Y-63234704D01*
X162286223Y-63215654D01*
X162254983Y-63190017D01*
X162229346Y-63158777D01*
X162210296Y-63123138D01*
X162198565Y-63084468D01*
X162194000Y-63038112D01*
X162194000Y-61961888D01*
X162198565Y-61915532D01*
X162210296Y-61876862D01*
X162229346Y-61841223D01*
X162254983Y-61809983D01*
X162286223Y-61784346D01*
X162321862Y-61765296D01*
X162360532Y-61753565D01*
X162406888Y-61749000D01*
X163058112Y-61749000D01*
X163104468Y-61753565D01*
G37*
G36*
X171171000Y-63001000D02*
G01*
X170169000Y-63001000D01*
X170169000Y-62099000D01*
X171171000Y-62099000D01*
X171171000Y-63001000D01*
G37*
G36*
X159254468Y-61778565D02*
G01*
X159293138Y-61790296D01*
X159328777Y-61809346D01*
X159360017Y-61834983D01*
X159385654Y-61866223D01*
X159404704Y-61901862D01*
X159416435Y-61940532D01*
X159421000Y-61986888D01*
X159421000Y-62638112D01*
X159416435Y-62684468D01*
X159404704Y-62723138D01*
X159385654Y-62758777D01*
X159360017Y-62790017D01*
X159328777Y-62815654D01*
X159293138Y-62834704D01*
X159254468Y-62846435D01*
X159208112Y-62851000D01*
X158131888Y-62851000D01*
X158085532Y-62846435D01*
X158046862Y-62834704D01*
X158011223Y-62815654D01*
X157979983Y-62790017D01*
X157954346Y-62758777D01*
X157935296Y-62723138D01*
X157923565Y-62684468D01*
X157919000Y-62638112D01*
X157919000Y-61986888D01*
X157923565Y-61940532D01*
X157935296Y-61901862D01*
X157954346Y-61866223D01*
X157979983Y-61834983D01*
X158011223Y-61809346D01*
X158046862Y-61790296D01*
X158085532Y-61778565D01*
X158131888Y-61774000D01*
X159208112Y-61774000D01*
X159254468Y-61778565D01*
G37*
G36*
X153504468Y-61778565D02*
G01*
X153543138Y-61790296D01*
X153578777Y-61809346D01*
X153610017Y-61834983D01*
X153635654Y-61866223D01*
X153654704Y-61901862D01*
X153666435Y-61940532D01*
X153671000Y-61986888D01*
X153671000Y-62638112D01*
X153666435Y-62684468D01*
X153654704Y-62723138D01*
X153635654Y-62758777D01*
X153610017Y-62790017D01*
X153578777Y-62815654D01*
X153543138Y-62834704D01*
X153504468Y-62846435D01*
X153458112Y-62851000D01*
X152381888Y-62851000D01*
X152335532Y-62846435D01*
X152296862Y-62834704D01*
X152261223Y-62815654D01*
X152229983Y-62790017D01*
X152204346Y-62758777D01*
X152185296Y-62723138D01*
X152173565Y-62684468D01*
X152169000Y-62638112D01*
X152169000Y-61986888D01*
X152173565Y-61940532D01*
X152185296Y-61901862D01*
X152204346Y-61866223D01*
X152229983Y-61834983D01*
X152261223Y-61809346D01*
X152296862Y-61790296D01*
X152335532Y-61778565D01*
X152381888Y-61774000D01*
X153458112Y-61774000D01*
X153504468Y-61778565D01*
G37*
G36*
X146271000Y-62601000D02*
G01*
X143569000Y-62601000D01*
X143569000Y-59899000D01*
X146271000Y-59899000D01*
X146271000Y-62601000D01*
G37*
G36*
X161754468Y-59903565D02*
G01*
X161793138Y-59915296D01*
X161828777Y-59934346D01*
X161860017Y-59959983D01*
X161885654Y-59991223D01*
X161904704Y-60026862D01*
X161916435Y-60065532D01*
X161921000Y-60111888D01*
X161921000Y-60763112D01*
X161916435Y-60809468D01*
X161904704Y-60848138D01*
X161885654Y-60883777D01*
X161860017Y-60915017D01*
X161828777Y-60940654D01*
X161793138Y-60959704D01*
X161754468Y-60971435D01*
X161708112Y-60976000D01*
X160631888Y-60976000D01*
X160585532Y-60971435D01*
X160546862Y-60959704D01*
X160511223Y-60940654D01*
X160479983Y-60915017D01*
X160454346Y-60883777D01*
X160435296Y-60848138D01*
X160423565Y-60809468D01*
X160419000Y-60763112D01*
X160419000Y-60111888D01*
X160423565Y-60065532D01*
X160435296Y-60026862D01*
X160454346Y-59991223D01*
X160479983Y-59959983D01*
X160511223Y-59934346D01*
X160546862Y-59915296D01*
X160585532Y-59903565D01*
X160631888Y-59899000D01*
X161708112Y-59899000D01*
X161754468Y-59903565D01*
G37*
G36*
X158896000Y-60701000D02*
G01*
X157344000Y-60701000D01*
X157344000Y-54299000D01*
X158896000Y-54299000D01*
X158896000Y-60701000D01*
G37*
G36*
X152996000Y-60701000D02*
G01*
X151444000Y-60701000D01*
X151444000Y-54299000D01*
X152996000Y-54299000D01*
X152996000Y-60701000D01*
G37*
G36*
X177771000Y-59351000D02*
G01*
X175069000Y-59351000D01*
X175069000Y-56649000D01*
X177771000Y-56649000D01*
X177771000Y-59351000D01*
G37*
G36*
X161754468Y-58028565D02*
G01*
X161793138Y-58040296D01*
X161828777Y-58059346D01*
X161860017Y-58084983D01*
X161885654Y-58116223D01*
X161904704Y-58151862D01*
X161916435Y-58190532D01*
X161921000Y-58236888D01*
X161921000Y-58888112D01*
X161916435Y-58934468D01*
X161904704Y-58973138D01*
X161885654Y-59008777D01*
X161860017Y-59040017D01*
X161828777Y-59065654D01*
X161793138Y-59084704D01*
X161754468Y-59096435D01*
X161708112Y-59101000D01*
X160631888Y-59101000D01*
X160585532Y-59096435D01*
X160546862Y-59084704D01*
X160511223Y-59065654D01*
X160479983Y-59040017D01*
X160454346Y-59008777D01*
X160435296Y-58973138D01*
X160423565Y-58934468D01*
X160419000Y-58888112D01*
X160419000Y-58236888D01*
X160423565Y-58190532D01*
X160435296Y-58151862D01*
X160454346Y-58116223D01*
X160479983Y-58084983D01*
X160511223Y-58059346D01*
X160546862Y-58040296D01*
X160585532Y-58028565D01*
X160631888Y-58024000D01*
X161708112Y-58024000D01*
X161754468Y-58028565D01*
G37*
G36*
X164104468Y-57253565D02*
G01*
X164143138Y-57265296D01*
X164178777Y-57284346D01*
X164210017Y-57309983D01*
X164235654Y-57341223D01*
X164254704Y-57376862D01*
X164266435Y-57415532D01*
X164271000Y-57461888D01*
X164271000Y-58538112D01*
X164266435Y-58584468D01*
X164254704Y-58623138D01*
X164235654Y-58658777D01*
X164210017Y-58690017D01*
X164178777Y-58715654D01*
X164143138Y-58734704D01*
X164104468Y-58746435D01*
X164058112Y-58751000D01*
X163406888Y-58751000D01*
X163360532Y-58746435D01*
X163321862Y-58734704D01*
X163286223Y-58715654D01*
X163254983Y-58690017D01*
X163229346Y-58658777D01*
X163210296Y-58623138D01*
X163198565Y-58584468D01*
X163194000Y-58538112D01*
X163194000Y-57461888D01*
X163198565Y-57415532D01*
X163210296Y-57376862D01*
X163229346Y-57341223D01*
X163254983Y-57309983D01*
X163286223Y-57284346D01*
X163321862Y-57265296D01*
X163360532Y-57253565D01*
X163406888Y-57249000D01*
X164058112Y-57249000D01*
X164104468Y-57253565D01*
G37*
G36*
X167854468Y-57253565D02*
G01*
X167893138Y-57265296D01*
X167928777Y-57284346D01*
X167960017Y-57309983D01*
X167985654Y-57341223D01*
X168004704Y-57376862D01*
X168016435Y-57415532D01*
X168021000Y-57461888D01*
X168021000Y-58538112D01*
X168016435Y-58584468D01*
X168004704Y-58623138D01*
X167985654Y-58658777D01*
X167960017Y-58690017D01*
X167928777Y-58715654D01*
X167893138Y-58734704D01*
X167854468Y-58746435D01*
X167808112Y-58751000D01*
X167156888Y-58751000D01*
X167110532Y-58746435D01*
X167071862Y-58734704D01*
X167036223Y-58715654D01*
X167004983Y-58690017D01*
X166979346Y-58658777D01*
X166960296Y-58623138D01*
X166948565Y-58584468D01*
X166944000Y-58538112D01*
X166944000Y-57461888D01*
X166948565Y-57415532D01*
X166960296Y-57376862D01*
X166979346Y-57341223D01*
X167004983Y-57309983D01*
X167036223Y-57284346D01*
X167071862Y-57265296D01*
X167110532Y-57253565D01*
X167156888Y-57249000D01*
X167808112Y-57249000D01*
X167854468Y-57253565D01*
G37*
G36*
X169729468Y-57253565D02*
G01*
X169768138Y-57265296D01*
X169803777Y-57284346D01*
X169835017Y-57309983D01*
X169860654Y-57341223D01*
X169879704Y-57376862D01*
X169891435Y-57415532D01*
X169896000Y-57461888D01*
X169896000Y-58538112D01*
X169891435Y-58584468D01*
X169879704Y-58623138D01*
X169860654Y-58658777D01*
X169835017Y-58690017D01*
X169803777Y-58715654D01*
X169768138Y-58734704D01*
X169729468Y-58746435D01*
X169683112Y-58751000D01*
X169031888Y-58751000D01*
X168985532Y-58746435D01*
X168946862Y-58734704D01*
X168911223Y-58715654D01*
X168879983Y-58690017D01*
X168854346Y-58658777D01*
X168835296Y-58623138D01*
X168823565Y-58584468D01*
X168819000Y-58538112D01*
X168819000Y-57461888D01*
X168823565Y-57415532D01*
X168835296Y-57376862D01*
X168854346Y-57341223D01*
X168879983Y-57309983D01*
X168911223Y-57284346D01*
X168946862Y-57265296D01*
X168985532Y-57253565D01*
X169031888Y-57249000D01*
X169683112Y-57249000D01*
X169729468Y-57253565D01*
G37*
G36*
X165979468Y-57253565D02*
G01*
X166018138Y-57265296D01*
X166053777Y-57284346D01*
X166085017Y-57309983D01*
X166110654Y-57341223D01*
X166129704Y-57376862D01*
X166141435Y-57415532D01*
X166146000Y-57461888D01*
X166146000Y-58538112D01*
X166141435Y-58584468D01*
X166129704Y-58623138D01*
X166110654Y-58658777D01*
X166085017Y-58690017D01*
X166053777Y-58715654D01*
X166018138Y-58734704D01*
X165979468Y-58746435D01*
X165933112Y-58751000D01*
X165281888Y-58751000D01*
X165235532Y-58746435D01*
X165196862Y-58734704D01*
X165161223Y-58715654D01*
X165129983Y-58690017D01*
X165104346Y-58658777D01*
X165085296Y-58623138D01*
X165073565Y-58584468D01*
X165069000Y-58538112D01*
X165069000Y-57461888D01*
X165073565Y-57415532D01*
X165085296Y-57376862D01*
X165104346Y-57341223D01*
X165129983Y-57309983D01*
X165161223Y-57284346D01*
X165196862Y-57265296D01*
X165235532Y-57253565D01*
X165281888Y-57249000D01*
X165933112Y-57249000D01*
X165979468Y-57253565D01*
G37*
G36*
X141933500Y-57211886D02*
G01*
X141934102Y-57224138D01*
X141936649Y-57250000D01*
X141934102Y-57275862D01*
X141933500Y-57288114D01*
X141933500Y-57361406D01*
X141924543Y-57378164D01*
X141920415Y-57389701D01*
X141901820Y-57451000D01*
X141886854Y-57500336D01*
X141826406Y-57613425D01*
X141745054Y-57712554D01*
X141645925Y-57793906D01*
X141532836Y-57854354D01*
X141500904Y-57864040D01*
X141410118Y-57891580D01*
X141346355Y-57897860D01*
X141314474Y-57901000D01*
X140550526Y-57901000D01*
X140518645Y-57897860D01*
X140454882Y-57891580D01*
X140364096Y-57864040D01*
X140332164Y-57854354D01*
X140219075Y-57793906D01*
X140119946Y-57712554D01*
X140038594Y-57613425D01*
X139978146Y-57500336D01*
X139963180Y-57451000D01*
X139944587Y-57389708D01*
X139935213Y-57367075D01*
X139931500Y-57361518D01*
X139931500Y-57288114D01*
X139930898Y-57275862D01*
X139928351Y-57250000D01*
X139930898Y-57224138D01*
X139931500Y-57211886D01*
X139931500Y-55999000D01*
X141933500Y-55999000D01*
X141933500Y-57211886D01*
G37*
G36*
X161754468Y-56153565D02*
G01*
X161793138Y-56165296D01*
X161828777Y-56184346D01*
X161860017Y-56209983D01*
X161885654Y-56241223D01*
X161904704Y-56276862D01*
X161916435Y-56315532D01*
X161921000Y-56361888D01*
X161921000Y-57013112D01*
X161916435Y-57059468D01*
X161904704Y-57098138D01*
X161885654Y-57133777D01*
X161860017Y-57165017D01*
X161828777Y-57190654D01*
X161793138Y-57209704D01*
X161754468Y-57221435D01*
X161708112Y-57226000D01*
X160631888Y-57226000D01*
X160585532Y-57221435D01*
X160546862Y-57209704D01*
X160511223Y-57190654D01*
X160479983Y-57165017D01*
X160454346Y-57133777D01*
X160435296Y-57098138D01*
X160423565Y-57059468D01*
X160419000Y-57013112D01*
X160419000Y-56361888D01*
X160423565Y-56315532D01*
X160435296Y-56276862D01*
X160454346Y-56241223D01*
X160479983Y-56209983D01*
X160511223Y-56184346D01*
X160546862Y-56165296D01*
X160585532Y-56153565D01*
X160631888Y-56149000D01*
X161708112Y-56149000D01*
X161754468Y-56153565D01*
G37*
G36*
X143858848Y-50503820D02*
G01*
X143858850Y-50503821D01*
X143858851Y-50503821D01*
X144000074Y-50562317D01*
X144000077Y-50562319D01*
X144127169Y-50647239D01*
X144235261Y-50755331D01*
X144320181Y-50882423D01*
X144320183Y-50882426D01*
X144378679Y-51023649D01*
X144378680Y-51023652D01*
X144408500Y-51173569D01*
X144408500Y-51326431D01*
X144387035Y-51434346D01*
X144378679Y-51476351D01*
X144320183Y-51617574D01*
X144320181Y-51617577D01*
X144235261Y-51744669D01*
X144127169Y-51852761D01*
X144042440Y-51909375D01*
X144000074Y-51937683D01*
X143949772Y-51958519D01*
X143928164Y-51970068D01*
X143909222Y-51985614D01*
X143893677Y-52004556D01*
X143882126Y-52026166D01*
X143875013Y-52049615D01*
X143872611Y-52074001D01*
X143875013Y-52098387D01*
X143882126Y-52121836D01*
X143893677Y-52143447D01*
X143909223Y-52162389D01*
X143928165Y-52177934D01*
X143949775Y-52189485D01*
X143973224Y-52196598D01*
X143997610Y-52199000D01*
X144358500Y-52199000D01*
X144358500Y-55301000D01*
X143997610Y-55301000D01*
X143973224Y-55303402D01*
X143949775Y-55310515D01*
X143928164Y-55322066D01*
X143909222Y-55337611D01*
X143893677Y-55356553D01*
X143882126Y-55378164D01*
X143875013Y-55401613D01*
X143872611Y-55425999D01*
X143875013Y-55450385D01*
X143882126Y-55473834D01*
X143893677Y-55495445D01*
X143909222Y-55514387D01*
X143928164Y-55529932D01*
X143949772Y-55541481D01*
X144000074Y-55562317D01*
X144000075Y-55562318D01*
X144127169Y-55647239D01*
X144235261Y-55755331D01*
X144320181Y-55882423D01*
X144320183Y-55882426D01*
X144368469Y-55999000D01*
X144378680Y-56023652D01*
X144408500Y-56173569D01*
X144408500Y-56326431D01*
X144385907Y-56440017D01*
X144378679Y-56476351D01*
X144320183Y-56617574D01*
X144320181Y-56617577D01*
X144235261Y-56744669D01*
X144127169Y-56852761D01*
X144076564Y-56886574D01*
X144000074Y-56937683D01*
X143858851Y-56996179D01*
X143858850Y-56996179D01*
X143858848Y-56996180D01*
X143708931Y-57026000D01*
X143556069Y-57026000D01*
X143406152Y-56996180D01*
X143406150Y-56996179D01*
X143406149Y-56996179D01*
X143264926Y-56937683D01*
X143188436Y-56886574D01*
X143137831Y-56852761D01*
X143029739Y-56744669D01*
X142944819Y-56617577D01*
X142944817Y-56617574D01*
X142886321Y-56476351D01*
X142879094Y-56440017D01*
X142856500Y-56326431D01*
X142856500Y-56173569D01*
X142886320Y-56023652D01*
X142896531Y-55999000D01*
X142944817Y-55882426D01*
X142944819Y-55882423D01*
X143029739Y-55755331D01*
X143137831Y-55647239D01*
X143264925Y-55562318D01*
X143264926Y-55562317D01*
X143315228Y-55541481D01*
X143336836Y-55529932D01*
X143355778Y-55514386D01*
X143371323Y-55495444D01*
X143382874Y-55473834D01*
X143389987Y-55450385D01*
X143392389Y-55425999D01*
X143389987Y-55401613D01*
X143382874Y-55378164D01*
X143371323Y-55356553D01*
X143355777Y-55337611D01*
X143336835Y-55322066D01*
X143315225Y-55310515D01*
X143291776Y-55303402D01*
X143267390Y-55301000D01*
X142906500Y-55301000D01*
X142906500Y-52199000D01*
X143267390Y-52199000D01*
X143291776Y-52196598D01*
X143315225Y-52189485D01*
X143336836Y-52177934D01*
X143355778Y-52162389D01*
X143371323Y-52143447D01*
X143382874Y-52121836D01*
X143389987Y-52098387D01*
X143392389Y-52074001D01*
X143389987Y-52049615D01*
X143382874Y-52026166D01*
X143371323Y-52004555D01*
X143355778Y-51985613D01*
X143336836Y-51970068D01*
X143315228Y-51958519D01*
X143264926Y-51937683D01*
X143222560Y-51909375D01*
X143137831Y-51852761D01*
X143029739Y-51744669D01*
X142944819Y-51617577D01*
X142944817Y-51617574D01*
X142886321Y-51476351D01*
X142877966Y-51434346D01*
X142856500Y-51326431D01*
X142856500Y-51173569D01*
X142886320Y-51023652D01*
X142886321Y-51023649D01*
X142944817Y-50882426D01*
X142944819Y-50882423D01*
X143029739Y-50755331D01*
X143137831Y-50647239D01*
X143264923Y-50562319D01*
X143264926Y-50562317D01*
X143406149Y-50503821D01*
X143406150Y-50503821D01*
X143406152Y-50503820D01*
X143556069Y-50474000D01*
X143708931Y-50474000D01*
X143858848Y-50503820D01*
G37*
G36*
X164104468Y-55003565D02*
G01*
X164143138Y-55015296D01*
X164178777Y-55034346D01*
X164210017Y-55059983D01*
X164235654Y-55091223D01*
X164254704Y-55126862D01*
X164266435Y-55165532D01*
X164271000Y-55211888D01*
X164271000Y-56288112D01*
X164266435Y-56334468D01*
X164254704Y-56373138D01*
X164235654Y-56408777D01*
X164210017Y-56440017D01*
X164178777Y-56465654D01*
X164143138Y-56484704D01*
X164104468Y-56496435D01*
X164058112Y-56501000D01*
X163406888Y-56501000D01*
X163360532Y-56496435D01*
X163321862Y-56484704D01*
X163286223Y-56465654D01*
X163254983Y-56440017D01*
X163229346Y-56408777D01*
X163210296Y-56373138D01*
X163198565Y-56334468D01*
X163194000Y-56288112D01*
X163194000Y-55211888D01*
X163198565Y-55165532D01*
X163210296Y-55126862D01*
X163229346Y-55091223D01*
X163254983Y-55059983D01*
X163286223Y-55034346D01*
X163321862Y-55015296D01*
X163360532Y-55003565D01*
X163406888Y-54999000D01*
X164058112Y-54999000D01*
X164104468Y-55003565D01*
G37*
G36*
X165979468Y-55003565D02*
G01*
X166018138Y-55015296D01*
X166053777Y-55034346D01*
X166085017Y-55059983D01*
X166110654Y-55091223D01*
X166129704Y-55126862D01*
X166141435Y-55165532D01*
X166146000Y-55211888D01*
X166146000Y-56288112D01*
X166141435Y-56334468D01*
X166129704Y-56373138D01*
X166110654Y-56408777D01*
X166085017Y-56440017D01*
X166053777Y-56465654D01*
X166018138Y-56484704D01*
X165979468Y-56496435D01*
X165933112Y-56501000D01*
X165281888Y-56501000D01*
X165235532Y-56496435D01*
X165196862Y-56484704D01*
X165161223Y-56465654D01*
X165129983Y-56440017D01*
X165104346Y-56408777D01*
X165085296Y-56373138D01*
X165073565Y-56334468D01*
X165069000Y-56288112D01*
X165069000Y-55211888D01*
X165073565Y-55165532D01*
X165085296Y-55126862D01*
X165104346Y-55091223D01*
X165129983Y-55059983D01*
X165161223Y-55034346D01*
X165196862Y-55015296D01*
X165235532Y-55003565D01*
X165281888Y-54999000D01*
X165933112Y-54999000D01*
X165979468Y-55003565D01*
G37*
G36*
X168171000Y-55901000D02*
G01*
X167169000Y-55901000D01*
X167169000Y-54999000D01*
X168171000Y-54999000D01*
X168171000Y-55901000D01*
G37*
G36*
X141933500Y-55551000D02*
G01*
X139931500Y-55551000D01*
X139931500Y-53949000D01*
X141933500Y-53949000D01*
X141933500Y-55551000D01*
G37*
G36*
X161754468Y-54278565D02*
G01*
X161793138Y-54290296D01*
X161828777Y-54309346D01*
X161860017Y-54334983D01*
X161885654Y-54366223D01*
X161904704Y-54401862D01*
X161916435Y-54440532D01*
X161921000Y-54486888D01*
X161921000Y-55138112D01*
X161916435Y-55184468D01*
X161904704Y-55223138D01*
X161885654Y-55258777D01*
X161860017Y-55290017D01*
X161828777Y-55315654D01*
X161793138Y-55334704D01*
X161754468Y-55346435D01*
X161708112Y-55351000D01*
X160631888Y-55351000D01*
X160585532Y-55346435D01*
X160546862Y-55334704D01*
X160511223Y-55315654D01*
X160479983Y-55290017D01*
X160454346Y-55258777D01*
X160435296Y-55223138D01*
X160423565Y-55184468D01*
X160419000Y-55138112D01*
X160419000Y-54486888D01*
X160423565Y-54440532D01*
X160435296Y-54401862D01*
X160454346Y-54366223D01*
X160479983Y-54334983D01*
X160511223Y-54309346D01*
X160546862Y-54290296D01*
X160585532Y-54278565D01*
X160631888Y-54274000D01*
X161708112Y-54274000D01*
X161754468Y-54278565D01*
G37*
G36*
X170171000Y-54951000D02*
G01*
X169169000Y-54951000D01*
X169169000Y-54049000D01*
X170171000Y-54049000D01*
X170171000Y-54951000D01*
G37*
G36*
X176737817Y-51605750D02*
G01*
X176814072Y-51620918D01*
X177059939Y-51722759D01*
X177092729Y-51744669D01*
X177281211Y-51870609D01*
X177469391Y-52058789D01*
X177542813Y-52168672D01*
X177595343Y-52247288D01*
X177617242Y-52280063D01*
X177719082Y-52525928D01*
X177771000Y-52786937D01*
X177771000Y-53053063D01*
X177719082Y-53314072D01*
X177617242Y-53559937D01*
X177469391Y-53781211D01*
X177281211Y-53969391D01*
X177233905Y-54001000D01*
X177059939Y-54117241D01*
X177059938Y-54117242D01*
X177059937Y-54117242D01*
X176814072Y-54219082D01*
X176553063Y-54271000D01*
X176286937Y-54271000D01*
X176025928Y-54219082D01*
X175780063Y-54117242D01*
X175780062Y-54117242D01*
X175780061Y-54117241D01*
X175606095Y-54001000D01*
X175558789Y-53969391D01*
X175370609Y-53781211D01*
X175222758Y-53559937D01*
X175120918Y-53314072D01*
X175069000Y-53053063D01*
X175069000Y-52786937D01*
X175120918Y-52525928D01*
X175222758Y-52280063D01*
X175244658Y-52247288D01*
X175297187Y-52168672D01*
X175370609Y-52058789D01*
X175558789Y-51870609D01*
X175747271Y-51744669D01*
X175780061Y-51722759D01*
X176025928Y-51620918D01*
X176102183Y-51605750D01*
X176286937Y-51569000D01*
X176553063Y-51569000D01*
X176737817Y-51605750D01*
G37*
G36*
X165979468Y-52753565D02*
G01*
X166018138Y-52765296D01*
X166053777Y-52784346D01*
X166085017Y-52809983D01*
X166110654Y-52841223D01*
X166129704Y-52876862D01*
X166141435Y-52915532D01*
X166146000Y-52961888D01*
X166146000Y-54038112D01*
X166141435Y-54084468D01*
X166129704Y-54123138D01*
X166110654Y-54158777D01*
X166085017Y-54190017D01*
X166053777Y-54215654D01*
X166018138Y-54234704D01*
X165979468Y-54246435D01*
X165933112Y-54251000D01*
X165281888Y-54251000D01*
X165235532Y-54246435D01*
X165196862Y-54234704D01*
X165161223Y-54215654D01*
X165129983Y-54190017D01*
X165104346Y-54158777D01*
X165085296Y-54123138D01*
X165073565Y-54084468D01*
X165069000Y-54038112D01*
X165069000Y-52961888D01*
X165073565Y-52915532D01*
X165085296Y-52876862D01*
X165104346Y-52841223D01*
X165129983Y-52809983D01*
X165161223Y-52784346D01*
X165196862Y-52765296D01*
X165235532Y-52753565D01*
X165281888Y-52749000D01*
X165933112Y-52749000D01*
X165979468Y-52753565D01*
G37*
G36*
X164104468Y-52753565D02*
G01*
X164143138Y-52765296D01*
X164178777Y-52784346D01*
X164210017Y-52809983D01*
X164235654Y-52841223D01*
X164254704Y-52876862D01*
X164266435Y-52915532D01*
X164271000Y-52961888D01*
X164271000Y-54038112D01*
X164266435Y-54084468D01*
X164254704Y-54123138D01*
X164235654Y-54158777D01*
X164210017Y-54190017D01*
X164178777Y-54215654D01*
X164143138Y-54234704D01*
X164104468Y-54246435D01*
X164058112Y-54251000D01*
X163406888Y-54251000D01*
X163360532Y-54246435D01*
X163321862Y-54234704D01*
X163286223Y-54215654D01*
X163254983Y-54190017D01*
X163229346Y-54158777D01*
X163210296Y-54123138D01*
X163198565Y-54084468D01*
X163194000Y-54038112D01*
X163194000Y-52961888D01*
X163198565Y-52915532D01*
X163210296Y-52876862D01*
X163229346Y-52841223D01*
X163254983Y-52809983D01*
X163286223Y-52784346D01*
X163321862Y-52765296D01*
X163360532Y-52753565D01*
X163406888Y-52749000D01*
X164058112Y-52749000D01*
X164104468Y-52753565D01*
G37*
G36*
X168171000Y-54001000D02*
G01*
X167169000Y-54001000D01*
X167169000Y-53099000D01*
X168171000Y-53099000D01*
X168171000Y-54001000D01*
G37*
G36*
X141933500Y-53551000D02*
G01*
X139931500Y-53551000D01*
X139931500Y-51949000D01*
X141933500Y-51949000D01*
X141933500Y-53551000D01*
G37*
G36*
X162504468Y-51403565D02*
G01*
X162543138Y-51415296D01*
X162578777Y-51434346D01*
X162610017Y-51459983D01*
X162635654Y-51491223D01*
X162654704Y-51526862D01*
X162666435Y-51565532D01*
X162671000Y-51611888D01*
X162671000Y-52263112D01*
X162666435Y-52309468D01*
X162654704Y-52348138D01*
X162635654Y-52383777D01*
X162610017Y-52415017D01*
X162578777Y-52440654D01*
X162543138Y-52459704D01*
X162504468Y-52471435D01*
X162458112Y-52476000D01*
X161381888Y-52476000D01*
X161335532Y-52471435D01*
X161296862Y-52459704D01*
X161261223Y-52440654D01*
X161229983Y-52415017D01*
X161204346Y-52383777D01*
X161185296Y-52348138D01*
X161173565Y-52309468D01*
X161169000Y-52263112D01*
X161169000Y-51611888D01*
X161173565Y-51565532D01*
X161185296Y-51526862D01*
X161204346Y-51491223D01*
X161229983Y-51459983D01*
X161261223Y-51434346D01*
X161296862Y-51415296D01*
X161335532Y-51403565D01*
X161381888Y-51399000D01*
X162458112Y-51399000D01*
X162504468Y-51403565D01*
G37*
G36*
X159504468Y-51341065D02*
G01*
X159543138Y-51352796D01*
X159578777Y-51371846D01*
X159610017Y-51397483D01*
X159635654Y-51428723D01*
X159654704Y-51464362D01*
X159666435Y-51503032D01*
X159671000Y-51549388D01*
X159671000Y-52200612D01*
X159666435Y-52246968D01*
X159654704Y-52285638D01*
X159635654Y-52321277D01*
X159610017Y-52352517D01*
X159578777Y-52378154D01*
X159543138Y-52397204D01*
X159504468Y-52408935D01*
X159458112Y-52413500D01*
X158381888Y-52413500D01*
X158335532Y-52408935D01*
X158296862Y-52397204D01*
X158261223Y-52378154D01*
X158229983Y-52352517D01*
X158204346Y-52321277D01*
X158185296Y-52285638D01*
X158173565Y-52246968D01*
X158169000Y-52200612D01*
X158169000Y-51549388D01*
X158173565Y-51503032D01*
X158185296Y-51464362D01*
X158204346Y-51428723D01*
X158229983Y-51397483D01*
X158261223Y-51371846D01*
X158296862Y-51352796D01*
X158335532Y-51341065D01*
X158381888Y-51336500D01*
X159458112Y-51336500D01*
X159504468Y-51341065D01*
G37*
G36*
X141346355Y-49602140D02*
G01*
X141410118Y-49608420D01*
X141500904Y-49635960D01*
X141532836Y-49645646D01*
X141645925Y-49706094D01*
X141745054Y-49787446D01*
X141826406Y-49886575D01*
X141886854Y-49999664D01*
X141886855Y-49999668D01*
X141920413Y-50110292D01*
X141929787Y-50132925D01*
X141933500Y-50138482D01*
X141933500Y-50211886D01*
X141934102Y-50224138D01*
X141936649Y-50250000D01*
X141934102Y-50275862D01*
X141933500Y-50288114D01*
X141933500Y-51501000D01*
X139931500Y-51501000D01*
X139931500Y-50288114D01*
X139930898Y-50275862D01*
X139928351Y-50250000D01*
X139930898Y-50224138D01*
X139931500Y-50211886D01*
X139931500Y-50138594D01*
X139940457Y-50121836D01*
X139944585Y-50110299D01*
X139978145Y-49999668D01*
X139978146Y-49999664D01*
X140038594Y-49886575D01*
X140119946Y-49787446D01*
X140219075Y-49706094D01*
X140332164Y-49645646D01*
X140364096Y-49635960D01*
X140454882Y-49608420D01*
X140518645Y-49602140D01*
X140550526Y-49599000D01*
X141314474Y-49599000D01*
X141346355Y-49602140D01*
G37*
G36*
X162504468Y-49528565D02*
G01*
X162543138Y-49540296D01*
X162578777Y-49559346D01*
X162610017Y-49584983D01*
X162635654Y-49616223D01*
X162654704Y-49651862D01*
X162666435Y-49690532D01*
X162671000Y-49736888D01*
X162671000Y-50388112D01*
X162666435Y-50434468D01*
X162654704Y-50473138D01*
X162635654Y-50508777D01*
X162610017Y-50540017D01*
X162578777Y-50565654D01*
X162543138Y-50584704D01*
X162504468Y-50596435D01*
X162458112Y-50601000D01*
X161381888Y-50601000D01*
X161335532Y-50596435D01*
X161296862Y-50584704D01*
X161261223Y-50565654D01*
X161229983Y-50540017D01*
X161204346Y-50508777D01*
X161185296Y-50473138D01*
X161173565Y-50434468D01*
X161169000Y-50388112D01*
X161169000Y-49736888D01*
X161173565Y-49690532D01*
X161185296Y-49651862D01*
X161204346Y-49616223D01*
X161229983Y-49584983D01*
X161261223Y-49559346D01*
X161296862Y-49540296D01*
X161335532Y-49528565D01*
X161381888Y-49524000D01*
X162458112Y-49524000D01*
X162504468Y-49528565D01*
G37*
G36*
X159504468Y-49466065D02*
G01*
X159543138Y-49477796D01*
X159578777Y-49496846D01*
X159610017Y-49522483D01*
X159635654Y-49553723D01*
X159654704Y-49589362D01*
X159666435Y-49628032D01*
X159671000Y-49674388D01*
X159671000Y-50325612D01*
X159666435Y-50371968D01*
X159654704Y-50410638D01*
X159635654Y-50446277D01*
X159610017Y-50477517D01*
X159578777Y-50503154D01*
X159543138Y-50522204D01*
X159504468Y-50533935D01*
X159458112Y-50538500D01*
X158381888Y-50538500D01*
X158335532Y-50533935D01*
X158296862Y-50522204D01*
X158261223Y-50503154D01*
X158229983Y-50477517D01*
X158204346Y-50446277D01*
X158185296Y-50410638D01*
X158173565Y-50371968D01*
X158169000Y-50325612D01*
X158169000Y-49674388D01*
X158173565Y-49628032D01*
X158185296Y-49589362D01*
X158204346Y-49553723D01*
X158229983Y-49522483D01*
X158261223Y-49496846D01*
X158296862Y-49477796D01*
X158335532Y-49466065D01*
X158381888Y-49461500D01*
X159458112Y-49461500D01*
X159504468Y-49466065D01*
G37*
G36*
X166476564Y-47739389D02*
G01*
X166667833Y-47818615D01*
X166667835Y-47818616D01*
X166839973Y-47933635D01*
X166986365Y-48080027D01*
X167101385Y-48252167D01*
X167180611Y-48443436D01*
X167221000Y-48646484D01*
X167221000Y-48853516D01*
X167180611Y-49056564D01*
X167101385Y-49247833D01*
X167101384Y-49247835D01*
X166986365Y-49419973D01*
X166839973Y-49566365D01*
X166667835Y-49681384D01*
X166667834Y-49681385D01*
X166667833Y-49681385D01*
X166476564Y-49760611D01*
X166273516Y-49801000D01*
X166066484Y-49801000D01*
X165863436Y-49760611D01*
X165672167Y-49681385D01*
X165672166Y-49681385D01*
X165672165Y-49681384D01*
X165500027Y-49566365D01*
X165353635Y-49419973D01*
X165238616Y-49247835D01*
X165238615Y-49247833D01*
X165159389Y-49056564D01*
X165119000Y-48853516D01*
X165119000Y-48646484D01*
X165159389Y-48443436D01*
X165238615Y-48252167D01*
X165353635Y-48080027D01*
X165500027Y-47933635D01*
X165672165Y-47818616D01*
X165672167Y-47818615D01*
X165863436Y-47739389D01*
X166066484Y-47699000D01*
X166273516Y-47699000D01*
X166476564Y-47739389D01*
G37*
G36*
X155076564Y-47739389D02*
G01*
X155267833Y-47818615D01*
X155267835Y-47818616D01*
X155439973Y-47933635D01*
X155586365Y-48080027D01*
X155701385Y-48252167D01*
X155780611Y-48443436D01*
X155821000Y-48646484D01*
X155821000Y-48853516D01*
X155780611Y-49056564D01*
X155701385Y-49247833D01*
X155701384Y-49247835D01*
X155586365Y-49419973D01*
X155439973Y-49566365D01*
X155267835Y-49681384D01*
X155267834Y-49681385D01*
X155267833Y-49681385D01*
X155076564Y-49760611D01*
X154873516Y-49801000D01*
X154666484Y-49801000D01*
X154463436Y-49760611D01*
X154272167Y-49681385D01*
X154272166Y-49681385D01*
X154272165Y-49681384D01*
X154100027Y-49566365D01*
X153953635Y-49419973D01*
X153838616Y-49247835D01*
X153838615Y-49247833D01*
X153759389Y-49056564D01*
X153719000Y-48853516D01*
X153719000Y-48646484D01*
X153759389Y-48443436D01*
X153838615Y-48252167D01*
X153953635Y-48080027D01*
X154100027Y-47933635D01*
X154272165Y-47818616D01*
X154272167Y-47818615D01*
X154463436Y-47739389D01*
X154666484Y-47699000D01*
X154873516Y-47699000D01*
X155076564Y-47739389D01*
G37*
G36*
X159754468Y-46653565D02*
G01*
X159793138Y-46665296D01*
X159828777Y-46684346D01*
X159860017Y-46709983D01*
X159885654Y-46741223D01*
X159904704Y-46776862D01*
X159916435Y-46815532D01*
X159921000Y-46861888D01*
X159921000Y-47513112D01*
X159916435Y-47559468D01*
X159904704Y-47598138D01*
X159885654Y-47633777D01*
X159860017Y-47665017D01*
X159828777Y-47690654D01*
X159793138Y-47709704D01*
X159754468Y-47721435D01*
X159708112Y-47726000D01*
X158631888Y-47726000D01*
X158585532Y-47721435D01*
X158546862Y-47709704D01*
X158511223Y-47690654D01*
X158479983Y-47665017D01*
X158454346Y-47633777D01*
X158435296Y-47598138D01*
X158423565Y-47559468D01*
X158419000Y-47513112D01*
X158419000Y-46861888D01*
X158423565Y-46815532D01*
X158435296Y-46776862D01*
X158454346Y-46741223D01*
X158479983Y-46709983D01*
X158511223Y-46684346D01*
X158546862Y-46665296D01*
X158585532Y-46653565D01*
X158631888Y-46649000D01*
X159708112Y-46649000D01*
X159754468Y-46653565D01*
G37*
G36*
X159754468Y-44778565D02*
G01*
X159793138Y-44790296D01*
X159828777Y-44809346D01*
X159860017Y-44834983D01*
X159885654Y-44866223D01*
X159904704Y-44901862D01*
X159916435Y-44940532D01*
X159921000Y-44986888D01*
X159921000Y-45638112D01*
X159916435Y-45684468D01*
X159904704Y-45723138D01*
X159885654Y-45758777D01*
X159860017Y-45790017D01*
X159828777Y-45815654D01*
X159793138Y-45834704D01*
X159754468Y-45846435D01*
X159708112Y-45851000D01*
X158631888Y-45851000D01*
X158585532Y-45846435D01*
X158546862Y-45834704D01*
X158511223Y-45815654D01*
X158479983Y-45790017D01*
X158454346Y-45758777D01*
X158435296Y-45723138D01*
X158423565Y-45684468D01*
X158419000Y-45638112D01*
X158419000Y-44986888D01*
X158423565Y-44940532D01*
X158435296Y-44901862D01*
X158454346Y-44866223D01*
X158479983Y-44834983D01*
X158511223Y-44809346D01*
X158546862Y-44790296D01*
X158585532Y-44778565D01*
X158631888Y-44774000D01*
X159708112Y-44774000D01*
X159754468Y-44778565D01*
G37*
G36*
X152846627Y-43212037D02*
G01*
X153016466Y-43263557D01*
X153172991Y-43347222D01*
X153195533Y-43365722D01*
X153310186Y-43459814D01*
X153393448Y-43561271D01*
X153422778Y-43597009D01*
X153506443Y-43753534D01*
X153557963Y-43923374D01*
X153571000Y-44055743D01*
X153571000Y-44444258D01*
X153557963Y-44576627D01*
X153506443Y-44746466D01*
X153422778Y-44902991D01*
X153393448Y-44938729D01*
X153310186Y-45040186D01*
X153172989Y-45152779D01*
X153016467Y-45236442D01*
X153016465Y-45236443D01*
X152846626Y-45287963D01*
X152670000Y-45305359D01*
X152493373Y-45287963D01*
X152323534Y-45236443D01*
X152167009Y-45152778D01*
X152124750Y-45118097D01*
X152029814Y-45040186D01*
X151917221Y-44902989D01*
X151833558Y-44746467D01*
X151833557Y-44746465D01*
X151782037Y-44576626D01*
X151769000Y-44444257D01*
X151769000Y-44055742D01*
X151782037Y-43923373D01*
X151833557Y-43753534D01*
X151917222Y-43597009D01*
X152029815Y-43459815D01*
X152167010Y-43347222D01*
X152323535Y-43263557D01*
X152493374Y-43212037D01*
X152670000Y-43194641D01*
X152846627Y-43212037D01*
G37*
G36*
X155928600Y-43202989D02*
G01*
X155961652Y-43213015D01*
X155992103Y-43229292D01*
X156018799Y-43251201D01*
X156040708Y-43277897D01*
X156056985Y-43308348D01*
X156067011Y-43341400D01*
X156071000Y-43381903D01*
X156071000Y-45118097D01*
X156067011Y-45158600D01*
X156056985Y-45191652D01*
X156040708Y-45222103D01*
X156018799Y-45248799D01*
X155992103Y-45270708D01*
X155961652Y-45286985D01*
X155928600Y-45297011D01*
X155888097Y-45301000D01*
X154451903Y-45301000D01*
X154411400Y-45297011D01*
X154378348Y-45286985D01*
X154347897Y-45270708D01*
X154321201Y-45248799D01*
X154299292Y-45222103D01*
X154283015Y-45191652D01*
X154272989Y-45158600D01*
X154269000Y-45118097D01*
X154269000Y-43381903D01*
X154272989Y-43341400D01*
X154283015Y-43308348D01*
X154299292Y-43277897D01*
X154321201Y-43251201D01*
X154347897Y-43229292D01*
X154378348Y-43213015D01*
X154411400Y-43202989D01*
X154451903Y-43199000D01*
X155888097Y-43199000D01*
X155928600Y-43202989D01*
G37*
G36*
X159754468Y-43153565D02*
G01*
X159793138Y-43165296D01*
X159828777Y-43184346D01*
X159860017Y-43209983D01*
X159885654Y-43241223D01*
X159904704Y-43276862D01*
X159916435Y-43315532D01*
X159921000Y-43361888D01*
X159921000Y-44013112D01*
X159916435Y-44059468D01*
X159904704Y-44098138D01*
X159885654Y-44133777D01*
X159860017Y-44165017D01*
X159828777Y-44190654D01*
X159793138Y-44209704D01*
X159754468Y-44221435D01*
X159708112Y-44226000D01*
X158631888Y-44226000D01*
X158585532Y-44221435D01*
X158546862Y-44209704D01*
X158511223Y-44190654D01*
X158479983Y-44165017D01*
X158454346Y-44133777D01*
X158435296Y-44098138D01*
X158423565Y-44059468D01*
X158419000Y-44013112D01*
X158419000Y-43361888D01*
X158423565Y-43315532D01*
X158435296Y-43276862D01*
X158454346Y-43241223D01*
X158479983Y-43209983D01*
X158511223Y-43184346D01*
X158546862Y-43165296D01*
X158585532Y-43153565D01*
X158631888Y-43149000D01*
X159708112Y-43149000D01*
X159754468Y-43153565D01*
G37*
G36*
X166743512Y-41853927D02*
G01*
X166892812Y-41883624D01*
X167056784Y-41951544D01*
X167204354Y-42050147D01*
X167329853Y-42175646D01*
X167428456Y-42323216D01*
X167496376Y-42487188D01*
X167531000Y-42661259D01*
X167531000Y-42838741D01*
X167496376Y-43012812D01*
X167428456Y-43176784D01*
X167329853Y-43324354D01*
X167204354Y-43449853D01*
X167056784Y-43548456D01*
X166892812Y-43616376D01*
X166743512Y-43646073D01*
X166718742Y-43651000D01*
X166541258Y-43651000D01*
X166516488Y-43646073D01*
X166367188Y-43616376D01*
X166203216Y-43548456D01*
X166055646Y-43449853D01*
X165930147Y-43324354D01*
X165831544Y-43176784D01*
X165763624Y-43012812D01*
X165729000Y-42838741D01*
X165729000Y-42661259D01*
X165763624Y-42487188D01*
X165831544Y-42323216D01*
X165930147Y-42175646D01*
X166055646Y-42050147D01*
X166203216Y-41951544D01*
X166367188Y-41883624D01*
X166516488Y-41853927D01*
X166541258Y-41849000D01*
X166718742Y-41849000D01*
X166743512Y-41853927D01*
G37*
G36*
X169283512Y-41853927D02*
G01*
X169432812Y-41883624D01*
X169596784Y-41951544D01*
X169744354Y-42050147D01*
X169869853Y-42175646D01*
X169968456Y-42323216D01*
X170036376Y-42487188D01*
X170071000Y-42661259D01*
X170071000Y-42838741D01*
X170036376Y-43012812D01*
X169968456Y-43176784D01*
X169869853Y-43324354D01*
X169744354Y-43449853D01*
X169596784Y-43548456D01*
X169432812Y-43616376D01*
X169283512Y-43646073D01*
X169258742Y-43651000D01*
X169081258Y-43651000D01*
X169056488Y-43646073D01*
X168907188Y-43616376D01*
X168743216Y-43548456D01*
X168595646Y-43449853D01*
X168470147Y-43324354D01*
X168371544Y-43176784D01*
X168303624Y-43012812D01*
X168269000Y-42838741D01*
X168269000Y-42661259D01*
X168303624Y-42487188D01*
X168371544Y-42323216D01*
X168470147Y-42175646D01*
X168595646Y-42050147D01*
X168743216Y-41951544D01*
X168907188Y-41883624D01*
X169056488Y-41853927D01*
X169081258Y-41849000D01*
X169258742Y-41849000D01*
X169283512Y-41853927D01*
G37*
G36*
X164991000Y-43651000D02*
G01*
X163189000Y-43651000D01*
X163189000Y-41849000D01*
X164991000Y-41849000D01*
X164991000Y-43651000D01*
G37*
G36*
X156959890Y-41624017D02*
G01*
X157078364Y-41673091D01*
X157184988Y-41744335D01*
X157275665Y-41835012D01*
X157308147Y-41883624D01*
X157346910Y-41941638D01*
X157395983Y-42060110D01*
X157421000Y-42185881D01*
X157421000Y-42314119D01*
X157419190Y-42323218D01*
X157395983Y-42439890D01*
X157346909Y-42558364D01*
X157275665Y-42664988D01*
X157184988Y-42755665D01*
X157078364Y-42826909D01*
X157078363Y-42826910D01*
X157078362Y-42826910D01*
X156959890Y-42875983D01*
X156834119Y-42901000D01*
X156705881Y-42901000D01*
X156580110Y-42875983D01*
X156461638Y-42826910D01*
X156461637Y-42826910D01*
X156461636Y-42826909D01*
X156355012Y-42755665D01*
X156264335Y-42664988D01*
X156193091Y-42558364D01*
X156144017Y-42439890D01*
X156120810Y-42323218D01*
X156119000Y-42314119D01*
X156119000Y-42185881D01*
X156144017Y-42060110D01*
X156193090Y-41941638D01*
X156231854Y-41883624D01*
X156264335Y-41835012D01*
X156355012Y-41744335D01*
X156461636Y-41673091D01*
X156580110Y-41624017D01*
X156705881Y-41599000D01*
X156834119Y-41599000D01*
X156959890Y-41624017D01*
G37*
G36*
X159754468Y-41278565D02*
G01*
X159793138Y-41290296D01*
X159828777Y-41309346D01*
X159860017Y-41334983D01*
X159885654Y-41366223D01*
X159904704Y-41401862D01*
X159916435Y-41440532D01*
X159921000Y-41486888D01*
X159921000Y-42138112D01*
X159916435Y-42184468D01*
X159904704Y-42223138D01*
X159885654Y-42258777D01*
X159860017Y-42290017D01*
X159828777Y-42315654D01*
X159793138Y-42334704D01*
X159754468Y-42346435D01*
X159708112Y-42351000D01*
X158631888Y-42351000D01*
X158585532Y-42346435D01*
X158546862Y-42334704D01*
X158511223Y-42315654D01*
X158479983Y-42290017D01*
X158454346Y-42258777D01*
X158435296Y-42223138D01*
X158423565Y-42184468D01*
X158419000Y-42138112D01*
X158419000Y-41486888D01*
X158423565Y-41440532D01*
X158435296Y-41401862D01*
X158454346Y-41366223D01*
X158479983Y-41334983D01*
X158511223Y-41309346D01*
X158546862Y-41290296D01*
X158585532Y-41278565D01*
X158631888Y-41274000D01*
X159708112Y-41274000D01*
X159754468Y-41278565D01*
G37*
M02*
