G04 #@! TF.GenerationSoftware,KiCad,Pcbnew,(5.1.5)-3*
G04 #@! TF.CreationDate,2020-10-12T20:48:49-07:00*
G04 #@! TF.ProjectId,tool_head,746f6f6c-5f68-4656-9164-2e6b69636164,B*
G04 #@! TF.SameCoordinates,Original*
G04 #@! TF.FileFunction,Copper,L2,Bot*
G04 #@! TF.FilePolarity,Positive*
%FSLAX46Y46*%
G04 Gerber Fmt 4.6, Leading zero omitted, Abs format (unit mm)*
G04 Created by KiCad (PCBNEW (5.1.5)-3) date 2020-10-12 20:48:49*
%MOMM*%
%LPD*%
G04 APERTURE LIST*
%ADD10C,1.450000*%
%ADD11O,1.900000X1.200000*%
%ADD12R,1.700000X1.700000*%
%ADD13O,1.700000X1.700000*%
%ADD14C,2.600000*%
%ADD15R,2.600000X2.600000*%
%ADD16C,0.100000*%
%ADD17O,1.700000X2.000000*%
%ADD18C,1.750000*%
%ADD19C,2.000000*%
%ADD20C,0.800000*%
%ADD21C,0.250000*%
%ADD22C,1.000000*%
%ADD23C,2.000000*%
%ADD24C,0.254000*%
G04 APERTURE END LIST*
D10*
X143632500Y-62500000D03*
X143632500Y-67500000D03*
D11*
X140932500Y-61500000D03*
X140932500Y-68500000D03*
D12*
X176670000Y-63500000D03*
D13*
X179210000Y-63500000D03*
X176670000Y-66040000D03*
X179210000Y-66040000D03*
X176670000Y-68580000D03*
X179210000Y-68580000D03*
X176670000Y-71120000D03*
X179210000Y-71120000D03*
D14*
X144920000Y-51670000D03*
D15*
X144920000Y-56750000D03*
X176420000Y-58000000D03*
D14*
X176420000Y-52920000D03*
G04 #@! TA.AperFunction,ComponentPad*
D16*
G36*
X155794504Y-43251204D02*
G01*
X155818773Y-43254804D01*
X155842571Y-43260765D01*
X155865671Y-43269030D01*
X155887849Y-43279520D01*
X155908893Y-43292133D01*
X155928598Y-43306747D01*
X155946777Y-43323223D01*
X155963253Y-43341402D01*
X155977867Y-43361107D01*
X155990480Y-43382151D01*
X156000970Y-43404329D01*
X156009235Y-43427429D01*
X156015196Y-43451227D01*
X156018796Y-43475496D01*
X156020000Y-43500000D01*
X156020000Y-45000000D01*
X156018796Y-45024504D01*
X156015196Y-45048773D01*
X156009235Y-45072571D01*
X156000970Y-45095671D01*
X155990480Y-45117849D01*
X155977867Y-45138893D01*
X155963253Y-45158598D01*
X155946777Y-45176777D01*
X155928598Y-45193253D01*
X155908893Y-45207867D01*
X155887849Y-45220480D01*
X155865671Y-45230970D01*
X155842571Y-45239235D01*
X155818773Y-45245196D01*
X155794504Y-45248796D01*
X155770000Y-45250000D01*
X154570000Y-45250000D01*
X154545496Y-45248796D01*
X154521227Y-45245196D01*
X154497429Y-45239235D01*
X154474329Y-45230970D01*
X154452151Y-45220480D01*
X154431107Y-45207867D01*
X154411402Y-45193253D01*
X154393223Y-45176777D01*
X154376747Y-45158598D01*
X154362133Y-45138893D01*
X154349520Y-45117849D01*
X154339030Y-45095671D01*
X154330765Y-45072571D01*
X154324804Y-45048773D01*
X154321204Y-45024504D01*
X154320000Y-45000000D01*
X154320000Y-43500000D01*
X154321204Y-43475496D01*
X154324804Y-43451227D01*
X154330765Y-43427429D01*
X154339030Y-43404329D01*
X154349520Y-43382151D01*
X154362133Y-43361107D01*
X154376747Y-43341402D01*
X154393223Y-43323223D01*
X154411402Y-43306747D01*
X154431107Y-43292133D01*
X154452151Y-43279520D01*
X154474329Y-43269030D01*
X154497429Y-43260765D01*
X154521227Y-43254804D01*
X154545496Y-43251204D01*
X154570000Y-43250000D01*
X155770000Y-43250000D01*
X155794504Y-43251204D01*
G37*
G04 #@! TD.AperFunction*
D17*
X152670000Y-44250000D03*
D12*
X164090000Y-42750000D03*
D13*
X166630000Y-42750000D03*
X169170000Y-42750000D03*
D18*
X142420000Y-71250000D03*
X148920000Y-71250000D03*
D19*
X166170000Y-48750000D03*
X154770000Y-48750000D03*
D12*
X160920000Y-78000000D03*
D13*
X160920000Y-80540000D03*
X156670000Y-80540000D03*
D12*
X156670000Y-78000000D03*
D20*
X158557900Y-53356700D03*
X156275900Y-69621000D03*
X156170000Y-57750000D03*
X160920000Y-45000000D03*
X163670000Y-51000000D03*
X167420000Y-56750000D03*
X166170000Y-66750000D03*
X174920000Y-67500000D03*
X171670000Y-66000000D03*
X160170000Y-53500000D03*
X155670000Y-53750000D03*
X157420000Y-64500000D03*
X152420000Y-64750000D03*
X155920000Y-74500000D03*
X160920000Y-75750000D03*
X166170000Y-73750000D03*
X164670000Y-78000000D03*
X174920000Y-72500000D03*
X172170000Y-70750000D03*
X160420000Y-67750000D03*
X155968200Y-55688000D03*
X145041100Y-64928100D03*
X153905500Y-53965400D03*
X149420600Y-56569200D03*
X170420000Y-55250000D03*
X171420000Y-55250000D03*
X172420000Y-55250000D03*
X172420000Y-56250000D03*
X173420000Y-56250000D03*
X174420000Y-56250000D03*
X174420000Y-57250000D03*
X173420000Y-57250000D03*
X172420000Y-57250000D03*
X171420000Y-56250000D03*
X171420000Y-57250000D03*
X170420000Y-57250000D03*
X170420000Y-56250000D03*
X161639700Y-65197500D03*
X154238500Y-57750400D03*
X153337200Y-58425000D03*
X167898600Y-72803000D03*
X159553900Y-59453000D03*
X162417300Y-67901700D03*
X155905300Y-58865800D03*
X166071600Y-70287600D03*
X165760400Y-68601100D03*
D21*
X158557900Y-53356700D02*
X166630000Y-45284600D01*
X166630000Y-45284600D02*
X166630000Y-42750000D01*
X156275900Y-69621000D02*
X158557900Y-67339000D01*
X158557900Y-67339000D02*
X158557900Y-53356700D01*
X145041100Y-64928100D02*
X154281200Y-55688000D01*
X154281200Y-55688000D02*
X155968200Y-55688000D01*
X149420600Y-56569200D02*
X152024400Y-53965400D01*
X152024400Y-53965400D02*
X153905500Y-53965400D01*
X157661800Y-70353900D02*
X155961000Y-70353900D01*
X155961000Y-70353900D02*
X154238600Y-68631500D01*
X154238600Y-68631500D02*
X154238600Y-57750400D01*
X154238600Y-57750400D02*
X154238500Y-57750400D01*
X160920000Y-79364700D02*
X161728000Y-79364700D01*
X161728000Y-79364700D02*
X162121100Y-78971600D01*
X162121100Y-78971600D02*
X162121100Y-74813200D01*
X162121100Y-74813200D02*
X157661800Y-70353900D01*
X161639700Y-65197500D02*
X157661800Y-69175400D01*
X157661800Y-69175400D02*
X157661800Y-70353900D01*
X160920000Y-80540000D02*
X160920000Y-79364700D01*
X156670000Y-80540000D02*
X156670000Y-79364700D01*
X156670000Y-79364700D02*
X155862000Y-79364700D01*
X155862000Y-79364700D02*
X153337200Y-76839900D01*
X153337200Y-76839900D02*
X153337200Y-58425000D01*
X179210000Y-68580000D02*
X178034700Y-68580000D01*
X178034700Y-68580000D02*
X178034700Y-68947400D01*
X178034700Y-68947400D02*
X177226800Y-69755300D01*
X177226800Y-69755300D02*
X170946300Y-69755300D01*
X170946300Y-69755300D02*
X167898600Y-72803000D01*
D22*
X179210000Y-66040000D02*
X179210000Y-68580000D01*
X179210000Y-63500000D02*
X179210000Y-66040000D01*
X176420000Y-52920000D02*
X179210000Y-55710000D01*
X179210000Y-55710000D02*
X179210000Y-63500000D01*
D23*
X166170000Y-48750000D02*
X172250000Y-48750000D01*
X172250000Y-48750000D02*
X176420000Y-52920000D01*
X154770000Y-48750000D02*
X147840000Y-48750000D01*
X147840000Y-48750000D02*
X144920000Y-51670000D01*
D21*
X162417300Y-67901700D02*
X162417300Y-62316400D01*
X162417300Y-62316400D02*
X159553900Y-59453000D01*
X179210000Y-71120000D02*
X178034700Y-71120000D01*
X178034700Y-71120000D02*
X178034700Y-71487300D01*
X178034700Y-71487300D02*
X175971500Y-73550500D01*
X175971500Y-73550500D02*
X167523900Y-73550500D01*
X167523900Y-73550500D02*
X162417300Y-68443900D01*
X162417300Y-68443900D02*
X162417300Y-67901700D01*
X164090000Y-42750000D02*
X164090000Y-43925300D01*
X164090000Y-43925300D02*
X157279200Y-50736100D01*
X157279200Y-50736100D02*
X157279200Y-57737900D01*
X157279200Y-57737900D02*
X156151300Y-58865800D01*
X156151300Y-58865800D02*
X155905300Y-58865800D01*
X166071600Y-70287600D02*
X165760400Y-69976400D01*
X165760400Y-69976400D02*
X165760400Y-68601100D01*
D24*
G36*
X179955618Y-41057534D02*
G01*
X180230349Y-41140480D01*
X180483744Y-41275211D01*
X180706143Y-41456595D01*
X180889073Y-41677720D01*
X181025574Y-41930172D01*
X181110437Y-42204320D01*
X181142999Y-42514129D01*
X181142998Y-80474233D01*
X181112466Y-80785616D01*
X181029520Y-81060352D01*
X180894787Y-81313746D01*
X180713401Y-81536147D01*
X180492276Y-81719078D01*
X180239831Y-81855574D01*
X179965677Y-81940438D01*
X179655877Y-81973000D01*
X141695777Y-81973000D01*
X141384384Y-81942467D01*
X141109648Y-81859521D01*
X140856254Y-81724788D01*
X140633853Y-81543402D01*
X140450922Y-81322277D01*
X140314426Y-81069832D01*
X140229562Y-80795678D01*
X140197000Y-80485878D01*
X140197000Y-76964396D01*
X142395283Y-76964396D01*
X142395617Y-77012126D01*
X142395283Y-77059923D01*
X142396001Y-77067246D01*
X142431703Y-77406914D01*
X142441296Y-77453644D01*
X142450258Y-77500623D01*
X142452385Y-77507667D01*
X142553383Y-77833933D01*
X142571884Y-77877945D01*
X142589786Y-77922252D01*
X142593240Y-77928748D01*
X142755687Y-78229183D01*
X142782388Y-78268768D01*
X142808551Y-78308749D01*
X142813202Y-78314451D01*
X143030910Y-78577612D01*
X143064798Y-78611263D01*
X143098220Y-78645393D01*
X143103890Y-78650083D01*
X143368565Y-78865945D01*
X143408354Y-78892380D01*
X143447761Y-78919363D01*
X143454234Y-78922863D01*
X143755796Y-79083204D01*
X143799903Y-79101383D01*
X143843860Y-79120223D01*
X143850889Y-79122398D01*
X144177853Y-79221112D01*
X144224702Y-79230388D01*
X144271428Y-79240320D01*
X144278746Y-79241089D01*
X144566548Y-79269307D01*
X144566769Y-79269374D01*
X144644198Y-79277000D01*
X145695961Y-79277000D01*
X145723984Y-79274240D01*
X145745944Y-79274240D01*
X145753262Y-79273470D01*
X146092673Y-79235397D01*
X146139343Y-79225477D01*
X146186248Y-79216189D01*
X146193277Y-79214013D01*
X146518830Y-79110740D01*
X146562744Y-79091918D01*
X146606893Y-79073721D01*
X146613366Y-79070221D01*
X146912659Y-78905681D01*
X146952046Y-78878712D01*
X146991854Y-78852263D01*
X146997524Y-78847572D01*
X147259156Y-78628034D01*
X147292548Y-78593934D01*
X147326468Y-78560250D01*
X147331118Y-78554548D01*
X147545127Y-78288370D01*
X147571255Y-78248442D01*
X147597991Y-78208804D01*
X147601445Y-78202307D01*
X147759677Y-77899632D01*
X147777547Y-77855400D01*
X147796079Y-77811315D01*
X147798205Y-77804270D01*
X147894635Y-77476625D01*
X147903579Y-77429735D01*
X147913190Y-77382915D01*
X147913907Y-77375592D01*
X147944859Y-77035459D01*
X147944525Y-76987729D01*
X147944859Y-76939933D01*
X147944141Y-76932610D01*
X147908439Y-76592941D01*
X147898837Y-76546165D01*
X147889884Y-76499233D01*
X147887757Y-76492189D01*
X147786759Y-76165924D01*
X147768262Y-76121923D01*
X147750356Y-76077605D01*
X147746901Y-76071108D01*
X147584454Y-75770673D01*
X147557765Y-75731105D01*
X147531591Y-75691108D01*
X147526940Y-75685406D01*
X147309233Y-75422246D01*
X147275379Y-75388628D01*
X147241921Y-75354462D01*
X147236251Y-75349772D01*
X146971575Y-75133910D01*
X146931809Y-75107490D01*
X146892379Y-75080492D01*
X146885906Y-75076993D01*
X146584343Y-74916652D01*
X146540229Y-74898470D01*
X146496280Y-74879634D01*
X146489251Y-74877459D01*
X146162288Y-74778745D01*
X146115446Y-74769470D01*
X146068713Y-74759537D01*
X146061395Y-74758768D01*
X145721485Y-74725441D01*
X145721474Y-74725441D01*
X145695938Y-74722926D01*
X144644179Y-74722932D01*
X144642350Y-74723112D01*
X144641940Y-74723115D01*
X144636284Y-74723710D01*
X144616917Y-74725617D01*
X144594199Y-74725617D01*
X144586881Y-74726387D01*
X144247470Y-74764460D01*
X144200807Y-74774379D01*
X144153895Y-74783668D01*
X144146866Y-74785844D01*
X143821313Y-74889117D01*
X143777447Y-74907919D01*
X143733251Y-74926135D01*
X143726779Y-74929635D01*
X143427485Y-75094174D01*
X143388065Y-75121166D01*
X143348288Y-75147594D01*
X143342618Y-75152285D01*
X143080985Y-75371825D01*
X143047594Y-75405924D01*
X143013676Y-75439606D01*
X143009025Y-75445309D01*
X142795016Y-75711485D01*
X142768886Y-75751416D01*
X142742153Y-75791051D01*
X142738698Y-75797548D01*
X142580466Y-76100223D01*
X142562589Y-76144471D01*
X142544063Y-76188543D01*
X142541937Y-76195587D01*
X142445508Y-76523232D01*
X142436569Y-76570093D01*
X142426953Y-76616940D01*
X142426236Y-76624263D01*
X142395283Y-76964396D01*
X140197000Y-76964396D01*
X140197000Y-71121764D01*
X141118000Y-71121764D01*
X141118000Y-71378236D01*
X141168035Y-71629779D01*
X141266182Y-71866728D01*
X141408670Y-72079977D01*
X141590023Y-72261330D01*
X141803272Y-72403818D01*
X142040221Y-72501965D01*
X142291764Y-72552000D01*
X142548236Y-72552000D01*
X142799779Y-72501965D01*
X143036728Y-72403818D01*
X143197730Y-72296240D01*
X148053365Y-72296240D01*
X148134025Y-72547868D01*
X148402329Y-72676267D01*
X148690526Y-72749855D01*
X148987543Y-72765804D01*
X149281963Y-72723501D01*
X149562474Y-72624572D01*
X149705975Y-72547868D01*
X149786635Y-72296240D01*
X148920000Y-71429605D01*
X148053365Y-72296240D01*
X143197730Y-72296240D01*
X143249977Y-72261330D01*
X143431330Y-72079977D01*
X143573818Y-71866728D01*
X143671965Y-71629779D01*
X143722000Y-71378236D01*
X143722000Y-71317543D01*
X147404196Y-71317543D01*
X147446499Y-71611963D01*
X147545428Y-71892474D01*
X147622132Y-72035975D01*
X147873760Y-72116635D01*
X148740395Y-71250000D01*
X149099605Y-71250000D01*
X149966240Y-72116635D01*
X150217868Y-72035975D01*
X150346267Y-71767671D01*
X150419855Y-71479474D01*
X150435804Y-71182457D01*
X150393501Y-70888037D01*
X150294572Y-70607526D01*
X150217868Y-70464025D01*
X149966240Y-70383365D01*
X149099605Y-71250000D01*
X148740395Y-71250000D01*
X147873760Y-70383365D01*
X147622132Y-70464025D01*
X147493733Y-70732329D01*
X147420145Y-71020526D01*
X147404196Y-71317543D01*
X143722000Y-71317543D01*
X143722000Y-71121764D01*
X143671965Y-70870221D01*
X143573818Y-70633272D01*
X143431330Y-70420023D01*
X143249977Y-70238670D01*
X143197731Y-70203760D01*
X148053365Y-70203760D01*
X148920000Y-71070395D01*
X149786635Y-70203760D01*
X149705975Y-69952132D01*
X149437671Y-69823733D01*
X149149474Y-69750145D01*
X148852457Y-69734196D01*
X148558037Y-69776499D01*
X148277526Y-69875428D01*
X148134025Y-69952132D01*
X148053365Y-70203760D01*
X143197731Y-70203760D01*
X143036728Y-70096182D01*
X142799779Y-69998035D01*
X142548236Y-69948000D01*
X142291764Y-69948000D01*
X142040221Y-69998035D01*
X141803272Y-70096182D01*
X141590023Y-70238670D01*
X141408670Y-70420023D01*
X141266182Y-70633272D01*
X141168035Y-70870221D01*
X141118000Y-71121764D01*
X140197000Y-71121764D01*
X140196999Y-69678106D01*
X140217004Y-69686493D01*
X140455500Y-69735000D01*
X140805500Y-69735000D01*
X140805500Y-68627000D01*
X141059500Y-68627000D01*
X141059500Y-69735000D01*
X141409500Y-69735000D01*
X141647996Y-69686493D01*
X141872446Y-69592390D01*
X142074225Y-69456307D01*
X142245578Y-69283474D01*
X142379921Y-69080533D01*
X142472091Y-68855282D01*
X142475962Y-68817609D01*
X142351231Y-68627000D01*
X141059500Y-68627000D01*
X140805500Y-68627000D01*
X140785500Y-68627000D01*
X140785500Y-68439133D01*
X142872972Y-68439133D01*
X142935465Y-68675450D01*
X143178178Y-68788850D01*
X143438349Y-68852719D01*
X143705982Y-68864604D01*
X143970791Y-68824048D01*
X144222600Y-68732609D01*
X144329535Y-68675450D01*
X144392028Y-68439133D01*
X143632500Y-67679605D01*
X142872972Y-68439133D01*
X140785500Y-68439133D01*
X140785500Y-68373000D01*
X140805500Y-68373000D01*
X140805500Y-67265000D01*
X141059500Y-67265000D01*
X141059500Y-68373000D01*
X142351231Y-68373000D01*
X142465003Y-68199138D01*
X142693367Y-68259528D01*
X143452895Y-67500000D01*
X143812105Y-67500000D01*
X144571633Y-68259528D01*
X144807950Y-68197035D01*
X144921350Y-67954322D01*
X144985219Y-67694151D01*
X144997104Y-67426518D01*
X144956548Y-67161709D01*
X144865109Y-66909900D01*
X144807950Y-66802965D01*
X144571633Y-66740472D01*
X143812105Y-67500000D01*
X143452895Y-67500000D01*
X142693367Y-66740472D01*
X142457050Y-66802965D01*
X142343650Y-67045678D01*
X142279781Y-67305849D01*
X142267896Y-67573482D01*
X142303115Y-67803442D01*
X142245578Y-67716526D01*
X142074225Y-67543693D01*
X141872446Y-67407610D01*
X141647996Y-67313507D01*
X141409500Y-67265000D01*
X141059500Y-67265000D01*
X140805500Y-67265000D01*
X140455500Y-67265000D01*
X140217004Y-67313507D01*
X140196999Y-67321894D01*
X140196999Y-66560867D01*
X142872972Y-66560867D01*
X143632500Y-67320395D01*
X144392028Y-66560867D01*
X144329535Y-66324550D01*
X144086822Y-66211150D01*
X143826651Y-66147281D01*
X143559018Y-66135396D01*
X143294209Y-66175952D01*
X143042400Y-66267391D01*
X142935465Y-66324550D01*
X142872972Y-66560867D01*
X140196999Y-66560867D01*
X140196999Y-64846648D01*
X144214100Y-64846648D01*
X144214100Y-65009552D01*
X144245882Y-65169327D01*
X144308223Y-65319831D01*
X144398728Y-65455281D01*
X144513919Y-65570472D01*
X144649369Y-65660977D01*
X144799873Y-65723318D01*
X144959648Y-65755100D01*
X145122552Y-65755100D01*
X145282327Y-65723318D01*
X145432831Y-65660977D01*
X145568281Y-65570472D01*
X145683472Y-65455281D01*
X145773977Y-65319831D01*
X145836318Y-65169327D01*
X145868100Y-65009552D01*
X145868100Y-64881744D01*
X152536000Y-58213845D01*
X152510200Y-58343548D01*
X152510200Y-58506452D01*
X152541982Y-58666227D01*
X152604323Y-58816731D01*
X152694828Y-58952181D01*
X152785201Y-59042554D01*
X152785200Y-76812794D01*
X152782530Y-76839900D01*
X152785200Y-76867006D01*
X152785200Y-76867008D01*
X152793188Y-76948110D01*
X152824752Y-77052162D01*
X152876009Y-77148058D01*
X152944989Y-77232111D01*
X152966056Y-77249400D01*
X155452508Y-79735854D01*
X155469789Y-79756911D01*
X155490845Y-79774191D01*
X155553841Y-79825891D01*
X155596192Y-79848528D01*
X155538337Y-79935114D01*
X155442074Y-80167513D01*
X155393000Y-80414226D01*
X155393000Y-80665774D01*
X155442074Y-80912487D01*
X155538337Y-81144886D01*
X155678089Y-81354040D01*
X155855960Y-81531911D01*
X156065114Y-81671663D01*
X156297513Y-81767926D01*
X156544226Y-81817000D01*
X156795774Y-81817000D01*
X157042487Y-81767926D01*
X157274886Y-81671663D01*
X157484040Y-81531911D01*
X157661911Y-81354040D01*
X157801663Y-81144886D01*
X157897926Y-80912487D01*
X157947000Y-80665774D01*
X157947000Y-80414226D01*
X157897926Y-80167513D01*
X157801663Y-79935114D01*
X157661911Y-79725960D01*
X157484040Y-79548089D01*
X157393185Y-79487382D01*
X157520000Y-79488072D01*
X157644482Y-79475812D01*
X157764180Y-79439502D01*
X157874494Y-79380537D01*
X157971185Y-79301185D01*
X158050537Y-79204494D01*
X158109502Y-79094180D01*
X158145812Y-78974482D01*
X158158072Y-78850000D01*
X158155000Y-78285750D01*
X157996250Y-78127000D01*
X156797000Y-78127000D01*
X156797000Y-78147000D01*
X156543000Y-78147000D01*
X156543000Y-78127000D01*
X156523000Y-78127000D01*
X156523000Y-77873000D01*
X156543000Y-77873000D01*
X156543000Y-76673750D01*
X156797000Y-76673750D01*
X156797000Y-77873000D01*
X157996250Y-77873000D01*
X158155000Y-77714250D01*
X158158072Y-77150000D01*
X159431928Y-77150000D01*
X159435000Y-77714250D01*
X159593750Y-77873000D01*
X160793000Y-77873000D01*
X160793000Y-76673750D01*
X160634250Y-76515000D01*
X160070000Y-76511928D01*
X159945518Y-76524188D01*
X159825820Y-76560498D01*
X159715506Y-76619463D01*
X159618815Y-76698815D01*
X159539463Y-76795506D01*
X159480498Y-76905820D01*
X159444188Y-77025518D01*
X159431928Y-77150000D01*
X158158072Y-77150000D01*
X158145812Y-77025518D01*
X158109502Y-76905820D01*
X158050537Y-76795506D01*
X157971185Y-76698815D01*
X157874494Y-76619463D01*
X157764180Y-76560498D01*
X157644482Y-76524188D01*
X157520000Y-76511928D01*
X156955750Y-76515000D01*
X156797000Y-76673750D01*
X156543000Y-76673750D01*
X156384250Y-76515000D01*
X155820000Y-76511928D01*
X155695518Y-76524188D01*
X155575820Y-76560498D01*
X155465506Y-76619463D01*
X155368815Y-76698815D01*
X155289463Y-76795506D01*
X155230498Y-76905820D01*
X155194188Y-77025518D01*
X155181928Y-77150000D01*
X155185000Y-77714250D01*
X155343748Y-77872998D01*
X155185000Y-77872998D01*
X155185000Y-77907055D01*
X153889200Y-76611256D01*
X153889200Y-69062744D01*
X155551507Y-70725053D01*
X155568789Y-70746111D01*
X155652842Y-70815091D01*
X155748737Y-70866348D01*
X155852789Y-70897912D01*
X155933891Y-70905900D01*
X155933901Y-70905900D01*
X155960999Y-70908569D01*
X155988097Y-70905900D01*
X157433156Y-70905900D01*
X161569101Y-75041847D01*
X161569101Y-76513022D01*
X161205750Y-76515000D01*
X161047000Y-76673750D01*
X161047000Y-77873000D01*
X161067000Y-77873000D01*
X161067000Y-78127000D01*
X161047000Y-78127000D01*
X161047000Y-78147000D01*
X160793000Y-78147000D01*
X160793000Y-78127000D01*
X159593750Y-78127000D01*
X159435000Y-78285750D01*
X159431928Y-78850000D01*
X159444188Y-78974482D01*
X159480498Y-79094180D01*
X159539463Y-79204494D01*
X159618815Y-79301185D01*
X159715506Y-79380537D01*
X159825820Y-79439502D01*
X159945518Y-79475812D01*
X160070000Y-79488072D01*
X160196815Y-79487382D01*
X160105960Y-79548089D01*
X159928089Y-79725960D01*
X159788337Y-79935114D01*
X159692074Y-80167513D01*
X159643000Y-80414226D01*
X159643000Y-80665774D01*
X159692074Y-80912487D01*
X159788337Y-81144886D01*
X159928089Y-81354040D01*
X160105960Y-81531911D01*
X160315114Y-81671663D01*
X160547513Y-81767926D01*
X160794226Y-81817000D01*
X161045774Y-81817000D01*
X161292487Y-81767926D01*
X161524886Y-81671663D01*
X161734040Y-81531911D01*
X161911911Y-81354040D01*
X162051663Y-81144886D01*
X162147926Y-80912487D01*
X162197000Y-80665774D01*
X162197000Y-80414226D01*
X162147926Y-80167513D01*
X162051663Y-79935114D01*
X161993808Y-79848528D01*
X162036158Y-79825891D01*
X162120211Y-79756911D01*
X162137500Y-79735844D01*
X162492254Y-79381092D01*
X162513311Y-79363811D01*
X162555770Y-79312074D01*
X162582291Y-79279759D01*
X162633547Y-79183864D01*
X162633548Y-79183863D01*
X162665112Y-79079811D01*
X162673100Y-78998709D01*
X162673100Y-78998699D01*
X162675769Y-78971601D01*
X162673100Y-78944503D01*
X162673100Y-76964396D01*
X173395282Y-76964396D01*
X173395616Y-77012126D01*
X173395282Y-77059923D01*
X173396000Y-77067246D01*
X173431702Y-77406914D01*
X173441295Y-77453644D01*
X173450257Y-77500623D01*
X173452384Y-77507667D01*
X173553382Y-77833933D01*
X173571883Y-77877945D01*
X173589785Y-77922252D01*
X173593239Y-77928748D01*
X173755686Y-78229183D01*
X173782387Y-78268768D01*
X173808550Y-78308749D01*
X173813201Y-78314451D01*
X174030909Y-78577612D01*
X174064797Y-78611263D01*
X174098219Y-78645393D01*
X174103889Y-78650083D01*
X174368564Y-78865945D01*
X174408353Y-78892380D01*
X174447760Y-78919363D01*
X174454233Y-78922863D01*
X174755795Y-79083204D01*
X174799902Y-79101383D01*
X174843859Y-79120223D01*
X174850888Y-79122398D01*
X175177852Y-79221112D01*
X175224701Y-79230388D01*
X175271427Y-79240320D01*
X175278745Y-79241089D01*
X175566547Y-79269307D01*
X175566768Y-79269374D01*
X175644197Y-79277000D01*
X176695960Y-79277000D01*
X176723983Y-79274240D01*
X176745943Y-79274240D01*
X176753261Y-79273470D01*
X177092672Y-79235397D01*
X177139342Y-79225477D01*
X177186247Y-79216189D01*
X177193276Y-79214013D01*
X177518829Y-79110740D01*
X177562743Y-79091918D01*
X177606892Y-79073721D01*
X177613365Y-79070221D01*
X177912658Y-78905681D01*
X177952045Y-78878712D01*
X177991853Y-78852263D01*
X177997523Y-78847572D01*
X178259155Y-78628034D01*
X178292547Y-78593934D01*
X178326467Y-78560250D01*
X178331117Y-78554548D01*
X178545126Y-78288370D01*
X178571254Y-78248442D01*
X178597990Y-78208804D01*
X178601444Y-78202307D01*
X178759676Y-77899632D01*
X178777546Y-77855400D01*
X178796078Y-77811315D01*
X178798204Y-77804270D01*
X178894634Y-77476625D01*
X178903578Y-77429735D01*
X178913189Y-77382915D01*
X178913906Y-77375592D01*
X178944858Y-77035459D01*
X178944524Y-76987729D01*
X178944858Y-76939933D01*
X178944140Y-76932610D01*
X178908438Y-76592941D01*
X178898836Y-76546165D01*
X178889883Y-76499233D01*
X178887756Y-76492189D01*
X178786758Y-76165924D01*
X178768261Y-76121923D01*
X178750355Y-76077605D01*
X178746900Y-76071108D01*
X178584453Y-75770673D01*
X178557764Y-75731105D01*
X178531590Y-75691108D01*
X178526939Y-75685406D01*
X178309232Y-75422246D01*
X178275378Y-75388628D01*
X178241920Y-75354462D01*
X178236250Y-75349772D01*
X177971574Y-75133910D01*
X177931808Y-75107490D01*
X177892378Y-75080492D01*
X177885905Y-75076993D01*
X177584342Y-74916652D01*
X177540228Y-74898470D01*
X177496279Y-74879634D01*
X177489250Y-74877459D01*
X177162287Y-74778745D01*
X177115445Y-74769470D01*
X177068712Y-74759537D01*
X177061394Y-74758768D01*
X176721484Y-74725441D01*
X176721473Y-74725441D01*
X176695937Y-74722926D01*
X175644178Y-74722932D01*
X175642349Y-74723112D01*
X175641939Y-74723115D01*
X175636283Y-74723710D01*
X175616916Y-74725617D01*
X175594198Y-74725617D01*
X175586880Y-74726387D01*
X175247469Y-74764460D01*
X175200806Y-74774379D01*
X175153894Y-74783668D01*
X175146865Y-74785844D01*
X174821312Y-74889117D01*
X174777446Y-74907919D01*
X174733250Y-74926135D01*
X174726778Y-74929635D01*
X174427484Y-75094174D01*
X174388064Y-75121166D01*
X174348287Y-75147594D01*
X174342617Y-75152285D01*
X174080984Y-75371825D01*
X174047593Y-75405924D01*
X174013675Y-75439606D01*
X174009024Y-75445309D01*
X173795015Y-75711485D01*
X173768885Y-75751416D01*
X173742152Y-75791051D01*
X173738697Y-75797548D01*
X173580465Y-76100223D01*
X173562588Y-76144471D01*
X173544062Y-76188543D01*
X173541936Y-76195587D01*
X173445507Y-76523232D01*
X173436568Y-76570093D01*
X173426952Y-76616940D01*
X173426235Y-76624263D01*
X173395282Y-76964396D01*
X162673100Y-76964396D01*
X162673100Y-74840308D01*
X162675770Y-74813200D01*
X162672955Y-74784614D01*
X162665112Y-74704989D01*
X162633548Y-74600937D01*
X162582291Y-74505042D01*
X162513311Y-74420989D01*
X162492254Y-74403708D01*
X158213800Y-70125256D01*
X158213800Y-69404044D01*
X161593346Y-66024500D01*
X161721152Y-66024500D01*
X161865300Y-65995826D01*
X161865300Y-67284147D01*
X161774928Y-67374519D01*
X161684423Y-67509969D01*
X161622082Y-67660473D01*
X161590300Y-67820248D01*
X161590300Y-67983152D01*
X161622082Y-68142927D01*
X161684423Y-68293431D01*
X161774928Y-68428881D01*
X161870571Y-68524524D01*
X161873288Y-68552110D01*
X161904852Y-68656162D01*
X161956109Y-68752058D01*
X162025089Y-68836111D01*
X162046157Y-68853401D01*
X167114404Y-73921649D01*
X167131689Y-73942711D01*
X167215742Y-74011691D01*
X167311637Y-74062948D01*
X167415689Y-74094512D01*
X167496791Y-74102500D01*
X167496794Y-74102500D01*
X167523900Y-74105170D01*
X167551006Y-74102500D01*
X175944394Y-74102500D01*
X175971500Y-74105170D01*
X175998606Y-74102500D01*
X175998609Y-74102500D01*
X176079711Y-74094512D01*
X176183763Y-74062948D01*
X176279658Y-74011691D01*
X176363711Y-73942711D01*
X176381000Y-73921644D01*
X178293347Y-72009298D01*
X178395960Y-72111911D01*
X178605114Y-72251663D01*
X178837513Y-72347926D01*
X179084226Y-72397000D01*
X179335774Y-72397000D01*
X179582487Y-72347926D01*
X179814886Y-72251663D01*
X180024040Y-72111911D01*
X180201911Y-71934040D01*
X180341663Y-71724886D01*
X180437926Y-71492487D01*
X180487000Y-71245774D01*
X180487000Y-70994226D01*
X180437926Y-70747513D01*
X180341663Y-70515114D01*
X180201911Y-70305960D01*
X180024040Y-70128089D01*
X179814886Y-69988337D01*
X179582487Y-69892074D01*
X179370966Y-69850000D01*
X179582487Y-69807926D01*
X179814886Y-69711663D01*
X180024040Y-69571911D01*
X180201911Y-69394040D01*
X180341663Y-69184886D01*
X180437926Y-68952487D01*
X180487000Y-68705774D01*
X180487000Y-68454226D01*
X180437926Y-68207513D01*
X180341663Y-67975114D01*
X180201911Y-67765960D01*
X180137000Y-67701049D01*
X180137000Y-66918951D01*
X180201911Y-66854040D01*
X180341663Y-66644886D01*
X180437926Y-66412487D01*
X180487000Y-66165774D01*
X180487000Y-65914226D01*
X180437926Y-65667513D01*
X180341663Y-65435114D01*
X180201911Y-65225960D01*
X180137000Y-65161049D01*
X180137000Y-64378951D01*
X180201911Y-64314040D01*
X180341663Y-64104886D01*
X180437926Y-63872487D01*
X180487000Y-63625774D01*
X180487000Y-63374226D01*
X180437926Y-63127513D01*
X180341663Y-62895114D01*
X180201911Y-62685960D01*
X180137000Y-62621049D01*
X180137000Y-55755527D01*
X180141484Y-55710000D01*
X180137000Y-55664473D01*
X180137000Y-55664462D01*
X180123587Y-55528276D01*
X180070580Y-55353536D01*
X180039713Y-55295789D01*
X179984501Y-55192494D01*
X179897688Y-55086712D01*
X179897684Y-55086708D01*
X179868659Y-55051341D01*
X179833293Y-55022317D01*
X178106197Y-53295222D01*
X178147000Y-53090095D01*
X178147000Y-52749905D01*
X178080632Y-52416253D01*
X177950447Y-52101959D01*
X177761448Y-51819102D01*
X177520898Y-51578552D01*
X177238041Y-51389553D01*
X176923747Y-51259368D01*
X176741125Y-51223042D01*
X173308609Y-47790527D01*
X173263923Y-47736077D01*
X173046634Y-47557752D01*
X172798731Y-47425245D01*
X172529741Y-47343648D01*
X172320098Y-47323000D01*
X172320088Y-47323000D01*
X172250000Y-47316097D01*
X172179912Y-47323000D01*
X166029453Y-47323000D01*
X165960356Y-47336744D01*
X165890259Y-47343648D01*
X165822860Y-47364093D01*
X165753759Y-47377838D01*
X165688668Y-47404800D01*
X165621269Y-47425245D01*
X165559149Y-47458449D01*
X165494062Y-47485409D01*
X165435485Y-47524549D01*
X165373366Y-47557752D01*
X165318923Y-47602432D01*
X165260340Y-47641576D01*
X165210516Y-47691400D01*
X165156077Y-47736077D01*
X165111400Y-47790516D01*
X165061576Y-47840340D01*
X165022432Y-47898923D01*
X164977752Y-47953366D01*
X164944549Y-48015485D01*
X164905409Y-48074062D01*
X164878449Y-48139149D01*
X164845245Y-48201269D01*
X164824800Y-48268668D01*
X164797838Y-48333759D01*
X164784093Y-48402860D01*
X164763648Y-48470259D01*
X164756744Y-48540355D01*
X164743000Y-48609453D01*
X164743000Y-48679902D01*
X164736096Y-48750000D01*
X164743000Y-48820098D01*
X164743000Y-48890547D01*
X164756744Y-48959645D01*
X164763648Y-49029741D01*
X164784093Y-49097140D01*
X164797838Y-49166241D01*
X164824800Y-49231332D01*
X164845245Y-49298731D01*
X164878449Y-49360851D01*
X164905409Y-49425938D01*
X164944549Y-49484515D01*
X164977752Y-49546634D01*
X165022432Y-49601077D01*
X165061576Y-49659660D01*
X165111400Y-49709484D01*
X165156077Y-49763923D01*
X165210516Y-49808600D01*
X165260340Y-49858424D01*
X165318923Y-49897568D01*
X165373366Y-49942248D01*
X165435485Y-49975451D01*
X165494062Y-50014591D01*
X165559149Y-50041551D01*
X165621269Y-50074755D01*
X165688668Y-50095200D01*
X165753759Y-50122162D01*
X165822860Y-50135907D01*
X165890259Y-50156352D01*
X165960356Y-50163256D01*
X166029453Y-50177000D01*
X171658918Y-50177000D01*
X174723042Y-53241125D01*
X174759368Y-53423747D01*
X174889553Y-53738041D01*
X175078552Y-54020898D01*
X175319102Y-54261448D01*
X175601959Y-54450447D01*
X175916253Y-54580632D01*
X176249905Y-54647000D01*
X176590095Y-54647000D01*
X176795222Y-54606197D01*
X178283000Y-56093976D01*
X178283001Y-62621048D01*
X178218089Y-62685960D01*
X178078337Y-62895114D01*
X177982074Y-63127513D01*
X177949066Y-63293456D01*
X177949066Y-62650000D01*
X177940822Y-62566293D01*
X177916405Y-62485804D01*
X177876755Y-62411624D01*
X177823395Y-62346605D01*
X177758376Y-62293245D01*
X177684196Y-62253595D01*
X177603707Y-62229178D01*
X177520000Y-62220934D01*
X175820000Y-62220934D01*
X175736293Y-62229178D01*
X175655804Y-62253595D01*
X175581624Y-62293245D01*
X175516605Y-62346605D01*
X175463245Y-62411624D01*
X175423595Y-62485804D01*
X175399178Y-62566293D01*
X175390934Y-62650000D01*
X175390934Y-64350000D01*
X175399178Y-64433707D01*
X175423595Y-64514196D01*
X175463245Y-64588376D01*
X175516605Y-64653395D01*
X175581624Y-64706755D01*
X175655804Y-64746405D01*
X175736293Y-64770822D01*
X175820000Y-64779066D01*
X176463456Y-64779066D01*
X176297513Y-64812074D01*
X176065114Y-64908337D01*
X175855960Y-65048089D01*
X175678089Y-65225960D01*
X175538337Y-65435114D01*
X175442074Y-65667513D01*
X175393000Y-65914226D01*
X175393000Y-66165774D01*
X175442074Y-66412487D01*
X175538337Y-66644886D01*
X175678089Y-66854040D01*
X175855960Y-67031911D01*
X176065114Y-67171663D01*
X176297513Y-67267926D01*
X176509034Y-67310000D01*
X176297513Y-67352074D01*
X176065114Y-67448337D01*
X175855960Y-67588089D01*
X175678089Y-67765960D01*
X175538337Y-67975114D01*
X175442074Y-68207513D01*
X175393000Y-68454226D01*
X175393000Y-68705774D01*
X175442074Y-68952487D01*
X175538337Y-69184886D01*
X175550641Y-69203300D01*
X170973408Y-69203300D01*
X170946300Y-69200630D01*
X170919191Y-69203300D01*
X170838089Y-69211288D01*
X170734037Y-69242852D01*
X170638142Y-69294109D01*
X170554089Y-69363089D01*
X170536808Y-69384146D01*
X167944956Y-71976000D01*
X167817148Y-71976000D01*
X167657373Y-72007782D01*
X167506869Y-72070123D01*
X167371419Y-72160628D01*
X167256228Y-72275819D01*
X167165723Y-72411269D01*
X167165603Y-72411558D01*
X165838474Y-71084429D01*
X165990148Y-71114600D01*
X166153052Y-71114600D01*
X166312827Y-71082818D01*
X166463331Y-71020477D01*
X166598781Y-70929972D01*
X166713972Y-70814781D01*
X166804477Y-70679331D01*
X166866818Y-70528827D01*
X166898600Y-70369052D01*
X166898600Y-70206148D01*
X166866818Y-70046373D01*
X166804477Y-69895869D01*
X166713972Y-69760419D01*
X166598781Y-69645228D01*
X166463331Y-69554723D01*
X166312827Y-69492382D01*
X166312400Y-69492297D01*
X166312400Y-69218653D01*
X166402772Y-69128281D01*
X166493277Y-68992831D01*
X166555618Y-68842327D01*
X166587400Y-68682552D01*
X166587400Y-68519648D01*
X166555618Y-68359873D01*
X166493277Y-68209369D01*
X166402772Y-68073919D01*
X166287581Y-67958728D01*
X166152131Y-67868223D01*
X166001627Y-67805882D01*
X165841852Y-67774100D01*
X165678948Y-67774100D01*
X165519173Y-67805882D01*
X165368669Y-67868223D01*
X165233219Y-67958728D01*
X165118028Y-68073919D01*
X165027523Y-68209369D01*
X164965182Y-68359873D01*
X164933400Y-68519648D01*
X164933400Y-68682552D01*
X164965182Y-68842327D01*
X165027523Y-68992831D01*
X165118028Y-69128281D01*
X165208401Y-69218654D01*
X165208400Y-69949294D01*
X165205730Y-69976400D01*
X165208400Y-70003506D01*
X165208400Y-70003508D01*
X165216388Y-70084610D01*
X165247952Y-70188662D01*
X165248044Y-70188834D01*
X165244600Y-70206148D01*
X165244600Y-70369052D01*
X165274771Y-70520726D01*
X163109040Y-68354996D01*
X163150177Y-68293431D01*
X163212518Y-68142927D01*
X163244300Y-67983152D01*
X163244300Y-67820248D01*
X163212518Y-67660473D01*
X163150177Y-67509969D01*
X163059672Y-67374519D01*
X162969300Y-67284147D01*
X162969300Y-62343505D01*
X162971970Y-62316399D01*
X162965784Y-62253595D01*
X162961312Y-62208189D01*
X162929748Y-62104137D01*
X162878491Y-62008242D01*
X162809511Y-61924189D01*
X162788454Y-61906908D01*
X160380900Y-59499356D01*
X160380900Y-59371548D01*
X160349118Y-59211773D01*
X160286777Y-59061269D01*
X160196272Y-58925819D01*
X160081081Y-58810628D01*
X159945631Y-58720123D01*
X159795127Y-58657782D01*
X159635352Y-58626000D01*
X159472448Y-58626000D01*
X159312673Y-58657782D01*
X159162169Y-58720123D01*
X159109900Y-58755048D01*
X159109900Y-54000000D01*
X169243000Y-54000000D01*
X169243000Y-58285411D01*
X169251205Y-58368715D01*
X169275503Y-58448817D01*
X169314962Y-58522639D01*
X169368065Y-58587346D01*
X169432772Y-58640449D01*
X169506594Y-58679908D01*
X169586696Y-58704206D01*
X169670000Y-58712411D01*
X174690934Y-58712411D01*
X174690934Y-59300000D01*
X174699178Y-59383707D01*
X174723595Y-59464196D01*
X174763245Y-59538376D01*
X174816605Y-59603395D01*
X174881624Y-59656755D01*
X174955804Y-59696405D01*
X175036293Y-59720822D01*
X175120000Y-59729066D01*
X177720000Y-59729066D01*
X177803707Y-59720822D01*
X177884196Y-59696405D01*
X177958376Y-59656755D01*
X178023395Y-59603395D01*
X178076755Y-59538376D01*
X178116405Y-59464196D01*
X178140822Y-59383707D01*
X178149066Y-59300000D01*
X178149066Y-56700000D01*
X178140822Y-56616293D01*
X178116405Y-56535804D01*
X178076755Y-56461624D01*
X178023395Y-56396605D01*
X177958376Y-56343245D01*
X177884196Y-56303595D01*
X177803707Y-56279178D01*
X177720000Y-56270934D01*
X177094871Y-56270934D01*
X177078923Y-56162486D01*
X177047085Y-56085071D01*
X177000755Y-56015355D01*
X176941714Y-55956017D01*
X176872231Y-55909337D01*
X172622231Y-53623926D01*
X172583406Y-53605503D01*
X172503304Y-53581205D01*
X172420000Y-53573000D01*
X169670000Y-53573000D01*
X169586696Y-53581205D01*
X169506594Y-53605503D01*
X169432772Y-53644962D01*
X169368065Y-53698065D01*
X169314962Y-53762772D01*
X169275503Y-53836594D01*
X169251205Y-53916696D01*
X169243000Y-54000000D01*
X159109900Y-54000000D01*
X159109900Y-53974253D01*
X159200272Y-53883881D01*
X159290777Y-53748431D01*
X159353118Y-53597927D01*
X159384900Y-53438152D01*
X159384900Y-53310344D01*
X166730848Y-45964397D01*
X173395282Y-45964397D01*
X173395616Y-46012127D01*
X173395282Y-46059924D01*
X173396000Y-46067247D01*
X173431702Y-46406915D01*
X173441295Y-46453645D01*
X173450257Y-46500624D01*
X173452384Y-46507668D01*
X173553382Y-46833934D01*
X173571883Y-46877946D01*
X173589785Y-46922253D01*
X173593239Y-46928749D01*
X173755686Y-47229184D01*
X173782387Y-47268769D01*
X173808550Y-47308750D01*
X173813201Y-47314452D01*
X174030909Y-47577613D01*
X174064797Y-47611264D01*
X174098219Y-47645394D01*
X174103889Y-47650084D01*
X174368564Y-47865946D01*
X174408353Y-47892381D01*
X174447760Y-47919364D01*
X174454233Y-47922864D01*
X174755795Y-48083205D01*
X174799902Y-48101384D01*
X174843859Y-48120224D01*
X174850888Y-48122399D01*
X175177852Y-48221113D01*
X175224701Y-48230389D01*
X175271427Y-48240321D01*
X175278745Y-48241090D01*
X175566552Y-48269308D01*
X175566768Y-48269374D01*
X175644197Y-48277000D01*
X176695960Y-48277000D01*
X176723973Y-48274241D01*
X176745943Y-48274241D01*
X176753261Y-48273471D01*
X177092672Y-48235398D01*
X177139342Y-48225478D01*
X177186247Y-48216190D01*
X177193276Y-48214014D01*
X177518829Y-48110741D01*
X177562743Y-48091919D01*
X177606892Y-48073722D01*
X177613365Y-48070222D01*
X177912658Y-47905682D01*
X177952045Y-47878713D01*
X177991853Y-47852264D01*
X177997523Y-47847573D01*
X178259155Y-47628035D01*
X178292547Y-47593935D01*
X178326467Y-47560251D01*
X178331117Y-47554549D01*
X178545126Y-47288371D01*
X178571254Y-47248443D01*
X178597990Y-47208805D01*
X178601444Y-47202308D01*
X178759676Y-46899633D01*
X178777546Y-46855401D01*
X178796078Y-46811316D01*
X178798204Y-46804271D01*
X178894634Y-46476626D01*
X178903578Y-46429736D01*
X178913189Y-46382916D01*
X178913906Y-46375593D01*
X178944858Y-46035460D01*
X178944524Y-45987730D01*
X178944858Y-45939934D01*
X178944140Y-45932611D01*
X178908438Y-45592942D01*
X178898836Y-45546166D01*
X178889883Y-45499234D01*
X178887756Y-45492190D01*
X178786758Y-45165925D01*
X178768261Y-45121924D01*
X178750355Y-45077606D01*
X178746900Y-45071109D01*
X178584453Y-44770674D01*
X178557764Y-44731106D01*
X178531590Y-44691109D01*
X178526939Y-44685407D01*
X178309232Y-44422247D01*
X178275378Y-44388629D01*
X178241920Y-44354463D01*
X178236250Y-44349773D01*
X177971574Y-44133911D01*
X177931808Y-44107491D01*
X177892378Y-44080493D01*
X177885905Y-44076994D01*
X177584342Y-43916653D01*
X177540228Y-43898471D01*
X177496279Y-43879635D01*
X177489250Y-43877460D01*
X177162287Y-43778746D01*
X177115445Y-43769471D01*
X177068712Y-43759538D01*
X177061394Y-43758769D01*
X176721484Y-43725442D01*
X176721473Y-43725442D01*
X176695937Y-43722927D01*
X175644178Y-43722933D01*
X175642349Y-43723113D01*
X175641939Y-43723116D01*
X175636283Y-43723711D01*
X175616916Y-43725618D01*
X175594198Y-43725618D01*
X175586880Y-43726388D01*
X175247469Y-43764461D01*
X175200806Y-43774380D01*
X175153894Y-43783669D01*
X175146865Y-43785845D01*
X174821312Y-43889118D01*
X174777446Y-43907920D01*
X174733250Y-43926136D01*
X174726778Y-43929636D01*
X174427484Y-44094175D01*
X174388064Y-44121167D01*
X174348287Y-44147595D01*
X174342617Y-44152286D01*
X174080984Y-44371826D01*
X174047593Y-44405925D01*
X174013675Y-44439607D01*
X174009024Y-44445310D01*
X173795015Y-44711486D01*
X173768885Y-44751417D01*
X173742152Y-44791052D01*
X173738697Y-44797549D01*
X173580465Y-45100224D01*
X173562588Y-45144472D01*
X173544062Y-45188544D01*
X173541936Y-45195588D01*
X173445507Y-45523233D01*
X173436568Y-45570094D01*
X173426952Y-45616941D01*
X173426235Y-45624264D01*
X173395282Y-45964397D01*
X166730848Y-45964397D01*
X167001154Y-45694092D01*
X167022211Y-45676811D01*
X167081560Y-45604494D01*
X167091191Y-45592759D01*
X167126960Y-45525839D01*
X167142448Y-45496863D01*
X167174012Y-45392811D01*
X167182000Y-45311709D01*
X167182000Y-45311699D01*
X167184669Y-45284601D01*
X167182000Y-45257503D01*
X167182000Y-43903569D01*
X167234886Y-43881663D01*
X167444040Y-43741911D01*
X167621911Y-43564040D01*
X167761663Y-43354886D01*
X167791197Y-43283584D01*
X167825843Y-43381252D01*
X167974822Y-43631355D01*
X168169731Y-43847588D01*
X168403080Y-44021641D01*
X168665901Y-44146825D01*
X168813110Y-44191476D01*
X169043000Y-44070155D01*
X169043000Y-42877000D01*
X169297000Y-42877000D01*
X169297000Y-44070155D01*
X169526890Y-44191476D01*
X169674099Y-44146825D01*
X169936920Y-44021641D01*
X170170269Y-43847588D01*
X170365178Y-43631355D01*
X170514157Y-43381252D01*
X170611481Y-43106891D01*
X170490814Y-42877000D01*
X169297000Y-42877000D01*
X169043000Y-42877000D01*
X169023000Y-42877000D01*
X169023000Y-42623000D01*
X169043000Y-42623000D01*
X169043000Y-41429845D01*
X169297000Y-41429845D01*
X169297000Y-42623000D01*
X170490814Y-42623000D01*
X170611481Y-42393109D01*
X170514157Y-42118748D01*
X170365178Y-41868645D01*
X170170269Y-41652412D01*
X169936920Y-41478359D01*
X169674099Y-41353175D01*
X169526890Y-41308524D01*
X169297000Y-41429845D01*
X169043000Y-41429845D01*
X168813110Y-41308524D01*
X168665901Y-41353175D01*
X168403080Y-41478359D01*
X168169731Y-41652412D01*
X167974822Y-41868645D01*
X167825843Y-42118748D01*
X167791197Y-42216416D01*
X167761663Y-42145114D01*
X167621911Y-41935960D01*
X167444040Y-41758089D01*
X167234886Y-41618337D01*
X167002487Y-41522074D01*
X166755774Y-41473000D01*
X166504226Y-41473000D01*
X166257513Y-41522074D01*
X166025114Y-41618337D01*
X165815960Y-41758089D01*
X165638089Y-41935960D01*
X165498337Y-42145114D01*
X165402074Y-42377513D01*
X165369066Y-42543456D01*
X165369066Y-41900000D01*
X165360822Y-41816293D01*
X165336405Y-41735804D01*
X165296755Y-41661624D01*
X165243395Y-41596605D01*
X165178376Y-41543245D01*
X165104196Y-41503595D01*
X165023707Y-41479178D01*
X164940000Y-41470934D01*
X163240000Y-41470934D01*
X163156293Y-41479178D01*
X163075804Y-41503595D01*
X163001624Y-41543245D01*
X162936605Y-41596605D01*
X162883245Y-41661624D01*
X162843595Y-41735804D01*
X162819178Y-41816293D01*
X162810934Y-41900000D01*
X162810934Y-43600000D01*
X162819178Y-43683707D01*
X162843595Y-43764196D01*
X162883245Y-43838376D01*
X162936605Y-43903395D01*
X163001624Y-43956755D01*
X163075804Y-43996405D01*
X163156293Y-44020822D01*
X163208673Y-44025981D01*
X156908057Y-50326599D01*
X156886989Y-50343889D01*
X156818009Y-50427942D01*
X156766752Y-50523838D01*
X156735188Y-50627890D01*
X156727200Y-50708991D01*
X156724530Y-50736100D01*
X156727200Y-50763206D01*
X156727201Y-55359337D01*
X156701077Y-55296269D01*
X156610572Y-55160819D01*
X156495381Y-55045628D01*
X156359931Y-54955123D01*
X156209427Y-54892782D01*
X156049652Y-54861000D01*
X155886748Y-54861000D01*
X155726973Y-54892782D01*
X155576469Y-54955123D01*
X155441019Y-55045628D01*
X155350647Y-55136000D01*
X154308308Y-55136000D01*
X154281200Y-55133330D01*
X154254091Y-55136000D01*
X154172989Y-55143988D01*
X154068937Y-55175552D01*
X153973042Y-55226809D01*
X153888989Y-55295789D01*
X153871708Y-55316846D01*
X145087456Y-64101100D01*
X144959648Y-64101100D01*
X144799873Y-64132882D01*
X144649369Y-64195223D01*
X144513919Y-64285728D01*
X144398728Y-64400919D01*
X144308223Y-64536369D01*
X144245882Y-64686873D01*
X144214100Y-64846648D01*
X140196999Y-64846648D01*
X140196999Y-63439133D01*
X142872972Y-63439133D01*
X142935465Y-63675450D01*
X143178178Y-63788850D01*
X143438349Y-63852719D01*
X143705982Y-63864604D01*
X143970791Y-63824048D01*
X144222600Y-63732609D01*
X144329535Y-63675450D01*
X144392028Y-63439133D01*
X143632500Y-62679605D01*
X142872972Y-63439133D01*
X140196999Y-63439133D01*
X140196999Y-62678106D01*
X140217004Y-62686493D01*
X140455500Y-62735000D01*
X140805500Y-62735000D01*
X140805500Y-61627000D01*
X141059500Y-61627000D01*
X141059500Y-62735000D01*
X141409500Y-62735000D01*
X141647996Y-62686493D01*
X141872446Y-62592390D01*
X142074225Y-62456307D01*
X142245578Y-62283474D01*
X142308671Y-62188164D01*
X142279781Y-62305849D01*
X142267896Y-62573482D01*
X142308452Y-62838291D01*
X142399891Y-63090100D01*
X142457050Y-63197035D01*
X142693367Y-63259528D01*
X143452895Y-62500000D01*
X143812105Y-62500000D01*
X144571633Y-63259528D01*
X144807950Y-63197035D01*
X144921350Y-62954322D01*
X144985219Y-62694151D01*
X144997104Y-62426518D01*
X144956548Y-62161709D01*
X144865109Y-61909900D01*
X144807950Y-61802965D01*
X144571633Y-61740472D01*
X143812105Y-62500000D01*
X143452895Y-62500000D01*
X142693367Y-61740472D01*
X142465003Y-61800862D01*
X142351231Y-61627000D01*
X141059500Y-61627000D01*
X140805500Y-61627000D01*
X140785500Y-61627000D01*
X140785500Y-61560867D01*
X142872972Y-61560867D01*
X143632500Y-62320395D01*
X144392028Y-61560867D01*
X144329535Y-61324550D01*
X144086822Y-61211150D01*
X143826651Y-61147281D01*
X143559018Y-61135396D01*
X143294209Y-61175952D01*
X143042400Y-61267391D01*
X142935465Y-61324550D01*
X142872972Y-61560867D01*
X140785500Y-61560867D01*
X140785500Y-61373000D01*
X140805500Y-61373000D01*
X140805500Y-60265000D01*
X141059500Y-60265000D01*
X141059500Y-61373000D01*
X142351231Y-61373000D01*
X142475962Y-61182391D01*
X142472091Y-61144718D01*
X142379921Y-60919467D01*
X142245578Y-60716526D01*
X142074225Y-60543693D01*
X141872446Y-60407610D01*
X141647996Y-60313507D01*
X141409500Y-60265000D01*
X141059500Y-60265000D01*
X140805500Y-60265000D01*
X140455500Y-60265000D01*
X140217004Y-60313507D01*
X140196999Y-60321894D01*
X140196999Y-58050000D01*
X142981928Y-58050000D01*
X142994188Y-58174482D01*
X143030498Y-58294180D01*
X143089463Y-58404494D01*
X143168815Y-58501185D01*
X143265506Y-58580537D01*
X143375820Y-58639502D01*
X143495518Y-58675812D01*
X143620000Y-58688072D01*
X144634250Y-58685000D01*
X144793000Y-58526250D01*
X144793000Y-56877000D01*
X145047000Y-56877000D01*
X145047000Y-58526250D01*
X145205750Y-58685000D01*
X146220000Y-58688072D01*
X146344482Y-58675812D01*
X146464180Y-58639502D01*
X146574494Y-58580537D01*
X146671185Y-58501185D01*
X146750537Y-58404494D01*
X146809502Y-58294180D01*
X146845812Y-58174482D01*
X146858072Y-58050000D01*
X146855000Y-57035750D01*
X146696250Y-56877000D01*
X145047000Y-56877000D01*
X144793000Y-56877000D01*
X143143750Y-56877000D01*
X142985000Y-57035750D01*
X142981928Y-58050000D01*
X140196999Y-58050000D01*
X140196999Y-55450000D01*
X142981928Y-55450000D01*
X142985000Y-56464250D01*
X143143750Y-56623000D01*
X144793000Y-56623000D01*
X144793000Y-54973750D01*
X145047000Y-54973750D01*
X145047000Y-56623000D01*
X146696250Y-56623000D01*
X146831502Y-56487748D01*
X148593600Y-56487748D01*
X148593600Y-56650652D01*
X148625382Y-56810427D01*
X148687723Y-56960931D01*
X148778228Y-57096381D01*
X148893419Y-57211572D01*
X149028869Y-57302077D01*
X149179373Y-57364418D01*
X149339148Y-57396200D01*
X149502052Y-57396200D01*
X149661827Y-57364418D01*
X149812331Y-57302077D01*
X149947781Y-57211572D01*
X150062972Y-57096381D01*
X150153477Y-56960931D01*
X150215818Y-56810427D01*
X150247600Y-56650652D01*
X150247600Y-56522844D01*
X152253046Y-54517400D01*
X153287947Y-54517400D01*
X153378319Y-54607772D01*
X153513769Y-54698277D01*
X153664273Y-54760618D01*
X153824048Y-54792400D01*
X153986952Y-54792400D01*
X154146727Y-54760618D01*
X154297231Y-54698277D01*
X154432681Y-54607772D01*
X154547872Y-54492581D01*
X154638377Y-54357131D01*
X154700718Y-54206627D01*
X154732500Y-54046852D01*
X154732500Y-53883948D01*
X154700718Y-53724173D01*
X154638377Y-53573669D01*
X154547872Y-53438219D01*
X154432681Y-53323028D01*
X154297231Y-53232523D01*
X154146727Y-53170182D01*
X153986952Y-53138400D01*
X153824048Y-53138400D01*
X153664273Y-53170182D01*
X153513769Y-53232523D01*
X153378319Y-53323028D01*
X153287947Y-53413400D01*
X152051497Y-53413400D01*
X152024399Y-53410731D01*
X151997301Y-53413400D01*
X151997291Y-53413400D01*
X151916189Y-53421388D01*
X151812137Y-53452952D01*
X151782615Y-53468732D01*
X151716241Y-53504209D01*
X151668625Y-53543287D01*
X151632189Y-53573189D01*
X151614908Y-53594246D01*
X149466956Y-55742200D01*
X149339148Y-55742200D01*
X149179373Y-55773982D01*
X149028869Y-55836323D01*
X148893419Y-55926828D01*
X148778228Y-56042019D01*
X148687723Y-56177469D01*
X148625382Y-56327973D01*
X148593600Y-56487748D01*
X146831502Y-56487748D01*
X146855000Y-56464250D01*
X146858072Y-55450000D01*
X146845812Y-55325518D01*
X146809502Y-55205820D01*
X146750537Y-55095506D01*
X146671185Y-54998815D01*
X146574494Y-54919463D01*
X146464180Y-54860498D01*
X146344482Y-54824188D01*
X146220000Y-54811928D01*
X145205750Y-54815000D01*
X145047000Y-54973750D01*
X144793000Y-54973750D01*
X144634250Y-54815000D01*
X143620000Y-54811928D01*
X143495518Y-54824188D01*
X143375820Y-54860498D01*
X143265506Y-54919463D01*
X143168815Y-54998815D01*
X143089463Y-55095506D01*
X143030498Y-55205820D01*
X142994188Y-55325518D01*
X142981928Y-55450000D01*
X140196999Y-55450000D01*
X140196999Y-45964397D01*
X142395283Y-45964397D01*
X142395617Y-46012127D01*
X142395283Y-46059924D01*
X142396001Y-46067247D01*
X142431703Y-46406915D01*
X142441296Y-46453645D01*
X142450258Y-46500624D01*
X142452385Y-46507668D01*
X142553383Y-46833934D01*
X142571884Y-46877946D01*
X142589786Y-46922253D01*
X142593240Y-46928749D01*
X142755687Y-47229184D01*
X142782388Y-47268769D01*
X142808551Y-47308750D01*
X142813202Y-47314452D01*
X143030910Y-47577613D01*
X143064798Y-47611264D01*
X143098220Y-47645394D01*
X143103890Y-47650084D01*
X143368565Y-47865946D01*
X143408354Y-47892381D01*
X143447761Y-47919364D01*
X143454234Y-47922864D01*
X143755796Y-48083205D01*
X143799903Y-48101384D01*
X143843860Y-48120224D01*
X143850889Y-48122399D01*
X144177853Y-48221113D01*
X144224702Y-48230389D01*
X144271428Y-48240321D01*
X144278746Y-48241090D01*
X144566436Y-48269297D01*
X144566690Y-48269374D01*
X144644119Y-48277000D01*
X145695881Y-48277000D01*
X145723894Y-48274241D01*
X145745944Y-48274241D01*
X145753262Y-48273471D01*
X146092673Y-48235398D01*
X146139343Y-48225478D01*
X146186248Y-48216190D01*
X146193277Y-48214014D01*
X146434390Y-48137527D01*
X144598876Y-49973042D01*
X144416253Y-50009368D01*
X144101959Y-50139553D01*
X143819102Y-50328552D01*
X143578552Y-50569102D01*
X143389553Y-50851959D01*
X143259368Y-51166253D01*
X143193000Y-51499905D01*
X143193000Y-51840095D01*
X143259368Y-52173747D01*
X143389553Y-52488041D01*
X143578552Y-52770898D01*
X143819102Y-53011448D01*
X144101959Y-53200447D01*
X144416253Y-53330632D01*
X144749905Y-53397000D01*
X145090095Y-53397000D01*
X145423747Y-53330632D01*
X145738041Y-53200447D01*
X146020898Y-53011448D01*
X146261448Y-52770898D01*
X146450447Y-52488041D01*
X146580632Y-52173747D01*
X146616958Y-51991124D01*
X148431083Y-50177000D01*
X154910547Y-50177000D01*
X154979644Y-50163256D01*
X155049741Y-50156352D01*
X155117140Y-50135907D01*
X155186241Y-50122162D01*
X155251332Y-50095200D01*
X155318731Y-50074755D01*
X155380851Y-50041551D01*
X155445938Y-50014591D01*
X155504515Y-49975451D01*
X155566634Y-49942248D01*
X155621077Y-49897568D01*
X155679660Y-49858424D01*
X155729484Y-49808600D01*
X155783923Y-49763923D01*
X155828600Y-49709484D01*
X155878424Y-49659660D01*
X155917568Y-49601077D01*
X155962248Y-49546634D01*
X155995451Y-49484515D01*
X156034591Y-49425938D01*
X156061551Y-49360851D01*
X156094755Y-49298731D01*
X156115200Y-49231332D01*
X156142162Y-49166241D01*
X156155907Y-49097140D01*
X156176352Y-49029741D01*
X156183256Y-48959645D01*
X156197000Y-48890547D01*
X156197000Y-48820098D01*
X156203904Y-48750000D01*
X156197000Y-48679902D01*
X156197000Y-48609453D01*
X156183256Y-48540355D01*
X156176352Y-48470259D01*
X156155907Y-48402860D01*
X156142162Y-48333759D01*
X156115200Y-48268668D01*
X156094755Y-48201269D01*
X156061551Y-48139149D01*
X156034591Y-48074062D01*
X155995451Y-48015485D01*
X155962248Y-47953366D01*
X155917568Y-47898923D01*
X155878424Y-47840340D01*
X155828600Y-47790516D01*
X155783923Y-47736077D01*
X155729484Y-47691400D01*
X155679660Y-47641576D01*
X155621077Y-47602432D01*
X155566634Y-47557752D01*
X155504515Y-47524549D01*
X155445938Y-47485409D01*
X155380851Y-47458449D01*
X155318731Y-47425245D01*
X155251332Y-47404800D01*
X155186241Y-47377838D01*
X155117140Y-47364093D01*
X155049741Y-47343648D01*
X154979644Y-47336744D01*
X154910547Y-47323000D01*
X147910090Y-47323000D01*
X147840000Y-47316097D01*
X147769910Y-47323000D01*
X147769902Y-47323000D01*
X147584474Y-47341263D01*
X147560258Y-47343648D01*
X147492323Y-47364256D01*
X147481467Y-47367549D01*
X147545127Y-47288371D01*
X147571255Y-47248443D01*
X147597991Y-47208805D01*
X147601445Y-47202308D01*
X147759677Y-46899633D01*
X147777547Y-46855401D01*
X147796079Y-46811316D01*
X147798205Y-46804271D01*
X147894635Y-46476626D01*
X147903579Y-46429736D01*
X147913190Y-46382916D01*
X147913907Y-46375593D01*
X147944859Y-46035460D01*
X147944525Y-45987730D01*
X147944859Y-45939934D01*
X147944141Y-45932611D01*
X147908439Y-45592942D01*
X147898837Y-45546166D01*
X147889884Y-45499234D01*
X147887757Y-45492190D01*
X147786759Y-45165925D01*
X147768262Y-45121924D01*
X147750356Y-45077606D01*
X147746901Y-45071109D01*
X147584454Y-44770674D01*
X147557765Y-44731106D01*
X147531591Y-44691109D01*
X147526940Y-44685407D01*
X147309233Y-44422247D01*
X147275379Y-44388629D01*
X147241921Y-44354463D01*
X147236251Y-44349773D01*
X146971575Y-44133911D01*
X146931809Y-44107491D01*
X146892379Y-44080493D01*
X146885906Y-44076994D01*
X146811203Y-44037274D01*
X151393000Y-44037274D01*
X151393000Y-44462725D01*
X151411478Y-44650335D01*
X151484498Y-44891050D01*
X151603076Y-45112895D01*
X151762656Y-45307344D01*
X151957104Y-45466924D01*
X152178949Y-45585502D01*
X152419664Y-45658522D01*
X152670000Y-45683178D01*
X152920335Y-45658522D01*
X153161050Y-45585502D01*
X153382895Y-45466924D01*
X153577344Y-45307344D01*
X153682231Y-45179539D01*
X153681928Y-45250000D01*
X153694188Y-45374482D01*
X153730498Y-45494180D01*
X153789463Y-45604494D01*
X153868815Y-45701185D01*
X153965506Y-45780537D01*
X154075820Y-45839502D01*
X154195518Y-45875812D01*
X154320000Y-45888072D01*
X154884250Y-45885000D01*
X155043000Y-45726250D01*
X155043000Y-44377000D01*
X155297000Y-44377000D01*
X155297000Y-45726250D01*
X155455750Y-45885000D01*
X156020000Y-45888072D01*
X156144482Y-45875812D01*
X156264180Y-45839502D01*
X156374494Y-45780537D01*
X156471185Y-45701185D01*
X156550537Y-45604494D01*
X156609502Y-45494180D01*
X156645812Y-45374482D01*
X156658072Y-45250000D01*
X156655000Y-44535750D01*
X156496250Y-44377000D01*
X155297000Y-44377000D01*
X155043000Y-44377000D01*
X155023000Y-44377000D01*
X155023000Y-44123000D01*
X155043000Y-44123000D01*
X155043000Y-42773750D01*
X155297000Y-42773750D01*
X155297000Y-44123000D01*
X156496250Y-44123000D01*
X156655000Y-43964250D01*
X156657965Y-43274835D01*
X156668849Y-43277000D01*
X156871151Y-43277000D01*
X157069565Y-43237533D01*
X157256467Y-43160115D01*
X157424674Y-43047723D01*
X157567723Y-42904674D01*
X157680115Y-42736467D01*
X157757533Y-42549565D01*
X157797000Y-42351151D01*
X157797000Y-42148849D01*
X157757533Y-41950435D01*
X157680115Y-41763533D01*
X157567723Y-41595326D01*
X157424674Y-41452277D01*
X157256467Y-41339885D01*
X157069565Y-41262467D01*
X156871151Y-41223000D01*
X156668849Y-41223000D01*
X156470435Y-41262467D01*
X156283533Y-41339885D01*
X156115326Y-41452277D01*
X155972277Y-41595326D01*
X155859885Y-41763533D01*
X155782467Y-41950435D01*
X155743000Y-42148849D01*
X155743000Y-42351151D01*
X155782467Y-42549565D01*
X155808775Y-42613078D01*
X155455750Y-42615000D01*
X155297000Y-42773750D01*
X155043000Y-42773750D01*
X154884250Y-42615000D01*
X154320000Y-42611928D01*
X154195518Y-42624188D01*
X154075820Y-42660498D01*
X153965506Y-42719463D01*
X153868815Y-42798815D01*
X153789463Y-42895506D01*
X153730498Y-43005820D01*
X153694188Y-43125518D01*
X153681928Y-43250000D01*
X153682231Y-43320461D01*
X153577344Y-43192656D01*
X153382896Y-43033076D01*
X153161051Y-42914498D01*
X152920336Y-42841478D01*
X152670000Y-42816822D01*
X152419665Y-42841478D01*
X152178950Y-42914498D01*
X151957105Y-43033076D01*
X151762657Y-43192656D01*
X151603076Y-43387104D01*
X151484498Y-43608949D01*
X151411478Y-43849664D01*
X151393000Y-44037274D01*
X146811203Y-44037274D01*
X146584343Y-43916653D01*
X146540229Y-43898471D01*
X146496280Y-43879635D01*
X146489251Y-43877460D01*
X146162288Y-43778746D01*
X146115446Y-43769471D01*
X146068713Y-43759538D01*
X146061395Y-43758769D01*
X145721485Y-43725442D01*
X145721474Y-43725442D01*
X145695938Y-43722927D01*
X144644179Y-43722933D01*
X144642350Y-43723113D01*
X144641940Y-43723116D01*
X144636284Y-43723711D01*
X144616917Y-43725618D01*
X144594199Y-43725618D01*
X144586881Y-43726388D01*
X144247470Y-43764461D01*
X144200807Y-43774380D01*
X144153895Y-43783669D01*
X144146866Y-43785845D01*
X143821313Y-43889118D01*
X143777447Y-43907920D01*
X143733251Y-43926136D01*
X143726779Y-43929636D01*
X143427485Y-44094175D01*
X143388065Y-44121167D01*
X143348288Y-44147595D01*
X143342618Y-44152286D01*
X143080985Y-44371826D01*
X143047594Y-44405925D01*
X143013676Y-44439607D01*
X143009025Y-44445310D01*
X142795016Y-44711486D01*
X142768886Y-44751417D01*
X142742153Y-44791052D01*
X142738698Y-44797549D01*
X142580466Y-45100224D01*
X142562589Y-45144472D01*
X142544063Y-45188544D01*
X142541937Y-45195588D01*
X142445508Y-45523233D01*
X142436569Y-45570094D01*
X142426953Y-45616941D01*
X142426236Y-45624264D01*
X142395283Y-45964397D01*
X140196999Y-45964397D01*
X140196998Y-42525796D01*
X140227532Y-42214384D01*
X140310479Y-41939650D01*
X140445213Y-41686252D01*
X140626595Y-41463855D01*
X140847720Y-41280924D01*
X141100168Y-41144426D01*
X141374321Y-41059562D01*
X141684121Y-41027000D01*
X179644212Y-41027000D01*
X179955618Y-41057534D01*
G37*
X179955618Y-41057534D02*
X180230349Y-41140480D01*
X180483744Y-41275211D01*
X180706143Y-41456595D01*
X180889073Y-41677720D01*
X181025574Y-41930172D01*
X181110437Y-42204320D01*
X181142999Y-42514129D01*
X181142998Y-80474233D01*
X181112466Y-80785616D01*
X181029520Y-81060352D01*
X180894787Y-81313746D01*
X180713401Y-81536147D01*
X180492276Y-81719078D01*
X180239831Y-81855574D01*
X179965677Y-81940438D01*
X179655877Y-81973000D01*
X141695777Y-81973000D01*
X141384384Y-81942467D01*
X141109648Y-81859521D01*
X140856254Y-81724788D01*
X140633853Y-81543402D01*
X140450922Y-81322277D01*
X140314426Y-81069832D01*
X140229562Y-80795678D01*
X140197000Y-80485878D01*
X140197000Y-76964396D01*
X142395283Y-76964396D01*
X142395617Y-77012126D01*
X142395283Y-77059923D01*
X142396001Y-77067246D01*
X142431703Y-77406914D01*
X142441296Y-77453644D01*
X142450258Y-77500623D01*
X142452385Y-77507667D01*
X142553383Y-77833933D01*
X142571884Y-77877945D01*
X142589786Y-77922252D01*
X142593240Y-77928748D01*
X142755687Y-78229183D01*
X142782388Y-78268768D01*
X142808551Y-78308749D01*
X142813202Y-78314451D01*
X143030910Y-78577612D01*
X143064798Y-78611263D01*
X143098220Y-78645393D01*
X143103890Y-78650083D01*
X143368565Y-78865945D01*
X143408354Y-78892380D01*
X143447761Y-78919363D01*
X143454234Y-78922863D01*
X143755796Y-79083204D01*
X143799903Y-79101383D01*
X143843860Y-79120223D01*
X143850889Y-79122398D01*
X144177853Y-79221112D01*
X144224702Y-79230388D01*
X144271428Y-79240320D01*
X144278746Y-79241089D01*
X144566548Y-79269307D01*
X144566769Y-79269374D01*
X144644198Y-79277000D01*
X145695961Y-79277000D01*
X145723984Y-79274240D01*
X145745944Y-79274240D01*
X145753262Y-79273470D01*
X146092673Y-79235397D01*
X146139343Y-79225477D01*
X146186248Y-79216189D01*
X146193277Y-79214013D01*
X146518830Y-79110740D01*
X146562744Y-79091918D01*
X146606893Y-79073721D01*
X146613366Y-79070221D01*
X146912659Y-78905681D01*
X146952046Y-78878712D01*
X146991854Y-78852263D01*
X146997524Y-78847572D01*
X147259156Y-78628034D01*
X147292548Y-78593934D01*
X147326468Y-78560250D01*
X147331118Y-78554548D01*
X147545127Y-78288370D01*
X147571255Y-78248442D01*
X147597991Y-78208804D01*
X147601445Y-78202307D01*
X147759677Y-77899632D01*
X147777547Y-77855400D01*
X147796079Y-77811315D01*
X147798205Y-77804270D01*
X147894635Y-77476625D01*
X147903579Y-77429735D01*
X147913190Y-77382915D01*
X147913907Y-77375592D01*
X147944859Y-77035459D01*
X147944525Y-76987729D01*
X147944859Y-76939933D01*
X147944141Y-76932610D01*
X147908439Y-76592941D01*
X147898837Y-76546165D01*
X147889884Y-76499233D01*
X147887757Y-76492189D01*
X147786759Y-76165924D01*
X147768262Y-76121923D01*
X147750356Y-76077605D01*
X147746901Y-76071108D01*
X147584454Y-75770673D01*
X147557765Y-75731105D01*
X147531591Y-75691108D01*
X147526940Y-75685406D01*
X147309233Y-75422246D01*
X147275379Y-75388628D01*
X147241921Y-75354462D01*
X147236251Y-75349772D01*
X146971575Y-75133910D01*
X146931809Y-75107490D01*
X146892379Y-75080492D01*
X146885906Y-75076993D01*
X146584343Y-74916652D01*
X146540229Y-74898470D01*
X146496280Y-74879634D01*
X146489251Y-74877459D01*
X146162288Y-74778745D01*
X146115446Y-74769470D01*
X146068713Y-74759537D01*
X146061395Y-74758768D01*
X145721485Y-74725441D01*
X145721474Y-74725441D01*
X145695938Y-74722926D01*
X144644179Y-74722932D01*
X144642350Y-74723112D01*
X144641940Y-74723115D01*
X144636284Y-74723710D01*
X144616917Y-74725617D01*
X144594199Y-74725617D01*
X144586881Y-74726387D01*
X144247470Y-74764460D01*
X144200807Y-74774379D01*
X144153895Y-74783668D01*
X144146866Y-74785844D01*
X143821313Y-74889117D01*
X143777447Y-74907919D01*
X143733251Y-74926135D01*
X143726779Y-74929635D01*
X143427485Y-75094174D01*
X143388065Y-75121166D01*
X143348288Y-75147594D01*
X143342618Y-75152285D01*
X143080985Y-75371825D01*
X143047594Y-75405924D01*
X143013676Y-75439606D01*
X143009025Y-75445309D01*
X142795016Y-75711485D01*
X142768886Y-75751416D01*
X142742153Y-75791051D01*
X142738698Y-75797548D01*
X142580466Y-76100223D01*
X142562589Y-76144471D01*
X142544063Y-76188543D01*
X142541937Y-76195587D01*
X142445508Y-76523232D01*
X142436569Y-76570093D01*
X142426953Y-76616940D01*
X142426236Y-76624263D01*
X142395283Y-76964396D01*
X140197000Y-76964396D01*
X140197000Y-71121764D01*
X141118000Y-71121764D01*
X141118000Y-71378236D01*
X141168035Y-71629779D01*
X141266182Y-71866728D01*
X141408670Y-72079977D01*
X141590023Y-72261330D01*
X141803272Y-72403818D01*
X142040221Y-72501965D01*
X142291764Y-72552000D01*
X142548236Y-72552000D01*
X142799779Y-72501965D01*
X143036728Y-72403818D01*
X143197730Y-72296240D01*
X148053365Y-72296240D01*
X148134025Y-72547868D01*
X148402329Y-72676267D01*
X148690526Y-72749855D01*
X148987543Y-72765804D01*
X149281963Y-72723501D01*
X149562474Y-72624572D01*
X149705975Y-72547868D01*
X149786635Y-72296240D01*
X148920000Y-71429605D01*
X148053365Y-72296240D01*
X143197730Y-72296240D01*
X143249977Y-72261330D01*
X143431330Y-72079977D01*
X143573818Y-71866728D01*
X143671965Y-71629779D01*
X143722000Y-71378236D01*
X143722000Y-71317543D01*
X147404196Y-71317543D01*
X147446499Y-71611963D01*
X147545428Y-71892474D01*
X147622132Y-72035975D01*
X147873760Y-72116635D01*
X148740395Y-71250000D01*
X149099605Y-71250000D01*
X149966240Y-72116635D01*
X150217868Y-72035975D01*
X150346267Y-71767671D01*
X150419855Y-71479474D01*
X150435804Y-71182457D01*
X150393501Y-70888037D01*
X150294572Y-70607526D01*
X150217868Y-70464025D01*
X149966240Y-70383365D01*
X149099605Y-71250000D01*
X148740395Y-71250000D01*
X147873760Y-70383365D01*
X147622132Y-70464025D01*
X147493733Y-70732329D01*
X147420145Y-71020526D01*
X147404196Y-71317543D01*
X143722000Y-71317543D01*
X143722000Y-71121764D01*
X143671965Y-70870221D01*
X143573818Y-70633272D01*
X143431330Y-70420023D01*
X143249977Y-70238670D01*
X143197731Y-70203760D01*
X148053365Y-70203760D01*
X148920000Y-71070395D01*
X149786635Y-70203760D01*
X149705975Y-69952132D01*
X149437671Y-69823733D01*
X149149474Y-69750145D01*
X148852457Y-69734196D01*
X148558037Y-69776499D01*
X148277526Y-69875428D01*
X148134025Y-69952132D01*
X148053365Y-70203760D01*
X143197731Y-70203760D01*
X143036728Y-70096182D01*
X142799779Y-69998035D01*
X142548236Y-69948000D01*
X142291764Y-69948000D01*
X142040221Y-69998035D01*
X141803272Y-70096182D01*
X141590023Y-70238670D01*
X141408670Y-70420023D01*
X141266182Y-70633272D01*
X141168035Y-70870221D01*
X141118000Y-71121764D01*
X140197000Y-71121764D01*
X140196999Y-69678106D01*
X140217004Y-69686493D01*
X140455500Y-69735000D01*
X140805500Y-69735000D01*
X140805500Y-68627000D01*
X141059500Y-68627000D01*
X141059500Y-69735000D01*
X141409500Y-69735000D01*
X141647996Y-69686493D01*
X141872446Y-69592390D01*
X142074225Y-69456307D01*
X142245578Y-69283474D01*
X142379921Y-69080533D01*
X142472091Y-68855282D01*
X142475962Y-68817609D01*
X142351231Y-68627000D01*
X141059500Y-68627000D01*
X140805500Y-68627000D01*
X140785500Y-68627000D01*
X140785500Y-68439133D01*
X142872972Y-68439133D01*
X142935465Y-68675450D01*
X143178178Y-68788850D01*
X143438349Y-68852719D01*
X143705982Y-68864604D01*
X143970791Y-68824048D01*
X144222600Y-68732609D01*
X144329535Y-68675450D01*
X144392028Y-68439133D01*
X143632500Y-67679605D01*
X142872972Y-68439133D01*
X140785500Y-68439133D01*
X140785500Y-68373000D01*
X140805500Y-68373000D01*
X140805500Y-67265000D01*
X141059500Y-67265000D01*
X141059500Y-68373000D01*
X142351231Y-68373000D01*
X142465003Y-68199138D01*
X142693367Y-68259528D01*
X143452895Y-67500000D01*
X143812105Y-67500000D01*
X144571633Y-68259528D01*
X144807950Y-68197035D01*
X144921350Y-67954322D01*
X144985219Y-67694151D01*
X144997104Y-67426518D01*
X144956548Y-67161709D01*
X144865109Y-66909900D01*
X144807950Y-66802965D01*
X144571633Y-66740472D01*
X143812105Y-67500000D01*
X143452895Y-67500000D01*
X142693367Y-66740472D01*
X142457050Y-66802965D01*
X142343650Y-67045678D01*
X142279781Y-67305849D01*
X142267896Y-67573482D01*
X142303115Y-67803442D01*
X142245578Y-67716526D01*
X142074225Y-67543693D01*
X141872446Y-67407610D01*
X141647996Y-67313507D01*
X141409500Y-67265000D01*
X141059500Y-67265000D01*
X140805500Y-67265000D01*
X140455500Y-67265000D01*
X140217004Y-67313507D01*
X140196999Y-67321894D01*
X140196999Y-66560867D01*
X142872972Y-66560867D01*
X143632500Y-67320395D01*
X144392028Y-66560867D01*
X144329535Y-66324550D01*
X144086822Y-66211150D01*
X143826651Y-66147281D01*
X143559018Y-66135396D01*
X143294209Y-66175952D01*
X143042400Y-66267391D01*
X142935465Y-66324550D01*
X142872972Y-66560867D01*
X140196999Y-66560867D01*
X140196999Y-64846648D01*
X144214100Y-64846648D01*
X144214100Y-65009552D01*
X144245882Y-65169327D01*
X144308223Y-65319831D01*
X144398728Y-65455281D01*
X144513919Y-65570472D01*
X144649369Y-65660977D01*
X144799873Y-65723318D01*
X144959648Y-65755100D01*
X145122552Y-65755100D01*
X145282327Y-65723318D01*
X145432831Y-65660977D01*
X145568281Y-65570472D01*
X145683472Y-65455281D01*
X145773977Y-65319831D01*
X145836318Y-65169327D01*
X145868100Y-65009552D01*
X145868100Y-64881744D01*
X152536000Y-58213845D01*
X152510200Y-58343548D01*
X152510200Y-58506452D01*
X152541982Y-58666227D01*
X152604323Y-58816731D01*
X152694828Y-58952181D01*
X152785201Y-59042554D01*
X152785200Y-76812794D01*
X152782530Y-76839900D01*
X152785200Y-76867006D01*
X152785200Y-76867008D01*
X152793188Y-76948110D01*
X152824752Y-77052162D01*
X152876009Y-77148058D01*
X152944989Y-77232111D01*
X152966056Y-77249400D01*
X155452508Y-79735854D01*
X155469789Y-79756911D01*
X155490845Y-79774191D01*
X155553841Y-79825891D01*
X155596192Y-79848528D01*
X155538337Y-79935114D01*
X155442074Y-80167513D01*
X155393000Y-80414226D01*
X155393000Y-80665774D01*
X155442074Y-80912487D01*
X155538337Y-81144886D01*
X155678089Y-81354040D01*
X155855960Y-81531911D01*
X156065114Y-81671663D01*
X156297513Y-81767926D01*
X156544226Y-81817000D01*
X156795774Y-81817000D01*
X157042487Y-81767926D01*
X157274886Y-81671663D01*
X157484040Y-81531911D01*
X157661911Y-81354040D01*
X157801663Y-81144886D01*
X157897926Y-80912487D01*
X157947000Y-80665774D01*
X157947000Y-80414226D01*
X157897926Y-80167513D01*
X157801663Y-79935114D01*
X157661911Y-79725960D01*
X157484040Y-79548089D01*
X157393185Y-79487382D01*
X157520000Y-79488072D01*
X157644482Y-79475812D01*
X157764180Y-79439502D01*
X157874494Y-79380537D01*
X157971185Y-79301185D01*
X158050537Y-79204494D01*
X158109502Y-79094180D01*
X158145812Y-78974482D01*
X158158072Y-78850000D01*
X158155000Y-78285750D01*
X157996250Y-78127000D01*
X156797000Y-78127000D01*
X156797000Y-78147000D01*
X156543000Y-78147000D01*
X156543000Y-78127000D01*
X156523000Y-78127000D01*
X156523000Y-77873000D01*
X156543000Y-77873000D01*
X156543000Y-76673750D01*
X156797000Y-76673750D01*
X156797000Y-77873000D01*
X157996250Y-77873000D01*
X158155000Y-77714250D01*
X158158072Y-77150000D01*
X159431928Y-77150000D01*
X159435000Y-77714250D01*
X159593750Y-77873000D01*
X160793000Y-77873000D01*
X160793000Y-76673750D01*
X160634250Y-76515000D01*
X160070000Y-76511928D01*
X159945518Y-76524188D01*
X159825820Y-76560498D01*
X159715506Y-76619463D01*
X159618815Y-76698815D01*
X159539463Y-76795506D01*
X159480498Y-76905820D01*
X159444188Y-77025518D01*
X159431928Y-77150000D01*
X158158072Y-77150000D01*
X158145812Y-77025518D01*
X158109502Y-76905820D01*
X158050537Y-76795506D01*
X157971185Y-76698815D01*
X157874494Y-76619463D01*
X157764180Y-76560498D01*
X157644482Y-76524188D01*
X157520000Y-76511928D01*
X156955750Y-76515000D01*
X156797000Y-76673750D01*
X156543000Y-76673750D01*
X156384250Y-76515000D01*
X155820000Y-76511928D01*
X155695518Y-76524188D01*
X155575820Y-76560498D01*
X155465506Y-76619463D01*
X155368815Y-76698815D01*
X155289463Y-76795506D01*
X155230498Y-76905820D01*
X155194188Y-77025518D01*
X155181928Y-77150000D01*
X155185000Y-77714250D01*
X155343748Y-77872998D01*
X155185000Y-77872998D01*
X155185000Y-77907055D01*
X153889200Y-76611256D01*
X153889200Y-69062744D01*
X155551507Y-70725053D01*
X155568789Y-70746111D01*
X155652842Y-70815091D01*
X155748737Y-70866348D01*
X155852789Y-70897912D01*
X155933891Y-70905900D01*
X155933901Y-70905900D01*
X155960999Y-70908569D01*
X155988097Y-70905900D01*
X157433156Y-70905900D01*
X161569101Y-75041847D01*
X161569101Y-76513022D01*
X161205750Y-76515000D01*
X161047000Y-76673750D01*
X161047000Y-77873000D01*
X161067000Y-77873000D01*
X161067000Y-78127000D01*
X161047000Y-78127000D01*
X161047000Y-78147000D01*
X160793000Y-78147000D01*
X160793000Y-78127000D01*
X159593750Y-78127000D01*
X159435000Y-78285750D01*
X159431928Y-78850000D01*
X159444188Y-78974482D01*
X159480498Y-79094180D01*
X159539463Y-79204494D01*
X159618815Y-79301185D01*
X159715506Y-79380537D01*
X159825820Y-79439502D01*
X159945518Y-79475812D01*
X160070000Y-79488072D01*
X160196815Y-79487382D01*
X160105960Y-79548089D01*
X159928089Y-79725960D01*
X159788337Y-79935114D01*
X159692074Y-80167513D01*
X159643000Y-80414226D01*
X159643000Y-80665774D01*
X159692074Y-80912487D01*
X159788337Y-81144886D01*
X159928089Y-81354040D01*
X160105960Y-81531911D01*
X160315114Y-81671663D01*
X160547513Y-81767926D01*
X160794226Y-81817000D01*
X161045774Y-81817000D01*
X161292487Y-81767926D01*
X161524886Y-81671663D01*
X161734040Y-81531911D01*
X161911911Y-81354040D01*
X162051663Y-81144886D01*
X162147926Y-80912487D01*
X162197000Y-80665774D01*
X162197000Y-80414226D01*
X162147926Y-80167513D01*
X162051663Y-79935114D01*
X161993808Y-79848528D01*
X162036158Y-79825891D01*
X162120211Y-79756911D01*
X162137500Y-79735844D01*
X162492254Y-79381092D01*
X162513311Y-79363811D01*
X162555770Y-79312074D01*
X162582291Y-79279759D01*
X162633547Y-79183864D01*
X162633548Y-79183863D01*
X162665112Y-79079811D01*
X162673100Y-78998709D01*
X162673100Y-78998699D01*
X162675769Y-78971601D01*
X162673100Y-78944503D01*
X162673100Y-76964396D01*
X173395282Y-76964396D01*
X173395616Y-77012126D01*
X173395282Y-77059923D01*
X173396000Y-77067246D01*
X173431702Y-77406914D01*
X173441295Y-77453644D01*
X173450257Y-77500623D01*
X173452384Y-77507667D01*
X173553382Y-77833933D01*
X173571883Y-77877945D01*
X173589785Y-77922252D01*
X173593239Y-77928748D01*
X173755686Y-78229183D01*
X173782387Y-78268768D01*
X173808550Y-78308749D01*
X173813201Y-78314451D01*
X174030909Y-78577612D01*
X174064797Y-78611263D01*
X174098219Y-78645393D01*
X174103889Y-78650083D01*
X174368564Y-78865945D01*
X174408353Y-78892380D01*
X174447760Y-78919363D01*
X174454233Y-78922863D01*
X174755795Y-79083204D01*
X174799902Y-79101383D01*
X174843859Y-79120223D01*
X174850888Y-79122398D01*
X175177852Y-79221112D01*
X175224701Y-79230388D01*
X175271427Y-79240320D01*
X175278745Y-79241089D01*
X175566547Y-79269307D01*
X175566768Y-79269374D01*
X175644197Y-79277000D01*
X176695960Y-79277000D01*
X176723983Y-79274240D01*
X176745943Y-79274240D01*
X176753261Y-79273470D01*
X177092672Y-79235397D01*
X177139342Y-79225477D01*
X177186247Y-79216189D01*
X177193276Y-79214013D01*
X177518829Y-79110740D01*
X177562743Y-79091918D01*
X177606892Y-79073721D01*
X177613365Y-79070221D01*
X177912658Y-78905681D01*
X177952045Y-78878712D01*
X177991853Y-78852263D01*
X177997523Y-78847572D01*
X178259155Y-78628034D01*
X178292547Y-78593934D01*
X178326467Y-78560250D01*
X178331117Y-78554548D01*
X178545126Y-78288370D01*
X178571254Y-78248442D01*
X178597990Y-78208804D01*
X178601444Y-78202307D01*
X178759676Y-77899632D01*
X178777546Y-77855400D01*
X178796078Y-77811315D01*
X178798204Y-77804270D01*
X178894634Y-77476625D01*
X178903578Y-77429735D01*
X178913189Y-77382915D01*
X178913906Y-77375592D01*
X178944858Y-77035459D01*
X178944524Y-76987729D01*
X178944858Y-76939933D01*
X178944140Y-76932610D01*
X178908438Y-76592941D01*
X178898836Y-76546165D01*
X178889883Y-76499233D01*
X178887756Y-76492189D01*
X178786758Y-76165924D01*
X178768261Y-76121923D01*
X178750355Y-76077605D01*
X178746900Y-76071108D01*
X178584453Y-75770673D01*
X178557764Y-75731105D01*
X178531590Y-75691108D01*
X178526939Y-75685406D01*
X178309232Y-75422246D01*
X178275378Y-75388628D01*
X178241920Y-75354462D01*
X178236250Y-75349772D01*
X177971574Y-75133910D01*
X177931808Y-75107490D01*
X177892378Y-75080492D01*
X177885905Y-75076993D01*
X177584342Y-74916652D01*
X177540228Y-74898470D01*
X177496279Y-74879634D01*
X177489250Y-74877459D01*
X177162287Y-74778745D01*
X177115445Y-74769470D01*
X177068712Y-74759537D01*
X177061394Y-74758768D01*
X176721484Y-74725441D01*
X176721473Y-74725441D01*
X176695937Y-74722926D01*
X175644178Y-74722932D01*
X175642349Y-74723112D01*
X175641939Y-74723115D01*
X175636283Y-74723710D01*
X175616916Y-74725617D01*
X175594198Y-74725617D01*
X175586880Y-74726387D01*
X175247469Y-74764460D01*
X175200806Y-74774379D01*
X175153894Y-74783668D01*
X175146865Y-74785844D01*
X174821312Y-74889117D01*
X174777446Y-74907919D01*
X174733250Y-74926135D01*
X174726778Y-74929635D01*
X174427484Y-75094174D01*
X174388064Y-75121166D01*
X174348287Y-75147594D01*
X174342617Y-75152285D01*
X174080984Y-75371825D01*
X174047593Y-75405924D01*
X174013675Y-75439606D01*
X174009024Y-75445309D01*
X173795015Y-75711485D01*
X173768885Y-75751416D01*
X173742152Y-75791051D01*
X173738697Y-75797548D01*
X173580465Y-76100223D01*
X173562588Y-76144471D01*
X173544062Y-76188543D01*
X173541936Y-76195587D01*
X173445507Y-76523232D01*
X173436568Y-76570093D01*
X173426952Y-76616940D01*
X173426235Y-76624263D01*
X173395282Y-76964396D01*
X162673100Y-76964396D01*
X162673100Y-74840308D01*
X162675770Y-74813200D01*
X162672955Y-74784614D01*
X162665112Y-74704989D01*
X162633548Y-74600937D01*
X162582291Y-74505042D01*
X162513311Y-74420989D01*
X162492254Y-74403708D01*
X158213800Y-70125256D01*
X158213800Y-69404044D01*
X161593346Y-66024500D01*
X161721152Y-66024500D01*
X161865300Y-65995826D01*
X161865300Y-67284147D01*
X161774928Y-67374519D01*
X161684423Y-67509969D01*
X161622082Y-67660473D01*
X161590300Y-67820248D01*
X161590300Y-67983152D01*
X161622082Y-68142927D01*
X161684423Y-68293431D01*
X161774928Y-68428881D01*
X161870571Y-68524524D01*
X161873288Y-68552110D01*
X161904852Y-68656162D01*
X161956109Y-68752058D01*
X162025089Y-68836111D01*
X162046157Y-68853401D01*
X167114404Y-73921649D01*
X167131689Y-73942711D01*
X167215742Y-74011691D01*
X167311637Y-74062948D01*
X167415689Y-74094512D01*
X167496791Y-74102500D01*
X167496794Y-74102500D01*
X167523900Y-74105170D01*
X167551006Y-74102500D01*
X175944394Y-74102500D01*
X175971500Y-74105170D01*
X175998606Y-74102500D01*
X175998609Y-74102500D01*
X176079711Y-74094512D01*
X176183763Y-74062948D01*
X176279658Y-74011691D01*
X176363711Y-73942711D01*
X176381000Y-73921644D01*
X178293347Y-72009298D01*
X178395960Y-72111911D01*
X178605114Y-72251663D01*
X178837513Y-72347926D01*
X179084226Y-72397000D01*
X179335774Y-72397000D01*
X179582487Y-72347926D01*
X179814886Y-72251663D01*
X180024040Y-72111911D01*
X180201911Y-71934040D01*
X180341663Y-71724886D01*
X180437926Y-71492487D01*
X180487000Y-71245774D01*
X180487000Y-70994226D01*
X180437926Y-70747513D01*
X180341663Y-70515114D01*
X180201911Y-70305960D01*
X180024040Y-70128089D01*
X179814886Y-69988337D01*
X179582487Y-69892074D01*
X179370966Y-69850000D01*
X179582487Y-69807926D01*
X179814886Y-69711663D01*
X180024040Y-69571911D01*
X180201911Y-69394040D01*
X180341663Y-69184886D01*
X180437926Y-68952487D01*
X180487000Y-68705774D01*
X180487000Y-68454226D01*
X180437926Y-68207513D01*
X180341663Y-67975114D01*
X180201911Y-67765960D01*
X180137000Y-67701049D01*
X180137000Y-66918951D01*
X180201911Y-66854040D01*
X180341663Y-66644886D01*
X180437926Y-66412487D01*
X180487000Y-66165774D01*
X180487000Y-65914226D01*
X180437926Y-65667513D01*
X180341663Y-65435114D01*
X180201911Y-65225960D01*
X180137000Y-65161049D01*
X180137000Y-64378951D01*
X180201911Y-64314040D01*
X180341663Y-64104886D01*
X180437926Y-63872487D01*
X180487000Y-63625774D01*
X180487000Y-63374226D01*
X180437926Y-63127513D01*
X180341663Y-62895114D01*
X180201911Y-62685960D01*
X180137000Y-62621049D01*
X180137000Y-55755527D01*
X180141484Y-55710000D01*
X180137000Y-55664473D01*
X180137000Y-55664462D01*
X180123587Y-55528276D01*
X180070580Y-55353536D01*
X180039713Y-55295789D01*
X179984501Y-55192494D01*
X179897688Y-55086712D01*
X179897684Y-55086708D01*
X179868659Y-55051341D01*
X179833293Y-55022317D01*
X178106197Y-53295222D01*
X178147000Y-53090095D01*
X178147000Y-52749905D01*
X178080632Y-52416253D01*
X177950447Y-52101959D01*
X177761448Y-51819102D01*
X177520898Y-51578552D01*
X177238041Y-51389553D01*
X176923747Y-51259368D01*
X176741125Y-51223042D01*
X173308609Y-47790527D01*
X173263923Y-47736077D01*
X173046634Y-47557752D01*
X172798731Y-47425245D01*
X172529741Y-47343648D01*
X172320098Y-47323000D01*
X172320088Y-47323000D01*
X172250000Y-47316097D01*
X172179912Y-47323000D01*
X166029453Y-47323000D01*
X165960356Y-47336744D01*
X165890259Y-47343648D01*
X165822860Y-47364093D01*
X165753759Y-47377838D01*
X165688668Y-47404800D01*
X165621269Y-47425245D01*
X165559149Y-47458449D01*
X165494062Y-47485409D01*
X165435485Y-47524549D01*
X165373366Y-47557752D01*
X165318923Y-47602432D01*
X165260340Y-47641576D01*
X165210516Y-47691400D01*
X165156077Y-47736077D01*
X165111400Y-47790516D01*
X165061576Y-47840340D01*
X165022432Y-47898923D01*
X164977752Y-47953366D01*
X164944549Y-48015485D01*
X164905409Y-48074062D01*
X164878449Y-48139149D01*
X164845245Y-48201269D01*
X164824800Y-48268668D01*
X164797838Y-48333759D01*
X164784093Y-48402860D01*
X164763648Y-48470259D01*
X164756744Y-48540355D01*
X164743000Y-48609453D01*
X164743000Y-48679902D01*
X164736096Y-48750000D01*
X164743000Y-48820098D01*
X164743000Y-48890547D01*
X164756744Y-48959645D01*
X164763648Y-49029741D01*
X164784093Y-49097140D01*
X164797838Y-49166241D01*
X164824800Y-49231332D01*
X164845245Y-49298731D01*
X164878449Y-49360851D01*
X164905409Y-49425938D01*
X164944549Y-49484515D01*
X164977752Y-49546634D01*
X165022432Y-49601077D01*
X165061576Y-49659660D01*
X165111400Y-49709484D01*
X165156077Y-49763923D01*
X165210516Y-49808600D01*
X165260340Y-49858424D01*
X165318923Y-49897568D01*
X165373366Y-49942248D01*
X165435485Y-49975451D01*
X165494062Y-50014591D01*
X165559149Y-50041551D01*
X165621269Y-50074755D01*
X165688668Y-50095200D01*
X165753759Y-50122162D01*
X165822860Y-50135907D01*
X165890259Y-50156352D01*
X165960356Y-50163256D01*
X166029453Y-50177000D01*
X171658918Y-50177000D01*
X174723042Y-53241125D01*
X174759368Y-53423747D01*
X174889553Y-53738041D01*
X175078552Y-54020898D01*
X175319102Y-54261448D01*
X175601959Y-54450447D01*
X175916253Y-54580632D01*
X176249905Y-54647000D01*
X176590095Y-54647000D01*
X176795222Y-54606197D01*
X178283000Y-56093976D01*
X178283001Y-62621048D01*
X178218089Y-62685960D01*
X178078337Y-62895114D01*
X177982074Y-63127513D01*
X177949066Y-63293456D01*
X177949066Y-62650000D01*
X177940822Y-62566293D01*
X177916405Y-62485804D01*
X177876755Y-62411624D01*
X177823395Y-62346605D01*
X177758376Y-62293245D01*
X177684196Y-62253595D01*
X177603707Y-62229178D01*
X177520000Y-62220934D01*
X175820000Y-62220934D01*
X175736293Y-62229178D01*
X175655804Y-62253595D01*
X175581624Y-62293245D01*
X175516605Y-62346605D01*
X175463245Y-62411624D01*
X175423595Y-62485804D01*
X175399178Y-62566293D01*
X175390934Y-62650000D01*
X175390934Y-64350000D01*
X175399178Y-64433707D01*
X175423595Y-64514196D01*
X175463245Y-64588376D01*
X175516605Y-64653395D01*
X175581624Y-64706755D01*
X175655804Y-64746405D01*
X175736293Y-64770822D01*
X175820000Y-64779066D01*
X176463456Y-64779066D01*
X176297513Y-64812074D01*
X176065114Y-64908337D01*
X175855960Y-65048089D01*
X175678089Y-65225960D01*
X175538337Y-65435114D01*
X175442074Y-65667513D01*
X175393000Y-65914226D01*
X175393000Y-66165774D01*
X175442074Y-66412487D01*
X175538337Y-66644886D01*
X175678089Y-66854040D01*
X175855960Y-67031911D01*
X176065114Y-67171663D01*
X176297513Y-67267926D01*
X176509034Y-67310000D01*
X176297513Y-67352074D01*
X176065114Y-67448337D01*
X175855960Y-67588089D01*
X175678089Y-67765960D01*
X175538337Y-67975114D01*
X175442074Y-68207513D01*
X175393000Y-68454226D01*
X175393000Y-68705774D01*
X175442074Y-68952487D01*
X175538337Y-69184886D01*
X175550641Y-69203300D01*
X170973408Y-69203300D01*
X170946300Y-69200630D01*
X170919191Y-69203300D01*
X170838089Y-69211288D01*
X170734037Y-69242852D01*
X170638142Y-69294109D01*
X170554089Y-69363089D01*
X170536808Y-69384146D01*
X167944956Y-71976000D01*
X167817148Y-71976000D01*
X167657373Y-72007782D01*
X167506869Y-72070123D01*
X167371419Y-72160628D01*
X167256228Y-72275819D01*
X167165723Y-72411269D01*
X167165603Y-72411558D01*
X165838474Y-71084429D01*
X165990148Y-71114600D01*
X166153052Y-71114600D01*
X166312827Y-71082818D01*
X166463331Y-71020477D01*
X166598781Y-70929972D01*
X166713972Y-70814781D01*
X166804477Y-70679331D01*
X166866818Y-70528827D01*
X166898600Y-70369052D01*
X166898600Y-70206148D01*
X166866818Y-70046373D01*
X166804477Y-69895869D01*
X166713972Y-69760419D01*
X166598781Y-69645228D01*
X166463331Y-69554723D01*
X166312827Y-69492382D01*
X166312400Y-69492297D01*
X166312400Y-69218653D01*
X166402772Y-69128281D01*
X166493277Y-68992831D01*
X166555618Y-68842327D01*
X166587400Y-68682552D01*
X166587400Y-68519648D01*
X166555618Y-68359873D01*
X166493277Y-68209369D01*
X166402772Y-68073919D01*
X166287581Y-67958728D01*
X166152131Y-67868223D01*
X166001627Y-67805882D01*
X165841852Y-67774100D01*
X165678948Y-67774100D01*
X165519173Y-67805882D01*
X165368669Y-67868223D01*
X165233219Y-67958728D01*
X165118028Y-68073919D01*
X165027523Y-68209369D01*
X164965182Y-68359873D01*
X164933400Y-68519648D01*
X164933400Y-68682552D01*
X164965182Y-68842327D01*
X165027523Y-68992831D01*
X165118028Y-69128281D01*
X165208401Y-69218654D01*
X165208400Y-69949294D01*
X165205730Y-69976400D01*
X165208400Y-70003506D01*
X165208400Y-70003508D01*
X165216388Y-70084610D01*
X165247952Y-70188662D01*
X165248044Y-70188834D01*
X165244600Y-70206148D01*
X165244600Y-70369052D01*
X165274771Y-70520726D01*
X163109040Y-68354996D01*
X163150177Y-68293431D01*
X163212518Y-68142927D01*
X163244300Y-67983152D01*
X163244300Y-67820248D01*
X163212518Y-67660473D01*
X163150177Y-67509969D01*
X163059672Y-67374519D01*
X162969300Y-67284147D01*
X162969300Y-62343505D01*
X162971970Y-62316399D01*
X162965784Y-62253595D01*
X162961312Y-62208189D01*
X162929748Y-62104137D01*
X162878491Y-62008242D01*
X162809511Y-61924189D01*
X162788454Y-61906908D01*
X160380900Y-59499356D01*
X160380900Y-59371548D01*
X160349118Y-59211773D01*
X160286777Y-59061269D01*
X160196272Y-58925819D01*
X160081081Y-58810628D01*
X159945631Y-58720123D01*
X159795127Y-58657782D01*
X159635352Y-58626000D01*
X159472448Y-58626000D01*
X159312673Y-58657782D01*
X159162169Y-58720123D01*
X159109900Y-58755048D01*
X159109900Y-54000000D01*
X169243000Y-54000000D01*
X169243000Y-58285411D01*
X169251205Y-58368715D01*
X169275503Y-58448817D01*
X169314962Y-58522639D01*
X169368065Y-58587346D01*
X169432772Y-58640449D01*
X169506594Y-58679908D01*
X169586696Y-58704206D01*
X169670000Y-58712411D01*
X174690934Y-58712411D01*
X174690934Y-59300000D01*
X174699178Y-59383707D01*
X174723595Y-59464196D01*
X174763245Y-59538376D01*
X174816605Y-59603395D01*
X174881624Y-59656755D01*
X174955804Y-59696405D01*
X175036293Y-59720822D01*
X175120000Y-59729066D01*
X177720000Y-59729066D01*
X177803707Y-59720822D01*
X177884196Y-59696405D01*
X177958376Y-59656755D01*
X178023395Y-59603395D01*
X178076755Y-59538376D01*
X178116405Y-59464196D01*
X178140822Y-59383707D01*
X178149066Y-59300000D01*
X178149066Y-56700000D01*
X178140822Y-56616293D01*
X178116405Y-56535804D01*
X178076755Y-56461624D01*
X178023395Y-56396605D01*
X177958376Y-56343245D01*
X177884196Y-56303595D01*
X177803707Y-56279178D01*
X177720000Y-56270934D01*
X177094871Y-56270934D01*
X177078923Y-56162486D01*
X177047085Y-56085071D01*
X177000755Y-56015355D01*
X176941714Y-55956017D01*
X176872231Y-55909337D01*
X172622231Y-53623926D01*
X172583406Y-53605503D01*
X172503304Y-53581205D01*
X172420000Y-53573000D01*
X169670000Y-53573000D01*
X169586696Y-53581205D01*
X169506594Y-53605503D01*
X169432772Y-53644962D01*
X169368065Y-53698065D01*
X169314962Y-53762772D01*
X169275503Y-53836594D01*
X169251205Y-53916696D01*
X169243000Y-54000000D01*
X159109900Y-54000000D01*
X159109900Y-53974253D01*
X159200272Y-53883881D01*
X159290777Y-53748431D01*
X159353118Y-53597927D01*
X159384900Y-53438152D01*
X159384900Y-53310344D01*
X166730848Y-45964397D01*
X173395282Y-45964397D01*
X173395616Y-46012127D01*
X173395282Y-46059924D01*
X173396000Y-46067247D01*
X173431702Y-46406915D01*
X173441295Y-46453645D01*
X173450257Y-46500624D01*
X173452384Y-46507668D01*
X173553382Y-46833934D01*
X173571883Y-46877946D01*
X173589785Y-46922253D01*
X173593239Y-46928749D01*
X173755686Y-47229184D01*
X173782387Y-47268769D01*
X173808550Y-47308750D01*
X173813201Y-47314452D01*
X174030909Y-47577613D01*
X174064797Y-47611264D01*
X174098219Y-47645394D01*
X174103889Y-47650084D01*
X174368564Y-47865946D01*
X174408353Y-47892381D01*
X174447760Y-47919364D01*
X174454233Y-47922864D01*
X174755795Y-48083205D01*
X174799902Y-48101384D01*
X174843859Y-48120224D01*
X174850888Y-48122399D01*
X175177852Y-48221113D01*
X175224701Y-48230389D01*
X175271427Y-48240321D01*
X175278745Y-48241090D01*
X175566552Y-48269308D01*
X175566768Y-48269374D01*
X175644197Y-48277000D01*
X176695960Y-48277000D01*
X176723973Y-48274241D01*
X176745943Y-48274241D01*
X176753261Y-48273471D01*
X177092672Y-48235398D01*
X177139342Y-48225478D01*
X177186247Y-48216190D01*
X177193276Y-48214014D01*
X177518829Y-48110741D01*
X177562743Y-48091919D01*
X177606892Y-48073722D01*
X177613365Y-48070222D01*
X177912658Y-47905682D01*
X177952045Y-47878713D01*
X177991853Y-47852264D01*
X177997523Y-47847573D01*
X178259155Y-47628035D01*
X178292547Y-47593935D01*
X178326467Y-47560251D01*
X178331117Y-47554549D01*
X178545126Y-47288371D01*
X178571254Y-47248443D01*
X178597990Y-47208805D01*
X178601444Y-47202308D01*
X178759676Y-46899633D01*
X178777546Y-46855401D01*
X178796078Y-46811316D01*
X178798204Y-46804271D01*
X178894634Y-46476626D01*
X178903578Y-46429736D01*
X178913189Y-46382916D01*
X178913906Y-46375593D01*
X178944858Y-46035460D01*
X178944524Y-45987730D01*
X178944858Y-45939934D01*
X178944140Y-45932611D01*
X178908438Y-45592942D01*
X178898836Y-45546166D01*
X178889883Y-45499234D01*
X178887756Y-45492190D01*
X178786758Y-45165925D01*
X178768261Y-45121924D01*
X178750355Y-45077606D01*
X178746900Y-45071109D01*
X178584453Y-44770674D01*
X178557764Y-44731106D01*
X178531590Y-44691109D01*
X178526939Y-44685407D01*
X178309232Y-44422247D01*
X178275378Y-44388629D01*
X178241920Y-44354463D01*
X178236250Y-44349773D01*
X177971574Y-44133911D01*
X177931808Y-44107491D01*
X177892378Y-44080493D01*
X177885905Y-44076994D01*
X177584342Y-43916653D01*
X177540228Y-43898471D01*
X177496279Y-43879635D01*
X177489250Y-43877460D01*
X177162287Y-43778746D01*
X177115445Y-43769471D01*
X177068712Y-43759538D01*
X177061394Y-43758769D01*
X176721484Y-43725442D01*
X176721473Y-43725442D01*
X176695937Y-43722927D01*
X175644178Y-43722933D01*
X175642349Y-43723113D01*
X175641939Y-43723116D01*
X175636283Y-43723711D01*
X175616916Y-43725618D01*
X175594198Y-43725618D01*
X175586880Y-43726388D01*
X175247469Y-43764461D01*
X175200806Y-43774380D01*
X175153894Y-43783669D01*
X175146865Y-43785845D01*
X174821312Y-43889118D01*
X174777446Y-43907920D01*
X174733250Y-43926136D01*
X174726778Y-43929636D01*
X174427484Y-44094175D01*
X174388064Y-44121167D01*
X174348287Y-44147595D01*
X174342617Y-44152286D01*
X174080984Y-44371826D01*
X174047593Y-44405925D01*
X174013675Y-44439607D01*
X174009024Y-44445310D01*
X173795015Y-44711486D01*
X173768885Y-44751417D01*
X173742152Y-44791052D01*
X173738697Y-44797549D01*
X173580465Y-45100224D01*
X173562588Y-45144472D01*
X173544062Y-45188544D01*
X173541936Y-45195588D01*
X173445507Y-45523233D01*
X173436568Y-45570094D01*
X173426952Y-45616941D01*
X173426235Y-45624264D01*
X173395282Y-45964397D01*
X166730848Y-45964397D01*
X167001154Y-45694092D01*
X167022211Y-45676811D01*
X167081560Y-45604494D01*
X167091191Y-45592759D01*
X167126960Y-45525839D01*
X167142448Y-45496863D01*
X167174012Y-45392811D01*
X167182000Y-45311709D01*
X167182000Y-45311699D01*
X167184669Y-45284601D01*
X167182000Y-45257503D01*
X167182000Y-43903569D01*
X167234886Y-43881663D01*
X167444040Y-43741911D01*
X167621911Y-43564040D01*
X167761663Y-43354886D01*
X167791197Y-43283584D01*
X167825843Y-43381252D01*
X167974822Y-43631355D01*
X168169731Y-43847588D01*
X168403080Y-44021641D01*
X168665901Y-44146825D01*
X168813110Y-44191476D01*
X169043000Y-44070155D01*
X169043000Y-42877000D01*
X169297000Y-42877000D01*
X169297000Y-44070155D01*
X169526890Y-44191476D01*
X169674099Y-44146825D01*
X169936920Y-44021641D01*
X170170269Y-43847588D01*
X170365178Y-43631355D01*
X170514157Y-43381252D01*
X170611481Y-43106891D01*
X170490814Y-42877000D01*
X169297000Y-42877000D01*
X169043000Y-42877000D01*
X169023000Y-42877000D01*
X169023000Y-42623000D01*
X169043000Y-42623000D01*
X169043000Y-41429845D01*
X169297000Y-41429845D01*
X169297000Y-42623000D01*
X170490814Y-42623000D01*
X170611481Y-42393109D01*
X170514157Y-42118748D01*
X170365178Y-41868645D01*
X170170269Y-41652412D01*
X169936920Y-41478359D01*
X169674099Y-41353175D01*
X169526890Y-41308524D01*
X169297000Y-41429845D01*
X169043000Y-41429845D01*
X168813110Y-41308524D01*
X168665901Y-41353175D01*
X168403080Y-41478359D01*
X168169731Y-41652412D01*
X167974822Y-41868645D01*
X167825843Y-42118748D01*
X167791197Y-42216416D01*
X167761663Y-42145114D01*
X167621911Y-41935960D01*
X167444040Y-41758089D01*
X167234886Y-41618337D01*
X167002487Y-41522074D01*
X166755774Y-41473000D01*
X166504226Y-41473000D01*
X166257513Y-41522074D01*
X166025114Y-41618337D01*
X165815960Y-41758089D01*
X165638089Y-41935960D01*
X165498337Y-42145114D01*
X165402074Y-42377513D01*
X165369066Y-42543456D01*
X165369066Y-41900000D01*
X165360822Y-41816293D01*
X165336405Y-41735804D01*
X165296755Y-41661624D01*
X165243395Y-41596605D01*
X165178376Y-41543245D01*
X165104196Y-41503595D01*
X165023707Y-41479178D01*
X164940000Y-41470934D01*
X163240000Y-41470934D01*
X163156293Y-41479178D01*
X163075804Y-41503595D01*
X163001624Y-41543245D01*
X162936605Y-41596605D01*
X162883245Y-41661624D01*
X162843595Y-41735804D01*
X162819178Y-41816293D01*
X162810934Y-41900000D01*
X162810934Y-43600000D01*
X162819178Y-43683707D01*
X162843595Y-43764196D01*
X162883245Y-43838376D01*
X162936605Y-43903395D01*
X163001624Y-43956755D01*
X163075804Y-43996405D01*
X163156293Y-44020822D01*
X163208673Y-44025981D01*
X156908057Y-50326599D01*
X156886989Y-50343889D01*
X156818009Y-50427942D01*
X156766752Y-50523838D01*
X156735188Y-50627890D01*
X156727200Y-50708991D01*
X156724530Y-50736100D01*
X156727200Y-50763206D01*
X156727201Y-55359337D01*
X156701077Y-55296269D01*
X156610572Y-55160819D01*
X156495381Y-55045628D01*
X156359931Y-54955123D01*
X156209427Y-54892782D01*
X156049652Y-54861000D01*
X155886748Y-54861000D01*
X155726973Y-54892782D01*
X155576469Y-54955123D01*
X155441019Y-55045628D01*
X155350647Y-55136000D01*
X154308308Y-55136000D01*
X154281200Y-55133330D01*
X154254091Y-55136000D01*
X154172989Y-55143988D01*
X154068937Y-55175552D01*
X153973042Y-55226809D01*
X153888989Y-55295789D01*
X153871708Y-55316846D01*
X145087456Y-64101100D01*
X144959648Y-64101100D01*
X144799873Y-64132882D01*
X144649369Y-64195223D01*
X144513919Y-64285728D01*
X144398728Y-64400919D01*
X144308223Y-64536369D01*
X144245882Y-64686873D01*
X144214100Y-64846648D01*
X140196999Y-64846648D01*
X140196999Y-63439133D01*
X142872972Y-63439133D01*
X142935465Y-63675450D01*
X143178178Y-63788850D01*
X143438349Y-63852719D01*
X143705982Y-63864604D01*
X143970791Y-63824048D01*
X144222600Y-63732609D01*
X144329535Y-63675450D01*
X144392028Y-63439133D01*
X143632500Y-62679605D01*
X142872972Y-63439133D01*
X140196999Y-63439133D01*
X140196999Y-62678106D01*
X140217004Y-62686493D01*
X140455500Y-62735000D01*
X140805500Y-62735000D01*
X140805500Y-61627000D01*
X141059500Y-61627000D01*
X141059500Y-62735000D01*
X141409500Y-62735000D01*
X141647996Y-62686493D01*
X141872446Y-62592390D01*
X142074225Y-62456307D01*
X142245578Y-62283474D01*
X142308671Y-62188164D01*
X142279781Y-62305849D01*
X142267896Y-62573482D01*
X142308452Y-62838291D01*
X142399891Y-63090100D01*
X142457050Y-63197035D01*
X142693367Y-63259528D01*
X143452895Y-62500000D01*
X143812105Y-62500000D01*
X144571633Y-63259528D01*
X144807950Y-63197035D01*
X144921350Y-62954322D01*
X144985219Y-62694151D01*
X144997104Y-62426518D01*
X144956548Y-62161709D01*
X144865109Y-61909900D01*
X144807950Y-61802965D01*
X144571633Y-61740472D01*
X143812105Y-62500000D01*
X143452895Y-62500000D01*
X142693367Y-61740472D01*
X142465003Y-61800862D01*
X142351231Y-61627000D01*
X141059500Y-61627000D01*
X140805500Y-61627000D01*
X140785500Y-61627000D01*
X140785500Y-61560867D01*
X142872972Y-61560867D01*
X143632500Y-62320395D01*
X144392028Y-61560867D01*
X144329535Y-61324550D01*
X144086822Y-61211150D01*
X143826651Y-61147281D01*
X143559018Y-61135396D01*
X143294209Y-61175952D01*
X143042400Y-61267391D01*
X142935465Y-61324550D01*
X142872972Y-61560867D01*
X140785500Y-61560867D01*
X140785500Y-61373000D01*
X140805500Y-61373000D01*
X140805500Y-60265000D01*
X141059500Y-60265000D01*
X141059500Y-61373000D01*
X142351231Y-61373000D01*
X142475962Y-61182391D01*
X142472091Y-61144718D01*
X142379921Y-60919467D01*
X142245578Y-60716526D01*
X142074225Y-60543693D01*
X141872446Y-60407610D01*
X141647996Y-60313507D01*
X141409500Y-60265000D01*
X141059500Y-60265000D01*
X140805500Y-60265000D01*
X140455500Y-60265000D01*
X140217004Y-60313507D01*
X140196999Y-60321894D01*
X140196999Y-58050000D01*
X142981928Y-58050000D01*
X142994188Y-58174482D01*
X143030498Y-58294180D01*
X143089463Y-58404494D01*
X143168815Y-58501185D01*
X143265506Y-58580537D01*
X143375820Y-58639502D01*
X143495518Y-58675812D01*
X143620000Y-58688072D01*
X144634250Y-58685000D01*
X144793000Y-58526250D01*
X144793000Y-56877000D01*
X145047000Y-56877000D01*
X145047000Y-58526250D01*
X145205750Y-58685000D01*
X146220000Y-58688072D01*
X146344482Y-58675812D01*
X146464180Y-58639502D01*
X146574494Y-58580537D01*
X146671185Y-58501185D01*
X146750537Y-58404494D01*
X146809502Y-58294180D01*
X146845812Y-58174482D01*
X146858072Y-58050000D01*
X146855000Y-57035750D01*
X146696250Y-56877000D01*
X145047000Y-56877000D01*
X144793000Y-56877000D01*
X143143750Y-56877000D01*
X142985000Y-57035750D01*
X142981928Y-58050000D01*
X140196999Y-58050000D01*
X140196999Y-55450000D01*
X142981928Y-55450000D01*
X142985000Y-56464250D01*
X143143750Y-56623000D01*
X144793000Y-56623000D01*
X144793000Y-54973750D01*
X145047000Y-54973750D01*
X145047000Y-56623000D01*
X146696250Y-56623000D01*
X146831502Y-56487748D01*
X148593600Y-56487748D01*
X148593600Y-56650652D01*
X148625382Y-56810427D01*
X148687723Y-56960931D01*
X148778228Y-57096381D01*
X148893419Y-57211572D01*
X149028869Y-57302077D01*
X149179373Y-57364418D01*
X149339148Y-57396200D01*
X149502052Y-57396200D01*
X149661827Y-57364418D01*
X149812331Y-57302077D01*
X149947781Y-57211572D01*
X150062972Y-57096381D01*
X150153477Y-56960931D01*
X150215818Y-56810427D01*
X150247600Y-56650652D01*
X150247600Y-56522844D01*
X152253046Y-54517400D01*
X153287947Y-54517400D01*
X153378319Y-54607772D01*
X153513769Y-54698277D01*
X153664273Y-54760618D01*
X153824048Y-54792400D01*
X153986952Y-54792400D01*
X154146727Y-54760618D01*
X154297231Y-54698277D01*
X154432681Y-54607772D01*
X154547872Y-54492581D01*
X154638377Y-54357131D01*
X154700718Y-54206627D01*
X154732500Y-54046852D01*
X154732500Y-53883948D01*
X154700718Y-53724173D01*
X154638377Y-53573669D01*
X154547872Y-53438219D01*
X154432681Y-53323028D01*
X154297231Y-53232523D01*
X154146727Y-53170182D01*
X153986952Y-53138400D01*
X153824048Y-53138400D01*
X153664273Y-53170182D01*
X153513769Y-53232523D01*
X153378319Y-53323028D01*
X153287947Y-53413400D01*
X152051497Y-53413400D01*
X152024399Y-53410731D01*
X151997301Y-53413400D01*
X151997291Y-53413400D01*
X151916189Y-53421388D01*
X151812137Y-53452952D01*
X151782615Y-53468732D01*
X151716241Y-53504209D01*
X151668625Y-53543287D01*
X151632189Y-53573189D01*
X151614908Y-53594246D01*
X149466956Y-55742200D01*
X149339148Y-55742200D01*
X149179373Y-55773982D01*
X149028869Y-55836323D01*
X148893419Y-55926828D01*
X148778228Y-56042019D01*
X148687723Y-56177469D01*
X148625382Y-56327973D01*
X148593600Y-56487748D01*
X146831502Y-56487748D01*
X146855000Y-56464250D01*
X146858072Y-55450000D01*
X146845812Y-55325518D01*
X146809502Y-55205820D01*
X146750537Y-55095506D01*
X146671185Y-54998815D01*
X146574494Y-54919463D01*
X146464180Y-54860498D01*
X146344482Y-54824188D01*
X146220000Y-54811928D01*
X145205750Y-54815000D01*
X145047000Y-54973750D01*
X144793000Y-54973750D01*
X144634250Y-54815000D01*
X143620000Y-54811928D01*
X143495518Y-54824188D01*
X143375820Y-54860498D01*
X143265506Y-54919463D01*
X143168815Y-54998815D01*
X143089463Y-55095506D01*
X143030498Y-55205820D01*
X142994188Y-55325518D01*
X142981928Y-55450000D01*
X140196999Y-55450000D01*
X140196999Y-45964397D01*
X142395283Y-45964397D01*
X142395617Y-46012127D01*
X142395283Y-46059924D01*
X142396001Y-46067247D01*
X142431703Y-46406915D01*
X142441296Y-46453645D01*
X142450258Y-46500624D01*
X142452385Y-46507668D01*
X142553383Y-46833934D01*
X142571884Y-46877946D01*
X142589786Y-46922253D01*
X142593240Y-46928749D01*
X142755687Y-47229184D01*
X142782388Y-47268769D01*
X142808551Y-47308750D01*
X142813202Y-47314452D01*
X143030910Y-47577613D01*
X143064798Y-47611264D01*
X143098220Y-47645394D01*
X143103890Y-47650084D01*
X143368565Y-47865946D01*
X143408354Y-47892381D01*
X143447761Y-47919364D01*
X143454234Y-47922864D01*
X143755796Y-48083205D01*
X143799903Y-48101384D01*
X143843860Y-48120224D01*
X143850889Y-48122399D01*
X144177853Y-48221113D01*
X144224702Y-48230389D01*
X144271428Y-48240321D01*
X144278746Y-48241090D01*
X144566436Y-48269297D01*
X144566690Y-48269374D01*
X144644119Y-48277000D01*
X145695881Y-48277000D01*
X145723894Y-48274241D01*
X145745944Y-48274241D01*
X145753262Y-48273471D01*
X146092673Y-48235398D01*
X146139343Y-48225478D01*
X146186248Y-48216190D01*
X146193277Y-48214014D01*
X146434390Y-48137527D01*
X144598876Y-49973042D01*
X144416253Y-50009368D01*
X144101959Y-50139553D01*
X143819102Y-50328552D01*
X143578552Y-50569102D01*
X143389553Y-50851959D01*
X143259368Y-51166253D01*
X143193000Y-51499905D01*
X143193000Y-51840095D01*
X143259368Y-52173747D01*
X143389553Y-52488041D01*
X143578552Y-52770898D01*
X143819102Y-53011448D01*
X144101959Y-53200447D01*
X144416253Y-53330632D01*
X144749905Y-53397000D01*
X145090095Y-53397000D01*
X145423747Y-53330632D01*
X145738041Y-53200447D01*
X146020898Y-53011448D01*
X146261448Y-52770898D01*
X146450447Y-52488041D01*
X146580632Y-52173747D01*
X146616958Y-51991124D01*
X148431083Y-50177000D01*
X154910547Y-50177000D01*
X154979644Y-50163256D01*
X155049741Y-50156352D01*
X155117140Y-50135907D01*
X155186241Y-50122162D01*
X155251332Y-50095200D01*
X155318731Y-50074755D01*
X155380851Y-50041551D01*
X155445938Y-50014591D01*
X155504515Y-49975451D01*
X155566634Y-49942248D01*
X155621077Y-49897568D01*
X155679660Y-49858424D01*
X155729484Y-49808600D01*
X155783923Y-49763923D01*
X155828600Y-49709484D01*
X155878424Y-49659660D01*
X155917568Y-49601077D01*
X155962248Y-49546634D01*
X155995451Y-49484515D01*
X156034591Y-49425938D01*
X156061551Y-49360851D01*
X156094755Y-49298731D01*
X156115200Y-49231332D01*
X156142162Y-49166241D01*
X156155907Y-49097140D01*
X156176352Y-49029741D01*
X156183256Y-48959645D01*
X156197000Y-48890547D01*
X156197000Y-48820098D01*
X156203904Y-48750000D01*
X156197000Y-48679902D01*
X156197000Y-48609453D01*
X156183256Y-48540355D01*
X156176352Y-48470259D01*
X156155907Y-48402860D01*
X156142162Y-48333759D01*
X156115200Y-48268668D01*
X156094755Y-48201269D01*
X156061551Y-48139149D01*
X156034591Y-48074062D01*
X155995451Y-48015485D01*
X155962248Y-47953366D01*
X155917568Y-47898923D01*
X155878424Y-47840340D01*
X155828600Y-47790516D01*
X155783923Y-47736077D01*
X155729484Y-47691400D01*
X155679660Y-47641576D01*
X155621077Y-47602432D01*
X155566634Y-47557752D01*
X155504515Y-47524549D01*
X155445938Y-47485409D01*
X155380851Y-47458449D01*
X155318731Y-47425245D01*
X155251332Y-47404800D01*
X155186241Y-47377838D01*
X155117140Y-47364093D01*
X155049741Y-47343648D01*
X154979644Y-47336744D01*
X154910547Y-47323000D01*
X147910090Y-47323000D01*
X147840000Y-47316097D01*
X147769910Y-47323000D01*
X147769902Y-47323000D01*
X147584474Y-47341263D01*
X147560258Y-47343648D01*
X147492323Y-47364256D01*
X147481467Y-47367549D01*
X147545127Y-47288371D01*
X147571255Y-47248443D01*
X147597991Y-47208805D01*
X147601445Y-47202308D01*
X147759677Y-46899633D01*
X147777547Y-46855401D01*
X147796079Y-46811316D01*
X147798205Y-46804271D01*
X147894635Y-46476626D01*
X147903579Y-46429736D01*
X147913190Y-46382916D01*
X147913907Y-46375593D01*
X147944859Y-46035460D01*
X147944525Y-45987730D01*
X147944859Y-45939934D01*
X147944141Y-45932611D01*
X147908439Y-45592942D01*
X147898837Y-45546166D01*
X147889884Y-45499234D01*
X147887757Y-45492190D01*
X147786759Y-45165925D01*
X147768262Y-45121924D01*
X147750356Y-45077606D01*
X147746901Y-45071109D01*
X147584454Y-44770674D01*
X147557765Y-44731106D01*
X147531591Y-44691109D01*
X147526940Y-44685407D01*
X147309233Y-44422247D01*
X147275379Y-44388629D01*
X147241921Y-44354463D01*
X147236251Y-44349773D01*
X146971575Y-44133911D01*
X146931809Y-44107491D01*
X146892379Y-44080493D01*
X146885906Y-44076994D01*
X146811203Y-44037274D01*
X151393000Y-44037274D01*
X151393000Y-44462725D01*
X151411478Y-44650335D01*
X151484498Y-44891050D01*
X151603076Y-45112895D01*
X151762656Y-45307344D01*
X151957104Y-45466924D01*
X152178949Y-45585502D01*
X152419664Y-45658522D01*
X152670000Y-45683178D01*
X152920335Y-45658522D01*
X153161050Y-45585502D01*
X153382895Y-45466924D01*
X153577344Y-45307344D01*
X153682231Y-45179539D01*
X153681928Y-45250000D01*
X153694188Y-45374482D01*
X153730498Y-45494180D01*
X153789463Y-45604494D01*
X153868815Y-45701185D01*
X153965506Y-45780537D01*
X154075820Y-45839502D01*
X154195518Y-45875812D01*
X154320000Y-45888072D01*
X154884250Y-45885000D01*
X155043000Y-45726250D01*
X155043000Y-44377000D01*
X155297000Y-44377000D01*
X155297000Y-45726250D01*
X155455750Y-45885000D01*
X156020000Y-45888072D01*
X156144482Y-45875812D01*
X156264180Y-45839502D01*
X156374494Y-45780537D01*
X156471185Y-45701185D01*
X156550537Y-45604494D01*
X156609502Y-45494180D01*
X156645812Y-45374482D01*
X156658072Y-45250000D01*
X156655000Y-44535750D01*
X156496250Y-44377000D01*
X155297000Y-44377000D01*
X155043000Y-44377000D01*
X155023000Y-44377000D01*
X155023000Y-44123000D01*
X155043000Y-44123000D01*
X155043000Y-42773750D01*
X155297000Y-42773750D01*
X155297000Y-44123000D01*
X156496250Y-44123000D01*
X156655000Y-43964250D01*
X156657965Y-43274835D01*
X156668849Y-43277000D01*
X156871151Y-43277000D01*
X157069565Y-43237533D01*
X157256467Y-43160115D01*
X157424674Y-43047723D01*
X157567723Y-42904674D01*
X157680115Y-42736467D01*
X157757533Y-42549565D01*
X157797000Y-42351151D01*
X157797000Y-42148849D01*
X157757533Y-41950435D01*
X157680115Y-41763533D01*
X157567723Y-41595326D01*
X157424674Y-41452277D01*
X157256467Y-41339885D01*
X157069565Y-41262467D01*
X156871151Y-41223000D01*
X156668849Y-41223000D01*
X156470435Y-41262467D01*
X156283533Y-41339885D01*
X156115326Y-41452277D01*
X155972277Y-41595326D01*
X155859885Y-41763533D01*
X155782467Y-41950435D01*
X155743000Y-42148849D01*
X155743000Y-42351151D01*
X155782467Y-42549565D01*
X155808775Y-42613078D01*
X155455750Y-42615000D01*
X155297000Y-42773750D01*
X155043000Y-42773750D01*
X154884250Y-42615000D01*
X154320000Y-42611928D01*
X154195518Y-42624188D01*
X154075820Y-42660498D01*
X153965506Y-42719463D01*
X153868815Y-42798815D01*
X153789463Y-42895506D01*
X153730498Y-43005820D01*
X153694188Y-43125518D01*
X153681928Y-43250000D01*
X153682231Y-43320461D01*
X153577344Y-43192656D01*
X153382896Y-43033076D01*
X153161051Y-42914498D01*
X152920336Y-42841478D01*
X152670000Y-42816822D01*
X152419665Y-42841478D01*
X152178950Y-42914498D01*
X151957105Y-43033076D01*
X151762657Y-43192656D01*
X151603076Y-43387104D01*
X151484498Y-43608949D01*
X151411478Y-43849664D01*
X151393000Y-44037274D01*
X146811203Y-44037274D01*
X146584343Y-43916653D01*
X146540229Y-43898471D01*
X146496280Y-43879635D01*
X146489251Y-43877460D01*
X146162288Y-43778746D01*
X146115446Y-43769471D01*
X146068713Y-43759538D01*
X146061395Y-43758769D01*
X145721485Y-43725442D01*
X145721474Y-43725442D01*
X145695938Y-43722927D01*
X144644179Y-43722933D01*
X144642350Y-43723113D01*
X144641940Y-43723116D01*
X144636284Y-43723711D01*
X144616917Y-43725618D01*
X144594199Y-43725618D01*
X144586881Y-43726388D01*
X144247470Y-43764461D01*
X144200807Y-43774380D01*
X144153895Y-43783669D01*
X144146866Y-43785845D01*
X143821313Y-43889118D01*
X143777447Y-43907920D01*
X143733251Y-43926136D01*
X143726779Y-43929636D01*
X143427485Y-44094175D01*
X143388065Y-44121167D01*
X143348288Y-44147595D01*
X143342618Y-44152286D01*
X143080985Y-44371826D01*
X143047594Y-44405925D01*
X143013676Y-44439607D01*
X143009025Y-44445310D01*
X142795016Y-44711486D01*
X142768886Y-44751417D01*
X142742153Y-44791052D01*
X142738698Y-44797549D01*
X142580466Y-45100224D01*
X142562589Y-45144472D01*
X142544063Y-45188544D01*
X142541937Y-45195588D01*
X142445508Y-45523233D01*
X142436569Y-45570094D01*
X142426953Y-45616941D01*
X142426236Y-45624264D01*
X142395283Y-45964397D01*
X140196999Y-45964397D01*
X140196998Y-42525796D01*
X140227532Y-42214384D01*
X140310479Y-41939650D01*
X140445213Y-41686252D01*
X140626595Y-41463855D01*
X140847720Y-41280924D01*
X141100168Y-41144426D01*
X141374321Y-41059562D01*
X141684121Y-41027000D01*
X179644212Y-41027000D01*
X179955618Y-41057534D01*
G36*
X175398359Y-70353080D02*
G01*
X175273175Y-70615901D01*
X175228524Y-70763110D01*
X175349845Y-70993000D01*
X176543000Y-70993000D01*
X176543000Y-70973000D01*
X176797000Y-70973000D01*
X176797000Y-70993000D01*
X176817000Y-70993000D01*
X176817000Y-71247000D01*
X176797000Y-71247000D01*
X176797000Y-71267000D01*
X176543000Y-71267000D01*
X176543000Y-71247000D01*
X175349845Y-71247000D01*
X175228524Y-71476890D01*
X175273175Y-71624099D01*
X175398359Y-71886920D01*
X175572412Y-72120269D01*
X175788645Y-72315178D01*
X176038748Y-72464157D01*
X176214761Y-72526594D01*
X175742856Y-72998500D01*
X168702914Y-72998500D01*
X168725600Y-72884452D01*
X168725600Y-72756644D01*
X171174946Y-70307300D01*
X175432506Y-70307300D01*
X175398359Y-70353080D01*
G37*
X175398359Y-70353080D02*
X175273175Y-70615901D01*
X175228524Y-70763110D01*
X175349845Y-70993000D01*
X176543000Y-70993000D01*
X176543000Y-70973000D01*
X176797000Y-70973000D01*
X176797000Y-70993000D01*
X176817000Y-70993000D01*
X176817000Y-71247000D01*
X176797000Y-71247000D01*
X176797000Y-71267000D01*
X176543000Y-71267000D01*
X176543000Y-71247000D01*
X175349845Y-71247000D01*
X175228524Y-71476890D01*
X175273175Y-71624099D01*
X175398359Y-71886920D01*
X175572412Y-72120269D01*
X175788645Y-72315178D01*
X176038748Y-72464157D01*
X176214761Y-72526594D01*
X175742856Y-72998500D01*
X168702914Y-72998500D01*
X168725600Y-72884452D01*
X168725600Y-72756644D01*
X171174946Y-70307300D01*
X175432506Y-70307300D01*
X175398359Y-70353080D01*
G36*
X157915528Y-53883881D02*
G01*
X158005901Y-53974254D01*
X158005900Y-67110354D01*
X156322256Y-68794000D01*
X156194448Y-68794000D01*
X156034673Y-68825782D01*
X155884169Y-68888123D01*
X155748719Y-68978628D01*
X155633528Y-69093819D01*
X155572660Y-69184915D01*
X154790600Y-68402856D01*
X154790600Y-58367853D01*
X154880872Y-58277581D01*
X154971377Y-58142131D01*
X155033718Y-57991627D01*
X155065500Y-57831852D01*
X155065500Y-57668948D01*
X155033718Y-57509173D01*
X154971377Y-57358669D01*
X154880872Y-57223219D01*
X154765681Y-57108028D01*
X154630231Y-57017523D01*
X154479727Y-56955182D01*
X154319952Y-56923400D01*
X154157048Y-56923400D01*
X153997273Y-56955182D01*
X153846769Y-57017523D01*
X153711319Y-57108028D01*
X153596128Y-57223219D01*
X153505623Y-57358669D01*
X153443282Y-57509173D01*
X153425348Y-57599332D01*
X153418652Y-57598000D01*
X153255748Y-57598000D01*
X153126046Y-57623800D01*
X154509846Y-56240000D01*
X155350647Y-56240000D01*
X155441019Y-56330372D01*
X155576469Y-56420877D01*
X155726973Y-56483218D01*
X155886748Y-56515000D01*
X156049652Y-56515000D01*
X156209427Y-56483218D01*
X156359931Y-56420877D01*
X156495381Y-56330372D01*
X156610572Y-56215181D01*
X156701077Y-56079731D01*
X156727201Y-56016663D01*
X156727201Y-57509253D01*
X156160207Y-58076248D01*
X156146527Y-58070582D01*
X155986752Y-58038800D01*
X155823848Y-58038800D01*
X155664073Y-58070582D01*
X155513569Y-58132923D01*
X155378119Y-58223428D01*
X155262928Y-58338619D01*
X155172423Y-58474069D01*
X155110082Y-58624573D01*
X155078300Y-58784348D01*
X155078300Y-58947252D01*
X155110082Y-59107027D01*
X155172423Y-59257531D01*
X155262928Y-59392981D01*
X155378119Y-59508172D01*
X155513569Y-59598677D01*
X155664073Y-59661018D01*
X155823848Y-59692800D01*
X155986752Y-59692800D01*
X156146527Y-59661018D01*
X156297031Y-59598677D01*
X156432481Y-59508172D01*
X156547672Y-59392981D01*
X156638177Y-59257531D01*
X156700518Y-59107027D01*
X156702952Y-59094793D01*
X157650354Y-58147392D01*
X157671411Y-58130111D01*
X157740391Y-58046058D01*
X157791648Y-57950163D01*
X157823212Y-57846111D01*
X157831200Y-57765009D01*
X157831200Y-57764999D01*
X157833869Y-57737901D01*
X157831200Y-57710803D01*
X157831200Y-53757676D01*
X157915528Y-53883881D01*
G37*
X157915528Y-53883881D02*
X158005901Y-53974254D01*
X158005900Y-67110354D01*
X156322256Y-68794000D01*
X156194448Y-68794000D01*
X156034673Y-68825782D01*
X155884169Y-68888123D01*
X155748719Y-68978628D01*
X155633528Y-69093819D01*
X155572660Y-69184915D01*
X154790600Y-68402856D01*
X154790600Y-58367853D01*
X154880872Y-58277581D01*
X154971377Y-58142131D01*
X155033718Y-57991627D01*
X155065500Y-57831852D01*
X155065500Y-57668948D01*
X155033718Y-57509173D01*
X154971377Y-57358669D01*
X154880872Y-57223219D01*
X154765681Y-57108028D01*
X154630231Y-57017523D01*
X154479727Y-56955182D01*
X154319952Y-56923400D01*
X154157048Y-56923400D01*
X153997273Y-56955182D01*
X153846769Y-57017523D01*
X153711319Y-57108028D01*
X153596128Y-57223219D01*
X153505623Y-57358669D01*
X153443282Y-57509173D01*
X153425348Y-57599332D01*
X153418652Y-57598000D01*
X153255748Y-57598000D01*
X153126046Y-57623800D01*
X154509846Y-56240000D01*
X155350647Y-56240000D01*
X155441019Y-56330372D01*
X155576469Y-56420877D01*
X155726973Y-56483218D01*
X155886748Y-56515000D01*
X156049652Y-56515000D01*
X156209427Y-56483218D01*
X156359931Y-56420877D01*
X156495381Y-56330372D01*
X156610572Y-56215181D01*
X156701077Y-56079731D01*
X156727201Y-56016663D01*
X156727201Y-57509253D01*
X156160207Y-58076248D01*
X156146527Y-58070582D01*
X155986752Y-58038800D01*
X155823848Y-58038800D01*
X155664073Y-58070582D01*
X155513569Y-58132923D01*
X155378119Y-58223428D01*
X155262928Y-58338619D01*
X155172423Y-58474069D01*
X155110082Y-58624573D01*
X155078300Y-58784348D01*
X155078300Y-58947252D01*
X155110082Y-59107027D01*
X155172423Y-59257531D01*
X155262928Y-59392981D01*
X155378119Y-59508172D01*
X155513569Y-59598677D01*
X155664073Y-59661018D01*
X155823848Y-59692800D01*
X155986752Y-59692800D01*
X156146527Y-59661018D01*
X156297031Y-59598677D01*
X156432481Y-59508172D01*
X156547672Y-59392981D01*
X156638177Y-59257531D01*
X156700518Y-59107027D01*
X156702952Y-59094793D01*
X157650354Y-58147392D01*
X157671411Y-58130111D01*
X157740391Y-58046058D01*
X157791648Y-57950163D01*
X157823212Y-57846111D01*
X157831200Y-57765009D01*
X157831200Y-57764999D01*
X157833869Y-57737901D01*
X157831200Y-57710803D01*
X157831200Y-53757676D01*
X157915528Y-53883881D01*
G36*
X176543000Y-56361315D02*
G01*
X176543000Y-58158411D01*
X169797000Y-58158411D01*
X169797000Y-54127000D01*
X172388020Y-54127000D01*
X176543000Y-56361315D01*
G37*
X176543000Y-56361315D02*
X176543000Y-58158411D01*
X169797000Y-58158411D01*
X169797000Y-54127000D01*
X172388020Y-54127000D01*
X176543000Y-56361315D01*
M02*
