M48
; DRILL file {KiCad (5.1.5)-3} date 10/12/2020 8:48:52 PM
; FORMAT={-:-/ absolute / inch / decimal}
; #@! TF.CreationDate,2020-10-12T20:48:52-07:00
; #@! TF.GenerationSoftware,Kicad,Pcbnew,(5.1.5)-3
FMAT,2
INCH
T1C0.0157
T2C0.0236
T3C0.0335
T4C0.0394
T5C0.0492
T6C0.0512
T7C0.0472
%
G90
G05
T1
X5.7103Y-2.5562
X5.8827Y-2.2271
X6.0008Y-2.5492
X6.0369Y-2.3002
X6.0593Y-2.1246
X6.0724Y-2.2736
X6.1287Y-2.1161
X6.138Y-2.3176
X6.1386Y-2.9331
X6.1405Y-2.1924
X6.1484Y-2.2736
X6.1526Y-2.741
X6.1976Y-2.5394
X6.2424Y-2.1007
X6.2816Y-2.3407
X6.3059Y-2.1063
X6.3157Y-2.6673
X6.3354Y-1.7717
X6.3354Y-2.9823
X6.3638Y-2.5668
X6.3944Y-2.6733
X6.4437Y-2.0079
X6.4831Y-3.0709
X6.526Y-2.7008
X6.5383Y-2.7672
X6.5421Y-2.628
X6.5421Y-2.9035
X6.5913Y-2.2343
X6.6102Y-2.8663
X6.7094Y-2.1752
X6.7094Y-2.2146
X6.7094Y-2.2539
X6.7488Y-2.1752
X6.7488Y-2.2146
X6.7488Y-2.2539
X6.7587Y-2.5984
X6.7783Y-2.7854
X6.7882Y-2.1752
X6.7882Y-2.2146
X6.7882Y-2.2539
X6.8276Y-2.2146
X6.8276Y-2.2539
X6.8669Y-2.2146
X6.8669Y-2.2539
X6.8866Y-2.6575
X6.8866Y-2.8543
T3
X5.6548Y-2.4606
X5.6548Y-2.6575
T4
X6.4602Y-1.6831
X6.5602Y-1.6831
X6.6602Y-1.6831
X6.1681Y-3.0709
X6.1681Y-3.1709
X6.0106Y-1.7421
X6.1091Y-1.7421
X6.9555Y-2.5
X6.9555Y-2.6
X6.9555Y-2.7
X6.9555Y-2.8
X7.0555Y-2.5
X7.0555Y-2.6
X7.0555Y-2.7
X7.0555Y-2.8
X6.3354Y-3.0709
X6.3354Y-3.1709
X6.0933Y-1.9193
X6.5421Y-1.9193
T5
X5.6071Y-2.8051
X5.863Y-2.8051
T6
X6.9457Y-2.0835
X6.9457Y-2.2835
X5.7055Y-2.0343
X5.7055Y-2.2343
T7
X6.172Y-1.6634
T2
G00X5.5347Y-2.4213
M15
G01X5.5623Y-2.4213
M16
G05
G00X5.5623Y-2.6969
M15
G01X5.5347Y-2.6969
M16
G05
T0
M30
