G04 #@! TF.GenerationSoftware,KiCad,Pcbnew,(5.1.5)-3*
G04 #@! TF.CreationDate,2020-10-12T20:48:49-07:00*
G04 #@! TF.ProjectId,tool_head,746f6f6c-5f68-4656-9164-2e6b69636164,B*
G04 #@! TF.SameCoordinates,Original*
G04 #@! TF.FileFunction,Legend,Bot*
G04 #@! TF.FilePolarity,Positive*
%FSLAX46Y46*%
G04 Gerber Fmt 4.6, Leading zero omitted, Abs format (unit mm)*
G04 Created by KiCad (PCBNEW (5.1.5)-3) date 2020-10-12 20:48:49*
%MOMM*%
%LPD*%
G04 APERTURE LIST*
%ADD10C,0.250000*%
%ADD11C,0.150000*%
%ADD12C,0.120000*%
G04 APERTURE END LIST*
D10*
X150122380Y-42654761D02*
X150931904Y-42654761D01*
X151027142Y-42702380D01*
X151074761Y-42750000D01*
X151122380Y-42845238D01*
X151122380Y-43035714D01*
X151074761Y-43130952D01*
X151027142Y-43178571D01*
X150931904Y-43226190D01*
X150122380Y-43226190D01*
X150455714Y-43702380D02*
X151122380Y-43702380D01*
X150550952Y-43702380D02*
X150503333Y-43750000D01*
X150455714Y-43845238D01*
X150455714Y-43988095D01*
X150503333Y-44083333D01*
X150598571Y-44130952D01*
X151122380Y-44130952D01*
X151122380Y-44750000D02*
X151074761Y-44654761D01*
X151027142Y-44607142D01*
X150931904Y-44559523D01*
X150646190Y-44559523D01*
X150550952Y-44607142D01*
X150503333Y-44654761D01*
X150455714Y-44750000D01*
X150455714Y-44892857D01*
X150503333Y-44988095D01*
X150550952Y-45035714D01*
X150646190Y-45083333D01*
X150931904Y-45083333D01*
X151027142Y-45035714D01*
X151074761Y-44988095D01*
X151122380Y-44892857D01*
X151122380Y-44750000D01*
X150455714Y-45369047D02*
X150455714Y-45750000D01*
X151122380Y-45511904D02*
X150265238Y-45511904D01*
X150170000Y-45559523D01*
X150122380Y-45654761D01*
X150122380Y-45750000D01*
X150455714Y-45940476D02*
X150455714Y-46321428D01*
X151122380Y-46083333D02*
X150265238Y-46083333D01*
X150170000Y-46130952D01*
X150122380Y-46226190D01*
X150122380Y-46321428D01*
X151122380Y-46654761D02*
X150455714Y-46654761D01*
X150122380Y-46654761D02*
X150170000Y-46607142D01*
X150217619Y-46654761D01*
X150170000Y-46702380D01*
X150122380Y-46654761D01*
X150217619Y-46654761D01*
X151074761Y-47559523D02*
X151122380Y-47464285D01*
X151122380Y-47273809D01*
X151074761Y-47178571D01*
X151027142Y-47130952D01*
X150931904Y-47083333D01*
X150646190Y-47083333D01*
X150550952Y-47130952D01*
X150503333Y-47178571D01*
X150455714Y-47273809D01*
X150455714Y-47464285D01*
X150503333Y-47559523D01*
X151122380Y-47988095D02*
X150455714Y-47988095D01*
X150122380Y-47988095D02*
X150170000Y-47940476D01*
X150217619Y-47988095D01*
X150170000Y-48035714D01*
X150122380Y-47988095D01*
X150217619Y-47988095D01*
X151122380Y-48892857D02*
X150598571Y-48892857D01*
X150503333Y-48845238D01*
X150455714Y-48750000D01*
X150455714Y-48559523D01*
X150503333Y-48464285D01*
X151074761Y-48892857D02*
X151122380Y-48797619D01*
X151122380Y-48559523D01*
X151074761Y-48464285D01*
X150979523Y-48416666D01*
X150884285Y-48416666D01*
X150789047Y-48464285D01*
X150741428Y-48559523D01*
X150741428Y-48797619D01*
X150693809Y-48892857D01*
X151122380Y-49511904D02*
X151074761Y-49416666D01*
X150979523Y-49369047D01*
X150122380Y-49369047D01*
X150122380Y-50511904D02*
X151122380Y-50845238D01*
X150122380Y-51178571D01*
X151122380Y-51654761D02*
X151074761Y-51559523D01*
X151027142Y-51511904D01*
X150931904Y-51464285D01*
X150646190Y-51464285D01*
X150550952Y-51511904D01*
X150503333Y-51559523D01*
X150455714Y-51654761D01*
X150455714Y-51797619D01*
X150503333Y-51892857D01*
X150550952Y-51940476D01*
X150646190Y-51988095D01*
X150931904Y-51988095D01*
X151027142Y-51940476D01*
X151074761Y-51892857D01*
X151122380Y-51797619D01*
X151122380Y-51654761D01*
X151122380Y-52416666D02*
X150455714Y-52416666D01*
X150646190Y-52416666D02*
X150550952Y-52464285D01*
X150503333Y-52511904D01*
X150455714Y-52607142D01*
X150455714Y-52702380D01*
X151122380Y-53178571D02*
X151074761Y-53083333D01*
X151027142Y-53035714D01*
X150931904Y-52988095D01*
X150646190Y-52988095D01*
X150550952Y-53035714D01*
X150503333Y-53083333D01*
X150455714Y-53178571D01*
X150455714Y-53321428D01*
X150503333Y-53416666D01*
X150550952Y-53464285D01*
X150646190Y-53511904D01*
X150931904Y-53511904D01*
X151027142Y-53464285D01*
X151074761Y-53416666D01*
X151122380Y-53321428D01*
X151122380Y-53178571D01*
X150455714Y-53940476D02*
X151122380Y-53940476D01*
X150550952Y-53940476D02*
X150503333Y-53988095D01*
X150455714Y-54083333D01*
X150455714Y-54226190D01*
X150503333Y-54321428D01*
X150598571Y-54369047D01*
X151122380Y-54369047D01*
X150455714Y-55464285D02*
X150455714Y-55845238D01*
X150122380Y-55607142D02*
X150979523Y-55607142D01*
X151074761Y-55654761D01*
X151122380Y-55750000D01*
X151122380Y-55845238D01*
X151122380Y-56321428D02*
X151074761Y-56226190D01*
X151027142Y-56178571D01*
X150931904Y-56130952D01*
X150646190Y-56130952D01*
X150550952Y-56178571D01*
X150503333Y-56226190D01*
X150455714Y-56321428D01*
X150455714Y-56464285D01*
X150503333Y-56559523D01*
X150550952Y-56607142D01*
X150646190Y-56654761D01*
X150931904Y-56654761D01*
X151027142Y-56607142D01*
X151074761Y-56559523D01*
X151122380Y-56464285D01*
X151122380Y-56321428D01*
X151122380Y-57226190D02*
X151074761Y-57130952D01*
X151027142Y-57083333D01*
X150931904Y-57035714D01*
X150646190Y-57035714D01*
X150550952Y-57083333D01*
X150503333Y-57130952D01*
X150455714Y-57226190D01*
X150455714Y-57369047D01*
X150503333Y-57464285D01*
X150550952Y-57511904D01*
X150646190Y-57559523D01*
X150931904Y-57559523D01*
X151027142Y-57511904D01*
X151074761Y-57464285D01*
X151122380Y-57369047D01*
X151122380Y-57226190D01*
X151122380Y-58130952D02*
X151074761Y-58035714D01*
X150979523Y-57988095D01*
X150122380Y-57988095D01*
X151122380Y-59273809D02*
X150122380Y-59273809D01*
X151122380Y-59702380D02*
X150598571Y-59702380D01*
X150503333Y-59654761D01*
X150455714Y-59559523D01*
X150455714Y-59416666D01*
X150503333Y-59321428D01*
X150550952Y-59273809D01*
X151074761Y-60559523D02*
X151122380Y-60464285D01*
X151122380Y-60273809D01*
X151074761Y-60178571D01*
X150979523Y-60130952D01*
X150598571Y-60130952D01*
X150503333Y-60178571D01*
X150455714Y-60273809D01*
X150455714Y-60464285D01*
X150503333Y-60559523D01*
X150598571Y-60607142D01*
X150693809Y-60607142D01*
X150789047Y-60130952D01*
X151122380Y-61464285D02*
X150598571Y-61464285D01*
X150503333Y-61416666D01*
X150455714Y-61321428D01*
X150455714Y-61130952D01*
X150503333Y-61035714D01*
X151074761Y-61464285D02*
X151122380Y-61369047D01*
X151122380Y-61130952D01*
X151074761Y-61035714D01*
X150979523Y-60988095D01*
X150884285Y-60988095D01*
X150789047Y-61035714D01*
X150741428Y-61130952D01*
X150741428Y-61369047D01*
X150693809Y-61464285D01*
X151122380Y-62369047D02*
X150122380Y-62369047D01*
X151074761Y-62369047D02*
X151122380Y-62273809D01*
X151122380Y-62083333D01*
X151074761Y-61988095D01*
X151027142Y-61940476D01*
X150931904Y-61892857D01*
X150646190Y-61892857D01*
X150550952Y-61940476D01*
X150503333Y-61988095D01*
X150455714Y-62083333D01*
X150455714Y-62273809D01*
X150503333Y-62369047D01*
X151122380Y-63607142D02*
X150122380Y-63607142D01*
X150503333Y-63607142D02*
X150455714Y-63702380D01*
X150455714Y-63892857D01*
X150503333Y-63988095D01*
X150550952Y-64035714D01*
X150646190Y-64083333D01*
X150931904Y-64083333D01*
X151027142Y-64035714D01*
X151074761Y-63988095D01*
X151122380Y-63892857D01*
X151122380Y-63702380D01*
X151074761Y-63607142D01*
X151122380Y-64654761D02*
X151074761Y-64559523D01*
X151027142Y-64511904D01*
X150931904Y-64464285D01*
X150646190Y-64464285D01*
X150550952Y-64511904D01*
X150503333Y-64559523D01*
X150455714Y-64654761D01*
X150455714Y-64797619D01*
X150503333Y-64892857D01*
X150550952Y-64940476D01*
X150646190Y-64988095D01*
X150931904Y-64988095D01*
X151027142Y-64940476D01*
X151074761Y-64892857D01*
X151122380Y-64797619D01*
X151122380Y-64654761D01*
X151122380Y-65845238D02*
X150598571Y-65845238D01*
X150503333Y-65797619D01*
X150455714Y-65702380D01*
X150455714Y-65511904D01*
X150503333Y-65416666D01*
X151074761Y-65845238D02*
X151122380Y-65750000D01*
X151122380Y-65511904D01*
X151074761Y-65416666D01*
X150979523Y-65369047D01*
X150884285Y-65369047D01*
X150789047Y-65416666D01*
X150741428Y-65511904D01*
X150741428Y-65750000D01*
X150693809Y-65845238D01*
X151122380Y-66321428D02*
X150455714Y-66321428D01*
X150646190Y-66321428D02*
X150550952Y-66369047D01*
X150503333Y-66416666D01*
X150455714Y-66511904D01*
X150455714Y-66607142D01*
X151122380Y-67369047D02*
X150122380Y-67369047D01*
X151074761Y-67369047D02*
X151122380Y-67273809D01*
X151122380Y-67083333D01*
X151074761Y-66988095D01*
X151027142Y-66940476D01*
X150931904Y-66892857D01*
X150646190Y-66892857D01*
X150550952Y-66940476D01*
X150503333Y-66988095D01*
X150455714Y-67083333D01*
X150455714Y-67273809D01*
X150503333Y-67369047D01*
X150455714Y-68511904D02*
X151122380Y-68750000D01*
X150455714Y-68988095D01*
X150217619Y-69321428D02*
X150170000Y-69369047D01*
X150122380Y-69464285D01*
X150122380Y-69702380D01*
X150170000Y-69797619D01*
X150217619Y-69845238D01*
X150312857Y-69892857D01*
X150408095Y-69892857D01*
X150550952Y-69845238D01*
X151122380Y-69273809D01*
X151122380Y-69892857D01*
D11*
X175086666Y-62502380D02*
X175086666Y-61502380D01*
X174705714Y-61502380D01*
X174610476Y-61550000D01*
X174562857Y-61597619D01*
X174515238Y-61692857D01*
X174515238Y-61835714D01*
X174562857Y-61930952D01*
X174610476Y-61978571D01*
X174705714Y-62026190D01*
X175086666Y-62026190D01*
X174134285Y-62216666D02*
X173658095Y-62216666D01*
X174229523Y-62502380D02*
X173896190Y-61502380D01*
X173562857Y-62502380D01*
X173039047Y-61502380D02*
X172943809Y-61502380D01*
X172848571Y-61550000D01*
X172800952Y-61597619D01*
X172753333Y-61692857D01*
X172705714Y-61883333D01*
X172705714Y-62121428D01*
X172753333Y-62311904D01*
X172800952Y-62407142D01*
X172848571Y-62454761D01*
X172943809Y-62502380D01*
X173039047Y-62502380D01*
X173134285Y-62454761D01*
X173181904Y-62407142D01*
X173229523Y-62311904D01*
X173277142Y-62121428D01*
X173277142Y-61883333D01*
X173229523Y-61692857D01*
X173181904Y-61597619D01*
X173134285Y-61550000D01*
X173039047Y-61502380D01*
X175086666Y-65802380D02*
X175086666Y-64802380D01*
X174705714Y-64802380D01*
X174610476Y-64850000D01*
X174562857Y-64897619D01*
X174515238Y-64992857D01*
X174515238Y-65135714D01*
X174562857Y-65230952D01*
X174610476Y-65278571D01*
X174705714Y-65326190D01*
X175086666Y-65326190D01*
X174134285Y-65516666D02*
X173658095Y-65516666D01*
X174229523Y-65802380D02*
X173896190Y-64802380D01*
X173562857Y-65802380D01*
X172705714Y-65802380D02*
X173277142Y-65802380D01*
X172991428Y-65802380D02*
X172991428Y-64802380D01*
X173086666Y-64945238D01*
X173181904Y-65040476D01*
X173277142Y-65088095D01*
X175086666Y-69102380D02*
X175086666Y-68102380D01*
X174705714Y-68102380D01*
X174610476Y-68150000D01*
X174562857Y-68197619D01*
X174515238Y-68292857D01*
X174515238Y-68435714D01*
X174562857Y-68530952D01*
X174610476Y-68578571D01*
X174705714Y-68626190D01*
X175086666Y-68626190D01*
X174134285Y-68816666D02*
X173658095Y-68816666D01*
X174229523Y-69102380D02*
X173896190Y-68102380D01*
X173562857Y-69102380D01*
X173277142Y-68197619D02*
X173229523Y-68150000D01*
X173134285Y-68102380D01*
X172896190Y-68102380D01*
X172800952Y-68150000D01*
X172753333Y-68197619D01*
X172705714Y-68292857D01*
X172705714Y-68388095D01*
X172753333Y-68530952D01*
X173324761Y-69102380D01*
X172705714Y-69102380D01*
X175086666Y-72402380D02*
X175086666Y-71402380D01*
X174705714Y-71402380D01*
X174610476Y-71450000D01*
X174562857Y-71497619D01*
X174515238Y-71592857D01*
X174515238Y-71735714D01*
X174562857Y-71830952D01*
X174610476Y-71878571D01*
X174705714Y-71926190D01*
X175086666Y-71926190D01*
X174134285Y-72116666D02*
X173658095Y-72116666D01*
X174229523Y-72402380D02*
X173896190Y-71402380D01*
X173562857Y-72402380D01*
X172753333Y-71402380D02*
X173229523Y-71402380D01*
X173277142Y-71878571D01*
X173229523Y-71830952D01*
X173134285Y-71783333D01*
X172896190Y-71783333D01*
X172800952Y-71830952D01*
X172753333Y-71878571D01*
X172705714Y-71973809D01*
X172705714Y-72211904D01*
X172753333Y-72307142D01*
X172800952Y-72354761D01*
X172896190Y-72402380D01*
X173134285Y-72402380D01*
X173229523Y-72354761D01*
X173277142Y-72307142D01*
D12*
X173020000Y-45600000D02*
X147920000Y-45600000D01*
X173020000Y-45600000D02*
X173020000Y-51900000D01*
X147920000Y-51900000D02*
X147920000Y-45600000D01*
X147920000Y-51900000D02*
X173020000Y-51900000D01*
D11*
X160203333Y-44578571D02*
X160536666Y-44578571D01*
X160536666Y-45102380D02*
X160536666Y-44102380D01*
X160060476Y-44102380D01*
X159155714Y-45102380D02*
X159727142Y-45102380D01*
X159441428Y-45102380D02*
X159441428Y-44102380D01*
X159536666Y-44245238D01*
X159631904Y-44340476D01*
X159727142Y-44388095D01*
M02*
