G04 #@! TF.GenerationSoftware,KiCad,Pcbnew,(5.1.5)-3*
G04 #@! TF.CreationDate,2020-07-07T21:27:08-07:00*
G04 #@! TF.ProjectId,tool_head,746f6f6c-5f68-4656-9164-2e6b69636164,B*
G04 #@! TF.SameCoordinates,Original*
G04 #@! TF.FileFunction,Paste,Top*
G04 #@! TF.FilePolarity,Positive*
%FSLAX46Y46*%
G04 Gerber Fmt 4.6, Leading zero omitted, Abs format (unit mm)*
G04 Created by KiCad (PCBNEW (5.1.5)-3) date 2020-07-07 21:27:08*
%MOMM*%
%LPD*%
G04 APERTURE LIST*
%ADD10C,0.100000*%
%ADD11R,1.900000X1.500000*%
%ADD12R,1.350000X0.400000*%
%ADD13R,0.900000X0.800000*%
%ADD14R,1.450000X0.450000*%
%ADD15R,1.060000X0.650000*%
G04 APERTURE END LIST*
D10*
G36*
X159400142Y-51388674D02*
G01*
X159423803Y-51392184D01*
X159447007Y-51397996D01*
X159469529Y-51406054D01*
X159491153Y-51416282D01*
X159511670Y-51428579D01*
X159530883Y-51442829D01*
X159548607Y-51458893D01*
X159564671Y-51476617D01*
X159578921Y-51495830D01*
X159591218Y-51516347D01*
X159601446Y-51537971D01*
X159609504Y-51560493D01*
X159615316Y-51583697D01*
X159618826Y-51607358D01*
X159620000Y-51631250D01*
X159620000Y-52118750D01*
X159618826Y-52142642D01*
X159615316Y-52166303D01*
X159609504Y-52189507D01*
X159601446Y-52212029D01*
X159591218Y-52233653D01*
X159578921Y-52254170D01*
X159564671Y-52273383D01*
X159548607Y-52291107D01*
X159530883Y-52307171D01*
X159511670Y-52321421D01*
X159491153Y-52333718D01*
X159469529Y-52343946D01*
X159447007Y-52352004D01*
X159423803Y-52357816D01*
X159400142Y-52361326D01*
X159376250Y-52362500D01*
X158463750Y-52362500D01*
X158439858Y-52361326D01*
X158416197Y-52357816D01*
X158392993Y-52352004D01*
X158370471Y-52343946D01*
X158348847Y-52333718D01*
X158328330Y-52321421D01*
X158309117Y-52307171D01*
X158291393Y-52291107D01*
X158275329Y-52273383D01*
X158261079Y-52254170D01*
X158248782Y-52233653D01*
X158238554Y-52212029D01*
X158230496Y-52189507D01*
X158224684Y-52166303D01*
X158221174Y-52142642D01*
X158220000Y-52118750D01*
X158220000Y-51631250D01*
X158221174Y-51607358D01*
X158224684Y-51583697D01*
X158230496Y-51560493D01*
X158238554Y-51537971D01*
X158248782Y-51516347D01*
X158261079Y-51495830D01*
X158275329Y-51476617D01*
X158291393Y-51458893D01*
X158309117Y-51442829D01*
X158328330Y-51428579D01*
X158348847Y-51416282D01*
X158370471Y-51406054D01*
X158392993Y-51397996D01*
X158416197Y-51392184D01*
X158439858Y-51388674D01*
X158463750Y-51387500D01*
X159376250Y-51387500D01*
X159400142Y-51388674D01*
G37*
G36*
X159400142Y-49513674D02*
G01*
X159423803Y-49517184D01*
X159447007Y-49522996D01*
X159469529Y-49531054D01*
X159491153Y-49541282D01*
X159511670Y-49553579D01*
X159530883Y-49567829D01*
X159548607Y-49583893D01*
X159564671Y-49601617D01*
X159578921Y-49620830D01*
X159591218Y-49641347D01*
X159601446Y-49662971D01*
X159609504Y-49685493D01*
X159615316Y-49708697D01*
X159618826Y-49732358D01*
X159620000Y-49756250D01*
X159620000Y-50243750D01*
X159618826Y-50267642D01*
X159615316Y-50291303D01*
X159609504Y-50314507D01*
X159601446Y-50337029D01*
X159591218Y-50358653D01*
X159578921Y-50379170D01*
X159564671Y-50398383D01*
X159548607Y-50416107D01*
X159530883Y-50432171D01*
X159511670Y-50446421D01*
X159491153Y-50458718D01*
X159469529Y-50468946D01*
X159447007Y-50477004D01*
X159423803Y-50482816D01*
X159400142Y-50486326D01*
X159376250Y-50487500D01*
X158463750Y-50487500D01*
X158439858Y-50486326D01*
X158416197Y-50482816D01*
X158392993Y-50477004D01*
X158370471Y-50468946D01*
X158348847Y-50458718D01*
X158328330Y-50446421D01*
X158309117Y-50432171D01*
X158291393Y-50416107D01*
X158275329Y-50398383D01*
X158261079Y-50379170D01*
X158248782Y-50358653D01*
X158238554Y-50337029D01*
X158230496Y-50314507D01*
X158224684Y-50291303D01*
X158221174Y-50267642D01*
X158220000Y-50243750D01*
X158220000Y-49756250D01*
X158221174Y-49732358D01*
X158224684Y-49708697D01*
X158230496Y-49685493D01*
X158238554Y-49662971D01*
X158248782Y-49641347D01*
X158261079Y-49620830D01*
X158275329Y-49601617D01*
X158291393Y-49583893D01*
X158309117Y-49567829D01*
X158328330Y-49553579D01*
X158348847Y-49541282D01*
X158370471Y-49531054D01*
X158392993Y-49522996D01*
X158416197Y-49517184D01*
X158439858Y-49513674D01*
X158463750Y-49512500D01*
X159376250Y-49512500D01*
X159400142Y-49513674D01*
G37*
G36*
X153875142Y-76801174D02*
G01*
X153898803Y-76804684D01*
X153922007Y-76810496D01*
X153944529Y-76818554D01*
X153966153Y-76828782D01*
X153986670Y-76841079D01*
X154005883Y-76855329D01*
X154023607Y-76871393D01*
X154039671Y-76889117D01*
X154053921Y-76908330D01*
X154066218Y-76928847D01*
X154076446Y-76950471D01*
X154084504Y-76972993D01*
X154090316Y-76996197D01*
X154093826Y-77019858D01*
X154095000Y-77043750D01*
X154095000Y-77956250D01*
X154093826Y-77980142D01*
X154090316Y-78003803D01*
X154084504Y-78027007D01*
X154076446Y-78049529D01*
X154066218Y-78071153D01*
X154053921Y-78091670D01*
X154039671Y-78110883D01*
X154023607Y-78128607D01*
X154005883Y-78144671D01*
X153986670Y-78158921D01*
X153966153Y-78171218D01*
X153944529Y-78181446D01*
X153922007Y-78189504D01*
X153898803Y-78195316D01*
X153875142Y-78198826D01*
X153851250Y-78200000D01*
X153363750Y-78200000D01*
X153339858Y-78198826D01*
X153316197Y-78195316D01*
X153292993Y-78189504D01*
X153270471Y-78181446D01*
X153248847Y-78171218D01*
X153228330Y-78158921D01*
X153209117Y-78144671D01*
X153191393Y-78128607D01*
X153175329Y-78110883D01*
X153161079Y-78091670D01*
X153148782Y-78071153D01*
X153138554Y-78049529D01*
X153130496Y-78027007D01*
X153124684Y-78003803D01*
X153121174Y-77980142D01*
X153120000Y-77956250D01*
X153120000Y-77043750D01*
X153121174Y-77019858D01*
X153124684Y-76996197D01*
X153130496Y-76972993D01*
X153138554Y-76950471D01*
X153148782Y-76928847D01*
X153161079Y-76908330D01*
X153175329Y-76889117D01*
X153191393Y-76871393D01*
X153209117Y-76855329D01*
X153228330Y-76841079D01*
X153248847Y-76828782D01*
X153270471Y-76818554D01*
X153292993Y-76810496D01*
X153316197Y-76804684D01*
X153339858Y-76801174D01*
X153363750Y-76800000D01*
X153851250Y-76800000D01*
X153875142Y-76801174D01*
G37*
G36*
X152000142Y-76801174D02*
G01*
X152023803Y-76804684D01*
X152047007Y-76810496D01*
X152069529Y-76818554D01*
X152091153Y-76828782D01*
X152111670Y-76841079D01*
X152130883Y-76855329D01*
X152148607Y-76871393D01*
X152164671Y-76889117D01*
X152178921Y-76908330D01*
X152191218Y-76928847D01*
X152201446Y-76950471D01*
X152209504Y-76972993D01*
X152215316Y-76996197D01*
X152218826Y-77019858D01*
X152220000Y-77043750D01*
X152220000Y-77956250D01*
X152218826Y-77980142D01*
X152215316Y-78003803D01*
X152209504Y-78027007D01*
X152201446Y-78049529D01*
X152191218Y-78071153D01*
X152178921Y-78091670D01*
X152164671Y-78110883D01*
X152148607Y-78128607D01*
X152130883Y-78144671D01*
X152111670Y-78158921D01*
X152091153Y-78171218D01*
X152069529Y-78181446D01*
X152047007Y-78189504D01*
X152023803Y-78195316D01*
X152000142Y-78198826D01*
X151976250Y-78200000D01*
X151488750Y-78200000D01*
X151464858Y-78198826D01*
X151441197Y-78195316D01*
X151417993Y-78189504D01*
X151395471Y-78181446D01*
X151373847Y-78171218D01*
X151353330Y-78158921D01*
X151334117Y-78144671D01*
X151316393Y-78128607D01*
X151300329Y-78110883D01*
X151286079Y-78091670D01*
X151273782Y-78071153D01*
X151263554Y-78049529D01*
X151255496Y-78027007D01*
X151249684Y-78003803D01*
X151246174Y-77980142D01*
X151245000Y-77956250D01*
X151245000Y-77043750D01*
X151246174Y-77019858D01*
X151249684Y-76996197D01*
X151255496Y-76972993D01*
X151263554Y-76950471D01*
X151273782Y-76928847D01*
X151286079Y-76908330D01*
X151300329Y-76889117D01*
X151316393Y-76871393D01*
X151334117Y-76855329D01*
X151353330Y-76841079D01*
X151373847Y-76828782D01*
X151395471Y-76818554D01*
X151417993Y-76810496D01*
X151441197Y-76804684D01*
X151464858Y-76801174D01*
X151488750Y-76800000D01*
X151976250Y-76800000D01*
X152000142Y-76801174D01*
G37*
G36*
X162400142Y-49576174D02*
G01*
X162423803Y-49579684D01*
X162447007Y-49585496D01*
X162469529Y-49593554D01*
X162491153Y-49603782D01*
X162511670Y-49616079D01*
X162530883Y-49630329D01*
X162548607Y-49646393D01*
X162564671Y-49664117D01*
X162578921Y-49683330D01*
X162591218Y-49703847D01*
X162601446Y-49725471D01*
X162609504Y-49747993D01*
X162615316Y-49771197D01*
X162618826Y-49794858D01*
X162620000Y-49818750D01*
X162620000Y-50306250D01*
X162618826Y-50330142D01*
X162615316Y-50353803D01*
X162609504Y-50377007D01*
X162601446Y-50399529D01*
X162591218Y-50421153D01*
X162578921Y-50441670D01*
X162564671Y-50460883D01*
X162548607Y-50478607D01*
X162530883Y-50494671D01*
X162511670Y-50508921D01*
X162491153Y-50521218D01*
X162469529Y-50531446D01*
X162447007Y-50539504D01*
X162423803Y-50545316D01*
X162400142Y-50548826D01*
X162376250Y-50550000D01*
X161463750Y-50550000D01*
X161439858Y-50548826D01*
X161416197Y-50545316D01*
X161392993Y-50539504D01*
X161370471Y-50531446D01*
X161348847Y-50521218D01*
X161328330Y-50508921D01*
X161309117Y-50494671D01*
X161291393Y-50478607D01*
X161275329Y-50460883D01*
X161261079Y-50441670D01*
X161248782Y-50421153D01*
X161238554Y-50399529D01*
X161230496Y-50377007D01*
X161224684Y-50353803D01*
X161221174Y-50330142D01*
X161220000Y-50306250D01*
X161220000Y-49818750D01*
X161221174Y-49794858D01*
X161224684Y-49771197D01*
X161230496Y-49747993D01*
X161238554Y-49725471D01*
X161248782Y-49703847D01*
X161261079Y-49683330D01*
X161275329Y-49664117D01*
X161291393Y-49646393D01*
X161309117Y-49630329D01*
X161328330Y-49616079D01*
X161348847Y-49603782D01*
X161370471Y-49593554D01*
X161392993Y-49585496D01*
X161416197Y-49579684D01*
X161439858Y-49576174D01*
X161463750Y-49575000D01*
X162376250Y-49575000D01*
X162400142Y-49576174D01*
G37*
G36*
X162400142Y-51451174D02*
G01*
X162423803Y-51454684D01*
X162447007Y-51460496D01*
X162469529Y-51468554D01*
X162491153Y-51478782D01*
X162511670Y-51491079D01*
X162530883Y-51505329D01*
X162548607Y-51521393D01*
X162564671Y-51539117D01*
X162578921Y-51558330D01*
X162591218Y-51578847D01*
X162601446Y-51600471D01*
X162609504Y-51622993D01*
X162615316Y-51646197D01*
X162618826Y-51669858D01*
X162620000Y-51693750D01*
X162620000Y-52181250D01*
X162618826Y-52205142D01*
X162615316Y-52228803D01*
X162609504Y-52252007D01*
X162601446Y-52274529D01*
X162591218Y-52296153D01*
X162578921Y-52316670D01*
X162564671Y-52335883D01*
X162548607Y-52353607D01*
X162530883Y-52369671D01*
X162511670Y-52383921D01*
X162491153Y-52396218D01*
X162469529Y-52406446D01*
X162447007Y-52414504D01*
X162423803Y-52420316D01*
X162400142Y-52423826D01*
X162376250Y-52425000D01*
X161463750Y-52425000D01*
X161439858Y-52423826D01*
X161416197Y-52420316D01*
X161392993Y-52414504D01*
X161370471Y-52406446D01*
X161348847Y-52396218D01*
X161328330Y-52383921D01*
X161309117Y-52369671D01*
X161291393Y-52353607D01*
X161275329Y-52335883D01*
X161261079Y-52316670D01*
X161248782Y-52296153D01*
X161238554Y-52274529D01*
X161230496Y-52252007D01*
X161224684Y-52228803D01*
X161221174Y-52205142D01*
X161220000Y-52181250D01*
X161220000Y-51693750D01*
X161221174Y-51669858D01*
X161224684Y-51646197D01*
X161230496Y-51622993D01*
X161238554Y-51600471D01*
X161248782Y-51578847D01*
X161261079Y-51558330D01*
X161275329Y-51539117D01*
X161291393Y-51521393D01*
X161309117Y-51505329D01*
X161328330Y-51491079D01*
X161348847Y-51478782D01*
X161370471Y-51468554D01*
X161392993Y-51460496D01*
X161416197Y-51454684D01*
X161439858Y-51451174D01*
X161463750Y-51450000D01*
X162376250Y-51450000D01*
X162400142Y-51451174D01*
G37*
G36*
X152000142Y-78801174D02*
G01*
X152023803Y-78804684D01*
X152047007Y-78810496D01*
X152069529Y-78818554D01*
X152091153Y-78828782D01*
X152111670Y-78841079D01*
X152130883Y-78855329D01*
X152148607Y-78871393D01*
X152164671Y-78889117D01*
X152178921Y-78908330D01*
X152191218Y-78928847D01*
X152201446Y-78950471D01*
X152209504Y-78972993D01*
X152215316Y-78996197D01*
X152218826Y-79019858D01*
X152220000Y-79043750D01*
X152220000Y-79956250D01*
X152218826Y-79980142D01*
X152215316Y-80003803D01*
X152209504Y-80027007D01*
X152201446Y-80049529D01*
X152191218Y-80071153D01*
X152178921Y-80091670D01*
X152164671Y-80110883D01*
X152148607Y-80128607D01*
X152130883Y-80144671D01*
X152111670Y-80158921D01*
X152091153Y-80171218D01*
X152069529Y-80181446D01*
X152047007Y-80189504D01*
X152023803Y-80195316D01*
X152000142Y-80198826D01*
X151976250Y-80200000D01*
X151488750Y-80200000D01*
X151464858Y-80198826D01*
X151441197Y-80195316D01*
X151417993Y-80189504D01*
X151395471Y-80181446D01*
X151373847Y-80171218D01*
X151353330Y-80158921D01*
X151334117Y-80144671D01*
X151316393Y-80128607D01*
X151300329Y-80110883D01*
X151286079Y-80091670D01*
X151273782Y-80071153D01*
X151263554Y-80049529D01*
X151255496Y-80027007D01*
X151249684Y-80003803D01*
X151246174Y-79980142D01*
X151245000Y-79956250D01*
X151245000Y-79043750D01*
X151246174Y-79019858D01*
X151249684Y-78996197D01*
X151255496Y-78972993D01*
X151263554Y-78950471D01*
X151273782Y-78928847D01*
X151286079Y-78908330D01*
X151300329Y-78889117D01*
X151316393Y-78871393D01*
X151334117Y-78855329D01*
X151353330Y-78841079D01*
X151373847Y-78828782D01*
X151395471Y-78818554D01*
X151417993Y-78810496D01*
X151441197Y-78804684D01*
X151464858Y-78801174D01*
X151488750Y-78800000D01*
X151976250Y-78800000D01*
X152000142Y-78801174D01*
G37*
G36*
X153875142Y-78801174D02*
G01*
X153898803Y-78804684D01*
X153922007Y-78810496D01*
X153944529Y-78818554D01*
X153966153Y-78828782D01*
X153986670Y-78841079D01*
X154005883Y-78855329D01*
X154023607Y-78871393D01*
X154039671Y-78889117D01*
X154053921Y-78908330D01*
X154066218Y-78928847D01*
X154076446Y-78950471D01*
X154084504Y-78972993D01*
X154090316Y-78996197D01*
X154093826Y-79019858D01*
X154095000Y-79043750D01*
X154095000Y-79956250D01*
X154093826Y-79980142D01*
X154090316Y-80003803D01*
X154084504Y-80027007D01*
X154076446Y-80049529D01*
X154066218Y-80071153D01*
X154053921Y-80091670D01*
X154039671Y-80110883D01*
X154023607Y-80128607D01*
X154005883Y-80144671D01*
X153986670Y-80158921D01*
X153966153Y-80171218D01*
X153944529Y-80181446D01*
X153922007Y-80189504D01*
X153898803Y-80195316D01*
X153875142Y-80198826D01*
X153851250Y-80200000D01*
X153363750Y-80200000D01*
X153339858Y-80198826D01*
X153316197Y-80195316D01*
X153292993Y-80189504D01*
X153270471Y-80181446D01*
X153248847Y-80171218D01*
X153228330Y-80158921D01*
X153209117Y-80144671D01*
X153191393Y-80128607D01*
X153175329Y-80110883D01*
X153161079Y-80091670D01*
X153148782Y-80071153D01*
X153138554Y-80049529D01*
X153130496Y-80027007D01*
X153124684Y-80003803D01*
X153121174Y-79980142D01*
X153120000Y-79956250D01*
X153120000Y-79043750D01*
X153121174Y-79019858D01*
X153124684Y-78996197D01*
X153130496Y-78972993D01*
X153138554Y-78950471D01*
X153148782Y-78928847D01*
X153161079Y-78908330D01*
X153175329Y-78889117D01*
X153191393Y-78871393D01*
X153209117Y-78855329D01*
X153228330Y-78841079D01*
X153248847Y-78828782D01*
X153270471Y-78818554D01*
X153292993Y-78810496D01*
X153316197Y-78804684D01*
X153339858Y-78801174D01*
X153363750Y-78800000D01*
X153851250Y-78800000D01*
X153875142Y-78801174D01*
G37*
G36*
X159650142Y-46701174D02*
G01*
X159673803Y-46704684D01*
X159697007Y-46710496D01*
X159719529Y-46718554D01*
X159741153Y-46728782D01*
X159761670Y-46741079D01*
X159780883Y-46755329D01*
X159798607Y-46771393D01*
X159814671Y-46789117D01*
X159828921Y-46808330D01*
X159841218Y-46828847D01*
X159851446Y-46850471D01*
X159859504Y-46872993D01*
X159865316Y-46896197D01*
X159868826Y-46919858D01*
X159870000Y-46943750D01*
X159870000Y-47431250D01*
X159868826Y-47455142D01*
X159865316Y-47478803D01*
X159859504Y-47502007D01*
X159851446Y-47524529D01*
X159841218Y-47546153D01*
X159828921Y-47566670D01*
X159814671Y-47585883D01*
X159798607Y-47603607D01*
X159780883Y-47619671D01*
X159761670Y-47633921D01*
X159741153Y-47646218D01*
X159719529Y-47656446D01*
X159697007Y-47664504D01*
X159673803Y-47670316D01*
X159650142Y-47673826D01*
X159626250Y-47675000D01*
X158713750Y-47675000D01*
X158689858Y-47673826D01*
X158666197Y-47670316D01*
X158642993Y-47664504D01*
X158620471Y-47656446D01*
X158598847Y-47646218D01*
X158578330Y-47633921D01*
X158559117Y-47619671D01*
X158541393Y-47603607D01*
X158525329Y-47585883D01*
X158511079Y-47566670D01*
X158498782Y-47546153D01*
X158488554Y-47524529D01*
X158480496Y-47502007D01*
X158474684Y-47478803D01*
X158471174Y-47455142D01*
X158470000Y-47431250D01*
X158470000Y-46943750D01*
X158471174Y-46919858D01*
X158474684Y-46896197D01*
X158480496Y-46872993D01*
X158488554Y-46850471D01*
X158498782Y-46828847D01*
X158511079Y-46808330D01*
X158525329Y-46789117D01*
X158541393Y-46771393D01*
X158559117Y-46755329D01*
X158578330Y-46741079D01*
X158598847Y-46728782D01*
X158620471Y-46718554D01*
X158642993Y-46710496D01*
X158666197Y-46704684D01*
X158689858Y-46701174D01*
X158713750Y-46700000D01*
X159626250Y-46700000D01*
X159650142Y-46701174D01*
G37*
G36*
X159650142Y-44826174D02*
G01*
X159673803Y-44829684D01*
X159697007Y-44835496D01*
X159719529Y-44843554D01*
X159741153Y-44853782D01*
X159761670Y-44866079D01*
X159780883Y-44880329D01*
X159798607Y-44896393D01*
X159814671Y-44914117D01*
X159828921Y-44933330D01*
X159841218Y-44953847D01*
X159851446Y-44975471D01*
X159859504Y-44997993D01*
X159865316Y-45021197D01*
X159868826Y-45044858D01*
X159870000Y-45068750D01*
X159870000Y-45556250D01*
X159868826Y-45580142D01*
X159865316Y-45603803D01*
X159859504Y-45627007D01*
X159851446Y-45649529D01*
X159841218Y-45671153D01*
X159828921Y-45691670D01*
X159814671Y-45710883D01*
X159798607Y-45728607D01*
X159780883Y-45744671D01*
X159761670Y-45758921D01*
X159741153Y-45771218D01*
X159719529Y-45781446D01*
X159697007Y-45789504D01*
X159673803Y-45795316D01*
X159650142Y-45798826D01*
X159626250Y-45800000D01*
X158713750Y-45800000D01*
X158689858Y-45798826D01*
X158666197Y-45795316D01*
X158642993Y-45789504D01*
X158620471Y-45781446D01*
X158598847Y-45771218D01*
X158578330Y-45758921D01*
X158559117Y-45744671D01*
X158541393Y-45728607D01*
X158525329Y-45710883D01*
X158511079Y-45691670D01*
X158498782Y-45671153D01*
X158488554Y-45649529D01*
X158480496Y-45627007D01*
X158474684Y-45603803D01*
X158471174Y-45580142D01*
X158470000Y-45556250D01*
X158470000Y-45068750D01*
X158471174Y-45044858D01*
X158474684Y-45021197D01*
X158480496Y-44997993D01*
X158488554Y-44975471D01*
X158498782Y-44953847D01*
X158511079Y-44933330D01*
X158525329Y-44914117D01*
X158541393Y-44896393D01*
X158559117Y-44880329D01*
X158578330Y-44866079D01*
X158598847Y-44853782D01*
X158620471Y-44843554D01*
X158642993Y-44835496D01*
X158666197Y-44829684D01*
X158689858Y-44826174D01*
X158713750Y-44825000D01*
X159626250Y-44825000D01*
X159650142Y-44826174D01*
G37*
G36*
X159875142Y-71301174D02*
G01*
X159898803Y-71304684D01*
X159922007Y-71310496D01*
X159944529Y-71318554D01*
X159966153Y-71328782D01*
X159986670Y-71341079D01*
X160005883Y-71355329D01*
X160023607Y-71371393D01*
X160039671Y-71389117D01*
X160053921Y-71408330D01*
X160066218Y-71428847D01*
X160076446Y-71450471D01*
X160084504Y-71472993D01*
X160090316Y-71496197D01*
X160093826Y-71519858D01*
X160095000Y-71543750D01*
X160095000Y-72456250D01*
X160093826Y-72480142D01*
X160090316Y-72503803D01*
X160084504Y-72527007D01*
X160076446Y-72549529D01*
X160066218Y-72571153D01*
X160053921Y-72591670D01*
X160039671Y-72610883D01*
X160023607Y-72628607D01*
X160005883Y-72644671D01*
X159986670Y-72658921D01*
X159966153Y-72671218D01*
X159944529Y-72681446D01*
X159922007Y-72689504D01*
X159898803Y-72695316D01*
X159875142Y-72698826D01*
X159851250Y-72700000D01*
X159363750Y-72700000D01*
X159339858Y-72698826D01*
X159316197Y-72695316D01*
X159292993Y-72689504D01*
X159270471Y-72681446D01*
X159248847Y-72671218D01*
X159228330Y-72658921D01*
X159209117Y-72644671D01*
X159191393Y-72628607D01*
X159175329Y-72610883D01*
X159161079Y-72591670D01*
X159148782Y-72571153D01*
X159138554Y-72549529D01*
X159130496Y-72527007D01*
X159124684Y-72503803D01*
X159121174Y-72480142D01*
X159120000Y-72456250D01*
X159120000Y-71543750D01*
X159121174Y-71519858D01*
X159124684Y-71496197D01*
X159130496Y-71472993D01*
X159138554Y-71450471D01*
X159148782Y-71428847D01*
X159161079Y-71408330D01*
X159175329Y-71389117D01*
X159191393Y-71371393D01*
X159209117Y-71355329D01*
X159228330Y-71341079D01*
X159248847Y-71328782D01*
X159270471Y-71318554D01*
X159292993Y-71310496D01*
X159316197Y-71304684D01*
X159339858Y-71301174D01*
X159363750Y-71300000D01*
X159851250Y-71300000D01*
X159875142Y-71301174D01*
G37*
G36*
X158000142Y-71301174D02*
G01*
X158023803Y-71304684D01*
X158047007Y-71310496D01*
X158069529Y-71318554D01*
X158091153Y-71328782D01*
X158111670Y-71341079D01*
X158130883Y-71355329D01*
X158148607Y-71371393D01*
X158164671Y-71389117D01*
X158178921Y-71408330D01*
X158191218Y-71428847D01*
X158201446Y-71450471D01*
X158209504Y-71472993D01*
X158215316Y-71496197D01*
X158218826Y-71519858D01*
X158220000Y-71543750D01*
X158220000Y-72456250D01*
X158218826Y-72480142D01*
X158215316Y-72503803D01*
X158209504Y-72527007D01*
X158201446Y-72549529D01*
X158191218Y-72571153D01*
X158178921Y-72591670D01*
X158164671Y-72610883D01*
X158148607Y-72628607D01*
X158130883Y-72644671D01*
X158111670Y-72658921D01*
X158091153Y-72671218D01*
X158069529Y-72681446D01*
X158047007Y-72689504D01*
X158023803Y-72695316D01*
X158000142Y-72698826D01*
X157976250Y-72700000D01*
X157488750Y-72700000D01*
X157464858Y-72698826D01*
X157441197Y-72695316D01*
X157417993Y-72689504D01*
X157395471Y-72681446D01*
X157373847Y-72671218D01*
X157353330Y-72658921D01*
X157334117Y-72644671D01*
X157316393Y-72628607D01*
X157300329Y-72610883D01*
X157286079Y-72591670D01*
X157273782Y-72571153D01*
X157263554Y-72549529D01*
X157255496Y-72527007D01*
X157249684Y-72503803D01*
X157246174Y-72480142D01*
X157245000Y-72456250D01*
X157245000Y-71543750D01*
X157246174Y-71519858D01*
X157249684Y-71496197D01*
X157255496Y-71472993D01*
X157263554Y-71450471D01*
X157273782Y-71428847D01*
X157286079Y-71408330D01*
X157300329Y-71389117D01*
X157316393Y-71371393D01*
X157334117Y-71355329D01*
X157353330Y-71341079D01*
X157373847Y-71328782D01*
X157395471Y-71318554D01*
X157417993Y-71310496D01*
X157441197Y-71304684D01*
X157464858Y-71301174D01*
X157488750Y-71300000D01*
X157976250Y-71300000D01*
X158000142Y-71301174D01*
G37*
G36*
X161650142Y-58076174D02*
G01*
X161673803Y-58079684D01*
X161697007Y-58085496D01*
X161719529Y-58093554D01*
X161741153Y-58103782D01*
X161761670Y-58116079D01*
X161780883Y-58130329D01*
X161798607Y-58146393D01*
X161814671Y-58164117D01*
X161828921Y-58183330D01*
X161841218Y-58203847D01*
X161851446Y-58225471D01*
X161859504Y-58247993D01*
X161865316Y-58271197D01*
X161868826Y-58294858D01*
X161870000Y-58318750D01*
X161870000Y-58806250D01*
X161868826Y-58830142D01*
X161865316Y-58853803D01*
X161859504Y-58877007D01*
X161851446Y-58899529D01*
X161841218Y-58921153D01*
X161828921Y-58941670D01*
X161814671Y-58960883D01*
X161798607Y-58978607D01*
X161780883Y-58994671D01*
X161761670Y-59008921D01*
X161741153Y-59021218D01*
X161719529Y-59031446D01*
X161697007Y-59039504D01*
X161673803Y-59045316D01*
X161650142Y-59048826D01*
X161626250Y-59050000D01*
X160713750Y-59050000D01*
X160689858Y-59048826D01*
X160666197Y-59045316D01*
X160642993Y-59039504D01*
X160620471Y-59031446D01*
X160598847Y-59021218D01*
X160578330Y-59008921D01*
X160559117Y-58994671D01*
X160541393Y-58978607D01*
X160525329Y-58960883D01*
X160511079Y-58941670D01*
X160498782Y-58921153D01*
X160488554Y-58899529D01*
X160480496Y-58877007D01*
X160474684Y-58853803D01*
X160471174Y-58830142D01*
X160470000Y-58806250D01*
X160470000Y-58318750D01*
X160471174Y-58294858D01*
X160474684Y-58271197D01*
X160480496Y-58247993D01*
X160488554Y-58225471D01*
X160498782Y-58203847D01*
X160511079Y-58183330D01*
X160525329Y-58164117D01*
X160541393Y-58146393D01*
X160559117Y-58130329D01*
X160578330Y-58116079D01*
X160598847Y-58103782D01*
X160620471Y-58093554D01*
X160642993Y-58085496D01*
X160666197Y-58079684D01*
X160689858Y-58076174D01*
X160713750Y-58075000D01*
X161626250Y-58075000D01*
X161650142Y-58076174D01*
G37*
G36*
X161650142Y-59951174D02*
G01*
X161673803Y-59954684D01*
X161697007Y-59960496D01*
X161719529Y-59968554D01*
X161741153Y-59978782D01*
X161761670Y-59991079D01*
X161780883Y-60005329D01*
X161798607Y-60021393D01*
X161814671Y-60039117D01*
X161828921Y-60058330D01*
X161841218Y-60078847D01*
X161851446Y-60100471D01*
X161859504Y-60122993D01*
X161865316Y-60146197D01*
X161868826Y-60169858D01*
X161870000Y-60193750D01*
X161870000Y-60681250D01*
X161868826Y-60705142D01*
X161865316Y-60728803D01*
X161859504Y-60752007D01*
X161851446Y-60774529D01*
X161841218Y-60796153D01*
X161828921Y-60816670D01*
X161814671Y-60835883D01*
X161798607Y-60853607D01*
X161780883Y-60869671D01*
X161761670Y-60883921D01*
X161741153Y-60896218D01*
X161719529Y-60906446D01*
X161697007Y-60914504D01*
X161673803Y-60920316D01*
X161650142Y-60923826D01*
X161626250Y-60925000D01*
X160713750Y-60925000D01*
X160689858Y-60923826D01*
X160666197Y-60920316D01*
X160642993Y-60914504D01*
X160620471Y-60906446D01*
X160598847Y-60896218D01*
X160578330Y-60883921D01*
X160559117Y-60869671D01*
X160541393Y-60853607D01*
X160525329Y-60835883D01*
X160511079Y-60816670D01*
X160498782Y-60796153D01*
X160488554Y-60774529D01*
X160480496Y-60752007D01*
X160474684Y-60728803D01*
X160471174Y-60705142D01*
X160470000Y-60681250D01*
X160470000Y-60193750D01*
X160471174Y-60169858D01*
X160474684Y-60146197D01*
X160480496Y-60122993D01*
X160488554Y-60100471D01*
X160498782Y-60078847D01*
X160511079Y-60058330D01*
X160525329Y-60039117D01*
X160541393Y-60021393D01*
X160559117Y-60005329D01*
X160578330Y-59991079D01*
X160598847Y-59978782D01*
X160620471Y-59968554D01*
X160642993Y-59960496D01*
X160666197Y-59954684D01*
X160689858Y-59951174D01*
X160713750Y-59950000D01*
X161626250Y-59950000D01*
X161650142Y-59951174D01*
G37*
G36*
X168875142Y-61801174D02*
G01*
X168898803Y-61804684D01*
X168922007Y-61810496D01*
X168944529Y-61818554D01*
X168966153Y-61828782D01*
X168986670Y-61841079D01*
X169005883Y-61855329D01*
X169023607Y-61871393D01*
X169039671Y-61889117D01*
X169053921Y-61908330D01*
X169066218Y-61928847D01*
X169076446Y-61950471D01*
X169084504Y-61972993D01*
X169090316Y-61996197D01*
X169093826Y-62019858D01*
X169095000Y-62043750D01*
X169095000Y-62956250D01*
X169093826Y-62980142D01*
X169090316Y-63003803D01*
X169084504Y-63027007D01*
X169076446Y-63049529D01*
X169066218Y-63071153D01*
X169053921Y-63091670D01*
X169039671Y-63110883D01*
X169023607Y-63128607D01*
X169005883Y-63144671D01*
X168986670Y-63158921D01*
X168966153Y-63171218D01*
X168944529Y-63181446D01*
X168922007Y-63189504D01*
X168898803Y-63195316D01*
X168875142Y-63198826D01*
X168851250Y-63200000D01*
X168363750Y-63200000D01*
X168339858Y-63198826D01*
X168316197Y-63195316D01*
X168292993Y-63189504D01*
X168270471Y-63181446D01*
X168248847Y-63171218D01*
X168228330Y-63158921D01*
X168209117Y-63144671D01*
X168191393Y-63128607D01*
X168175329Y-63110883D01*
X168161079Y-63091670D01*
X168148782Y-63071153D01*
X168138554Y-63049529D01*
X168130496Y-63027007D01*
X168124684Y-63003803D01*
X168121174Y-62980142D01*
X168120000Y-62956250D01*
X168120000Y-62043750D01*
X168121174Y-62019858D01*
X168124684Y-61996197D01*
X168130496Y-61972993D01*
X168138554Y-61950471D01*
X168148782Y-61928847D01*
X168161079Y-61908330D01*
X168175329Y-61889117D01*
X168191393Y-61871393D01*
X168209117Y-61855329D01*
X168228330Y-61841079D01*
X168248847Y-61828782D01*
X168270471Y-61818554D01*
X168292993Y-61810496D01*
X168316197Y-61804684D01*
X168339858Y-61801174D01*
X168363750Y-61800000D01*
X168851250Y-61800000D01*
X168875142Y-61801174D01*
G37*
G36*
X167000142Y-61801174D02*
G01*
X167023803Y-61804684D01*
X167047007Y-61810496D01*
X167069529Y-61818554D01*
X167091153Y-61828782D01*
X167111670Y-61841079D01*
X167130883Y-61855329D01*
X167148607Y-61871393D01*
X167164671Y-61889117D01*
X167178921Y-61908330D01*
X167191218Y-61928847D01*
X167201446Y-61950471D01*
X167209504Y-61972993D01*
X167215316Y-61996197D01*
X167218826Y-62019858D01*
X167220000Y-62043750D01*
X167220000Y-62956250D01*
X167218826Y-62980142D01*
X167215316Y-63003803D01*
X167209504Y-63027007D01*
X167201446Y-63049529D01*
X167191218Y-63071153D01*
X167178921Y-63091670D01*
X167164671Y-63110883D01*
X167148607Y-63128607D01*
X167130883Y-63144671D01*
X167111670Y-63158921D01*
X167091153Y-63171218D01*
X167069529Y-63181446D01*
X167047007Y-63189504D01*
X167023803Y-63195316D01*
X167000142Y-63198826D01*
X166976250Y-63200000D01*
X166488750Y-63200000D01*
X166464858Y-63198826D01*
X166441197Y-63195316D01*
X166417993Y-63189504D01*
X166395471Y-63181446D01*
X166373847Y-63171218D01*
X166353330Y-63158921D01*
X166334117Y-63144671D01*
X166316393Y-63128607D01*
X166300329Y-63110883D01*
X166286079Y-63091670D01*
X166273782Y-63071153D01*
X166263554Y-63049529D01*
X166255496Y-63027007D01*
X166249684Y-63003803D01*
X166246174Y-62980142D01*
X166245000Y-62956250D01*
X166245000Y-62043750D01*
X166246174Y-62019858D01*
X166249684Y-61996197D01*
X166255496Y-61972993D01*
X166263554Y-61950471D01*
X166273782Y-61928847D01*
X166286079Y-61908330D01*
X166300329Y-61889117D01*
X166316393Y-61871393D01*
X166334117Y-61855329D01*
X166353330Y-61841079D01*
X166373847Y-61828782D01*
X166395471Y-61818554D01*
X166417993Y-61810496D01*
X166441197Y-61804684D01*
X166464858Y-61801174D01*
X166488750Y-61800000D01*
X166976250Y-61800000D01*
X167000142Y-61801174D01*
G37*
G36*
X168875142Y-68551174D02*
G01*
X168898803Y-68554684D01*
X168922007Y-68560496D01*
X168944529Y-68568554D01*
X168966153Y-68578782D01*
X168986670Y-68591079D01*
X169005883Y-68605329D01*
X169023607Y-68621393D01*
X169039671Y-68639117D01*
X169053921Y-68658330D01*
X169066218Y-68678847D01*
X169076446Y-68700471D01*
X169084504Y-68722993D01*
X169090316Y-68746197D01*
X169093826Y-68769858D01*
X169095000Y-68793750D01*
X169095000Y-69706250D01*
X169093826Y-69730142D01*
X169090316Y-69753803D01*
X169084504Y-69777007D01*
X169076446Y-69799529D01*
X169066218Y-69821153D01*
X169053921Y-69841670D01*
X169039671Y-69860883D01*
X169023607Y-69878607D01*
X169005883Y-69894671D01*
X168986670Y-69908921D01*
X168966153Y-69921218D01*
X168944529Y-69931446D01*
X168922007Y-69939504D01*
X168898803Y-69945316D01*
X168875142Y-69948826D01*
X168851250Y-69950000D01*
X168363750Y-69950000D01*
X168339858Y-69948826D01*
X168316197Y-69945316D01*
X168292993Y-69939504D01*
X168270471Y-69931446D01*
X168248847Y-69921218D01*
X168228330Y-69908921D01*
X168209117Y-69894671D01*
X168191393Y-69878607D01*
X168175329Y-69860883D01*
X168161079Y-69841670D01*
X168148782Y-69821153D01*
X168138554Y-69799529D01*
X168130496Y-69777007D01*
X168124684Y-69753803D01*
X168121174Y-69730142D01*
X168120000Y-69706250D01*
X168120000Y-68793750D01*
X168121174Y-68769858D01*
X168124684Y-68746197D01*
X168130496Y-68722993D01*
X168138554Y-68700471D01*
X168148782Y-68678847D01*
X168161079Y-68658330D01*
X168175329Y-68639117D01*
X168191393Y-68621393D01*
X168209117Y-68605329D01*
X168228330Y-68591079D01*
X168248847Y-68578782D01*
X168270471Y-68568554D01*
X168292993Y-68560496D01*
X168316197Y-68554684D01*
X168339858Y-68551174D01*
X168363750Y-68550000D01*
X168851250Y-68550000D01*
X168875142Y-68551174D01*
G37*
G36*
X167000142Y-68551174D02*
G01*
X167023803Y-68554684D01*
X167047007Y-68560496D01*
X167069529Y-68568554D01*
X167091153Y-68578782D01*
X167111670Y-68591079D01*
X167130883Y-68605329D01*
X167148607Y-68621393D01*
X167164671Y-68639117D01*
X167178921Y-68658330D01*
X167191218Y-68678847D01*
X167201446Y-68700471D01*
X167209504Y-68722993D01*
X167215316Y-68746197D01*
X167218826Y-68769858D01*
X167220000Y-68793750D01*
X167220000Y-69706250D01*
X167218826Y-69730142D01*
X167215316Y-69753803D01*
X167209504Y-69777007D01*
X167201446Y-69799529D01*
X167191218Y-69821153D01*
X167178921Y-69841670D01*
X167164671Y-69860883D01*
X167148607Y-69878607D01*
X167130883Y-69894671D01*
X167111670Y-69908921D01*
X167091153Y-69921218D01*
X167069529Y-69931446D01*
X167047007Y-69939504D01*
X167023803Y-69945316D01*
X167000142Y-69948826D01*
X166976250Y-69950000D01*
X166488750Y-69950000D01*
X166464858Y-69948826D01*
X166441197Y-69945316D01*
X166417993Y-69939504D01*
X166395471Y-69931446D01*
X166373847Y-69921218D01*
X166353330Y-69908921D01*
X166334117Y-69894671D01*
X166316393Y-69878607D01*
X166300329Y-69860883D01*
X166286079Y-69841670D01*
X166273782Y-69821153D01*
X166263554Y-69799529D01*
X166255496Y-69777007D01*
X166249684Y-69753803D01*
X166246174Y-69730142D01*
X166245000Y-69706250D01*
X166245000Y-68793750D01*
X166246174Y-68769858D01*
X166249684Y-68746197D01*
X166255496Y-68722993D01*
X166263554Y-68700471D01*
X166273782Y-68678847D01*
X166286079Y-68658330D01*
X166300329Y-68639117D01*
X166316393Y-68621393D01*
X166334117Y-68605329D01*
X166353330Y-68591079D01*
X166373847Y-68578782D01*
X166395471Y-68568554D01*
X166417993Y-68560496D01*
X166441197Y-68554684D01*
X166464858Y-68551174D01*
X166488750Y-68550000D01*
X166976250Y-68550000D01*
X167000142Y-68551174D01*
G37*
G36*
X168250142Y-75801174D02*
G01*
X168273803Y-75804684D01*
X168297007Y-75810496D01*
X168319529Y-75818554D01*
X168341153Y-75828782D01*
X168361670Y-75841079D01*
X168380883Y-75855329D01*
X168398607Y-75871393D01*
X168414671Y-75889117D01*
X168428921Y-75908330D01*
X168441218Y-75928847D01*
X168451446Y-75950471D01*
X168459504Y-75972993D01*
X168465316Y-75996197D01*
X168468826Y-76019858D01*
X168470000Y-76043750D01*
X168470000Y-76956250D01*
X168468826Y-76980142D01*
X168465316Y-77003803D01*
X168459504Y-77027007D01*
X168451446Y-77049529D01*
X168441218Y-77071153D01*
X168428921Y-77091670D01*
X168414671Y-77110883D01*
X168398607Y-77128607D01*
X168380883Y-77144671D01*
X168361670Y-77158921D01*
X168341153Y-77171218D01*
X168319529Y-77181446D01*
X168297007Y-77189504D01*
X168273803Y-77195316D01*
X168250142Y-77198826D01*
X168226250Y-77200000D01*
X167738750Y-77200000D01*
X167714858Y-77198826D01*
X167691197Y-77195316D01*
X167667993Y-77189504D01*
X167645471Y-77181446D01*
X167623847Y-77171218D01*
X167603330Y-77158921D01*
X167584117Y-77144671D01*
X167566393Y-77128607D01*
X167550329Y-77110883D01*
X167536079Y-77091670D01*
X167523782Y-77071153D01*
X167513554Y-77049529D01*
X167505496Y-77027007D01*
X167499684Y-77003803D01*
X167496174Y-76980142D01*
X167495000Y-76956250D01*
X167495000Y-76043750D01*
X167496174Y-76019858D01*
X167499684Y-75996197D01*
X167505496Y-75972993D01*
X167513554Y-75950471D01*
X167523782Y-75928847D01*
X167536079Y-75908330D01*
X167550329Y-75889117D01*
X167566393Y-75871393D01*
X167584117Y-75855329D01*
X167603330Y-75841079D01*
X167623847Y-75828782D01*
X167645471Y-75818554D01*
X167667993Y-75810496D01*
X167691197Y-75804684D01*
X167714858Y-75801174D01*
X167738750Y-75800000D01*
X168226250Y-75800000D01*
X168250142Y-75801174D01*
G37*
G36*
X170125142Y-75801174D02*
G01*
X170148803Y-75804684D01*
X170172007Y-75810496D01*
X170194529Y-75818554D01*
X170216153Y-75828782D01*
X170236670Y-75841079D01*
X170255883Y-75855329D01*
X170273607Y-75871393D01*
X170289671Y-75889117D01*
X170303921Y-75908330D01*
X170316218Y-75928847D01*
X170326446Y-75950471D01*
X170334504Y-75972993D01*
X170340316Y-75996197D01*
X170343826Y-76019858D01*
X170345000Y-76043750D01*
X170345000Y-76956250D01*
X170343826Y-76980142D01*
X170340316Y-77003803D01*
X170334504Y-77027007D01*
X170326446Y-77049529D01*
X170316218Y-77071153D01*
X170303921Y-77091670D01*
X170289671Y-77110883D01*
X170273607Y-77128607D01*
X170255883Y-77144671D01*
X170236670Y-77158921D01*
X170216153Y-77171218D01*
X170194529Y-77181446D01*
X170172007Y-77189504D01*
X170148803Y-77195316D01*
X170125142Y-77198826D01*
X170101250Y-77200000D01*
X169613750Y-77200000D01*
X169589858Y-77198826D01*
X169566197Y-77195316D01*
X169542993Y-77189504D01*
X169520471Y-77181446D01*
X169498847Y-77171218D01*
X169478330Y-77158921D01*
X169459117Y-77144671D01*
X169441393Y-77128607D01*
X169425329Y-77110883D01*
X169411079Y-77091670D01*
X169398782Y-77071153D01*
X169388554Y-77049529D01*
X169380496Y-77027007D01*
X169374684Y-77003803D01*
X169371174Y-76980142D01*
X169370000Y-76956250D01*
X169370000Y-76043750D01*
X169371174Y-76019858D01*
X169374684Y-75996197D01*
X169380496Y-75972993D01*
X169388554Y-75950471D01*
X169398782Y-75928847D01*
X169411079Y-75908330D01*
X169425329Y-75889117D01*
X169441393Y-75871393D01*
X169459117Y-75855329D01*
X169478330Y-75841079D01*
X169498847Y-75828782D01*
X169520471Y-75818554D01*
X169542993Y-75810496D01*
X169566197Y-75804684D01*
X169589858Y-75801174D01*
X169613750Y-75800000D01*
X170101250Y-75800000D01*
X170125142Y-75801174D01*
G37*
G36*
X169625142Y-57301174D02*
G01*
X169648803Y-57304684D01*
X169672007Y-57310496D01*
X169694529Y-57318554D01*
X169716153Y-57328782D01*
X169736670Y-57341079D01*
X169755883Y-57355329D01*
X169773607Y-57371393D01*
X169789671Y-57389117D01*
X169803921Y-57408330D01*
X169816218Y-57428847D01*
X169826446Y-57450471D01*
X169834504Y-57472993D01*
X169840316Y-57496197D01*
X169843826Y-57519858D01*
X169845000Y-57543750D01*
X169845000Y-58456250D01*
X169843826Y-58480142D01*
X169840316Y-58503803D01*
X169834504Y-58527007D01*
X169826446Y-58549529D01*
X169816218Y-58571153D01*
X169803921Y-58591670D01*
X169789671Y-58610883D01*
X169773607Y-58628607D01*
X169755883Y-58644671D01*
X169736670Y-58658921D01*
X169716153Y-58671218D01*
X169694529Y-58681446D01*
X169672007Y-58689504D01*
X169648803Y-58695316D01*
X169625142Y-58698826D01*
X169601250Y-58700000D01*
X169113750Y-58700000D01*
X169089858Y-58698826D01*
X169066197Y-58695316D01*
X169042993Y-58689504D01*
X169020471Y-58681446D01*
X168998847Y-58671218D01*
X168978330Y-58658921D01*
X168959117Y-58644671D01*
X168941393Y-58628607D01*
X168925329Y-58610883D01*
X168911079Y-58591670D01*
X168898782Y-58571153D01*
X168888554Y-58549529D01*
X168880496Y-58527007D01*
X168874684Y-58503803D01*
X168871174Y-58480142D01*
X168870000Y-58456250D01*
X168870000Y-57543750D01*
X168871174Y-57519858D01*
X168874684Y-57496197D01*
X168880496Y-57472993D01*
X168888554Y-57450471D01*
X168898782Y-57428847D01*
X168911079Y-57408330D01*
X168925329Y-57389117D01*
X168941393Y-57371393D01*
X168959117Y-57355329D01*
X168978330Y-57341079D01*
X168998847Y-57328782D01*
X169020471Y-57318554D01*
X169042993Y-57310496D01*
X169066197Y-57304684D01*
X169089858Y-57301174D01*
X169113750Y-57300000D01*
X169601250Y-57300000D01*
X169625142Y-57301174D01*
G37*
G36*
X167750142Y-57301174D02*
G01*
X167773803Y-57304684D01*
X167797007Y-57310496D01*
X167819529Y-57318554D01*
X167841153Y-57328782D01*
X167861670Y-57341079D01*
X167880883Y-57355329D01*
X167898607Y-57371393D01*
X167914671Y-57389117D01*
X167928921Y-57408330D01*
X167941218Y-57428847D01*
X167951446Y-57450471D01*
X167959504Y-57472993D01*
X167965316Y-57496197D01*
X167968826Y-57519858D01*
X167970000Y-57543750D01*
X167970000Y-58456250D01*
X167968826Y-58480142D01*
X167965316Y-58503803D01*
X167959504Y-58527007D01*
X167951446Y-58549529D01*
X167941218Y-58571153D01*
X167928921Y-58591670D01*
X167914671Y-58610883D01*
X167898607Y-58628607D01*
X167880883Y-58644671D01*
X167861670Y-58658921D01*
X167841153Y-58671218D01*
X167819529Y-58681446D01*
X167797007Y-58689504D01*
X167773803Y-58695316D01*
X167750142Y-58698826D01*
X167726250Y-58700000D01*
X167238750Y-58700000D01*
X167214858Y-58698826D01*
X167191197Y-58695316D01*
X167167993Y-58689504D01*
X167145471Y-58681446D01*
X167123847Y-58671218D01*
X167103330Y-58658921D01*
X167084117Y-58644671D01*
X167066393Y-58628607D01*
X167050329Y-58610883D01*
X167036079Y-58591670D01*
X167023782Y-58571153D01*
X167013554Y-58549529D01*
X167005496Y-58527007D01*
X166999684Y-58503803D01*
X166996174Y-58480142D01*
X166995000Y-58456250D01*
X166995000Y-57543750D01*
X166996174Y-57519858D01*
X166999684Y-57496197D01*
X167005496Y-57472993D01*
X167013554Y-57450471D01*
X167023782Y-57428847D01*
X167036079Y-57408330D01*
X167050329Y-57389117D01*
X167066393Y-57371393D01*
X167084117Y-57355329D01*
X167103330Y-57341079D01*
X167123847Y-57328782D01*
X167145471Y-57318554D01*
X167167993Y-57310496D01*
X167191197Y-57304684D01*
X167214858Y-57301174D01*
X167238750Y-57300000D01*
X167726250Y-57300000D01*
X167750142Y-57301174D01*
G37*
G36*
X159150142Y-61826174D02*
G01*
X159173803Y-61829684D01*
X159197007Y-61835496D01*
X159219529Y-61843554D01*
X159241153Y-61853782D01*
X159261670Y-61866079D01*
X159280883Y-61880329D01*
X159298607Y-61896393D01*
X159314671Y-61914117D01*
X159328921Y-61933330D01*
X159341218Y-61953847D01*
X159351446Y-61975471D01*
X159359504Y-61997993D01*
X159365316Y-62021197D01*
X159368826Y-62044858D01*
X159370000Y-62068750D01*
X159370000Y-62556250D01*
X159368826Y-62580142D01*
X159365316Y-62603803D01*
X159359504Y-62627007D01*
X159351446Y-62649529D01*
X159341218Y-62671153D01*
X159328921Y-62691670D01*
X159314671Y-62710883D01*
X159298607Y-62728607D01*
X159280883Y-62744671D01*
X159261670Y-62758921D01*
X159241153Y-62771218D01*
X159219529Y-62781446D01*
X159197007Y-62789504D01*
X159173803Y-62795316D01*
X159150142Y-62798826D01*
X159126250Y-62800000D01*
X158213750Y-62800000D01*
X158189858Y-62798826D01*
X158166197Y-62795316D01*
X158142993Y-62789504D01*
X158120471Y-62781446D01*
X158098847Y-62771218D01*
X158078330Y-62758921D01*
X158059117Y-62744671D01*
X158041393Y-62728607D01*
X158025329Y-62710883D01*
X158011079Y-62691670D01*
X157998782Y-62671153D01*
X157988554Y-62649529D01*
X157980496Y-62627007D01*
X157974684Y-62603803D01*
X157971174Y-62580142D01*
X157970000Y-62556250D01*
X157970000Y-62068750D01*
X157971174Y-62044858D01*
X157974684Y-62021197D01*
X157980496Y-61997993D01*
X157988554Y-61975471D01*
X157998782Y-61953847D01*
X158011079Y-61933330D01*
X158025329Y-61914117D01*
X158041393Y-61896393D01*
X158059117Y-61880329D01*
X158078330Y-61866079D01*
X158098847Y-61853782D01*
X158120471Y-61843554D01*
X158142993Y-61835496D01*
X158166197Y-61829684D01*
X158189858Y-61826174D01*
X158213750Y-61825000D01*
X159126250Y-61825000D01*
X159150142Y-61826174D01*
G37*
G36*
X159150142Y-63701174D02*
G01*
X159173803Y-63704684D01*
X159197007Y-63710496D01*
X159219529Y-63718554D01*
X159241153Y-63728782D01*
X159261670Y-63741079D01*
X159280883Y-63755329D01*
X159298607Y-63771393D01*
X159314671Y-63789117D01*
X159328921Y-63808330D01*
X159341218Y-63828847D01*
X159351446Y-63850471D01*
X159359504Y-63872993D01*
X159365316Y-63896197D01*
X159368826Y-63919858D01*
X159370000Y-63943750D01*
X159370000Y-64431250D01*
X159368826Y-64455142D01*
X159365316Y-64478803D01*
X159359504Y-64502007D01*
X159351446Y-64524529D01*
X159341218Y-64546153D01*
X159328921Y-64566670D01*
X159314671Y-64585883D01*
X159298607Y-64603607D01*
X159280883Y-64619671D01*
X159261670Y-64633921D01*
X159241153Y-64646218D01*
X159219529Y-64656446D01*
X159197007Y-64664504D01*
X159173803Y-64670316D01*
X159150142Y-64673826D01*
X159126250Y-64675000D01*
X158213750Y-64675000D01*
X158189858Y-64673826D01*
X158166197Y-64670316D01*
X158142993Y-64664504D01*
X158120471Y-64656446D01*
X158098847Y-64646218D01*
X158078330Y-64633921D01*
X158059117Y-64619671D01*
X158041393Y-64603607D01*
X158025329Y-64585883D01*
X158011079Y-64566670D01*
X157998782Y-64546153D01*
X157988554Y-64524529D01*
X157980496Y-64502007D01*
X157974684Y-64478803D01*
X157971174Y-64455142D01*
X157970000Y-64431250D01*
X157970000Y-63943750D01*
X157971174Y-63919858D01*
X157974684Y-63896197D01*
X157980496Y-63872993D01*
X157988554Y-63850471D01*
X157998782Y-63828847D01*
X158011079Y-63808330D01*
X158025329Y-63789117D01*
X158041393Y-63771393D01*
X158059117Y-63755329D01*
X158078330Y-63741079D01*
X158098847Y-63728782D01*
X158120471Y-63718554D01*
X158142993Y-63710496D01*
X158166197Y-63704684D01*
X158189858Y-63701174D01*
X158213750Y-63700000D01*
X159126250Y-63700000D01*
X159150142Y-63701174D01*
G37*
G36*
X153400142Y-63701174D02*
G01*
X153423803Y-63704684D01*
X153447007Y-63710496D01*
X153469529Y-63718554D01*
X153491153Y-63728782D01*
X153511670Y-63741079D01*
X153530883Y-63755329D01*
X153548607Y-63771393D01*
X153564671Y-63789117D01*
X153578921Y-63808330D01*
X153591218Y-63828847D01*
X153601446Y-63850471D01*
X153609504Y-63872993D01*
X153615316Y-63896197D01*
X153618826Y-63919858D01*
X153620000Y-63943750D01*
X153620000Y-64431250D01*
X153618826Y-64455142D01*
X153615316Y-64478803D01*
X153609504Y-64502007D01*
X153601446Y-64524529D01*
X153591218Y-64546153D01*
X153578921Y-64566670D01*
X153564671Y-64585883D01*
X153548607Y-64603607D01*
X153530883Y-64619671D01*
X153511670Y-64633921D01*
X153491153Y-64646218D01*
X153469529Y-64656446D01*
X153447007Y-64664504D01*
X153423803Y-64670316D01*
X153400142Y-64673826D01*
X153376250Y-64675000D01*
X152463750Y-64675000D01*
X152439858Y-64673826D01*
X152416197Y-64670316D01*
X152392993Y-64664504D01*
X152370471Y-64656446D01*
X152348847Y-64646218D01*
X152328330Y-64633921D01*
X152309117Y-64619671D01*
X152291393Y-64603607D01*
X152275329Y-64585883D01*
X152261079Y-64566670D01*
X152248782Y-64546153D01*
X152238554Y-64524529D01*
X152230496Y-64502007D01*
X152224684Y-64478803D01*
X152221174Y-64455142D01*
X152220000Y-64431250D01*
X152220000Y-63943750D01*
X152221174Y-63919858D01*
X152224684Y-63896197D01*
X152230496Y-63872993D01*
X152238554Y-63850471D01*
X152248782Y-63828847D01*
X152261079Y-63808330D01*
X152275329Y-63789117D01*
X152291393Y-63771393D01*
X152309117Y-63755329D01*
X152328330Y-63741079D01*
X152348847Y-63728782D01*
X152370471Y-63718554D01*
X152392993Y-63710496D01*
X152416197Y-63704684D01*
X152439858Y-63701174D01*
X152463750Y-63700000D01*
X153376250Y-63700000D01*
X153400142Y-63701174D01*
G37*
G36*
X153400142Y-61826174D02*
G01*
X153423803Y-61829684D01*
X153447007Y-61835496D01*
X153469529Y-61843554D01*
X153491153Y-61853782D01*
X153511670Y-61866079D01*
X153530883Y-61880329D01*
X153548607Y-61896393D01*
X153564671Y-61914117D01*
X153578921Y-61933330D01*
X153591218Y-61953847D01*
X153601446Y-61975471D01*
X153609504Y-61997993D01*
X153615316Y-62021197D01*
X153618826Y-62044858D01*
X153620000Y-62068750D01*
X153620000Y-62556250D01*
X153618826Y-62580142D01*
X153615316Y-62603803D01*
X153609504Y-62627007D01*
X153601446Y-62649529D01*
X153591218Y-62671153D01*
X153578921Y-62691670D01*
X153564671Y-62710883D01*
X153548607Y-62728607D01*
X153530883Y-62744671D01*
X153511670Y-62758921D01*
X153491153Y-62771218D01*
X153469529Y-62781446D01*
X153447007Y-62789504D01*
X153423803Y-62795316D01*
X153400142Y-62798826D01*
X153376250Y-62800000D01*
X152463750Y-62800000D01*
X152439858Y-62798826D01*
X152416197Y-62795316D01*
X152392993Y-62789504D01*
X152370471Y-62781446D01*
X152348847Y-62771218D01*
X152328330Y-62758921D01*
X152309117Y-62744671D01*
X152291393Y-62728607D01*
X152275329Y-62710883D01*
X152261079Y-62691670D01*
X152248782Y-62671153D01*
X152238554Y-62649529D01*
X152230496Y-62627007D01*
X152224684Y-62603803D01*
X152221174Y-62580142D01*
X152220000Y-62556250D01*
X152220000Y-62068750D01*
X152221174Y-62044858D01*
X152224684Y-62021197D01*
X152230496Y-61997993D01*
X152238554Y-61975471D01*
X152248782Y-61953847D01*
X152261079Y-61933330D01*
X152275329Y-61914117D01*
X152291393Y-61896393D01*
X152309117Y-61880329D01*
X152328330Y-61866079D01*
X152348847Y-61853782D01*
X152370471Y-61843554D01*
X152392993Y-61835496D01*
X152416197Y-61829684D01*
X152439858Y-61826174D01*
X152463750Y-61825000D01*
X153376250Y-61825000D01*
X153400142Y-61826174D01*
G37*
D11*
X140932500Y-54750000D03*
D12*
X143632500Y-53100000D03*
X143632500Y-52450000D03*
X143632500Y-55050000D03*
X143632500Y-54400000D03*
X143632500Y-53750000D03*
D11*
X140932500Y-52750000D03*
D13*
X172670000Y-63500000D03*
X170670000Y-64450000D03*
X170670000Y-62550000D03*
X170670000Y-66550000D03*
X170670000Y-68450000D03*
X172670000Y-67500000D03*
X172670000Y-72500000D03*
X170670000Y-73450000D03*
X170670000Y-71550000D03*
X167670000Y-53550000D03*
X167670000Y-55450000D03*
X169670000Y-54500000D03*
D10*
G36*
X153375142Y-69801174D02*
G01*
X153398803Y-69804684D01*
X153422007Y-69810496D01*
X153444529Y-69818554D01*
X153466153Y-69828782D01*
X153486670Y-69841079D01*
X153505883Y-69855329D01*
X153523607Y-69871393D01*
X153539671Y-69889117D01*
X153553921Y-69908330D01*
X153566218Y-69928847D01*
X153576446Y-69950471D01*
X153584504Y-69972993D01*
X153590316Y-69996197D01*
X153593826Y-70019858D01*
X153595000Y-70043750D01*
X153595000Y-70956250D01*
X153593826Y-70980142D01*
X153590316Y-71003803D01*
X153584504Y-71027007D01*
X153576446Y-71049529D01*
X153566218Y-71071153D01*
X153553921Y-71091670D01*
X153539671Y-71110883D01*
X153523607Y-71128607D01*
X153505883Y-71144671D01*
X153486670Y-71158921D01*
X153466153Y-71171218D01*
X153444529Y-71181446D01*
X153422007Y-71189504D01*
X153398803Y-71195316D01*
X153375142Y-71198826D01*
X153351250Y-71200000D01*
X152863750Y-71200000D01*
X152839858Y-71198826D01*
X152816197Y-71195316D01*
X152792993Y-71189504D01*
X152770471Y-71181446D01*
X152748847Y-71171218D01*
X152728330Y-71158921D01*
X152709117Y-71144671D01*
X152691393Y-71128607D01*
X152675329Y-71110883D01*
X152661079Y-71091670D01*
X152648782Y-71071153D01*
X152638554Y-71049529D01*
X152630496Y-71027007D01*
X152624684Y-71003803D01*
X152621174Y-70980142D01*
X152620000Y-70956250D01*
X152620000Y-70043750D01*
X152621174Y-70019858D01*
X152624684Y-69996197D01*
X152630496Y-69972993D01*
X152638554Y-69950471D01*
X152648782Y-69928847D01*
X152661079Y-69908330D01*
X152675329Y-69889117D01*
X152691393Y-69871393D01*
X152709117Y-69855329D01*
X152728330Y-69841079D01*
X152748847Y-69828782D01*
X152770471Y-69818554D01*
X152792993Y-69810496D01*
X152816197Y-69804684D01*
X152839858Y-69801174D01*
X152863750Y-69800000D01*
X153351250Y-69800000D01*
X153375142Y-69801174D01*
G37*
G36*
X151500142Y-69801174D02*
G01*
X151523803Y-69804684D01*
X151547007Y-69810496D01*
X151569529Y-69818554D01*
X151591153Y-69828782D01*
X151611670Y-69841079D01*
X151630883Y-69855329D01*
X151648607Y-69871393D01*
X151664671Y-69889117D01*
X151678921Y-69908330D01*
X151691218Y-69928847D01*
X151701446Y-69950471D01*
X151709504Y-69972993D01*
X151715316Y-69996197D01*
X151718826Y-70019858D01*
X151720000Y-70043750D01*
X151720000Y-70956250D01*
X151718826Y-70980142D01*
X151715316Y-71003803D01*
X151709504Y-71027007D01*
X151701446Y-71049529D01*
X151691218Y-71071153D01*
X151678921Y-71091670D01*
X151664671Y-71110883D01*
X151648607Y-71128607D01*
X151630883Y-71144671D01*
X151611670Y-71158921D01*
X151591153Y-71171218D01*
X151569529Y-71181446D01*
X151547007Y-71189504D01*
X151523803Y-71195316D01*
X151500142Y-71198826D01*
X151476250Y-71200000D01*
X150988750Y-71200000D01*
X150964858Y-71198826D01*
X150941197Y-71195316D01*
X150917993Y-71189504D01*
X150895471Y-71181446D01*
X150873847Y-71171218D01*
X150853330Y-71158921D01*
X150834117Y-71144671D01*
X150816393Y-71128607D01*
X150800329Y-71110883D01*
X150786079Y-71091670D01*
X150773782Y-71071153D01*
X150763554Y-71049529D01*
X150755496Y-71027007D01*
X150749684Y-71003803D01*
X150746174Y-70980142D01*
X150745000Y-70956250D01*
X150745000Y-70043750D01*
X150746174Y-70019858D01*
X150749684Y-69996197D01*
X150755496Y-69972993D01*
X150763554Y-69950471D01*
X150773782Y-69928847D01*
X150786079Y-69908330D01*
X150800329Y-69889117D01*
X150816393Y-69871393D01*
X150834117Y-69855329D01*
X150853330Y-69841079D01*
X150873847Y-69828782D01*
X150895471Y-69818554D01*
X150917993Y-69810496D01*
X150941197Y-69804684D01*
X150964858Y-69801174D01*
X150988750Y-69800000D01*
X151476250Y-69800000D01*
X151500142Y-69801174D01*
G37*
G36*
X161650142Y-54326174D02*
G01*
X161673803Y-54329684D01*
X161697007Y-54335496D01*
X161719529Y-54343554D01*
X161741153Y-54353782D01*
X161761670Y-54366079D01*
X161780883Y-54380329D01*
X161798607Y-54396393D01*
X161814671Y-54414117D01*
X161828921Y-54433330D01*
X161841218Y-54453847D01*
X161851446Y-54475471D01*
X161859504Y-54497993D01*
X161865316Y-54521197D01*
X161868826Y-54544858D01*
X161870000Y-54568750D01*
X161870000Y-55056250D01*
X161868826Y-55080142D01*
X161865316Y-55103803D01*
X161859504Y-55127007D01*
X161851446Y-55149529D01*
X161841218Y-55171153D01*
X161828921Y-55191670D01*
X161814671Y-55210883D01*
X161798607Y-55228607D01*
X161780883Y-55244671D01*
X161761670Y-55258921D01*
X161741153Y-55271218D01*
X161719529Y-55281446D01*
X161697007Y-55289504D01*
X161673803Y-55295316D01*
X161650142Y-55298826D01*
X161626250Y-55300000D01*
X160713750Y-55300000D01*
X160689858Y-55298826D01*
X160666197Y-55295316D01*
X160642993Y-55289504D01*
X160620471Y-55281446D01*
X160598847Y-55271218D01*
X160578330Y-55258921D01*
X160559117Y-55244671D01*
X160541393Y-55228607D01*
X160525329Y-55210883D01*
X160511079Y-55191670D01*
X160498782Y-55171153D01*
X160488554Y-55149529D01*
X160480496Y-55127007D01*
X160474684Y-55103803D01*
X160471174Y-55080142D01*
X160470000Y-55056250D01*
X160470000Y-54568750D01*
X160471174Y-54544858D01*
X160474684Y-54521197D01*
X160480496Y-54497993D01*
X160488554Y-54475471D01*
X160498782Y-54453847D01*
X160511079Y-54433330D01*
X160525329Y-54414117D01*
X160541393Y-54396393D01*
X160559117Y-54380329D01*
X160578330Y-54366079D01*
X160598847Y-54353782D01*
X160620471Y-54343554D01*
X160642993Y-54335496D01*
X160666197Y-54329684D01*
X160689858Y-54326174D01*
X160713750Y-54325000D01*
X161626250Y-54325000D01*
X161650142Y-54326174D01*
G37*
G36*
X161650142Y-56201174D02*
G01*
X161673803Y-56204684D01*
X161697007Y-56210496D01*
X161719529Y-56218554D01*
X161741153Y-56228782D01*
X161761670Y-56241079D01*
X161780883Y-56255329D01*
X161798607Y-56271393D01*
X161814671Y-56289117D01*
X161828921Y-56308330D01*
X161841218Y-56328847D01*
X161851446Y-56350471D01*
X161859504Y-56372993D01*
X161865316Y-56396197D01*
X161868826Y-56419858D01*
X161870000Y-56443750D01*
X161870000Y-56931250D01*
X161868826Y-56955142D01*
X161865316Y-56978803D01*
X161859504Y-57002007D01*
X161851446Y-57024529D01*
X161841218Y-57046153D01*
X161828921Y-57066670D01*
X161814671Y-57085883D01*
X161798607Y-57103607D01*
X161780883Y-57119671D01*
X161761670Y-57133921D01*
X161741153Y-57146218D01*
X161719529Y-57156446D01*
X161697007Y-57164504D01*
X161673803Y-57170316D01*
X161650142Y-57173826D01*
X161626250Y-57175000D01*
X160713750Y-57175000D01*
X160689858Y-57173826D01*
X160666197Y-57170316D01*
X160642993Y-57164504D01*
X160620471Y-57156446D01*
X160598847Y-57146218D01*
X160578330Y-57133921D01*
X160559117Y-57119671D01*
X160541393Y-57103607D01*
X160525329Y-57085883D01*
X160511079Y-57066670D01*
X160498782Y-57046153D01*
X160488554Y-57024529D01*
X160480496Y-57002007D01*
X160474684Y-56978803D01*
X160471174Y-56955142D01*
X160470000Y-56931250D01*
X160470000Y-56443750D01*
X160471174Y-56419858D01*
X160474684Y-56396197D01*
X160480496Y-56372993D01*
X160488554Y-56350471D01*
X160498782Y-56328847D01*
X160511079Y-56308330D01*
X160525329Y-56289117D01*
X160541393Y-56271393D01*
X160559117Y-56255329D01*
X160578330Y-56241079D01*
X160598847Y-56228782D01*
X160620471Y-56218554D01*
X160642993Y-56210496D01*
X160666197Y-56204684D01*
X160689858Y-56201174D01*
X160713750Y-56200000D01*
X161626250Y-56200000D01*
X161650142Y-56201174D01*
G37*
G36*
X164875142Y-61801174D02*
G01*
X164898803Y-61804684D01*
X164922007Y-61810496D01*
X164944529Y-61818554D01*
X164966153Y-61828782D01*
X164986670Y-61841079D01*
X165005883Y-61855329D01*
X165023607Y-61871393D01*
X165039671Y-61889117D01*
X165053921Y-61908330D01*
X165066218Y-61928847D01*
X165076446Y-61950471D01*
X165084504Y-61972993D01*
X165090316Y-61996197D01*
X165093826Y-62019858D01*
X165095000Y-62043750D01*
X165095000Y-62956250D01*
X165093826Y-62980142D01*
X165090316Y-63003803D01*
X165084504Y-63027007D01*
X165076446Y-63049529D01*
X165066218Y-63071153D01*
X165053921Y-63091670D01*
X165039671Y-63110883D01*
X165023607Y-63128607D01*
X165005883Y-63144671D01*
X164986670Y-63158921D01*
X164966153Y-63171218D01*
X164944529Y-63181446D01*
X164922007Y-63189504D01*
X164898803Y-63195316D01*
X164875142Y-63198826D01*
X164851250Y-63200000D01*
X164363750Y-63200000D01*
X164339858Y-63198826D01*
X164316197Y-63195316D01*
X164292993Y-63189504D01*
X164270471Y-63181446D01*
X164248847Y-63171218D01*
X164228330Y-63158921D01*
X164209117Y-63144671D01*
X164191393Y-63128607D01*
X164175329Y-63110883D01*
X164161079Y-63091670D01*
X164148782Y-63071153D01*
X164138554Y-63049529D01*
X164130496Y-63027007D01*
X164124684Y-63003803D01*
X164121174Y-62980142D01*
X164120000Y-62956250D01*
X164120000Y-62043750D01*
X164121174Y-62019858D01*
X164124684Y-61996197D01*
X164130496Y-61972993D01*
X164138554Y-61950471D01*
X164148782Y-61928847D01*
X164161079Y-61908330D01*
X164175329Y-61889117D01*
X164191393Y-61871393D01*
X164209117Y-61855329D01*
X164228330Y-61841079D01*
X164248847Y-61828782D01*
X164270471Y-61818554D01*
X164292993Y-61810496D01*
X164316197Y-61804684D01*
X164339858Y-61801174D01*
X164363750Y-61800000D01*
X164851250Y-61800000D01*
X164875142Y-61801174D01*
G37*
G36*
X163000142Y-61801174D02*
G01*
X163023803Y-61804684D01*
X163047007Y-61810496D01*
X163069529Y-61818554D01*
X163091153Y-61828782D01*
X163111670Y-61841079D01*
X163130883Y-61855329D01*
X163148607Y-61871393D01*
X163164671Y-61889117D01*
X163178921Y-61908330D01*
X163191218Y-61928847D01*
X163201446Y-61950471D01*
X163209504Y-61972993D01*
X163215316Y-61996197D01*
X163218826Y-62019858D01*
X163220000Y-62043750D01*
X163220000Y-62956250D01*
X163218826Y-62980142D01*
X163215316Y-63003803D01*
X163209504Y-63027007D01*
X163201446Y-63049529D01*
X163191218Y-63071153D01*
X163178921Y-63091670D01*
X163164671Y-63110883D01*
X163148607Y-63128607D01*
X163130883Y-63144671D01*
X163111670Y-63158921D01*
X163091153Y-63171218D01*
X163069529Y-63181446D01*
X163047007Y-63189504D01*
X163023803Y-63195316D01*
X163000142Y-63198826D01*
X162976250Y-63200000D01*
X162488750Y-63200000D01*
X162464858Y-63198826D01*
X162441197Y-63195316D01*
X162417993Y-63189504D01*
X162395471Y-63181446D01*
X162373847Y-63171218D01*
X162353330Y-63158921D01*
X162334117Y-63144671D01*
X162316393Y-63128607D01*
X162300329Y-63110883D01*
X162286079Y-63091670D01*
X162273782Y-63071153D01*
X162263554Y-63049529D01*
X162255496Y-63027007D01*
X162249684Y-63003803D01*
X162246174Y-62980142D01*
X162245000Y-62956250D01*
X162245000Y-62043750D01*
X162246174Y-62019858D01*
X162249684Y-61996197D01*
X162255496Y-61972993D01*
X162263554Y-61950471D01*
X162273782Y-61928847D01*
X162286079Y-61908330D01*
X162300329Y-61889117D01*
X162316393Y-61871393D01*
X162334117Y-61855329D01*
X162353330Y-61841079D01*
X162373847Y-61828782D01*
X162395471Y-61818554D01*
X162417993Y-61810496D01*
X162441197Y-61804684D01*
X162464858Y-61801174D01*
X162488750Y-61800000D01*
X162976250Y-61800000D01*
X163000142Y-61801174D01*
G37*
G36*
X164875142Y-68551174D02*
G01*
X164898803Y-68554684D01*
X164922007Y-68560496D01*
X164944529Y-68568554D01*
X164966153Y-68578782D01*
X164986670Y-68591079D01*
X165005883Y-68605329D01*
X165023607Y-68621393D01*
X165039671Y-68639117D01*
X165053921Y-68658330D01*
X165066218Y-68678847D01*
X165076446Y-68700471D01*
X165084504Y-68722993D01*
X165090316Y-68746197D01*
X165093826Y-68769858D01*
X165095000Y-68793750D01*
X165095000Y-69706250D01*
X165093826Y-69730142D01*
X165090316Y-69753803D01*
X165084504Y-69777007D01*
X165076446Y-69799529D01*
X165066218Y-69821153D01*
X165053921Y-69841670D01*
X165039671Y-69860883D01*
X165023607Y-69878607D01*
X165005883Y-69894671D01*
X164986670Y-69908921D01*
X164966153Y-69921218D01*
X164944529Y-69931446D01*
X164922007Y-69939504D01*
X164898803Y-69945316D01*
X164875142Y-69948826D01*
X164851250Y-69950000D01*
X164363750Y-69950000D01*
X164339858Y-69948826D01*
X164316197Y-69945316D01*
X164292993Y-69939504D01*
X164270471Y-69931446D01*
X164248847Y-69921218D01*
X164228330Y-69908921D01*
X164209117Y-69894671D01*
X164191393Y-69878607D01*
X164175329Y-69860883D01*
X164161079Y-69841670D01*
X164148782Y-69821153D01*
X164138554Y-69799529D01*
X164130496Y-69777007D01*
X164124684Y-69753803D01*
X164121174Y-69730142D01*
X164120000Y-69706250D01*
X164120000Y-68793750D01*
X164121174Y-68769858D01*
X164124684Y-68746197D01*
X164130496Y-68722993D01*
X164138554Y-68700471D01*
X164148782Y-68678847D01*
X164161079Y-68658330D01*
X164175329Y-68639117D01*
X164191393Y-68621393D01*
X164209117Y-68605329D01*
X164228330Y-68591079D01*
X164248847Y-68578782D01*
X164270471Y-68568554D01*
X164292993Y-68560496D01*
X164316197Y-68554684D01*
X164339858Y-68551174D01*
X164363750Y-68550000D01*
X164851250Y-68550000D01*
X164875142Y-68551174D01*
G37*
G36*
X163000142Y-68551174D02*
G01*
X163023803Y-68554684D01*
X163047007Y-68560496D01*
X163069529Y-68568554D01*
X163091153Y-68578782D01*
X163111670Y-68591079D01*
X163130883Y-68605329D01*
X163148607Y-68621393D01*
X163164671Y-68639117D01*
X163178921Y-68658330D01*
X163191218Y-68678847D01*
X163201446Y-68700471D01*
X163209504Y-68722993D01*
X163215316Y-68746197D01*
X163218826Y-68769858D01*
X163220000Y-68793750D01*
X163220000Y-69706250D01*
X163218826Y-69730142D01*
X163215316Y-69753803D01*
X163209504Y-69777007D01*
X163201446Y-69799529D01*
X163191218Y-69821153D01*
X163178921Y-69841670D01*
X163164671Y-69860883D01*
X163148607Y-69878607D01*
X163130883Y-69894671D01*
X163111670Y-69908921D01*
X163091153Y-69921218D01*
X163069529Y-69931446D01*
X163047007Y-69939504D01*
X163023803Y-69945316D01*
X163000142Y-69948826D01*
X162976250Y-69950000D01*
X162488750Y-69950000D01*
X162464858Y-69948826D01*
X162441197Y-69945316D01*
X162417993Y-69939504D01*
X162395471Y-69931446D01*
X162373847Y-69921218D01*
X162353330Y-69908921D01*
X162334117Y-69894671D01*
X162316393Y-69878607D01*
X162300329Y-69860883D01*
X162286079Y-69841670D01*
X162273782Y-69821153D01*
X162263554Y-69799529D01*
X162255496Y-69777007D01*
X162249684Y-69753803D01*
X162246174Y-69730142D01*
X162245000Y-69706250D01*
X162245000Y-68793750D01*
X162246174Y-68769858D01*
X162249684Y-68746197D01*
X162255496Y-68722993D01*
X162263554Y-68700471D01*
X162273782Y-68678847D01*
X162286079Y-68658330D01*
X162300329Y-68639117D01*
X162316393Y-68621393D01*
X162334117Y-68605329D01*
X162353330Y-68591079D01*
X162373847Y-68578782D01*
X162395471Y-68568554D01*
X162417993Y-68560496D01*
X162441197Y-68554684D01*
X162464858Y-68551174D01*
X162488750Y-68550000D01*
X162976250Y-68550000D01*
X163000142Y-68551174D01*
G37*
G36*
X164250142Y-75801174D02*
G01*
X164273803Y-75804684D01*
X164297007Y-75810496D01*
X164319529Y-75818554D01*
X164341153Y-75828782D01*
X164361670Y-75841079D01*
X164380883Y-75855329D01*
X164398607Y-75871393D01*
X164414671Y-75889117D01*
X164428921Y-75908330D01*
X164441218Y-75928847D01*
X164451446Y-75950471D01*
X164459504Y-75972993D01*
X164465316Y-75996197D01*
X164468826Y-76019858D01*
X164470000Y-76043750D01*
X164470000Y-76956250D01*
X164468826Y-76980142D01*
X164465316Y-77003803D01*
X164459504Y-77027007D01*
X164451446Y-77049529D01*
X164441218Y-77071153D01*
X164428921Y-77091670D01*
X164414671Y-77110883D01*
X164398607Y-77128607D01*
X164380883Y-77144671D01*
X164361670Y-77158921D01*
X164341153Y-77171218D01*
X164319529Y-77181446D01*
X164297007Y-77189504D01*
X164273803Y-77195316D01*
X164250142Y-77198826D01*
X164226250Y-77200000D01*
X163738750Y-77200000D01*
X163714858Y-77198826D01*
X163691197Y-77195316D01*
X163667993Y-77189504D01*
X163645471Y-77181446D01*
X163623847Y-77171218D01*
X163603330Y-77158921D01*
X163584117Y-77144671D01*
X163566393Y-77128607D01*
X163550329Y-77110883D01*
X163536079Y-77091670D01*
X163523782Y-77071153D01*
X163513554Y-77049529D01*
X163505496Y-77027007D01*
X163499684Y-77003803D01*
X163496174Y-76980142D01*
X163495000Y-76956250D01*
X163495000Y-76043750D01*
X163496174Y-76019858D01*
X163499684Y-75996197D01*
X163505496Y-75972993D01*
X163513554Y-75950471D01*
X163523782Y-75928847D01*
X163536079Y-75908330D01*
X163550329Y-75889117D01*
X163566393Y-75871393D01*
X163584117Y-75855329D01*
X163603330Y-75841079D01*
X163623847Y-75828782D01*
X163645471Y-75818554D01*
X163667993Y-75810496D01*
X163691197Y-75804684D01*
X163714858Y-75801174D01*
X163738750Y-75800000D01*
X164226250Y-75800000D01*
X164250142Y-75801174D01*
G37*
G36*
X166125142Y-75801174D02*
G01*
X166148803Y-75804684D01*
X166172007Y-75810496D01*
X166194529Y-75818554D01*
X166216153Y-75828782D01*
X166236670Y-75841079D01*
X166255883Y-75855329D01*
X166273607Y-75871393D01*
X166289671Y-75889117D01*
X166303921Y-75908330D01*
X166316218Y-75928847D01*
X166326446Y-75950471D01*
X166334504Y-75972993D01*
X166340316Y-75996197D01*
X166343826Y-76019858D01*
X166345000Y-76043750D01*
X166345000Y-76956250D01*
X166343826Y-76980142D01*
X166340316Y-77003803D01*
X166334504Y-77027007D01*
X166326446Y-77049529D01*
X166316218Y-77071153D01*
X166303921Y-77091670D01*
X166289671Y-77110883D01*
X166273607Y-77128607D01*
X166255883Y-77144671D01*
X166236670Y-77158921D01*
X166216153Y-77171218D01*
X166194529Y-77181446D01*
X166172007Y-77189504D01*
X166148803Y-77195316D01*
X166125142Y-77198826D01*
X166101250Y-77200000D01*
X165613750Y-77200000D01*
X165589858Y-77198826D01*
X165566197Y-77195316D01*
X165542993Y-77189504D01*
X165520471Y-77181446D01*
X165498847Y-77171218D01*
X165478330Y-77158921D01*
X165459117Y-77144671D01*
X165441393Y-77128607D01*
X165425329Y-77110883D01*
X165411079Y-77091670D01*
X165398782Y-77071153D01*
X165388554Y-77049529D01*
X165380496Y-77027007D01*
X165374684Y-77003803D01*
X165371174Y-76980142D01*
X165370000Y-76956250D01*
X165370000Y-76043750D01*
X165371174Y-76019858D01*
X165374684Y-75996197D01*
X165380496Y-75972993D01*
X165388554Y-75950471D01*
X165398782Y-75928847D01*
X165411079Y-75908330D01*
X165425329Y-75889117D01*
X165441393Y-75871393D01*
X165459117Y-75855329D01*
X165478330Y-75841079D01*
X165498847Y-75828782D01*
X165520471Y-75818554D01*
X165542993Y-75810496D01*
X165566197Y-75804684D01*
X165589858Y-75801174D01*
X165613750Y-75800000D01*
X166101250Y-75800000D01*
X166125142Y-75801174D01*
G37*
G36*
X165875142Y-52801174D02*
G01*
X165898803Y-52804684D01*
X165922007Y-52810496D01*
X165944529Y-52818554D01*
X165966153Y-52828782D01*
X165986670Y-52841079D01*
X166005883Y-52855329D01*
X166023607Y-52871393D01*
X166039671Y-52889117D01*
X166053921Y-52908330D01*
X166066218Y-52928847D01*
X166076446Y-52950471D01*
X166084504Y-52972993D01*
X166090316Y-52996197D01*
X166093826Y-53019858D01*
X166095000Y-53043750D01*
X166095000Y-53956250D01*
X166093826Y-53980142D01*
X166090316Y-54003803D01*
X166084504Y-54027007D01*
X166076446Y-54049529D01*
X166066218Y-54071153D01*
X166053921Y-54091670D01*
X166039671Y-54110883D01*
X166023607Y-54128607D01*
X166005883Y-54144671D01*
X165986670Y-54158921D01*
X165966153Y-54171218D01*
X165944529Y-54181446D01*
X165922007Y-54189504D01*
X165898803Y-54195316D01*
X165875142Y-54198826D01*
X165851250Y-54200000D01*
X165363750Y-54200000D01*
X165339858Y-54198826D01*
X165316197Y-54195316D01*
X165292993Y-54189504D01*
X165270471Y-54181446D01*
X165248847Y-54171218D01*
X165228330Y-54158921D01*
X165209117Y-54144671D01*
X165191393Y-54128607D01*
X165175329Y-54110883D01*
X165161079Y-54091670D01*
X165148782Y-54071153D01*
X165138554Y-54049529D01*
X165130496Y-54027007D01*
X165124684Y-54003803D01*
X165121174Y-53980142D01*
X165120000Y-53956250D01*
X165120000Y-53043750D01*
X165121174Y-53019858D01*
X165124684Y-52996197D01*
X165130496Y-52972993D01*
X165138554Y-52950471D01*
X165148782Y-52928847D01*
X165161079Y-52908330D01*
X165175329Y-52889117D01*
X165191393Y-52871393D01*
X165209117Y-52855329D01*
X165228330Y-52841079D01*
X165248847Y-52828782D01*
X165270471Y-52818554D01*
X165292993Y-52810496D01*
X165316197Y-52804684D01*
X165339858Y-52801174D01*
X165363750Y-52800000D01*
X165851250Y-52800000D01*
X165875142Y-52801174D01*
G37*
G36*
X164000142Y-52801174D02*
G01*
X164023803Y-52804684D01*
X164047007Y-52810496D01*
X164069529Y-52818554D01*
X164091153Y-52828782D01*
X164111670Y-52841079D01*
X164130883Y-52855329D01*
X164148607Y-52871393D01*
X164164671Y-52889117D01*
X164178921Y-52908330D01*
X164191218Y-52928847D01*
X164201446Y-52950471D01*
X164209504Y-52972993D01*
X164215316Y-52996197D01*
X164218826Y-53019858D01*
X164220000Y-53043750D01*
X164220000Y-53956250D01*
X164218826Y-53980142D01*
X164215316Y-54003803D01*
X164209504Y-54027007D01*
X164201446Y-54049529D01*
X164191218Y-54071153D01*
X164178921Y-54091670D01*
X164164671Y-54110883D01*
X164148607Y-54128607D01*
X164130883Y-54144671D01*
X164111670Y-54158921D01*
X164091153Y-54171218D01*
X164069529Y-54181446D01*
X164047007Y-54189504D01*
X164023803Y-54195316D01*
X164000142Y-54198826D01*
X163976250Y-54200000D01*
X163488750Y-54200000D01*
X163464858Y-54198826D01*
X163441197Y-54195316D01*
X163417993Y-54189504D01*
X163395471Y-54181446D01*
X163373847Y-54171218D01*
X163353330Y-54158921D01*
X163334117Y-54144671D01*
X163316393Y-54128607D01*
X163300329Y-54110883D01*
X163286079Y-54091670D01*
X163273782Y-54071153D01*
X163263554Y-54049529D01*
X163255496Y-54027007D01*
X163249684Y-54003803D01*
X163246174Y-53980142D01*
X163245000Y-53956250D01*
X163245000Y-53043750D01*
X163246174Y-53019858D01*
X163249684Y-52996197D01*
X163255496Y-52972993D01*
X163263554Y-52950471D01*
X163273782Y-52928847D01*
X163286079Y-52908330D01*
X163300329Y-52889117D01*
X163316393Y-52871393D01*
X163334117Y-52855329D01*
X163353330Y-52841079D01*
X163373847Y-52828782D01*
X163395471Y-52818554D01*
X163417993Y-52810496D01*
X163441197Y-52804684D01*
X163464858Y-52801174D01*
X163488750Y-52800000D01*
X163976250Y-52800000D01*
X164000142Y-52801174D01*
G37*
G36*
X163000142Y-64051174D02*
G01*
X163023803Y-64054684D01*
X163047007Y-64060496D01*
X163069529Y-64068554D01*
X163091153Y-64078782D01*
X163111670Y-64091079D01*
X163130883Y-64105329D01*
X163148607Y-64121393D01*
X163164671Y-64139117D01*
X163178921Y-64158330D01*
X163191218Y-64178847D01*
X163201446Y-64200471D01*
X163209504Y-64222993D01*
X163215316Y-64246197D01*
X163218826Y-64269858D01*
X163220000Y-64293750D01*
X163220000Y-65206250D01*
X163218826Y-65230142D01*
X163215316Y-65253803D01*
X163209504Y-65277007D01*
X163201446Y-65299529D01*
X163191218Y-65321153D01*
X163178921Y-65341670D01*
X163164671Y-65360883D01*
X163148607Y-65378607D01*
X163130883Y-65394671D01*
X163111670Y-65408921D01*
X163091153Y-65421218D01*
X163069529Y-65431446D01*
X163047007Y-65439504D01*
X163023803Y-65445316D01*
X163000142Y-65448826D01*
X162976250Y-65450000D01*
X162488750Y-65450000D01*
X162464858Y-65448826D01*
X162441197Y-65445316D01*
X162417993Y-65439504D01*
X162395471Y-65431446D01*
X162373847Y-65421218D01*
X162353330Y-65408921D01*
X162334117Y-65394671D01*
X162316393Y-65378607D01*
X162300329Y-65360883D01*
X162286079Y-65341670D01*
X162273782Y-65321153D01*
X162263554Y-65299529D01*
X162255496Y-65277007D01*
X162249684Y-65253803D01*
X162246174Y-65230142D01*
X162245000Y-65206250D01*
X162245000Y-64293750D01*
X162246174Y-64269858D01*
X162249684Y-64246197D01*
X162255496Y-64222993D01*
X162263554Y-64200471D01*
X162273782Y-64178847D01*
X162286079Y-64158330D01*
X162300329Y-64139117D01*
X162316393Y-64121393D01*
X162334117Y-64105329D01*
X162353330Y-64091079D01*
X162373847Y-64078782D01*
X162395471Y-64068554D01*
X162417993Y-64060496D01*
X162441197Y-64054684D01*
X162464858Y-64051174D01*
X162488750Y-64050000D01*
X162976250Y-64050000D01*
X163000142Y-64051174D01*
G37*
G36*
X164875142Y-64051174D02*
G01*
X164898803Y-64054684D01*
X164922007Y-64060496D01*
X164944529Y-64068554D01*
X164966153Y-64078782D01*
X164986670Y-64091079D01*
X165005883Y-64105329D01*
X165023607Y-64121393D01*
X165039671Y-64139117D01*
X165053921Y-64158330D01*
X165066218Y-64178847D01*
X165076446Y-64200471D01*
X165084504Y-64222993D01*
X165090316Y-64246197D01*
X165093826Y-64269858D01*
X165095000Y-64293750D01*
X165095000Y-65206250D01*
X165093826Y-65230142D01*
X165090316Y-65253803D01*
X165084504Y-65277007D01*
X165076446Y-65299529D01*
X165066218Y-65321153D01*
X165053921Y-65341670D01*
X165039671Y-65360883D01*
X165023607Y-65378607D01*
X165005883Y-65394671D01*
X164986670Y-65408921D01*
X164966153Y-65421218D01*
X164944529Y-65431446D01*
X164922007Y-65439504D01*
X164898803Y-65445316D01*
X164875142Y-65448826D01*
X164851250Y-65450000D01*
X164363750Y-65450000D01*
X164339858Y-65448826D01*
X164316197Y-65445316D01*
X164292993Y-65439504D01*
X164270471Y-65431446D01*
X164248847Y-65421218D01*
X164228330Y-65408921D01*
X164209117Y-65394671D01*
X164191393Y-65378607D01*
X164175329Y-65360883D01*
X164161079Y-65341670D01*
X164148782Y-65321153D01*
X164138554Y-65299529D01*
X164130496Y-65277007D01*
X164124684Y-65253803D01*
X164121174Y-65230142D01*
X164120000Y-65206250D01*
X164120000Y-64293750D01*
X164121174Y-64269858D01*
X164124684Y-64246197D01*
X164130496Y-64222993D01*
X164138554Y-64200471D01*
X164148782Y-64178847D01*
X164161079Y-64158330D01*
X164175329Y-64139117D01*
X164191393Y-64121393D01*
X164209117Y-64105329D01*
X164228330Y-64091079D01*
X164248847Y-64078782D01*
X164270471Y-64068554D01*
X164292993Y-64060496D01*
X164316197Y-64054684D01*
X164339858Y-64051174D01*
X164363750Y-64050000D01*
X164851250Y-64050000D01*
X164875142Y-64051174D01*
G37*
G36*
X164875142Y-70801174D02*
G01*
X164898803Y-70804684D01*
X164922007Y-70810496D01*
X164944529Y-70818554D01*
X164966153Y-70828782D01*
X164986670Y-70841079D01*
X165005883Y-70855329D01*
X165023607Y-70871393D01*
X165039671Y-70889117D01*
X165053921Y-70908330D01*
X165066218Y-70928847D01*
X165076446Y-70950471D01*
X165084504Y-70972993D01*
X165090316Y-70996197D01*
X165093826Y-71019858D01*
X165095000Y-71043750D01*
X165095000Y-71956250D01*
X165093826Y-71980142D01*
X165090316Y-72003803D01*
X165084504Y-72027007D01*
X165076446Y-72049529D01*
X165066218Y-72071153D01*
X165053921Y-72091670D01*
X165039671Y-72110883D01*
X165023607Y-72128607D01*
X165005883Y-72144671D01*
X164986670Y-72158921D01*
X164966153Y-72171218D01*
X164944529Y-72181446D01*
X164922007Y-72189504D01*
X164898803Y-72195316D01*
X164875142Y-72198826D01*
X164851250Y-72200000D01*
X164363750Y-72200000D01*
X164339858Y-72198826D01*
X164316197Y-72195316D01*
X164292993Y-72189504D01*
X164270471Y-72181446D01*
X164248847Y-72171218D01*
X164228330Y-72158921D01*
X164209117Y-72144671D01*
X164191393Y-72128607D01*
X164175329Y-72110883D01*
X164161079Y-72091670D01*
X164148782Y-72071153D01*
X164138554Y-72049529D01*
X164130496Y-72027007D01*
X164124684Y-72003803D01*
X164121174Y-71980142D01*
X164120000Y-71956250D01*
X164120000Y-71043750D01*
X164121174Y-71019858D01*
X164124684Y-70996197D01*
X164130496Y-70972993D01*
X164138554Y-70950471D01*
X164148782Y-70928847D01*
X164161079Y-70908330D01*
X164175329Y-70889117D01*
X164191393Y-70871393D01*
X164209117Y-70855329D01*
X164228330Y-70841079D01*
X164248847Y-70828782D01*
X164270471Y-70818554D01*
X164292993Y-70810496D01*
X164316197Y-70804684D01*
X164339858Y-70801174D01*
X164363750Y-70800000D01*
X164851250Y-70800000D01*
X164875142Y-70801174D01*
G37*
G36*
X163000142Y-70801174D02*
G01*
X163023803Y-70804684D01*
X163047007Y-70810496D01*
X163069529Y-70818554D01*
X163091153Y-70828782D01*
X163111670Y-70841079D01*
X163130883Y-70855329D01*
X163148607Y-70871393D01*
X163164671Y-70889117D01*
X163178921Y-70908330D01*
X163191218Y-70928847D01*
X163201446Y-70950471D01*
X163209504Y-70972993D01*
X163215316Y-70996197D01*
X163218826Y-71019858D01*
X163220000Y-71043750D01*
X163220000Y-71956250D01*
X163218826Y-71980142D01*
X163215316Y-72003803D01*
X163209504Y-72027007D01*
X163201446Y-72049529D01*
X163191218Y-72071153D01*
X163178921Y-72091670D01*
X163164671Y-72110883D01*
X163148607Y-72128607D01*
X163130883Y-72144671D01*
X163111670Y-72158921D01*
X163091153Y-72171218D01*
X163069529Y-72181446D01*
X163047007Y-72189504D01*
X163023803Y-72195316D01*
X163000142Y-72198826D01*
X162976250Y-72200000D01*
X162488750Y-72200000D01*
X162464858Y-72198826D01*
X162441197Y-72195316D01*
X162417993Y-72189504D01*
X162395471Y-72181446D01*
X162373847Y-72171218D01*
X162353330Y-72158921D01*
X162334117Y-72144671D01*
X162316393Y-72128607D01*
X162300329Y-72110883D01*
X162286079Y-72091670D01*
X162273782Y-72071153D01*
X162263554Y-72049529D01*
X162255496Y-72027007D01*
X162249684Y-72003803D01*
X162246174Y-71980142D01*
X162245000Y-71956250D01*
X162245000Y-71043750D01*
X162246174Y-71019858D01*
X162249684Y-70996197D01*
X162255496Y-70972993D01*
X162263554Y-70950471D01*
X162273782Y-70928847D01*
X162286079Y-70908330D01*
X162300329Y-70889117D01*
X162316393Y-70871393D01*
X162334117Y-70855329D01*
X162353330Y-70841079D01*
X162373847Y-70828782D01*
X162395471Y-70818554D01*
X162417993Y-70810496D01*
X162441197Y-70804684D01*
X162464858Y-70801174D01*
X162488750Y-70800000D01*
X162976250Y-70800000D01*
X163000142Y-70801174D01*
G37*
G36*
X166125142Y-78051174D02*
G01*
X166148803Y-78054684D01*
X166172007Y-78060496D01*
X166194529Y-78068554D01*
X166216153Y-78078782D01*
X166236670Y-78091079D01*
X166255883Y-78105329D01*
X166273607Y-78121393D01*
X166289671Y-78139117D01*
X166303921Y-78158330D01*
X166316218Y-78178847D01*
X166326446Y-78200471D01*
X166334504Y-78222993D01*
X166340316Y-78246197D01*
X166343826Y-78269858D01*
X166345000Y-78293750D01*
X166345000Y-79206250D01*
X166343826Y-79230142D01*
X166340316Y-79253803D01*
X166334504Y-79277007D01*
X166326446Y-79299529D01*
X166316218Y-79321153D01*
X166303921Y-79341670D01*
X166289671Y-79360883D01*
X166273607Y-79378607D01*
X166255883Y-79394671D01*
X166236670Y-79408921D01*
X166216153Y-79421218D01*
X166194529Y-79431446D01*
X166172007Y-79439504D01*
X166148803Y-79445316D01*
X166125142Y-79448826D01*
X166101250Y-79450000D01*
X165613750Y-79450000D01*
X165589858Y-79448826D01*
X165566197Y-79445316D01*
X165542993Y-79439504D01*
X165520471Y-79431446D01*
X165498847Y-79421218D01*
X165478330Y-79408921D01*
X165459117Y-79394671D01*
X165441393Y-79378607D01*
X165425329Y-79360883D01*
X165411079Y-79341670D01*
X165398782Y-79321153D01*
X165388554Y-79299529D01*
X165380496Y-79277007D01*
X165374684Y-79253803D01*
X165371174Y-79230142D01*
X165370000Y-79206250D01*
X165370000Y-78293750D01*
X165371174Y-78269858D01*
X165374684Y-78246197D01*
X165380496Y-78222993D01*
X165388554Y-78200471D01*
X165398782Y-78178847D01*
X165411079Y-78158330D01*
X165425329Y-78139117D01*
X165441393Y-78121393D01*
X165459117Y-78105329D01*
X165478330Y-78091079D01*
X165498847Y-78078782D01*
X165520471Y-78068554D01*
X165542993Y-78060496D01*
X165566197Y-78054684D01*
X165589858Y-78051174D01*
X165613750Y-78050000D01*
X166101250Y-78050000D01*
X166125142Y-78051174D01*
G37*
G36*
X164250142Y-78051174D02*
G01*
X164273803Y-78054684D01*
X164297007Y-78060496D01*
X164319529Y-78068554D01*
X164341153Y-78078782D01*
X164361670Y-78091079D01*
X164380883Y-78105329D01*
X164398607Y-78121393D01*
X164414671Y-78139117D01*
X164428921Y-78158330D01*
X164441218Y-78178847D01*
X164451446Y-78200471D01*
X164459504Y-78222993D01*
X164465316Y-78246197D01*
X164468826Y-78269858D01*
X164470000Y-78293750D01*
X164470000Y-79206250D01*
X164468826Y-79230142D01*
X164465316Y-79253803D01*
X164459504Y-79277007D01*
X164451446Y-79299529D01*
X164441218Y-79321153D01*
X164428921Y-79341670D01*
X164414671Y-79360883D01*
X164398607Y-79378607D01*
X164380883Y-79394671D01*
X164361670Y-79408921D01*
X164341153Y-79421218D01*
X164319529Y-79431446D01*
X164297007Y-79439504D01*
X164273803Y-79445316D01*
X164250142Y-79448826D01*
X164226250Y-79450000D01*
X163738750Y-79450000D01*
X163714858Y-79448826D01*
X163691197Y-79445316D01*
X163667993Y-79439504D01*
X163645471Y-79431446D01*
X163623847Y-79421218D01*
X163603330Y-79408921D01*
X163584117Y-79394671D01*
X163566393Y-79378607D01*
X163550329Y-79360883D01*
X163536079Y-79341670D01*
X163523782Y-79321153D01*
X163513554Y-79299529D01*
X163505496Y-79277007D01*
X163499684Y-79253803D01*
X163496174Y-79230142D01*
X163495000Y-79206250D01*
X163495000Y-78293750D01*
X163496174Y-78269858D01*
X163499684Y-78246197D01*
X163505496Y-78222993D01*
X163513554Y-78200471D01*
X163523782Y-78178847D01*
X163536079Y-78158330D01*
X163550329Y-78139117D01*
X163566393Y-78121393D01*
X163584117Y-78105329D01*
X163603330Y-78091079D01*
X163623847Y-78078782D01*
X163645471Y-78068554D01*
X163667993Y-78060496D01*
X163691197Y-78054684D01*
X163714858Y-78051174D01*
X163738750Y-78050000D01*
X164226250Y-78050000D01*
X164250142Y-78051174D01*
G37*
G36*
X164000142Y-55051174D02*
G01*
X164023803Y-55054684D01*
X164047007Y-55060496D01*
X164069529Y-55068554D01*
X164091153Y-55078782D01*
X164111670Y-55091079D01*
X164130883Y-55105329D01*
X164148607Y-55121393D01*
X164164671Y-55139117D01*
X164178921Y-55158330D01*
X164191218Y-55178847D01*
X164201446Y-55200471D01*
X164209504Y-55222993D01*
X164215316Y-55246197D01*
X164218826Y-55269858D01*
X164220000Y-55293750D01*
X164220000Y-56206250D01*
X164218826Y-56230142D01*
X164215316Y-56253803D01*
X164209504Y-56277007D01*
X164201446Y-56299529D01*
X164191218Y-56321153D01*
X164178921Y-56341670D01*
X164164671Y-56360883D01*
X164148607Y-56378607D01*
X164130883Y-56394671D01*
X164111670Y-56408921D01*
X164091153Y-56421218D01*
X164069529Y-56431446D01*
X164047007Y-56439504D01*
X164023803Y-56445316D01*
X164000142Y-56448826D01*
X163976250Y-56450000D01*
X163488750Y-56450000D01*
X163464858Y-56448826D01*
X163441197Y-56445316D01*
X163417993Y-56439504D01*
X163395471Y-56431446D01*
X163373847Y-56421218D01*
X163353330Y-56408921D01*
X163334117Y-56394671D01*
X163316393Y-56378607D01*
X163300329Y-56360883D01*
X163286079Y-56341670D01*
X163273782Y-56321153D01*
X163263554Y-56299529D01*
X163255496Y-56277007D01*
X163249684Y-56253803D01*
X163246174Y-56230142D01*
X163245000Y-56206250D01*
X163245000Y-55293750D01*
X163246174Y-55269858D01*
X163249684Y-55246197D01*
X163255496Y-55222993D01*
X163263554Y-55200471D01*
X163273782Y-55178847D01*
X163286079Y-55158330D01*
X163300329Y-55139117D01*
X163316393Y-55121393D01*
X163334117Y-55105329D01*
X163353330Y-55091079D01*
X163373847Y-55078782D01*
X163395471Y-55068554D01*
X163417993Y-55060496D01*
X163441197Y-55054684D01*
X163464858Y-55051174D01*
X163488750Y-55050000D01*
X163976250Y-55050000D01*
X164000142Y-55051174D01*
G37*
G36*
X165875142Y-55051174D02*
G01*
X165898803Y-55054684D01*
X165922007Y-55060496D01*
X165944529Y-55068554D01*
X165966153Y-55078782D01*
X165986670Y-55091079D01*
X166005883Y-55105329D01*
X166023607Y-55121393D01*
X166039671Y-55139117D01*
X166053921Y-55158330D01*
X166066218Y-55178847D01*
X166076446Y-55200471D01*
X166084504Y-55222993D01*
X166090316Y-55246197D01*
X166093826Y-55269858D01*
X166095000Y-55293750D01*
X166095000Y-56206250D01*
X166093826Y-56230142D01*
X166090316Y-56253803D01*
X166084504Y-56277007D01*
X166076446Y-56299529D01*
X166066218Y-56321153D01*
X166053921Y-56341670D01*
X166039671Y-56360883D01*
X166023607Y-56378607D01*
X166005883Y-56394671D01*
X165986670Y-56408921D01*
X165966153Y-56421218D01*
X165944529Y-56431446D01*
X165922007Y-56439504D01*
X165898803Y-56445316D01*
X165875142Y-56448826D01*
X165851250Y-56450000D01*
X165363750Y-56450000D01*
X165339858Y-56448826D01*
X165316197Y-56445316D01*
X165292993Y-56439504D01*
X165270471Y-56431446D01*
X165248847Y-56421218D01*
X165228330Y-56408921D01*
X165209117Y-56394671D01*
X165191393Y-56378607D01*
X165175329Y-56360883D01*
X165161079Y-56341670D01*
X165148782Y-56321153D01*
X165138554Y-56299529D01*
X165130496Y-56277007D01*
X165124684Y-56253803D01*
X165121174Y-56230142D01*
X165120000Y-56206250D01*
X165120000Y-55293750D01*
X165121174Y-55269858D01*
X165124684Y-55246197D01*
X165130496Y-55222993D01*
X165138554Y-55200471D01*
X165148782Y-55178847D01*
X165161079Y-55158330D01*
X165175329Y-55139117D01*
X165191393Y-55121393D01*
X165209117Y-55105329D01*
X165228330Y-55091079D01*
X165248847Y-55078782D01*
X165270471Y-55068554D01*
X165292993Y-55060496D01*
X165316197Y-55054684D01*
X165339858Y-55051174D01*
X165363750Y-55050000D01*
X165851250Y-55050000D01*
X165875142Y-55051174D01*
G37*
G36*
X167000142Y-64051174D02*
G01*
X167023803Y-64054684D01*
X167047007Y-64060496D01*
X167069529Y-64068554D01*
X167091153Y-64078782D01*
X167111670Y-64091079D01*
X167130883Y-64105329D01*
X167148607Y-64121393D01*
X167164671Y-64139117D01*
X167178921Y-64158330D01*
X167191218Y-64178847D01*
X167201446Y-64200471D01*
X167209504Y-64222993D01*
X167215316Y-64246197D01*
X167218826Y-64269858D01*
X167220000Y-64293750D01*
X167220000Y-65206250D01*
X167218826Y-65230142D01*
X167215316Y-65253803D01*
X167209504Y-65277007D01*
X167201446Y-65299529D01*
X167191218Y-65321153D01*
X167178921Y-65341670D01*
X167164671Y-65360883D01*
X167148607Y-65378607D01*
X167130883Y-65394671D01*
X167111670Y-65408921D01*
X167091153Y-65421218D01*
X167069529Y-65431446D01*
X167047007Y-65439504D01*
X167023803Y-65445316D01*
X167000142Y-65448826D01*
X166976250Y-65450000D01*
X166488750Y-65450000D01*
X166464858Y-65448826D01*
X166441197Y-65445316D01*
X166417993Y-65439504D01*
X166395471Y-65431446D01*
X166373847Y-65421218D01*
X166353330Y-65408921D01*
X166334117Y-65394671D01*
X166316393Y-65378607D01*
X166300329Y-65360883D01*
X166286079Y-65341670D01*
X166273782Y-65321153D01*
X166263554Y-65299529D01*
X166255496Y-65277007D01*
X166249684Y-65253803D01*
X166246174Y-65230142D01*
X166245000Y-65206250D01*
X166245000Y-64293750D01*
X166246174Y-64269858D01*
X166249684Y-64246197D01*
X166255496Y-64222993D01*
X166263554Y-64200471D01*
X166273782Y-64178847D01*
X166286079Y-64158330D01*
X166300329Y-64139117D01*
X166316393Y-64121393D01*
X166334117Y-64105329D01*
X166353330Y-64091079D01*
X166373847Y-64078782D01*
X166395471Y-64068554D01*
X166417993Y-64060496D01*
X166441197Y-64054684D01*
X166464858Y-64051174D01*
X166488750Y-64050000D01*
X166976250Y-64050000D01*
X167000142Y-64051174D01*
G37*
G36*
X168875142Y-64051174D02*
G01*
X168898803Y-64054684D01*
X168922007Y-64060496D01*
X168944529Y-64068554D01*
X168966153Y-64078782D01*
X168986670Y-64091079D01*
X169005883Y-64105329D01*
X169023607Y-64121393D01*
X169039671Y-64139117D01*
X169053921Y-64158330D01*
X169066218Y-64178847D01*
X169076446Y-64200471D01*
X169084504Y-64222993D01*
X169090316Y-64246197D01*
X169093826Y-64269858D01*
X169095000Y-64293750D01*
X169095000Y-65206250D01*
X169093826Y-65230142D01*
X169090316Y-65253803D01*
X169084504Y-65277007D01*
X169076446Y-65299529D01*
X169066218Y-65321153D01*
X169053921Y-65341670D01*
X169039671Y-65360883D01*
X169023607Y-65378607D01*
X169005883Y-65394671D01*
X168986670Y-65408921D01*
X168966153Y-65421218D01*
X168944529Y-65431446D01*
X168922007Y-65439504D01*
X168898803Y-65445316D01*
X168875142Y-65448826D01*
X168851250Y-65450000D01*
X168363750Y-65450000D01*
X168339858Y-65448826D01*
X168316197Y-65445316D01*
X168292993Y-65439504D01*
X168270471Y-65431446D01*
X168248847Y-65421218D01*
X168228330Y-65408921D01*
X168209117Y-65394671D01*
X168191393Y-65378607D01*
X168175329Y-65360883D01*
X168161079Y-65341670D01*
X168148782Y-65321153D01*
X168138554Y-65299529D01*
X168130496Y-65277007D01*
X168124684Y-65253803D01*
X168121174Y-65230142D01*
X168120000Y-65206250D01*
X168120000Y-64293750D01*
X168121174Y-64269858D01*
X168124684Y-64246197D01*
X168130496Y-64222993D01*
X168138554Y-64200471D01*
X168148782Y-64178847D01*
X168161079Y-64158330D01*
X168175329Y-64139117D01*
X168191393Y-64121393D01*
X168209117Y-64105329D01*
X168228330Y-64091079D01*
X168248847Y-64078782D01*
X168270471Y-64068554D01*
X168292993Y-64060496D01*
X168316197Y-64054684D01*
X168339858Y-64051174D01*
X168363750Y-64050000D01*
X168851250Y-64050000D01*
X168875142Y-64051174D01*
G37*
G36*
X159650142Y-43201174D02*
G01*
X159673803Y-43204684D01*
X159697007Y-43210496D01*
X159719529Y-43218554D01*
X159741153Y-43228782D01*
X159761670Y-43241079D01*
X159780883Y-43255329D01*
X159798607Y-43271393D01*
X159814671Y-43289117D01*
X159828921Y-43308330D01*
X159841218Y-43328847D01*
X159851446Y-43350471D01*
X159859504Y-43372993D01*
X159865316Y-43396197D01*
X159868826Y-43419858D01*
X159870000Y-43443750D01*
X159870000Y-43931250D01*
X159868826Y-43955142D01*
X159865316Y-43978803D01*
X159859504Y-44002007D01*
X159851446Y-44024529D01*
X159841218Y-44046153D01*
X159828921Y-44066670D01*
X159814671Y-44085883D01*
X159798607Y-44103607D01*
X159780883Y-44119671D01*
X159761670Y-44133921D01*
X159741153Y-44146218D01*
X159719529Y-44156446D01*
X159697007Y-44164504D01*
X159673803Y-44170316D01*
X159650142Y-44173826D01*
X159626250Y-44175000D01*
X158713750Y-44175000D01*
X158689858Y-44173826D01*
X158666197Y-44170316D01*
X158642993Y-44164504D01*
X158620471Y-44156446D01*
X158598847Y-44146218D01*
X158578330Y-44133921D01*
X158559117Y-44119671D01*
X158541393Y-44103607D01*
X158525329Y-44085883D01*
X158511079Y-44066670D01*
X158498782Y-44046153D01*
X158488554Y-44024529D01*
X158480496Y-44002007D01*
X158474684Y-43978803D01*
X158471174Y-43955142D01*
X158470000Y-43931250D01*
X158470000Y-43443750D01*
X158471174Y-43419858D01*
X158474684Y-43396197D01*
X158480496Y-43372993D01*
X158488554Y-43350471D01*
X158498782Y-43328847D01*
X158511079Y-43308330D01*
X158525329Y-43289117D01*
X158541393Y-43271393D01*
X158559117Y-43255329D01*
X158578330Y-43241079D01*
X158598847Y-43228782D01*
X158620471Y-43218554D01*
X158642993Y-43210496D01*
X158666197Y-43204684D01*
X158689858Y-43201174D01*
X158713750Y-43200000D01*
X159626250Y-43200000D01*
X159650142Y-43201174D01*
G37*
G36*
X159650142Y-41326174D02*
G01*
X159673803Y-41329684D01*
X159697007Y-41335496D01*
X159719529Y-41343554D01*
X159741153Y-41353782D01*
X159761670Y-41366079D01*
X159780883Y-41380329D01*
X159798607Y-41396393D01*
X159814671Y-41414117D01*
X159828921Y-41433330D01*
X159841218Y-41453847D01*
X159851446Y-41475471D01*
X159859504Y-41497993D01*
X159865316Y-41521197D01*
X159868826Y-41544858D01*
X159870000Y-41568750D01*
X159870000Y-42056250D01*
X159868826Y-42080142D01*
X159865316Y-42103803D01*
X159859504Y-42127007D01*
X159851446Y-42149529D01*
X159841218Y-42171153D01*
X159828921Y-42191670D01*
X159814671Y-42210883D01*
X159798607Y-42228607D01*
X159780883Y-42244671D01*
X159761670Y-42258921D01*
X159741153Y-42271218D01*
X159719529Y-42281446D01*
X159697007Y-42289504D01*
X159673803Y-42295316D01*
X159650142Y-42298826D01*
X159626250Y-42300000D01*
X158713750Y-42300000D01*
X158689858Y-42298826D01*
X158666197Y-42295316D01*
X158642993Y-42289504D01*
X158620471Y-42281446D01*
X158598847Y-42271218D01*
X158578330Y-42258921D01*
X158559117Y-42244671D01*
X158541393Y-42228607D01*
X158525329Y-42210883D01*
X158511079Y-42191670D01*
X158498782Y-42171153D01*
X158488554Y-42149529D01*
X158480496Y-42127007D01*
X158474684Y-42103803D01*
X158471174Y-42080142D01*
X158470000Y-42056250D01*
X158470000Y-41568750D01*
X158471174Y-41544858D01*
X158474684Y-41521197D01*
X158480496Y-41497993D01*
X158488554Y-41475471D01*
X158498782Y-41453847D01*
X158511079Y-41433330D01*
X158525329Y-41414117D01*
X158541393Y-41396393D01*
X158559117Y-41380329D01*
X158578330Y-41366079D01*
X158598847Y-41353782D01*
X158620471Y-41343554D01*
X158642993Y-41335496D01*
X158666197Y-41329684D01*
X158689858Y-41326174D01*
X158713750Y-41325000D01*
X159626250Y-41325000D01*
X159650142Y-41326174D01*
G37*
G36*
X159875142Y-69301174D02*
G01*
X159898803Y-69304684D01*
X159922007Y-69310496D01*
X159944529Y-69318554D01*
X159966153Y-69328782D01*
X159986670Y-69341079D01*
X160005883Y-69355329D01*
X160023607Y-69371393D01*
X160039671Y-69389117D01*
X160053921Y-69408330D01*
X160066218Y-69428847D01*
X160076446Y-69450471D01*
X160084504Y-69472993D01*
X160090316Y-69496197D01*
X160093826Y-69519858D01*
X160095000Y-69543750D01*
X160095000Y-70456250D01*
X160093826Y-70480142D01*
X160090316Y-70503803D01*
X160084504Y-70527007D01*
X160076446Y-70549529D01*
X160066218Y-70571153D01*
X160053921Y-70591670D01*
X160039671Y-70610883D01*
X160023607Y-70628607D01*
X160005883Y-70644671D01*
X159986670Y-70658921D01*
X159966153Y-70671218D01*
X159944529Y-70681446D01*
X159922007Y-70689504D01*
X159898803Y-70695316D01*
X159875142Y-70698826D01*
X159851250Y-70700000D01*
X159363750Y-70700000D01*
X159339858Y-70698826D01*
X159316197Y-70695316D01*
X159292993Y-70689504D01*
X159270471Y-70681446D01*
X159248847Y-70671218D01*
X159228330Y-70658921D01*
X159209117Y-70644671D01*
X159191393Y-70628607D01*
X159175329Y-70610883D01*
X159161079Y-70591670D01*
X159148782Y-70571153D01*
X159138554Y-70549529D01*
X159130496Y-70527007D01*
X159124684Y-70503803D01*
X159121174Y-70480142D01*
X159120000Y-70456250D01*
X159120000Y-69543750D01*
X159121174Y-69519858D01*
X159124684Y-69496197D01*
X159130496Y-69472993D01*
X159138554Y-69450471D01*
X159148782Y-69428847D01*
X159161079Y-69408330D01*
X159175329Y-69389117D01*
X159191393Y-69371393D01*
X159209117Y-69355329D01*
X159228330Y-69341079D01*
X159248847Y-69328782D01*
X159270471Y-69318554D01*
X159292993Y-69310496D01*
X159316197Y-69304684D01*
X159339858Y-69301174D01*
X159363750Y-69300000D01*
X159851250Y-69300000D01*
X159875142Y-69301174D01*
G37*
G36*
X158000142Y-69301174D02*
G01*
X158023803Y-69304684D01*
X158047007Y-69310496D01*
X158069529Y-69318554D01*
X158091153Y-69328782D01*
X158111670Y-69341079D01*
X158130883Y-69355329D01*
X158148607Y-69371393D01*
X158164671Y-69389117D01*
X158178921Y-69408330D01*
X158191218Y-69428847D01*
X158201446Y-69450471D01*
X158209504Y-69472993D01*
X158215316Y-69496197D01*
X158218826Y-69519858D01*
X158220000Y-69543750D01*
X158220000Y-70456250D01*
X158218826Y-70480142D01*
X158215316Y-70503803D01*
X158209504Y-70527007D01*
X158201446Y-70549529D01*
X158191218Y-70571153D01*
X158178921Y-70591670D01*
X158164671Y-70610883D01*
X158148607Y-70628607D01*
X158130883Y-70644671D01*
X158111670Y-70658921D01*
X158091153Y-70671218D01*
X158069529Y-70681446D01*
X158047007Y-70689504D01*
X158023803Y-70695316D01*
X158000142Y-70698826D01*
X157976250Y-70700000D01*
X157488750Y-70700000D01*
X157464858Y-70698826D01*
X157441197Y-70695316D01*
X157417993Y-70689504D01*
X157395471Y-70681446D01*
X157373847Y-70671218D01*
X157353330Y-70658921D01*
X157334117Y-70644671D01*
X157316393Y-70628607D01*
X157300329Y-70610883D01*
X157286079Y-70591670D01*
X157273782Y-70571153D01*
X157263554Y-70549529D01*
X157255496Y-70527007D01*
X157249684Y-70503803D01*
X157246174Y-70480142D01*
X157245000Y-70456250D01*
X157245000Y-69543750D01*
X157246174Y-69519858D01*
X157249684Y-69496197D01*
X157255496Y-69472993D01*
X157263554Y-69450471D01*
X157273782Y-69428847D01*
X157286079Y-69408330D01*
X157300329Y-69389117D01*
X157316393Y-69371393D01*
X157334117Y-69355329D01*
X157353330Y-69341079D01*
X157373847Y-69328782D01*
X157395471Y-69318554D01*
X157417993Y-69310496D01*
X157441197Y-69304684D01*
X157464858Y-69301174D01*
X157488750Y-69300000D01*
X157976250Y-69300000D01*
X158000142Y-69301174D01*
G37*
G36*
X168875142Y-70801174D02*
G01*
X168898803Y-70804684D01*
X168922007Y-70810496D01*
X168944529Y-70818554D01*
X168966153Y-70828782D01*
X168986670Y-70841079D01*
X169005883Y-70855329D01*
X169023607Y-70871393D01*
X169039671Y-70889117D01*
X169053921Y-70908330D01*
X169066218Y-70928847D01*
X169076446Y-70950471D01*
X169084504Y-70972993D01*
X169090316Y-70996197D01*
X169093826Y-71019858D01*
X169095000Y-71043750D01*
X169095000Y-71956250D01*
X169093826Y-71980142D01*
X169090316Y-72003803D01*
X169084504Y-72027007D01*
X169076446Y-72049529D01*
X169066218Y-72071153D01*
X169053921Y-72091670D01*
X169039671Y-72110883D01*
X169023607Y-72128607D01*
X169005883Y-72144671D01*
X168986670Y-72158921D01*
X168966153Y-72171218D01*
X168944529Y-72181446D01*
X168922007Y-72189504D01*
X168898803Y-72195316D01*
X168875142Y-72198826D01*
X168851250Y-72200000D01*
X168363750Y-72200000D01*
X168339858Y-72198826D01*
X168316197Y-72195316D01*
X168292993Y-72189504D01*
X168270471Y-72181446D01*
X168248847Y-72171218D01*
X168228330Y-72158921D01*
X168209117Y-72144671D01*
X168191393Y-72128607D01*
X168175329Y-72110883D01*
X168161079Y-72091670D01*
X168148782Y-72071153D01*
X168138554Y-72049529D01*
X168130496Y-72027007D01*
X168124684Y-72003803D01*
X168121174Y-71980142D01*
X168120000Y-71956250D01*
X168120000Y-71043750D01*
X168121174Y-71019858D01*
X168124684Y-70996197D01*
X168130496Y-70972993D01*
X168138554Y-70950471D01*
X168148782Y-70928847D01*
X168161079Y-70908330D01*
X168175329Y-70889117D01*
X168191393Y-70871393D01*
X168209117Y-70855329D01*
X168228330Y-70841079D01*
X168248847Y-70828782D01*
X168270471Y-70818554D01*
X168292993Y-70810496D01*
X168316197Y-70804684D01*
X168339858Y-70801174D01*
X168363750Y-70800000D01*
X168851250Y-70800000D01*
X168875142Y-70801174D01*
G37*
G36*
X167000142Y-70801174D02*
G01*
X167023803Y-70804684D01*
X167047007Y-70810496D01*
X167069529Y-70818554D01*
X167091153Y-70828782D01*
X167111670Y-70841079D01*
X167130883Y-70855329D01*
X167148607Y-70871393D01*
X167164671Y-70889117D01*
X167178921Y-70908330D01*
X167191218Y-70928847D01*
X167201446Y-70950471D01*
X167209504Y-70972993D01*
X167215316Y-70996197D01*
X167218826Y-71019858D01*
X167220000Y-71043750D01*
X167220000Y-71956250D01*
X167218826Y-71980142D01*
X167215316Y-72003803D01*
X167209504Y-72027007D01*
X167201446Y-72049529D01*
X167191218Y-72071153D01*
X167178921Y-72091670D01*
X167164671Y-72110883D01*
X167148607Y-72128607D01*
X167130883Y-72144671D01*
X167111670Y-72158921D01*
X167091153Y-72171218D01*
X167069529Y-72181446D01*
X167047007Y-72189504D01*
X167023803Y-72195316D01*
X167000142Y-72198826D01*
X166976250Y-72200000D01*
X166488750Y-72200000D01*
X166464858Y-72198826D01*
X166441197Y-72195316D01*
X166417993Y-72189504D01*
X166395471Y-72181446D01*
X166373847Y-72171218D01*
X166353330Y-72158921D01*
X166334117Y-72144671D01*
X166316393Y-72128607D01*
X166300329Y-72110883D01*
X166286079Y-72091670D01*
X166273782Y-72071153D01*
X166263554Y-72049529D01*
X166255496Y-72027007D01*
X166249684Y-72003803D01*
X166246174Y-71980142D01*
X166245000Y-71956250D01*
X166245000Y-71043750D01*
X166246174Y-71019858D01*
X166249684Y-70996197D01*
X166255496Y-70972993D01*
X166263554Y-70950471D01*
X166273782Y-70928847D01*
X166286079Y-70908330D01*
X166300329Y-70889117D01*
X166316393Y-70871393D01*
X166334117Y-70855329D01*
X166353330Y-70841079D01*
X166373847Y-70828782D01*
X166395471Y-70818554D01*
X166417993Y-70810496D01*
X166441197Y-70804684D01*
X166464858Y-70801174D01*
X166488750Y-70800000D01*
X166976250Y-70800000D01*
X167000142Y-70801174D01*
G37*
G36*
X168250142Y-78051174D02*
G01*
X168273803Y-78054684D01*
X168297007Y-78060496D01*
X168319529Y-78068554D01*
X168341153Y-78078782D01*
X168361670Y-78091079D01*
X168380883Y-78105329D01*
X168398607Y-78121393D01*
X168414671Y-78139117D01*
X168428921Y-78158330D01*
X168441218Y-78178847D01*
X168451446Y-78200471D01*
X168459504Y-78222993D01*
X168465316Y-78246197D01*
X168468826Y-78269858D01*
X168470000Y-78293750D01*
X168470000Y-79206250D01*
X168468826Y-79230142D01*
X168465316Y-79253803D01*
X168459504Y-79277007D01*
X168451446Y-79299529D01*
X168441218Y-79321153D01*
X168428921Y-79341670D01*
X168414671Y-79360883D01*
X168398607Y-79378607D01*
X168380883Y-79394671D01*
X168361670Y-79408921D01*
X168341153Y-79421218D01*
X168319529Y-79431446D01*
X168297007Y-79439504D01*
X168273803Y-79445316D01*
X168250142Y-79448826D01*
X168226250Y-79450000D01*
X167738750Y-79450000D01*
X167714858Y-79448826D01*
X167691197Y-79445316D01*
X167667993Y-79439504D01*
X167645471Y-79431446D01*
X167623847Y-79421218D01*
X167603330Y-79408921D01*
X167584117Y-79394671D01*
X167566393Y-79378607D01*
X167550329Y-79360883D01*
X167536079Y-79341670D01*
X167523782Y-79321153D01*
X167513554Y-79299529D01*
X167505496Y-79277007D01*
X167499684Y-79253803D01*
X167496174Y-79230142D01*
X167495000Y-79206250D01*
X167495000Y-78293750D01*
X167496174Y-78269858D01*
X167499684Y-78246197D01*
X167505496Y-78222993D01*
X167513554Y-78200471D01*
X167523782Y-78178847D01*
X167536079Y-78158330D01*
X167550329Y-78139117D01*
X167566393Y-78121393D01*
X167584117Y-78105329D01*
X167603330Y-78091079D01*
X167623847Y-78078782D01*
X167645471Y-78068554D01*
X167667993Y-78060496D01*
X167691197Y-78054684D01*
X167714858Y-78051174D01*
X167738750Y-78050000D01*
X168226250Y-78050000D01*
X168250142Y-78051174D01*
G37*
G36*
X170125142Y-78051174D02*
G01*
X170148803Y-78054684D01*
X170172007Y-78060496D01*
X170194529Y-78068554D01*
X170216153Y-78078782D01*
X170236670Y-78091079D01*
X170255883Y-78105329D01*
X170273607Y-78121393D01*
X170289671Y-78139117D01*
X170303921Y-78158330D01*
X170316218Y-78178847D01*
X170326446Y-78200471D01*
X170334504Y-78222993D01*
X170340316Y-78246197D01*
X170343826Y-78269858D01*
X170345000Y-78293750D01*
X170345000Y-79206250D01*
X170343826Y-79230142D01*
X170340316Y-79253803D01*
X170334504Y-79277007D01*
X170326446Y-79299529D01*
X170316218Y-79321153D01*
X170303921Y-79341670D01*
X170289671Y-79360883D01*
X170273607Y-79378607D01*
X170255883Y-79394671D01*
X170236670Y-79408921D01*
X170216153Y-79421218D01*
X170194529Y-79431446D01*
X170172007Y-79439504D01*
X170148803Y-79445316D01*
X170125142Y-79448826D01*
X170101250Y-79450000D01*
X169613750Y-79450000D01*
X169589858Y-79448826D01*
X169566197Y-79445316D01*
X169542993Y-79439504D01*
X169520471Y-79431446D01*
X169498847Y-79421218D01*
X169478330Y-79408921D01*
X169459117Y-79394671D01*
X169441393Y-79378607D01*
X169425329Y-79360883D01*
X169411079Y-79341670D01*
X169398782Y-79321153D01*
X169388554Y-79299529D01*
X169380496Y-79277007D01*
X169374684Y-79253803D01*
X169371174Y-79230142D01*
X169370000Y-79206250D01*
X169370000Y-78293750D01*
X169371174Y-78269858D01*
X169374684Y-78246197D01*
X169380496Y-78222993D01*
X169388554Y-78200471D01*
X169398782Y-78178847D01*
X169411079Y-78158330D01*
X169425329Y-78139117D01*
X169441393Y-78121393D01*
X169459117Y-78105329D01*
X169478330Y-78091079D01*
X169498847Y-78078782D01*
X169520471Y-78068554D01*
X169542993Y-78060496D01*
X169566197Y-78054684D01*
X169589858Y-78051174D01*
X169613750Y-78050000D01*
X170101250Y-78050000D01*
X170125142Y-78051174D01*
G37*
G36*
X164000142Y-57301174D02*
G01*
X164023803Y-57304684D01*
X164047007Y-57310496D01*
X164069529Y-57318554D01*
X164091153Y-57328782D01*
X164111670Y-57341079D01*
X164130883Y-57355329D01*
X164148607Y-57371393D01*
X164164671Y-57389117D01*
X164178921Y-57408330D01*
X164191218Y-57428847D01*
X164201446Y-57450471D01*
X164209504Y-57472993D01*
X164215316Y-57496197D01*
X164218826Y-57519858D01*
X164220000Y-57543750D01*
X164220000Y-58456250D01*
X164218826Y-58480142D01*
X164215316Y-58503803D01*
X164209504Y-58527007D01*
X164201446Y-58549529D01*
X164191218Y-58571153D01*
X164178921Y-58591670D01*
X164164671Y-58610883D01*
X164148607Y-58628607D01*
X164130883Y-58644671D01*
X164111670Y-58658921D01*
X164091153Y-58671218D01*
X164069529Y-58681446D01*
X164047007Y-58689504D01*
X164023803Y-58695316D01*
X164000142Y-58698826D01*
X163976250Y-58700000D01*
X163488750Y-58700000D01*
X163464858Y-58698826D01*
X163441197Y-58695316D01*
X163417993Y-58689504D01*
X163395471Y-58681446D01*
X163373847Y-58671218D01*
X163353330Y-58658921D01*
X163334117Y-58644671D01*
X163316393Y-58628607D01*
X163300329Y-58610883D01*
X163286079Y-58591670D01*
X163273782Y-58571153D01*
X163263554Y-58549529D01*
X163255496Y-58527007D01*
X163249684Y-58503803D01*
X163246174Y-58480142D01*
X163245000Y-58456250D01*
X163245000Y-57543750D01*
X163246174Y-57519858D01*
X163249684Y-57496197D01*
X163255496Y-57472993D01*
X163263554Y-57450471D01*
X163273782Y-57428847D01*
X163286079Y-57408330D01*
X163300329Y-57389117D01*
X163316393Y-57371393D01*
X163334117Y-57355329D01*
X163353330Y-57341079D01*
X163373847Y-57328782D01*
X163395471Y-57318554D01*
X163417993Y-57310496D01*
X163441197Y-57304684D01*
X163464858Y-57301174D01*
X163488750Y-57300000D01*
X163976250Y-57300000D01*
X164000142Y-57301174D01*
G37*
G36*
X165875142Y-57301174D02*
G01*
X165898803Y-57304684D01*
X165922007Y-57310496D01*
X165944529Y-57318554D01*
X165966153Y-57328782D01*
X165986670Y-57341079D01*
X166005883Y-57355329D01*
X166023607Y-57371393D01*
X166039671Y-57389117D01*
X166053921Y-57408330D01*
X166066218Y-57428847D01*
X166076446Y-57450471D01*
X166084504Y-57472993D01*
X166090316Y-57496197D01*
X166093826Y-57519858D01*
X166095000Y-57543750D01*
X166095000Y-58456250D01*
X166093826Y-58480142D01*
X166090316Y-58503803D01*
X166084504Y-58527007D01*
X166076446Y-58549529D01*
X166066218Y-58571153D01*
X166053921Y-58591670D01*
X166039671Y-58610883D01*
X166023607Y-58628607D01*
X166005883Y-58644671D01*
X165986670Y-58658921D01*
X165966153Y-58671218D01*
X165944529Y-58681446D01*
X165922007Y-58689504D01*
X165898803Y-58695316D01*
X165875142Y-58698826D01*
X165851250Y-58700000D01*
X165363750Y-58700000D01*
X165339858Y-58698826D01*
X165316197Y-58695316D01*
X165292993Y-58689504D01*
X165270471Y-58681446D01*
X165248847Y-58671218D01*
X165228330Y-58658921D01*
X165209117Y-58644671D01*
X165191393Y-58628607D01*
X165175329Y-58610883D01*
X165161079Y-58591670D01*
X165148782Y-58571153D01*
X165138554Y-58549529D01*
X165130496Y-58527007D01*
X165124684Y-58503803D01*
X165121174Y-58480142D01*
X165120000Y-58456250D01*
X165120000Y-57543750D01*
X165121174Y-57519858D01*
X165124684Y-57496197D01*
X165130496Y-57472993D01*
X165138554Y-57450471D01*
X165148782Y-57428847D01*
X165161079Y-57408330D01*
X165175329Y-57389117D01*
X165191393Y-57371393D01*
X165209117Y-57355329D01*
X165228330Y-57341079D01*
X165248847Y-57328782D01*
X165270471Y-57318554D01*
X165292993Y-57310496D01*
X165316197Y-57304684D01*
X165339858Y-57301174D01*
X165363750Y-57300000D01*
X165851250Y-57300000D01*
X165875142Y-57301174D01*
G37*
G36*
X159150142Y-67451174D02*
G01*
X159173803Y-67454684D01*
X159197007Y-67460496D01*
X159219529Y-67468554D01*
X159241153Y-67478782D01*
X159261670Y-67491079D01*
X159280883Y-67505329D01*
X159298607Y-67521393D01*
X159314671Y-67539117D01*
X159328921Y-67558330D01*
X159341218Y-67578847D01*
X159351446Y-67600471D01*
X159359504Y-67622993D01*
X159365316Y-67646197D01*
X159368826Y-67669858D01*
X159370000Y-67693750D01*
X159370000Y-68181250D01*
X159368826Y-68205142D01*
X159365316Y-68228803D01*
X159359504Y-68252007D01*
X159351446Y-68274529D01*
X159341218Y-68296153D01*
X159328921Y-68316670D01*
X159314671Y-68335883D01*
X159298607Y-68353607D01*
X159280883Y-68369671D01*
X159261670Y-68383921D01*
X159241153Y-68396218D01*
X159219529Y-68406446D01*
X159197007Y-68414504D01*
X159173803Y-68420316D01*
X159150142Y-68423826D01*
X159126250Y-68425000D01*
X158213750Y-68425000D01*
X158189858Y-68423826D01*
X158166197Y-68420316D01*
X158142993Y-68414504D01*
X158120471Y-68406446D01*
X158098847Y-68396218D01*
X158078330Y-68383921D01*
X158059117Y-68369671D01*
X158041393Y-68353607D01*
X158025329Y-68335883D01*
X158011079Y-68316670D01*
X157998782Y-68296153D01*
X157988554Y-68274529D01*
X157980496Y-68252007D01*
X157974684Y-68228803D01*
X157971174Y-68205142D01*
X157970000Y-68181250D01*
X157970000Y-67693750D01*
X157971174Y-67669858D01*
X157974684Y-67646197D01*
X157980496Y-67622993D01*
X157988554Y-67600471D01*
X157998782Y-67578847D01*
X158011079Y-67558330D01*
X158025329Y-67539117D01*
X158041393Y-67521393D01*
X158059117Y-67505329D01*
X158078330Y-67491079D01*
X158098847Y-67478782D01*
X158120471Y-67468554D01*
X158142993Y-67460496D01*
X158166197Y-67454684D01*
X158189858Y-67451174D01*
X158213750Y-67450000D01*
X159126250Y-67450000D01*
X159150142Y-67451174D01*
G37*
G36*
X159150142Y-65576174D02*
G01*
X159173803Y-65579684D01*
X159197007Y-65585496D01*
X159219529Y-65593554D01*
X159241153Y-65603782D01*
X159261670Y-65616079D01*
X159280883Y-65630329D01*
X159298607Y-65646393D01*
X159314671Y-65664117D01*
X159328921Y-65683330D01*
X159341218Y-65703847D01*
X159351446Y-65725471D01*
X159359504Y-65747993D01*
X159365316Y-65771197D01*
X159368826Y-65794858D01*
X159370000Y-65818750D01*
X159370000Y-66306250D01*
X159368826Y-66330142D01*
X159365316Y-66353803D01*
X159359504Y-66377007D01*
X159351446Y-66399529D01*
X159341218Y-66421153D01*
X159328921Y-66441670D01*
X159314671Y-66460883D01*
X159298607Y-66478607D01*
X159280883Y-66494671D01*
X159261670Y-66508921D01*
X159241153Y-66521218D01*
X159219529Y-66531446D01*
X159197007Y-66539504D01*
X159173803Y-66545316D01*
X159150142Y-66548826D01*
X159126250Y-66550000D01*
X158213750Y-66550000D01*
X158189858Y-66548826D01*
X158166197Y-66545316D01*
X158142993Y-66539504D01*
X158120471Y-66531446D01*
X158098847Y-66521218D01*
X158078330Y-66508921D01*
X158059117Y-66494671D01*
X158041393Y-66478607D01*
X158025329Y-66460883D01*
X158011079Y-66441670D01*
X157998782Y-66421153D01*
X157988554Y-66399529D01*
X157980496Y-66377007D01*
X157974684Y-66353803D01*
X157971174Y-66330142D01*
X157970000Y-66306250D01*
X157970000Y-65818750D01*
X157971174Y-65794858D01*
X157974684Y-65771197D01*
X157980496Y-65747993D01*
X157988554Y-65725471D01*
X157998782Y-65703847D01*
X158011079Y-65683330D01*
X158025329Y-65664117D01*
X158041393Y-65646393D01*
X158059117Y-65630329D01*
X158078330Y-65616079D01*
X158098847Y-65603782D01*
X158120471Y-65593554D01*
X158142993Y-65585496D01*
X158166197Y-65579684D01*
X158189858Y-65576174D01*
X158213750Y-65575000D01*
X159126250Y-65575000D01*
X159150142Y-65576174D01*
G37*
G36*
X153400142Y-65576174D02*
G01*
X153423803Y-65579684D01*
X153447007Y-65585496D01*
X153469529Y-65593554D01*
X153491153Y-65603782D01*
X153511670Y-65616079D01*
X153530883Y-65630329D01*
X153548607Y-65646393D01*
X153564671Y-65664117D01*
X153578921Y-65683330D01*
X153591218Y-65703847D01*
X153601446Y-65725471D01*
X153609504Y-65747993D01*
X153615316Y-65771197D01*
X153618826Y-65794858D01*
X153620000Y-65818750D01*
X153620000Y-66306250D01*
X153618826Y-66330142D01*
X153615316Y-66353803D01*
X153609504Y-66377007D01*
X153601446Y-66399529D01*
X153591218Y-66421153D01*
X153578921Y-66441670D01*
X153564671Y-66460883D01*
X153548607Y-66478607D01*
X153530883Y-66494671D01*
X153511670Y-66508921D01*
X153491153Y-66521218D01*
X153469529Y-66531446D01*
X153447007Y-66539504D01*
X153423803Y-66545316D01*
X153400142Y-66548826D01*
X153376250Y-66550000D01*
X152463750Y-66550000D01*
X152439858Y-66548826D01*
X152416197Y-66545316D01*
X152392993Y-66539504D01*
X152370471Y-66531446D01*
X152348847Y-66521218D01*
X152328330Y-66508921D01*
X152309117Y-66494671D01*
X152291393Y-66478607D01*
X152275329Y-66460883D01*
X152261079Y-66441670D01*
X152248782Y-66421153D01*
X152238554Y-66399529D01*
X152230496Y-66377007D01*
X152224684Y-66353803D01*
X152221174Y-66330142D01*
X152220000Y-66306250D01*
X152220000Y-65818750D01*
X152221174Y-65794858D01*
X152224684Y-65771197D01*
X152230496Y-65747993D01*
X152238554Y-65725471D01*
X152248782Y-65703847D01*
X152261079Y-65683330D01*
X152275329Y-65664117D01*
X152291393Y-65646393D01*
X152309117Y-65630329D01*
X152328330Y-65616079D01*
X152348847Y-65603782D01*
X152370471Y-65593554D01*
X152392993Y-65585496D01*
X152416197Y-65579684D01*
X152439858Y-65576174D01*
X152463750Y-65575000D01*
X153376250Y-65575000D01*
X153400142Y-65576174D01*
G37*
G36*
X153400142Y-67451174D02*
G01*
X153423803Y-67454684D01*
X153447007Y-67460496D01*
X153469529Y-67468554D01*
X153491153Y-67478782D01*
X153511670Y-67491079D01*
X153530883Y-67505329D01*
X153548607Y-67521393D01*
X153564671Y-67539117D01*
X153578921Y-67558330D01*
X153591218Y-67578847D01*
X153601446Y-67600471D01*
X153609504Y-67622993D01*
X153615316Y-67646197D01*
X153618826Y-67669858D01*
X153620000Y-67693750D01*
X153620000Y-68181250D01*
X153618826Y-68205142D01*
X153615316Y-68228803D01*
X153609504Y-68252007D01*
X153601446Y-68274529D01*
X153591218Y-68296153D01*
X153578921Y-68316670D01*
X153564671Y-68335883D01*
X153548607Y-68353607D01*
X153530883Y-68369671D01*
X153511670Y-68383921D01*
X153491153Y-68396218D01*
X153469529Y-68406446D01*
X153447007Y-68414504D01*
X153423803Y-68420316D01*
X153400142Y-68423826D01*
X153376250Y-68425000D01*
X152463750Y-68425000D01*
X152439858Y-68423826D01*
X152416197Y-68420316D01*
X152392993Y-68414504D01*
X152370471Y-68406446D01*
X152348847Y-68396218D01*
X152328330Y-68383921D01*
X152309117Y-68369671D01*
X152291393Y-68353607D01*
X152275329Y-68335883D01*
X152261079Y-68316670D01*
X152248782Y-68296153D01*
X152238554Y-68274529D01*
X152230496Y-68252007D01*
X152224684Y-68228803D01*
X152221174Y-68205142D01*
X152220000Y-68181250D01*
X152220000Y-67693750D01*
X152221174Y-67669858D01*
X152224684Y-67646197D01*
X152230496Y-67622993D01*
X152238554Y-67600471D01*
X152248782Y-67578847D01*
X152261079Y-67558330D01*
X152275329Y-67539117D01*
X152291393Y-67521393D01*
X152309117Y-67505329D01*
X152328330Y-67491079D01*
X152348847Y-67478782D01*
X152370471Y-67468554D01*
X152392993Y-67460496D01*
X152416197Y-67454684D01*
X152439858Y-67451174D01*
X152463750Y-67450000D01*
X153376250Y-67450000D01*
X153400142Y-67451174D01*
G37*
D14*
X152220000Y-54575000D03*
X152220000Y-55225000D03*
X152220000Y-55875000D03*
X152220000Y-56525000D03*
X152220000Y-57175000D03*
X152220000Y-57825000D03*
X152220000Y-58475000D03*
X152220000Y-59125000D03*
X152220000Y-59775000D03*
X152220000Y-60425000D03*
X158120000Y-60425000D03*
X158120000Y-59775000D03*
X158120000Y-59125000D03*
X158120000Y-58475000D03*
X158120000Y-57825000D03*
X158120000Y-57175000D03*
X158120000Y-56525000D03*
X158120000Y-55875000D03*
X158120000Y-55225000D03*
X158120000Y-54575000D03*
D15*
X151320000Y-72550000D03*
X151320000Y-73500000D03*
X151320000Y-74450000D03*
X153520000Y-74450000D03*
X153520000Y-72550000D03*
M02*
