M48
; DRILL file {KiCad (5.1.5)-3} date 7/7/2020 9:27:12 PM
; FORMAT={-:-/ absolute / inch / decimal}
; #@! TF.CreationDate,2020-07-07T21:27:12-07:00
; #@! TF.GenerationSoftware,Kicad,Pcbnew,(5.1.5)-3
FMAT,2
INCH
T1C0.0157
T2C0.0236
T3C0.0335
T4C0.0394
T5C0.0492
T6C0.0512
T7C0.0472
%
G90
G05
T1
X5.7446Y-2.0646
X5.859Y-3.0254
X5.9116Y-2.8898
X5.9299Y-3.0254
X5.9363Y-3.1674
X5.9732Y-2.5723
X6.0661Y-2.3051
X6.082Y-2.8937
X6.1262Y-2.2894
X6.1365Y-2.3289
X6.1499Y-2.7328
X6.1602Y-2.3716
X6.1659Y-2.823
X6.1691Y-2.2796
X6.1956Y-2.438
X6.2036Y-2.0646
X6.2291Y-2.8957
X6.2984Y-2.2679
X6.2991Y-2.522
X6.3012Y-2.5971
X6.3189Y-1.7972
X6.3193Y-2.9022
X6.3591Y-2.4664
X6.3736Y-2.8871
X6.3739Y-3.2138
X6.3848Y-2.1113
X6.3943Y-2.6733
X6.4269Y-2.0448
X6.4389Y-2.5935
X6.4806Y-2.8674
X6.4817Y-2.2392
X6.4819Y-2.9165
X6.4951Y-2.6123
X6.4983Y-3.0572
X6.5837Y-2.2234
X6.5931Y-2.6669
X6.6277Y-3.1527
X6.6406Y-1.9291
X6.6406Y-1.9685
X6.6406Y-2.0079
X6.6406Y-2.0472
X6.677Y-2.9035
X6.6797Y-2.773
X6.6799Y-1.9291
X6.6799Y-1.9685
X6.6799Y-2.0079
X6.6799Y-2.0472
X6.7016Y-2.3802
X6.7094Y-2.1949
X6.7094Y-2.2343
X6.7094Y-2.2736
X6.7193Y-1.9291
X6.7193Y-1.9685
X6.7193Y-2.0079
X6.7193Y-2.0472
X6.7193Y-2.577
X6.7193Y-2.7355
X6.7488Y-2.1949
X6.7488Y-2.2343
X6.7488Y-2.2736
X6.7587Y-1.9291
X6.7587Y-1.9685
X6.7587Y-2.0079
X6.7587Y-2.0472
X6.7882Y-2.1949
X6.7882Y-2.2343
X6.7882Y-2.2736
X6.798Y-1.9291
X6.798Y-1.9685
X6.798Y-2.0079
X6.798Y-2.0472
X6.8276Y-2.1949
X6.8276Y-2.2343
X6.8276Y-2.2736
T3
X5.6548Y-2.0177
X5.6548Y-2.2146
T4
X6.9555Y-2.5
X6.9555Y-2.6
X6.9555Y-2.7
X6.9555Y-2.8
X7.0555Y-2.5
X7.0555Y-2.6
X7.0555Y-2.7
X7.0555Y-2.8
X6.3354Y-3.0709
X6.3354Y-3.1709
X6.0106Y-1.7421
X6.1091Y-1.7421
X6.1681Y-3.0709
X6.1681Y-3.1709
X6.0933Y-1.9193
X6.5421Y-1.9193
X6.4602Y-1.6831
X6.5602Y-1.6831
X6.6602Y-1.6831
T5
X5.6071Y-2.7953
X5.863Y-2.7953
T6
X5.7055Y-2.4114
X5.7055Y-2.6114
X6.9457Y-2.0835
X6.9457Y-2.2835
T7
X6.172Y-1.6634
T2
G00X5.5347Y-1.9783
M15
G01X5.5623Y-1.9783
M16
G05
G00X5.5623Y-2.2539
M15
G01X5.5347Y-2.2539
M16
G05
T0
M30
