G04 #@! TF.GenerationSoftware,KiCad,Pcbnew,(5.1.5)-3*
G04 #@! TF.CreationDate,2020-10-12T20:48:49-07:00*
G04 #@! TF.ProjectId,tool_head,746f6f6c-5f68-4656-9164-2e6b69636164,B*
G04 #@! TF.SameCoordinates,Original*
G04 #@! TF.FileFunction,Legend,Top*
G04 #@! TF.FilePolarity,Positive*
%FSLAX46Y46*%
G04 Gerber Fmt 4.6, Leading zero omitted, Abs format (unit mm)*
G04 Created by KiCad (PCBNEW (5.1.5)-3) date 2020-10-12 20:48:49*
%MOMM*%
%LPD*%
G04 APERTURE LIST*
%ADD10C,0.300000*%
%ADD11C,0.150000*%
%ADD12C,0.250000*%
%ADD13C,0.120000*%
G04 APERTURE END LIST*
D10*
X147027142Y-41178571D02*
X147884285Y-41178571D01*
X147455714Y-42678571D02*
X147455714Y-41178571D01*
X148670000Y-41178571D02*
X148812857Y-41178571D01*
X148955714Y-41250000D01*
X149027142Y-41321428D01*
X149098571Y-41464285D01*
X149170000Y-41750000D01*
X149170000Y-42107142D01*
X149098571Y-42392857D01*
X149027142Y-42535714D01*
X148955714Y-42607142D01*
X148812857Y-42678571D01*
X148670000Y-42678571D01*
X148527142Y-42607142D01*
X148455714Y-42535714D01*
X148384285Y-42392857D01*
X148312857Y-42107142D01*
X148312857Y-41750000D01*
X148384285Y-41464285D01*
X148455714Y-41321428D01*
X148527142Y-41250000D01*
X148670000Y-41178571D01*
D11*
X179289047Y-61571428D02*
X180050952Y-61571428D01*
X179670000Y-61952380D02*
X179670000Y-61190476D01*
X179789047Y-49821428D02*
X180550952Y-49821428D01*
X180170000Y-50202380D02*
X180170000Y-49440476D01*
X162789047Y-81702380D02*
X162789047Y-80702380D01*
X163170000Y-80702380D01*
X163265238Y-80750000D01*
X163312857Y-80797619D01*
X163360476Y-80892857D01*
X163360476Y-81035714D01*
X163312857Y-81130952D01*
X163265238Y-81178571D01*
X163170000Y-81226190D01*
X162789047Y-81226190D01*
X163693809Y-80702380D02*
X163931904Y-81702380D01*
X164122380Y-80988095D01*
X164312857Y-81702380D01*
X164550952Y-80702380D01*
X164931904Y-81702380D02*
X164931904Y-80702380D01*
X165265238Y-81416666D01*
X165598571Y-80702380D01*
X165598571Y-81702380D01*
X166265238Y-80702380D02*
X166360476Y-80702380D01*
X166455714Y-80750000D01*
X166503333Y-80797619D01*
X166550952Y-80892857D01*
X166598571Y-81083333D01*
X166598571Y-81321428D01*
X166550952Y-81511904D01*
X166503333Y-81607142D01*
X166455714Y-81654761D01*
X166360476Y-81702380D01*
X166265238Y-81702380D01*
X166170000Y-81654761D01*
X166122380Y-81607142D01*
X166074761Y-81511904D01*
X166027142Y-81321428D01*
X166027142Y-81083333D01*
X166074761Y-80892857D01*
X166122380Y-80797619D01*
X166170000Y-80750000D01*
X166265238Y-80702380D01*
X151289047Y-81702380D02*
X151289047Y-80702380D01*
X151670000Y-80702380D01*
X151765238Y-80750000D01*
X151812857Y-80797619D01*
X151860476Y-80892857D01*
X151860476Y-81035714D01*
X151812857Y-81130952D01*
X151765238Y-81178571D01*
X151670000Y-81226190D01*
X151289047Y-81226190D01*
X152193809Y-80702380D02*
X152431904Y-81702380D01*
X152622380Y-80988095D01*
X152812857Y-81702380D01*
X153050952Y-80702380D01*
X153431904Y-81702380D02*
X153431904Y-80702380D01*
X153765238Y-81416666D01*
X154098571Y-80702380D01*
X154098571Y-81702380D01*
X155098571Y-81702380D02*
X154527142Y-81702380D01*
X154812857Y-81702380D02*
X154812857Y-80702380D01*
X154717619Y-80845238D01*
X154622380Y-80940476D01*
X154527142Y-80988095D01*
X173408095Y-50202380D02*
X173408095Y-49202380D01*
X173408095Y-49678571D02*
X173979523Y-49678571D01*
X173979523Y-50202380D02*
X173979523Y-49202380D01*
X174598571Y-50202380D02*
X174503333Y-50154761D01*
X174455714Y-50107142D01*
X174408095Y-50011904D01*
X174408095Y-49726190D01*
X174455714Y-49630952D01*
X174503333Y-49583333D01*
X174598571Y-49535714D01*
X174741428Y-49535714D01*
X174836666Y-49583333D01*
X174884285Y-49630952D01*
X174931904Y-49726190D01*
X174931904Y-50011904D01*
X174884285Y-50107142D01*
X174836666Y-50154761D01*
X174741428Y-50202380D01*
X174598571Y-50202380D01*
X175217619Y-49535714D02*
X175598571Y-49535714D01*
X175360476Y-49202380D02*
X175360476Y-50059523D01*
X175408095Y-50154761D01*
X175503333Y-50202380D01*
X175598571Y-50202380D01*
X176693809Y-49678571D02*
X177027142Y-49678571D01*
X177170000Y-50202380D02*
X176693809Y-50202380D01*
X176693809Y-49202380D01*
X177170000Y-49202380D01*
X177598571Y-49535714D02*
X177598571Y-50202380D01*
X177598571Y-49630952D02*
X177646190Y-49583333D01*
X177741428Y-49535714D01*
X177884285Y-49535714D01*
X177979523Y-49583333D01*
X178027142Y-49678571D01*
X178027142Y-50202380D01*
X178931904Y-50202380D02*
X178931904Y-49202380D01*
X178931904Y-50154761D02*
X178836666Y-50202380D01*
X178646190Y-50202380D01*
X178550952Y-50154761D01*
X178503333Y-50107142D01*
X178455714Y-50011904D01*
X178455714Y-49726190D01*
X178503333Y-49630952D01*
X178550952Y-49583333D01*
X178646190Y-49535714D01*
X178836666Y-49535714D01*
X178931904Y-49583333D01*
X145193809Y-61452380D02*
X145193809Y-60452380D01*
X145574761Y-60452380D01*
X145670000Y-60500000D01*
X145717619Y-60547619D01*
X145765238Y-60642857D01*
X145765238Y-60785714D01*
X145717619Y-60880952D01*
X145670000Y-60928571D01*
X145574761Y-60976190D01*
X145193809Y-60976190D01*
X146098571Y-60452380D02*
X146336666Y-61452380D01*
X146527142Y-60738095D01*
X146717619Y-61452380D01*
X146955714Y-60452380D01*
X147908095Y-61452380D02*
X147574761Y-60976190D01*
X147336666Y-61452380D02*
X147336666Y-60452380D01*
X147717619Y-60452380D01*
X147812857Y-60500000D01*
X147860476Y-60547619D01*
X147908095Y-60642857D01*
X147908095Y-60785714D01*
X147860476Y-60880952D01*
X147812857Y-60928571D01*
X147717619Y-60976190D01*
X147336666Y-60976190D01*
X149098571Y-61452380D02*
X149098571Y-60452380D01*
X149574761Y-61452380D02*
X149574761Y-60452380D01*
X150146190Y-61452380D01*
X150146190Y-60452380D01*
X167777142Y-81452380D02*
X167681904Y-81404761D01*
X167634285Y-81309523D01*
X167634285Y-80452380D01*
X168158095Y-81452380D02*
X168158095Y-80452380D01*
X168253333Y-81071428D02*
X168539047Y-81452380D01*
X168539047Y-80785714D02*
X168158095Y-81166666D01*
X169110476Y-81452380D02*
X169015238Y-81404761D01*
X168967619Y-81357142D01*
X168920000Y-81261904D01*
X168920000Y-80976190D01*
X168967619Y-80880952D01*
X169015238Y-80833333D01*
X169110476Y-80785714D01*
X169253333Y-80785714D01*
X169348571Y-80833333D01*
X169396190Y-80880952D01*
X169443809Y-80976190D01*
X169443809Y-81261904D01*
X169396190Y-81357142D01*
X169348571Y-81404761D01*
X169253333Y-81452380D01*
X169110476Y-81452380D01*
X169872380Y-80785714D02*
X169872380Y-81452380D01*
X169872380Y-80880952D02*
X169920000Y-80833333D01*
X170015238Y-80785714D01*
X170158095Y-80785714D01*
X170253333Y-80833333D01*
X170300952Y-80928571D01*
X170300952Y-81452380D01*
X171205714Y-80785714D02*
X171205714Y-81595238D01*
X171158095Y-81690476D01*
X171110476Y-81738095D01*
X171015238Y-81785714D01*
X170872380Y-81785714D01*
X170777142Y-81738095D01*
X171205714Y-81404761D02*
X171110476Y-81452380D01*
X170920000Y-81452380D01*
X170824761Y-81404761D01*
X170777142Y-81357142D01*
X170729523Y-81261904D01*
X170729523Y-80976190D01*
X170777142Y-80880952D01*
X170824761Y-80833333D01*
X170920000Y-80785714D01*
X171110476Y-80785714D01*
X171205714Y-80833333D01*
X172634285Y-80452380D02*
X172824761Y-80452380D01*
X172920000Y-80500000D01*
X173015238Y-80595238D01*
X173062857Y-80785714D01*
X173062857Y-81119047D01*
X173015238Y-81309523D01*
X172920000Y-81404761D01*
X172824761Y-81452380D01*
X172634285Y-81452380D01*
X172539047Y-81404761D01*
X172443809Y-81309523D01*
X172396190Y-81119047D01*
X172396190Y-80785714D01*
X172443809Y-80595238D01*
X172539047Y-80500000D01*
X172634285Y-80452380D01*
X173920000Y-81404761D02*
X173824761Y-81452380D01*
X173634285Y-81452380D01*
X173539047Y-81404761D01*
X173491428Y-81357142D01*
X173443809Y-81261904D01*
X173443809Y-80976190D01*
X173491428Y-80880952D01*
X173539047Y-80833333D01*
X173634285Y-80785714D01*
X173824761Y-80785714D01*
X173920000Y-80833333D01*
X174205714Y-80785714D02*
X174586666Y-80785714D01*
X174348571Y-80452380D02*
X174348571Y-81309523D01*
X174396190Y-81404761D01*
X174491428Y-81452380D01*
X174586666Y-81452380D01*
X175062857Y-81452380D02*
X174967619Y-81404761D01*
X174920000Y-81357142D01*
X174872380Y-81261904D01*
X174872380Y-80976190D01*
X174920000Y-80880952D01*
X174967619Y-80833333D01*
X175062857Y-80785714D01*
X175205714Y-80785714D01*
X175300952Y-80833333D01*
X175348571Y-80880952D01*
X175396190Y-80976190D01*
X175396190Y-81261904D01*
X175348571Y-81357142D01*
X175300952Y-81404761D01*
X175205714Y-81452380D01*
X175062857Y-81452380D01*
X176539047Y-80404761D02*
X175681904Y-81690476D01*
X176824761Y-80547619D02*
X176872380Y-80500000D01*
X176967619Y-80452380D01*
X177205714Y-80452380D01*
X177300952Y-80500000D01*
X177348571Y-80547619D01*
X177396190Y-80642857D01*
X177396190Y-80738095D01*
X177348571Y-80880952D01*
X176777142Y-81452380D01*
X177396190Y-81452380D01*
X178015238Y-80452380D02*
X178110476Y-80452380D01*
X178205714Y-80500000D01*
X178253333Y-80547619D01*
X178300952Y-80642857D01*
X178348571Y-80833333D01*
X178348571Y-81071428D01*
X178300952Y-81261904D01*
X178253333Y-81357142D01*
X178205714Y-81404761D01*
X178110476Y-81452380D01*
X178015238Y-81452380D01*
X177920000Y-81404761D01*
X177872380Y-81357142D01*
X177824761Y-81261904D01*
X177777142Y-81071428D01*
X177777142Y-80833333D01*
X177824761Y-80642857D01*
X177872380Y-80547619D01*
X177920000Y-80500000D01*
X178015238Y-80452380D01*
X178729523Y-80547619D02*
X178777142Y-80500000D01*
X178872380Y-80452380D01*
X179110476Y-80452380D01*
X179205714Y-80500000D01*
X179253333Y-80547619D01*
X179300952Y-80642857D01*
X179300952Y-80738095D01*
X179253333Y-80880952D01*
X178681904Y-81452380D01*
X179300952Y-81452380D01*
X179920000Y-80452380D02*
X180015238Y-80452380D01*
X180110476Y-80500000D01*
X180158095Y-80547619D01*
X180205714Y-80642857D01*
X180253333Y-80833333D01*
X180253333Y-81071428D01*
X180205714Y-81261904D01*
X180158095Y-81357142D01*
X180110476Y-81404761D01*
X180015238Y-81452380D01*
X179920000Y-81452380D01*
X179824761Y-81404761D01*
X179777142Y-81357142D01*
X179729523Y-81261904D01*
X179681904Y-81071428D01*
X179681904Y-80833333D01*
X179729523Y-80642857D01*
X179777142Y-80547619D01*
X179824761Y-80500000D01*
X179920000Y-80452380D01*
D12*
X162027142Y-44500000D02*
X161931904Y-44452380D01*
X161789047Y-44452380D01*
X161646190Y-44500000D01*
X161550952Y-44595238D01*
X161503333Y-44690476D01*
X161455714Y-44880952D01*
X161455714Y-45023809D01*
X161503333Y-45214285D01*
X161550952Y-45309523D01*
X161646190Y-45404761D01*
X161789047Y-45452380D01*
X161884285Y-45452380D01*
X162027142Y-45404761D01*
X162074761Y-45357142D01*
X162074761Y-45023809D01*
X161884285Y-45023809D01*
X162503333Y-45452380D02*
X162503333Y-44452380D01*
X162884285Y-44452380D01*
X162979523Y-44500000D01*
X163027142Y-44547619D01*
X163074761Y-44642857D01*
X163074761Y-44785714D01*
X163027142Y-44880952D01*
X162979523Y-44928571D01*
X162884285Y-44976190D01*
X162503333Y-44976190D01*
X163503333Y-45452380D02*
X163503333Y-44452380D01*
X164170000Y-44452380D02*
X164360476Y-44452380D01*
X164455714Y-44500000D01*
X164550952Y-44595238D01*
X164598571Y-44785714D01*
X164598571Y-45119047D01*
X164550952Y-45309523D01*
X164455714Y-45404761D01*
X164360476Y-45452380D01*
X164170000Y-45452380D01*
X164074761Y-45404761D01*
X163979523Y-45309523D01*
X163931904Y-45119047D01*
X163931904Y-44785714D01*
X163979523Y-44595238D01*
X164074761Y-44500000D01*
X164170000Y-44452380D01*
X165741428Y-44404761D02*
X164884285Y-45690476D01*
X165979523Y-44452380D02*
X166598571Y-44452380D01*
X166265238Y-44833333D01*
X166408095Y-44833333D01*
X166503333Y-44880952D01*
X166550952Y-44928571D01*
X166598571Y-45023809D01*
X166598571Y-45261904D01*
X166550952Y-45357142D01*
X166503333Y-45404761D01*
X166408095Y-45452380D01*
X166122380Y-45452380D01*
X166027142Y-45404761D01*
X165979523Y-45357142D01*
X167027142Y-45357142D02*
X167074761Y-45404761D01*
X167027142Y-45452380D01*
X166979523Y-45404761D01*
X167027142Y-45357142D01*
X167027142Y-45452380D01*
X167408095Y-44452380D02*
X168027142Y-44452380D01*
X167693809Y-44833333D01*
X167836666Y-44833333D01*
X167931904Y-44880952D01*
X167979523Y-44928571D01*
X168027142Y-45023809D01*
X168027142Y-45261904D01*
X167979523Y-45357142D01*
X167931904Y-45404761D01*
X167836666Y-45452380D01*
X167550952Y-45452380D01*
X167455714Y-45404761D01*
X167408095Y-45357142D01*
X168360476Y-44785714D02*
X168598571Y-45452380D01*
X168836666Y-44785714D01*
X169931904Y-44404761D02*
X169074761Y-45690476D01*
X170789047Y-44500000D02*
X170693809Y-44452380D01*
X170550952Y-44452380D01*
X170408095Y-44500000D01*
X170312857Y-44595238D01*
X170265238Y-44690476D01*
X170217619Y-44880952D01*
X170217619Y-45023809D01*
X170265238Y-45214285D01*
X170312857Y-45309523D01*
X170408095Y-45404761D01*
X170550952Y-45452380D01*
X170646190Y-45452380D01*
X170789047Y-45404761D01*
X170836666Y-45357142D01*
X170836666Y-45023809D01*
X170646190Y-45023809D01*
X171265238Y-45452380D02*
X171265238Y-44452380D01*
X171836666Y-45452380D01*
X171836666Y-44452380D01*
X172312857Y-45452380D02*
X172312857Y-44452380D01*
X172550952Y-44452380D01*
X172693809Y-44500000D01*
X172789047Y-44595238D01*
X172836666Y-44690476D01*
X172884285Y-44880952D01*
X172884285Y-45023809D01*
X172836666Y-45214285D01*
X172789047Y-45309523D01*
X172693809Y-45404761D01*
X172550952Y-45452380D01*
X172312857Y-45452380D01*
D13*
X164411422Y-75540000D02*
X164928578Y-75540000D01*
X164411422Y-76960000D02*
X164928578Y-76960000D01*
D11*
X152445000Y-60950000D02*
X156895000Y-60950000D01*
X150920000Y-54050000D02*
X156895000Y-54050000D01*
D13*
X151990578Y-50790000D02*
X151473422Y-50790000D01*
X151990578Y-52210000D02*
X151473422Y-52210000D01*
X155928578Y-50790000D02*
X155411422Y-50790000D01*
X155928578Y-52210000D02*
X155411422Y-52210000D01*
X158210000Y-51196078D02*
X158210000Y-50678922D01*
X159630000Y-51196078D02*
X159630000Y-50678922D01*
X152411422Y-78210000D02*
X152928578Y-78210000D01*
X152411422Y-76790000D02*
X152928578Y-76790000D01*
X162630000Y-51258578D02*
X162630000Y-50741422D01*
X161210000Y-51258578D02*
X161210000Y-50741422D01*
X152411422Y-78790000D02*
X152928578Y-78790000D01*
X152411422Y-80210000D02*
X152928578Y-80210000D01*
X158460000Y-45991422D02*
X158460000Y-46508578D01*
X159880000Y-45991422D02*
X159880000Y-46508578D01*
X158099422Y-73710000D02*
X158616578Y-73710000D01*
X158099422Y-72290000D02*
X158616578Y-72290000D01*
X162130000Y-61185000D02*
X162130000Y-58500000D01*
X160210000Y-61185000D02*
X162130000Y-61185000D01*
X160210000Y-58500000D02*
X160210000Y-61185000D01*
X167420000Y-63460000D02*
X170105000Y-63460000D01*
X170105000Y-63460000D02*
X170105000Y-61540000D01*
X170105000Y-61540000D02*
X167420000Y-61540000D01*
X167420000Y-69460000D02*
X170105000Y-69460000D01*
X170105000Y-69460000D02*
X170105000Y-67540000D01*
X170105000Y-67540000D02*
X167420000Y-67540000D01*
X170105000Y-74040000D02*
X167420000Y-74040000D01*
X170105000Y-75960000D02*
X170105000Y-74040000D01*
X167420000Y-75960000D02*
X170105000Y-75960000D01*
X167420000Y-59210000D02*
X170105000Y-59210000D01*
X170105000Y-59210000D02*
X170105000Y-57290000D01*
X170105000Y-57290000D02*
X167420000Y-57290000D01*
X156605000Y-62290000D02*
X153920000Y-62290000D01*
X156605000Y-64210000D02*
X156605000Y-62290000D01*
X153920000Y-64210000D02*
X156605000Y-64210000D01*
X149170000Y-64210000D02*
X151855000Y-64210000D01*
X151855000Y-64210000D02*
X151855000Y-62290000D01*
X151855000Y-62290000D02*
X149170000Y-62290000D01*
X143932500Y-61100000D02*
X143932500Y-61550000D01*
X142082500Y-61100000D02*
X143932500Y-61100000D01*
X139532500Y-68900000D02*
X139782500Y-68900000D01*
X139532500Y-61100000D02*
X139782500Y-61100000D01*
X142082500Y-68900000D02*
X143932500Y-68900000D01*
X143932500Y-68900000D02*
X143932500Y-68450000D01*
X144482500Y-63300000D02*
X144482500Y-63750000D01*
X144482500Y-63300000D02*
X144032500Y-63300000D01*
X180650000Y-62170000D02*
X180650000Y-72450000D01*
X180650000Y-72450000D02*
X183310000Y-72450000D01*
X183310000Y-72450000D02*
X183310000Y-62170000D01*
X183310000Y-62170000D02*
X180650000Y-62170000D01*
X183310000Y-63120000D02*
X189310000Y-63120000D01*
X189310000Y-63120000D02*
X189310000Y-63880000D01*
X189310000Y-63880000D02*
X183310000Y-63880000D01*
X183310000Y-63180000D02*
X189310000Y-63180000D01*
X183310000Y-63300000D02*
X189310000Y-63300000D01*
X183310000Y-63420000D02*
X189310000Y-63420000D01*
X183310000Y-63540000D02*
X189310000Y-63540000D01*
X183310000Y-63660000D02*
X189310000Y-63660000D01*
X183310000Y-63780000D02*
X189310000Y-63780000D01*
X180252929Y-63120000D02*
X180650000Y-63120000D01*
X180252929Y-63880000D02*
X180650000Y-63880000D01*
X177780000Y-63120000D02*
X178167071Y-63120000D01*
X177780000Y-63880000D02*
X178167071Y-63880000D01*
X180650000Y-64770000D02*
X183310000Y-64770000D01*
X183310000Y-65660000D02*
X189310000Y-65660000D01*
X189310000Y-65660000D02*
X189310000Y-66420000D01*
X189310000Y-66420000D02*
X183310000Y-66420000D01*
X180252929Y-65660000D02*
X180650000Y-65660000D01*
X180252929Y-66420000D02*
X180650000Y-66420000D01*
X177712929Y-65660000D02*
X178167071Y-65660000D01*
X177712929Y-66420000D02*
X178167071Y-66420000D01*
X180650000Y-67310000D02*
X183310000Y-67310000D01*
X183310000Y-68200000D02*
X189310000Y-68200000D01*
X189310000Y-68200000D02*
X189310000Y-68960000D01*
X189310000Y-68960000D02*
X183310000Y-68960000D01*
X180252929Y-68200000D02*
X180650000Y-68200000D01*
X180252929Y-68960000D02*
X180650000Y-68960000D01*
X177712929Y-68200000D02*
X178167071Y-68200000D01*
X177712929Y-68960000D02*
X178167071Y-68960000D01*
X180650000Y-69850000D02*
X183310000Y-69850000D01*
X183310000Y-70740000D02*
X189310000Y-70740000D01*
X189310000Y-70740000D02*
X189310000Y-71500000D01*
X189310000Y-71500000D02*
X183310000Y-71500000D01*
X180252929Y-70740000D02*
X180650000Y-70740000D01*
X180252929Y-71500000D02*
X180650000Y-71500000D01*
X177712929Y-70740000D02*
X178167071Y-70740000D01*
X177712929Y-71500000D02*
X178167071Y-71500000D01*
X175400000Y-63500000D02*
X175400000Y-62230000D01*
X175400000Y-62230000D02*
X176670000Y-62230000D01*
X149820000Y-59590000D02*
X149820000Y-59090000D01*
X149080000Y-59590000D02*
X149820000Y-59590000D01*
X145943000Y-52897000D02*
X145989000Y-52944000D01*
X143645000Y-50600000D02*
X143681000Y-50635000D01*
X146159000Y-52704000D02*
X146194000Y-52739000D01*
X143851000Y-50395000D02*
X143897000Y-50442000D01*
X139659000Y-49070000D02*
X149580000Y-49070000D01*
X139659000Y-59350000D02*
X149580000Y-59350000D01*
X149580000Y-59350000D02*
X149580000Y-49070000D01*
X139659000Y-59350000D02*
X139659000Y-49070000D01*
X142619000Y-59350000D02*
X142619000Y-49070000D01*
X147520000Y-59350000D02*
X147520000Y-49070000D01*
X149020000Y-59350000D02*
X149020000Y-49070000D01*
X146600000Y-51670000D02*
G75*
G03X146600000Y-51670000I-1680000J0D01*
G01*
X146600253Y-56721195D02*
G75*
G02X146455000Y-57434000I-1680253J-28805D01*
G01*
X145603042Y-58285426D02*
G75*
G02X144236000Y-58285000I-683042J1535426D01*
G01*
X143384574Y-57433042D02*
G75*
G02X143385000Y-56066000I1535426J683042D01*
G01*
X144236958Y-55214574D02*
G75*
G02X145604000Y-55215000I683042J-1535426D01*
G01*
X146454756Y-56066682D02*
G75*
G02X146600000Y-56750000I-1534756J-683318D01*
G01*
X177954756Y-57316682D02*
G75*
G02X178100000Y-58000000I-1534756J-683318D01*
G01*
X175736958Y-56464574D02*
G75*
G02X177104000Y-56465000I683042J-1535426D01*
G01*
X174884574Y-58683042D02*
G75*
G02X174885000Y-57316000I1535426J683042D01*
G01*
X177103042Y-59535426D02*
G75*
G02X175736000Y-59535000I-683042J1535426D01*
G01*
X178100253Y-57971195D02*
G75*
G02X177955000Y-58684000I-1680253J-28805D01*
G01*
X178100000Y-52920000D02*
G75*
G03X178100000Y-52920000I-1680000J0D01*
G01*
X180520000Y-60600000D02*
X180520000Y-50320000D01*
X179020000Y-60600000D02*
X179020000Y-50320000D01*
X174119000Y-60600000D02*
X174119000Y-50320000D01*
X171159000Y-60600000D02*
X171159000Y-50320000D01*
X181080000Y-60600000D02*
X181080000Y-50320000D01*
X171159000Y-60600000D02*
X181080000Y-60600000D01*
X171159000Y-50320000D02*
X181080000Y-50320000D01*
X175351000Y-51645000D02*
X175397000Y-51692000D01*
X177659000Y-53954000D02*
X177694000Y-53989000D01*
X175145000Y-51850000D02*
X175181000Y-51885000D01*
X177443000Y-54147000D02*
X177489000Y-54194000D01*
X180580000Y-60840000D02*
X181320000Y-60840000D01*
X181320000Y-60840000D02*
X181320000Y-60340000D01*
X157730000Y-46710000D02*
X157730000Y-40740000D01*
X157730000Y-40740000D02*
X150110000Y-40740000D01*
X150110000Y-40740000D02*
X150110000Y-46710000D01*
X150110000Y-46710000D02*
X157730000Y-46710000D01*
X154420000Y-46700000D02*
X154420000Y-45950000D01*
X154420000Y-45950000D02*
X153420000Y-45950000D01*
X153420000Y-45950000D02*
X153420000Y-46700000D01*
X153420000Y-46700000D02*
X154420000Y-46700000D01*
X157720000Y-46700000D02*
X157720000Y-45950000D01*
X157720000Y-45950000D02*
X155920000Y-45950000D01*
X155920000Y-45950000D02*
X155920000Y-46700000D01*
X155920000Y-46700000D02*
X157720000Y-46700000D01*
X151920000Y-46700000D02*
X151920000Y-45950000D01*
X151920000Y-45950000D02*
X150120000Y-45950000D01*
X150120000Y-45950000D02*
X150120000Y-46700000D01*
X150120000Y-46700000D02*
X151920000Y-46700000D01*
X157720000Y-44450000D02*
X156970000Y-44450000D01*
X156970000Y-44450000D02*
X156970000Y-43110000D01*
X153920000Y-41500000D02*
X155910000Y-41500000D01*
X150120000Y-44450000D02*
X150870000Y-44450000D01*
X150870000Y-44450000D02*
X150870000Y-41500000D01*
X150870000Y-41500000D02*
X153920000Y-41500000D01*
X156770000Y-47000000D02*
X158020000Y-47000000D01*
X158020000Y-47000000D02*
X158020000Y-45750000D01*
X170500000Y-44080000D02*
X170500000Y-41420000D01*
X165360000Y-44080000D02*
X170500000Y-44080000D01*
X165360000Y-41420000D02*
X170500000Y-41420000D01*
X165360000Y-44080000D02*
X165360000Y-41420000D01*
X164090000Y-44080000D02*
X162760000Y-44080000D01*
X162760000Y-44080000D02*
X162760000Y-42750000D01*
X152928578Y-70460000D02*
X152411422Y-70460000D01*
X152928578Y-69040000D02*
X152411422Y-69040000D01*
X161880000Y-56008578D02*
X161880000Y-55491422D01*
X160460000Y-56008578D02*
X160460000Y-55491422D01*
X163411422Y-63210000D02*
X163928578Y-63210000D01*
X163411422Y-61790000D02*
X163928578Y-61790000D01*
X163411422Y-69960000D02*
X163928578Y-69960000D01*
X163411422Y-68540000D02*
X163928578Y-68540000D01*
X164411422Y-53710000D02*
X164928578Y-53710000D01*
X164411422Y-52290000D02*
X164928578Y-52290000D01*
X163411422Y-64790000D02*
X163928578Y-64790000D01*
X163411422Y-66210000D02*
X163928578Y-66210000D01*
X163411422Y-72960000D02*
X163928578Y-72960000D01*
X163411422Y-71540000D02*
X163928578Y-71540000D01*
X164411422Y-80210000D02*
X164928578Y-80210000D01*
X164411422Y-78790000D02*
X164928578Y-78790000D01*
X164411422Y-55040000D02*
X164928578Y-55040000D01*
X164411422Y-56460000D02*
X164928578Y-56460000D01*
X168411422Y-64790000D02*
X168928578Y-64790000D01*
X168411422Y-66210000D02*
X168928578Y-66210000D01*
X158460000Y-42491422D02*
X158460000Y-43008578D01*
X159880000Y-42491422D02*
X159880000Y-43008578D01*
X158616578Y-70710000D02*
X158099422Y-70710000D01*
X158616578Y-69290000D02*
X158099422Y-69290000D01*
X168161422Y-72210000D02*
X168678578Y-72210000D01*
X168161422Y-70790000D02*
X168678578Y-70790000D01*
X168161422Y-77540000D02*
X168678578Y-77540000D01*
X168161422Y-78960000D02*
X168678578Y-78960000D01*
X164411422Y-57790000D02*
X164928578Y-57790000D01*
X164411422Y-59210000D02*
X164928578Y-59210000D01*
X155428578Y-67710000D02*
X154911422Y-67710000D01*
X155428578Y-66290000D02*
X154911422Y-66290000D01*
X150678578Y-66040000D02*
X150161422Y-66040000D01*
X150678578Y-67460000D02*
X150161422Y-67460000D01*
D11*
X141420000Y-72250000D02*
X141420000Y-70250000D01*
X142670000Y-72250000D02*
X141420000Y-72250000D01*
X141420000Y-70250000D02*
X142670000Y-70250000D01*
X149920000Y-72250000D02*
X148670000Y-72250000D01*
X149920000Y-70250000D02*
X149920000Y-72250000D01*
X148670000Y-70250000D02*
X149920000Y-70250000D01*
X148670000Y-73000000D02*
X148670000Y-69500000D01*
X142670000Y-69500000D02*
X142670000Y-73000000D01*
X142670000Y-69500000D02*
X148670000Y-69500000D01*
X148670000Y-73000000D02*
X142670000Y-73000000D01*
D13*
X152020000Y-75110000D02*
X153820000Y-75110000D01*
X153820000Y-71890000D02*
X151370000Y-71890000D01*
X159590000Y-81870000D02*
X162250000Y-81870000D01*
X159590000Y-79270000D02*
X159590000Y-81870000D01*
X162250000Y-79270000D02*
X162250000Y-81870000D01*
X159590000Y-79270000D02*
X162250000Y-79270000D01*
X159590000Y-78000000D02*
X159590000Y-76670000D01*
X159590000Y-76670000D02*
X160920000Y-76670000D01*
X155340000Y-76670000D02*
X156670000Y-76670000D01*
X155340000Y-78000000D02*
X155340000Y-76670000D01*
X155340000Y-79270000D02*
X158000000Y-79270000D01*
X158000000Y-79270000D02*
X158000000Y-81870000D01*
X155340000Y-79270000D02*
X155340000Y-81870000D01*
X155340000Y-81870000D02*
X158000000Y-81870000D01*
X174250000Y-62740000D02*
X173320000Y-62740000D01*
X171090000Y-62740000D02*
X172020000Y-62740000D01*
X171090000Y-62740000D02*
X171090000Y-64900000D01*
X174250000Y-62740000D02*
X174250000Y-64200000D01*
X174250000Y-67490000D02*
X174250000Y-68950000D01*
X171090000Y-67490000D02*
X171090000Y-69650000D01*
X171090000Y-67490000D02*
X172020000Y-67490000D01*
X174250000Y-67490000D02*
X173320000Y-67490000D01*
X174000000Y-72240000D02*
X173070000Y-72240000D01*
X170840000Y-72240000D02*
X171770000Y-72240000D01*
X170840000Y-72240000D02*
X170840000Y-74400000D01*
X174000000Y-72240000D02*
X174000000Y-73700000D01*
X169180000Y-55830000D02*
X167720000Y-55830000D01*
X169180000Y-52670000D02*
X167020000Y-52670000D01*
X169180000Y-52670000D02*
X169180000Y-53600000D01*
X169180000Y-55830000D02*
X169180000Y-54900000D01*
D11*
X164503333Y-75452380D02*
X164170000Y-74976190D01*
X163931904Y-75452380D02*
X163931904Y-74452380D01*
X164312857Y-74452380D01*
X164408095Y-74500000D01*
X164455714Y-74547619D01*
X164503333Y-74642857D01*
X164503333Y-74785714D01*
X164455714Y-74880952D01*
X164408095Y-74928571D01*
X164312857Y-74976190D01*
X163931904Y-74976190D01*
X164979523Y-75452380D02*
X165170000Y-75452380D01*
X165265238Y-75404761D01*
X165312857Y-75357142D01*
X165408095Y-75214285D01*
X165455714Y-75023809D01*
X165455714Y-74642857D01*
X165408095Y-74547619D01*
X165360476Y-74500000D01*
X165265238Y-74452380D01*
X165074761Y-74452380D01*
X164979523Y-74500000D01*
X164931904Y-74547619D01*
X164884285Y-74642857D01*
X164884285Y-74880952D01*
X164931904Y-74976190D01*
X164979523Y-75023809D01*
X165074761Y-75071428D01*
X165265238Y-75071428D01*
X165360476Y-75023809D01*
X165408095Y-74976190D01*
X165455714Y-74880952D01*
X153908095Y-55952380D02*
X153908095Y-56761904D01*
X153955714Y-56857142D01*
X154003333Y-56904761D01*
X154098571Y-56952380D01*
X154289047Y-56952380D01*
X154384285Y-56904761D01*
X154431904Y-56857142D01*
X154479523Y-56761904D01*
X154479523Y-55952380D01*
X155479523Y-56952380D02*
X154908095Y-56952380D01*
X155193809Y-56952380D02*
X155193809Y-55952380D01*
X155098571Y-56095238D01*
X155003333Y-56190476D01*
X154908095Y-56238095D01*
X149836166Y-49928571D02*
X149979023Y-49976190D01*
X150026642Y-50023809D01*
X150074261Y-50119047D01*
X150074261Y-50261904D01*
X150026642Y-50357142D01*
X149979023Y-50404761D01*
X149883785Y-50452380D01*
X149502833Y-50452380D01*
X149502833Y-49452380D01*
X149836166Y-49452380D01*
X149931404Y-49500000D01*
X149979023Y-49547619D01*
X150026642Y-49642857D01*
X150026642Y-49738095D01*
X149979023Y-49833333D01*
X149931404Y-49880952D01*
X149836166Y-49928571D01*
X149502833Y-49928571D01*
X150693309Y-49452380D02*
X150883785Y-49452380D01*
X150979023Y-49500000D01*
X151074261Y-49595238D01*
X151121880Y-49785714D01*
X151121880Y-50119047D01*
X151074261Y-50309523D01*
X150979023Y-50404761D01*
X150883785Y-50452380D01*
X150693309Y-50452380D01*
X150598071Y-50404761D01*
X150502833Y-50309523D01*
X150455214Y-50119047D01*
X150455214Y-49785714D01*
X150502833Y-49595238D01*
X150598071Y-49500000D01*
X150693309Y-49452380D01*
X151740928Y-49452380D02*
X151931404Y-49452380D01*
X152026642Y-49500000D01*
X152121880Y-49595238D01*
X152169500Y-49785714D01*
X152169500Y-50119047D01*
X152121880Y-50309523D01*
X152026642Y-50404761D01*
X151931404Y-50452380D01*
X151740928Y-50452380D01*
X151645690Y-50404761D01*
X151550452Y-50309523D01*
X151502833Y-50119047D01*
X151502833Y-49785714D01*
X151550452Y-49595238D01*
X151645690Y-49500000D01*
X151740928Y-49452380D01*
X152455214Y-49452380D02*
X153026642Y-49452380D01*
X152740928Y-50452380D02*
X152740928Y-49452380D01*
X153883785Y-50452380D02*
X153312357Y-50452380D01*
X153598071Y-50452380D02*
X153598071Y-49452380D01*
X153502833Y-49595238D01*
X153407595Y-49690476D01*
X153312357Y-49738095D01*
X155503333Y-53952380D02*
X155170000Y-53476190D01*
X154931904Y-53952380D02*
X154931904Y-52952380D01*
X155312857Y-52952380D01*
X155408095Y-53000000D01*
X155455714Y-53047619D01*
X155503333Y-53142857D01*
X155503333Y-53285714D01*
X155455714Y-53380952D01*
X155408095Y-53428571D01*
X155312857Y-53476190D01*
X154931904Y-53476190D01*
X156455714Y-53952380D02*
X155884285Y-53952380D01*
X156170000Y-53952380D02*
X156170000Y-52952380D01*
X156074761Y-53095238D01*
X155979523Y-53190476D01*
X155884285Y-53238095D01*
X158003333Y-49107142D02*
X157955714Y-49154761D01*
X157812857Y-49202380D01*
X157717619Y-49202380D01*
X157574761Y-49154761D01*
X157479523Y-49059523D01*
X157431904Y-48964285D01*
X157384285Y-48773809D01*
X157384285Y-48630952D01*
X157431904Y-48440476D01*
X157479523Y-48345238D01*
X157574761Y-48250000D01*
X157717619Y-48202380D01*
X157812857Y-48202380D01*
X157955714Y-48250000D01*
X158003333Y-48297619D01*
X158955714Y-49202380D02*
X158384285Y-49202380D01*
X158670000Y-49202380D02*
X158670000Y-48202380D01*
X158574761Y-48345238D01*
X158479523Y-48440476D01*
X158384285Y-48488095D01*
X149753333Y-77857142D02*
X149705714Y-77904761D01*
X149562857Y-77952380D01*
X149467619Y-77952380D01*
X149324761Y-77904761D01*
X149229523Y-77809523D01*
X149181904Y-77714285D01*
X149134285Y-77523809D01*
X149134285Y-77380952D01*
X149181904Y-77190476D01*
X149229523Y-77095238D01*
X149324761Y-77000000D01*
X149467619Y-76952380D01*
X149562857Y-76952380D01*
X149705714Y-77000000D01*
X149753333Y-77047619D01*
X150134285Y-77047619D02*
X150181904Y-77000000D01*
X150277142Y-76952380D01*
X150515238Y-76952380D01*
X150610476Y-77000000D01*
X150658095Y-77047619D01*
X150705714Y-77142857D01*
X150705714Y-77238095D01*
X150658095Y-77380952D01*
X150086666Y-77952380D01*
X150705714Y-77952380D01*
X160627142Y-51166666D02*
X160674761Y-51214285D01*
X160722380Y-51357142D01*
X160722380Y-51452380D01*
X160674761Y-51595238D01*
X160579523Y-51690476D01*
X160484285Y-51738095D01*
X160293809Y-51785714D01*
X160150952Y-51785714D01*
X159960476Y-51738095D01*
X159865238Y-51690476D01*
X159770000Y-51595238D01*
X159722380Y-51452380D01*
X159722380Y-51357142D01*
X159770000Y-51214285D01*
X159817619Y-51166666D01*
X159722380Y-50833333D02*
X159722380Y-50214285D01*
X160103333Y-50547619D01*
X160103333Y-50404761D01*
X160150952Y-50309523D01*
X160198571Y-50261904D01*
X160293809Y-50214285D01*
X160531904Y-50214285D01*
X160627142Y-50261904D01*
X160674761Y-50309523D01*
X160722380Y-50404761D01*
X160722380Y-50690476D01*
X160674761Y-50785714D01*
X160627142Y-50833333D01*
X149753333Y-79607142D02*
X149705714Y-79654761D01*
X149562857Y-79702380D01*
X149467619Y-79702380D01*
X149324761Y-79654761D01*
X149229523Y-79559523D01*
X149181904Y-79464285D01*
X149134285Y-79273809D01*
X149134285Y-79130952D01*
X149181904Y-78940476D01*
X149229523Y-78845238D01*
X149324761Y-78750000D01*
X149467619Y-78702380D01*
X149562857Y-78702380D01*
X149705714Y-78750000D01*
X149753333Y-78797619D01*
X150610476Y-79035714D02*
X150610476Y-79702380D01*
X150372380Y-78654761D02*
X150134285Y-79369047D01*
X150753333Y-79369047D01*
X161277142Y-47166666D02*
X161324761Y-47214285D01*
X161372380Y-47357142D01*
X161372380Y-47452380D01*
X161324761Y-47595238D01*
X161229523Y-47690476D01*
X161134285Y-47738095D01*
X160943809Y-47785714D01*
X160800952Y-47785714D01*
X160610476Y-47738095D01*
X160515238Y-47690476D01*
X160420000Y-47595238D01*
X160372380Y-47452380D01*
X160372380Y-47357142D01*
X160420000Y-47214285D01*
X160467619Y-47166666D01*
X160372380Y-46261904D02*
X160372380Y-46738095D01*
X160848571Y-46785714D01*
X160800952Y-46738095D01*
X160753333Y-46642857D01*
X160753333Y-46404761D01*
X160800952Y-46309523D01*
X160848571Y-46261904D01*
X160943809Y-46214285D01*
X161181904Y-46214285D01*
X161277142Y-46261904D01*
X161324761Y-46309523D01*
X161372380Y-46404761D01*
X161372380Y-46642857D01*
X161324761Y-46738095D01*
X161277142Y-46785714D01*
X158753333Y-74857142D02*
X158705714Y-74904761D01*
X158562857Y-74952380D01*
X158467619Y-74952380D01*
X158324761Y-74904761D01*
X158229523Y-74809523D01*
X158181904Y-74714285D01*
X158134285Y-74523809D01*
X158134285Y-74380952D01*
X158181904Y-74190476D01*
X158229523Y-74095238D01*
X158324761Y-74000000D01*
X158467619Y-73952380D01*
X158562857Y-73952380D01*
X158705714Y-74000000D01*
X158753333Y-74047619D01*
X159610476Y-73952380D02*
X159420000Y-73952380D01*
X159324761Y-74000000D01*
X159277142Y-74047619D01*
X159181904Y-74190476D01*
X159134285Y-74380952D01*
X159134285Y-74761904D01*
X159181904Y-74857142D01*
X159229523Y-74904761D01*
X159324761Y-74952380D01*
X159515238Y-74952380D01*
X159610476Y-74904761D01*
X159658095Y-74857142D01*
X159705714Y-74761904D01*
X159705714Y-74523809D01*
X159658095Y-74428571D01*
X159610476Y-74380952D01*
X159515238Y-74333333D01*
X159324761Y-74333333D01*
X159229523Y-74380952D01*
X159181904Y-74428571D01*
X159134285Y-74523809D01*
X159972380Y-60238095D02*
X158972380Y-60238095D01*
X158972380Y-60000000D01*
X159020000Y-59857142D01*
X159115238Y-59761904D01*
X159210476Y-59714285D01*
X159400952Y-59666666D01*
X159543809Y-59666666D01*
X159734285Y-59714285D01*
X159829523Y-59761904D01*
X159924761Y-59857142D01*
X159972380Y-60000000D01*
X159972380Y-60238095D01*
X159972380Y-58714285D02*
X159972380Y-59285714D01*
X159972380Y-59000000D02*
X158972380Y-59000000D01*
X159115238Y-59095238D01*
X159210476Y-59190476D01*
X159258095Y-59285714D01*
X167681904Y-61202380D02*
X167681904Y-60202380D01*
X167920000Y-60202380D01*
X168062857Y-60250000D01*
X168158095Y-60345238D01*
X168205714Y-60440476D01*
X168253333Y-60630952D01*
X168253333Y-60773809D01*
X168205714Y-60964285D01*
X168158095Y-61059523D01*
X168062857Y-61154761D01*
X167920000Y-61202380D01*
X167681904Y-61202380D01*
X168634285Y-60297619D02*
X168681904Y-60250000D01*
X168777142Y-60202380D01*
X169015238Y-60202380D01*
X169110476Y-60250000D01*
X169158095Y-60297619D01*
X169205714Y-60392857D01*
X169205714Y-60488095D01*
X169158095Y-60630952D01*
X168586666Y-61202380D01*
X169205714Y-61202380D01*
X167931904Y-67452380D02*
X167931904Y-66452380D01*
X168170000Y-66452380D01*
X168312857Y-66500000D01*
X168408095Y-66595238D01*
X168455714Y-66690476D01*
X168503333Y-66880952D01*
X168503333Y-67023809D01*
X168455714Y-67214285D01*
X168408095Y-67309523D01*
X168312857Y-67404761D01*
X168170000Y-67452380D01*
X167931904Y-67452380D01*
X168836666Y-66452380D02*
X169455714Y-66452380D01*
X169122380Y-66833333D01*
X169265238Y-66833333D01*
X169360476Y-66880952D01*
X169408095Y-66928571D01*
X169455714Y-67023809D01*
X169455714Y-67261904D01*
X169408095Y-67357142D01*
X169360476Y-67404761D01*
X169265238Y-67452380D01*
X168979523Y-67452380D01*
X168884285Y-67404761D01*
X168836666Y-67357142D01*
X167931904Y-73702380D02*
X167931904Y-72702380D01*
X168170000Y-72702380D01*
X168312857Y-72750000D01*
X168408095Y-72845238D01*
X168455714Y-72940476D01*
X168503333Y-73130952D01*
X168503333Y-73273809D01*
X168455714Y-73464285D01*
X168408095Y-73559523D01*
X168312857Y-73654761D01*
X168170000Y-73702380D01*
X167931904Y-73702380D01*
X169360476Y-73035714D02*
X169360476Y-73702380D01*
X169122380Y-72654761D02*
X168884285Y-73369047D01*
X169503333Y-73369047D01*
X169431904Y-56952380D02*
X169431904Y-55952380D01*
X169670000Y-55952380D01*
X169812857Y-56000000D01*
X169908095Y-56095238D01*
X169955714Y-56190476D01*
X170003333Y-56380952D01*
X170003333Y-56523809D01*
X169955714Y-56714285D01*
X169908095Y-56809523D01*
X169812857Y-56904761D01*
X169670000Y-56952380D01*
X169431904Y-56952380D01*
X170908095Y-55952380D02*
X170431904Y-55952380D01*
X170384285Y-56428571D01*
X170431904Y-56380952D01*
X170527142Y-56333333D01*
X170765238Y-56333333D01*
X170860476Y-56380952D01*
X170908095Y-56428571D01*
X170955714Y-56523809D01*
X170955714Y-56761904D01*
X170908095Y-56857142D01*
X170860476Y-56904761D01*
X170765238Y-56952380D01*
X170527142Y-56952380D01*
X170431904Y-56904761D01*
X170384285Y-56857142D01*
X154181904Y-65352380D02*
X154181904Y-64352380D01*
X154420000Y-64352380D01*
X154562857Y-64400000D01*
X154658095Y-64495238D01*
X154705714Y-64590476D01*
X154753333Y-64780952D01*
X154753333Y-64923809D01*
X154705714Y-65114285D01*
X154658095Y-65209523D01*
X154562857Y-65304761D01*
X154420000Y-65352380D01*
X154181904Y-65352380D01*
X155610476Y-64352380D02*
X155420000Y-64352380D01*
X155324761Y-64400000D01*
X155277142Y-64447619D01*
X155181904Y-64590476D01*
X155134285Y-64780952D01*
X155134285Y-65161904D01*
X155181904Y-65257142D01*
X155229523Y-65304761D01*
X155324761Y-65352380D01*
X155515238Y-65352380D01*
X155610476Y-65304761D01*
X155658095Y-65257142D01*
X155705714Y-65161904D01*
X155705714Y-64923809D01*
X155658095Y-64828571D01*
X155610476Y-64780952D01*
X155515238Y-64733333D01*
X155324761Y-64733333D01*
X155229523Y-64780952D01*
X155181904Y-64828571D01*
X155134285Y-64923809D01*
X149431904Y-65352380D02*
X149431904Y-64352380D01*
X149670000Y-64352380D01*
X149812857Y-64400000D01*
X149908095Y-64495238D01*
X149955714Y-64590476D01*
X150003333Y-64780952D01*
X150003333Y-64923809D01*
X149955714Y-65114285D01*
X149908095Y-65209523D01*
X149812857Y-65304761D01*
X149670000Y-65352380D01*
X149431904Y-65352380D01*
X150336666Y-64352380D02*
X151003333Y-64352380D01*
X150574761Y-65352380D01*
X144734880Y-65333333D02*
X145449166Y-65333333D01*
X145592023Y-65380952D01*
X145687261Y-65476190D01*
X145734880Y-65619047D01*
X145734880Y-65714285D01*
X145734880Y-64333333D02*
X145734880Y-64904761D01*
X145734880Y-64619047D02*
X144734880Y-64619047D01*
X144877738Y-64714285D01*
X144972976Y-64809523D01*
X145020595Y-64904761D01*
X177086666Y-60952380D02*
X177086666Y-61666666D01*
X177039047Y-61809523D01*
X176943809Y-61904761D01*
X176800952Y-61952380D01*
X176705714Y-61952380D01*
X177467619Y-60952380D02*
X178086666Y-60952380D01*
X177753333Y-61333333D01*
X177896190Y-61333333D01*
X177991428Y-61380952D01*
X178039047Y-61428571D01*
X178086666Y-61523809D01*
X178086666Y-61761904D01*
X178039047Y-61857142D01*
X177991428Y-61904761D01*
X177896190Y-61952380D01*
X177610476Y-61952380D01*
X177515238Y-61904761D01*
X177467619Y-61857142D01*
X148836666Y-47952380D02*
X148836666Y-48666666D01*
X148789047Y-48809523D01*
X148693809Y-48904761D01*
X148550952Y-48952380D01*
X148455714Y-48952380D01*
X149789047Y-47952380D02*
X149312857Y-47952380D01*
X149265238Y-48428571D01*
X149312857Y-48380952D01*
X149408095Y-48333333D01*
X149646190Y-48333333D01*
X149741428Y-48380952D01*
X149789047Y-48428571D01*
X149836666Y-48523809D01*
X149836666Y-48761904D01*
X149789047Y-48857142D01*
X149741428Y-48904761D01*
X149646190Y-48952380D01*
X149408095Y-48952380D01*
X149312857Y-48904761D01*
X149265238Y-48857142D01*
X179586666Y-47702380D02*
X179586666Y-48416666D01*
X179539047Y-48559523D01*
X179443809Y-48654761D01*
X179300952Y-48702380D01*
X179205714Y-48702380D01*
X180491428Y-47702380D02*
X180300952Y-47702380D01*
X180205714Y-47750000D01*
X180158095Y-47797619D01*
X180062857Y-47940476D01*
X180015238Y-48130952D01*
X180015238Y-48511904D01*
X180062857Y-48607142D01*
X180110476Y-48654761D01*
X180205714Y-48702380D01*
X180396190Y-48702380D01*
X180491428Y-48654761D01*
X180539047Y-48607142D01*
X180586666Y-48511904D01*
X180586666Y-48273809D01*
X180539047Y-48178571D01*
X180491428Y-48130952D01*
X180396190Y-48083333D01*
X180205714Y-48083333D01*
X180110476Y-48130952D01*
X180062857Y-48178571D01*
X180015238Y-48273809D01*
X148836666Y-42952380D02*
X148836666Y-43666666D01*
X148789047Y-43809523D01*
X148693809Y-43904761D01*
X148550952Y-43952380D01*
X148455714Y-43952380D01*
X149455714Y-43380952D02*
X149360476Y-43333333D01*
X149312857Y-43285714D01*
X149265238Y-43190476D01*
X149265238Y-43142857D01*
X149312857Y-43047619D01*
X149360476Y-43000000D01*
X149455714Y-42952380D01*
X149646190Y-42952380D01*
X149741428Y-43000000D01*
X149789047Y-43047619D01*
X149836666Y-43142857D01*
X149836666Y-43190476D01*
X149789047Y-43285714D01*
X149741428Y-43333333D01*
X149646190Y-43380952D01*
X149455714Y-43380952D01*
X149360476Y-43428571D01*
X149312857Y-43476190D01*
X149265238Y-43571428D01*
X149265238Y-43761904D01*
X149312857Y-43857142D01*
X149360476Y-43904761D01*
X149455714Y-43952380D01*
X149646190Y-43952380D01*
X149741428Y-43904761D01*
X149789047Y-43857142D01*
X149836666Y-43761904D01*
X149836666Y-43571428D01*
X149789047Y-43476190D01*
X149741428Y-43428571D01*
X149646190Y-43380952D01*
X171122380Y-43559523D02*
X171836666Y-43559523D01*
X171979523Y-43607142D01*
X172074761Y-43702380D01*
X172122380Y-43845238D01*
X172122380Y-43940476D01*
X172122380Y-42559523D02*
X172122380Y-43130952D01*
X172122380Y-42845238D02*
X171122380Y-42845238D01*
X171265238Y-42940476D01*
X171360476Y-43035714D01*
X171408095Y-43130952D01*
X171217619Y-42178571D02*
X171170000Y-42130952D01*
X171122380Y-42035714D01*
X171122380Y-41797619D01*
X171170000Y-41702380D01*
X171217619Y-41654761D01*
X171312857Y-41607142D01*
X171408095Y-41607142D01*
X171550952Y-41654761D01*
X172122380Y-42226190D01*
X172122380Y-41607142D01*
X153753333Y-71702380D02*
X153420000Y-71226190D01*
X153181904Y-71702380D02*
X153181904Y-70702380D01*
X153562857Y-70702380D01*
X153658095Y-70750000D01*
X153705714Y-70797619D01*
X153753333Y-70892857D01*
X153753333Y-71035714D01*
X153705714Y-71130952D01*
X153658095Y-71178571D01*
X153562857Y-71226190D01*
X153181904Y-71226190D01*
X154134285Y-70797619D02*
X154181904Y-70750000D01*
X154277142Y-70702380D01*
X154515238Y-70702380D01*
X154610476Y-70750000D01*
X154658095Y-70797619D01*
X154705714Y-70892857D01*
X154705714Y-70988095D01*
X154658095Y-71130952D01*
X154086666Y-71702380D01*
X154705714Y-71702380D01*
X159972380Y-55916666D02*
X159496190Y-56250000D01*
X159972380Y-56488095D02*
X158972380Y-56488095D01*
X158972380Y-56107142D01*
X159020000Y-56011904D01*
X159067619Y-55964285D01*
X159162857Y-55916666D01*
X159305714Y-55916666D01*
X159400952Y-55964285D01*
X159448571Y-56011904D01*
X159496190Y-56107142D01*
X159496190Y-56488095D01*
X158972380Y-55583333D02*
X158972380Y-54964285D01*
X159353333Y-55297619D01*
X159353333Y-55154761D01*
X159400952Y-55059523D01*
X159448571Y-55011904D01*
X159543809Y-54964285D01*
X159781904Y-54964285D01*
X159877142Y-55011904D01*
X159924761Y-55059523D01*
X159972380Y-55154761D01*
X159972380Y-55440476D01*
X159924761Y-55535714D01*
X159877142Y-55583333D01*
X163503333Y-61702380D02*
X163170000Y-61226190D01*
X162931904Y-61702380D02*
X162931904Y-60702380D01*
X163312857Y-60702380D01*
X163408095Y-60750000D01*
X163455714Y-60797619D01*
X163503333Y-60892857D01*
X163503333Y-61035714D01*
X163455714Y-61130952D01*
X163408095Y-61178571D01*
X163312857Y-61226190D01*
X162931904Y-61226190D01*
X163836666Y-60702380D02*
X164503333Y-60702380D01*
X164074761Y-61702380D01*
X163503333Y-68052380D02*
X163170000Y-67576190D01*
X162931904Y-68052380D02*
X162931904Y-67052380D01*
X163312857Y-67052380D01*
X163408095Y-67100000D01*
X163455714Y-67147619D01*
X163503333Y-67242857D01*
X163503333Y-67385714D01*
X163455714Y-67480952D01*
X163408095Y-67528571D01*
X163312857Y-67576190D01*
X162931904Y-67576190D01*
X164074761Y-67480952D02*
X163979523Y-67433333D01*
X163931904Y-67385714D01*
X163884285Y-67290476D01*
X163884285Y-67242857D01*
X163931904Y-67147619D01*
X163979523Y-67100000D01*
X164074761Y-67052380D01*
X164265238Y-67052380D01*
X164360476Y-67100000D01*
X164408095Y-67147619D01*
X164455714Y-67242857D01*
X164455714Y-67290476D01*
X164408095Y-67385714D01*
X164360476Y-67433333D01*
X164265238Y-67480952D01*
X164074761Y-67480952D01*
X163979523Y-67528571D01*
X163931904Y-67576190D01*
X163884285Y-67671428D01*
X163884285Y-67861904D01*
X163931904Y-67957142D01*
X163979523Y-68004761D01*
X164074761Y-68052380D01*
X164265238Y-68052380D01*
X164360476Y-68004761D01*
X164408095Y-67957142D01*
X164455714Y-67861904D01*
X164455714Y-67671428D01*
X164408095Y-67576190D01*
X164360476Y-67528571D01*
X164265238Y-67480952D01*
X164027142Y-51802380D02*
X163693809Y-51326190D01*
X163455714Y-51802380D02*
X163455714Y-50802380D01*
X163836666Y-50802380D01*
X163931904Y-50850000D01*
X163979523Y-50897619D01*
X164027142Y-50992857D01*
X164027142Y-51135714D01*
X163979523Y-51230952D01*
X163931904Y-51278571D01*
X163836666Y-51326190D01*
X163455714Y-51326190D01*
X164979523Y-51802380D02*
X164408095Y-51802380D01*
X164693809Y-51802380D02*
X164693809Y-50802380D01*
X164598571Y-50945238D01*
X164503333Y-51040476D01*
X164408095Y-51088095D01*
X165598571Y-50802380D02*
X165693809Y-50802380D01*
X165789047Y-50850000D01*
X165836666Y-50897619D01*
X165884285Y-50992857D01*
X165931904Y-51183333D01*
X165931904Y-51421428D01*
X165884285Y-51611904D01*
X165836666Y-51707142D01*
X165789047Y-51754761D01*
X165693809Y-51802380D01*
X165598571Y-51802380D01*
X165503333Y-51754761D01*
X165455714Y-51707142D01*
X165408095Y-51611904D01*
X165360476Y-51421428D01*
X165360476Y-51183333D01*
X165408095Y-50992857D01*
X165455714Y-50897619D01*
X165503333Y-50850000D01*
X165598571Y-50802380D01*
X161872380Y-66142857D02*
X161396190Y-66476190D01*
X161872380Y-66714285D02*
X160872380Y-66714285D01*
X160872380Y-66333333D01*
X160920000Y-66238095D01*
X160967619Y-66190476D01*
X161062857Y-66142857D01*
X161205714Y-66142857D01*
X161300952Y-66190476D01*
X161348571Y-66238095D01*
X161396190Y-66333333D01*
X161396190Y-66714285D01*
X161872380Y-65190476D02*
X161872380Y-65761904D01*
X161872380Y-65476190D02*
X160872380Y-65476190D01*
X161015238Y-65571428D01*
X161110476Y-65666666D01*
X161158095Y-65761904D01*
X161872380Y-64238095D02*
X161872380Y-64809523D01*
X161872380Y-64523809D02*
X160872380Y-64523809D01*
X161015238Y-64619047D01*
X161110476Y-64714285D01*
X161158095Y-64809523D01*
X161777142Y-74452380D02*
X161443809Y-73976190D01*
X161205714Y-74452380D02*
X161205714Y-73452380D01*
X161586666Y-73452380D01*
X161681904Y-73500000D01*
X161729523Y-73547619D01*
X161777142Y-73642857D01*
X161777142Y-73785714D01*
X161729523Y-73880952D01*
X161681904Y-73928571D01*
X161586666Y-73976190D01*
X161205714Y-73976190D01*
X162729523Y-74452380D02*
X162158095Y-74452380D01*
X162443809Y-74452380D02*
X162443809Y-73452380D01*
X162348571Y-73595238D01*
X162253333Y-73690476D01*
X162158095Y-73738095D01*
X163110476Y-73547619D02*
X163158095Y-73500000D01*
X163253333Y-73452380D01*
X163491428Y-73452380D01*
X163586666Y-73500000D01*
X163634285Y-73547619D01*
X163681904Y-73642857D01*
X163681904Y-73738095D01*
X163634285Y-73880952D01*
X163062857Y-74452380D01*
X163681904Y-74452380D01*
X163777142Y-78452380D02*
X163443809Y-77976190D01*
X163205714Y-78452380D02*
X163205714Y-77452380D01*
X163586666Y-77452380D01*
X163681904Y-77500000D01*
X163729523Y-77547619D01*
X163777142Y-77642857D01*
X163777142Y-77785714D01*
X163729523Y-77880952D01*
X163681904Y-77928571D01*
X163586666Y-77976190D01*
X163205714Y-77976190D01*
X164729523Y-78452380D02*
X164158095Y-78452380D01*
X164443809Y-78452380D02*
X164443809Y-77452380D01*
X164348571Y-77595238D01*
X164253333Y-77690476D01*
X164158095Y-77738095D01*
X165062857Y-77452380D02*
X165681904Y-77452380D01*
X165348571Y-77833333D01*
X165491428Y-77833333D01*
X165586666Y-77880952D01*
X165634285Y-77928571D01*
X165681904Y-78023809D01*
X165681904Y-78261904D01*
X165634285Y-78357142D01*
X165586666Y-78404761D01*
X165491428Y-78452380D01*
X165205714Y-78452380D01*
X165110476Y-78404761D01*
X165062857Y-78357142D01*
X164027142Y-57702380D02*
X163693809Y-57226190D01*
X163455714Y-57702380D02*
X163455714Y-56702380D01*
X163836666Y-56702380D01*
X163931904Y-56750000D01*
X163979523Y-56797619D01*
X164027142Y-56892857D01*
X164027142Y-57035714D01*
X163979523Y-57130952D01*
X163931904Y-57178571D01*
X163836666Y-57226190D01*
X163455714Y-57226190D01*
X164979523Y-57702380D02*
X164408095Y-57702380D01*
X164693809Y-57702380D02*
X164693809Y-56702380D01*
X164598571Y-56845238D01*
X164503333Y-56940476D01*
X164408095Y-56988095D01*
X165836666Y-57035714D02*
X165836666Y-57702380D01*
X165598571Y-56654761D02*
X165360476Y-57369047D01*
X165979523Y-57369047D01*
X168027142Y-64702380D02*
X167693809Y-64226190D01*
X167455714Y-64702380D02*
X167455714Y-63702380D01*
X167836666Y-63702380D01*
X167931904Y-63750000D01*
X167979523Y-63797619D01*
X168027142Y-63892857D01*
X168027142Y-64035714D01*
X167979523Y-64130952D01*
X167931904Y-64178571D01*
X167836666Y-64226190D01*
X167455714Y-64226190D01*
X168979523Y-64702380D02*
X168408095Y-64702380D01*
X168693809Y-64702380D02*
X168693809Y-63702380D01*
X168598571Y-63845238D01*
X168503333Y-63940476D01*
X168408095Y-63988095D01*
X169884285Y-63702380D02*
X169408095Y-63702380D01*
X169360476Y-64178571D01*
X169408095Y-64130952D01*
X169503333Y-64083333D01*
X169741428Y-64083333D01*
X169836666Y-64130952D01*
X169884285Y-64178571D01*
X169931904Y-64273809D01*
X169931904Y-64511904D01*
X169884285Y-64607142D01*
X169836666Y-64654761D01*
X169741428Y-64702380D01*
X169503333Y-64702380D01*
X169408095Y-64654761D01*
X169360476Y-64607142D01*
X161122380Y-43392857D02*
X160646190Y-43726190D01*
X161122380Y-43964285D02*
X160122380Y-43964285D01*
X160122380Y-43583333D01*
X160170000Y-43488095D01*
X160217619Y-43440476D01*
X160312857Y-43392857D01*
X160455714Y-43392857D01*
X160550952Y-43440476D01*
X160598571Y-43488095D01*
X160646190Y-43583333D01*
X160646190Y-43964285D01*
X161122380Y-42440476D02*
X161122380Y-43011904D01*
X161122380Y-42726190D02*
X160122380Y-42726190D01*
X160265238Y-42821428D01*
X160360476Y-42916666D01*
X160408095Y-43011904D01*
X160122380Y-41583333D02*
X160122380Y-41773809D01*
X160170000Y-41869047D01*
X160217619Y-41916666D01*
X160360476Y-42011904D01*
X160550952Y-42059523D01*
X160931904Y-42059523D01*
X161027142Y-42011904D01*
X161074761Y-41964285D01*
X161122380Y-41869047D01*
X161122380Y-41678571D01*
X161074761Y-41583333D01*
X161027142Y-41535714D01*
X160931904Y-41488095D01*
X160693809Y-41488095D01*
X160598571Y-41535714D01*
X160550952Y-41583333D01*
X160503333Y-41678571D01*
X160503333Y-41869047D01*
X160550952Y-41964285D01*
X160598571Y-42011904D01*
X160693809Y-42059523D01*
X157777142Y-68952380D02*
X157443809Y-68476190D01*
X157205714Y-68952380D02*
X157205714Y-67952380D01*
X157586666Y-67952380D01*
X157681904Y-68000000D01*
X157729523Y-68047619D01*
X157777142Y-68142857D01*
X157777142Y-68285714D01*
X157729523Y-68380952D01*
X157681904Y-68428571D01*
X157586666Y-68476190D01*
X157205714Y-68476190D01*
X158729523Y-68952380D02*
X158158095Y-68952380D01*
X158443809Y-68952380D02*
X158443809Y-67952380D01*
X158348571Y-68095238D01*
X158253333Y-68190476D01*
X158158095Y-68238095D01*
X159062857Y-67952380D02*
X159729523Y-67952380D01*
X159300952Y-68952380D01*
X168027142Y-70702380D02*
X167693809Y-70226190D01*
X167455714Y-70702380D02*
X167455714Y-69702380D01*
X167836666Y-69702380D01*
X167931904Y-69750000D01*
X167979523Y-69797619D01*
X168027142Y-69892857D01*
X168027142Y-70035714D01*
X167979523Y-70130952D01*
X167931904Y-70178571D01*
X167836666Y-70226190D01*
X167455714Y-70226190D01*
X168979523Y-70702380D02*
X168408095Y-70702380D01*
X168693809Y-70702380D02*
X168693809Y-69702380D01*
X168598571Y-69845238D01*
X168503333Y-69940476D01*
X168408095Y-69988095D01*
X169550952Y-70130952D02*
X169455714Y-70083333D01*
X169408095Y-70035714D01*
X169360476Y-69940476D01*
X169360476Y-69892857D01*
X169408095Y-69797619D01*
X169455714Y-69750000D01*
X169550952Y-69702380D01*
X169741428Y-69702380D01*
X169836666Y-69750000D01*
X169884285Y-69797619D01*
X169931904Y-69892857D01*
X169931904Y-69940476D01*
X169884285Y-70035714D01*
X169836666Y-70083333D01*
X169741428Y-70130952D01*
X169550952Y-70130952D01*
X169455714Y-70178571D01*
X169408095Y-70226190D01*
X169360476Y-70321428D01*
X169360476Y-70511904D01*
X169408095Y-70607142D01*
X169455714Y-70654761D01*
X169550952Y-70702380D01*
X169741428Y-70702380D01*
X169836666Y-70654761D01*
X169884285Y-70607142D01*
X169931904Y-70511904D01*
X169931904Y-70321428D01*
X169884285Y-70226190D01*
X169836666Y-70178571D01*
X169741428Y-70130952D01*
X171277142Y-78952380D02*
X170943809Y-78476190D01*
X170705714Y-78952380D02*
X170705714Y-77952380D01*
X171086666Y-77952380D01*
X171181904Y-78000000D01*
X171229523Y-78047619D01*
X171277142Y-78142857D01*
X171277142Y-78285714D01*
X171229523Y-78380952D01*
X171181904Y-78428571D01*
X171086666Y-78476190D01*
X170705714Y-78476190D01*
X172229523Y-78952380D02*
X171658095Y-78952380D01*
X171943809Y-78952380D02*
X171943809Y-77952380D01*
X171848571Y-78095238D01*
X171753333Y-78190476D01*
X171658095Y-78238095D01*
X172705714Y-78952380D02*
X172896190Y-78952380D01*
X172991428Y-78904761D01*
X173039047Y-78857142D01*
X173134285Y-78714285D01*
X173181904Y-78523809D01*
X173181904Y-78142857D01*
X173134285Y-78047619D01*
X173086666Y-78000000D01*
X172991428Y-77952380D01*
X172800952Y-77952380D01*
X172705714Y-78000000D01*
X172658095Y-78047619D01*
X172610476Y-78142857D01*
X172610476Y-78380952D01*
X172658095Y-78476190D01*
X172705714Y-78523809D01*
X172800952Y-78571428D01*
X172991428Y-78571428D01*
X173086666Y-78523809D01*
X173134285Y-78476190D01*
X173181904Y-78380952D01*
X164027142Y-60452380D02*
X163693809Y-59976190D01*
X163455714Y-60452380D02*
X163455714Y-59452380D01*
X163836666Y-59452380D01*
X163931904Y-59500000D01*
X163979523Y-59547619D01*
X164027142Y-59642857D01*
X164027142Y-59785714D01*
X163979523Y-59880952D01*
X163931904Y-59928571D01*
X163836666Y-59976190D01*
X163455714Y-59976190D01*
X164408095Y-59547619D02*
X164455714Y-59500000D01*
X164550952Y-59452380D01*
X164789047Y-59452380D01*
X164884285Y-59500000D01*
X164931904Y-59547619D01*
X164979523Y-59642857D01*
X164979523Y-59738095D01*
X164931904Y-59880952D01*
X164360476Y-60452380D01*
X164979523Y-60452380D01*
X165598571Y-59452380D02*
X165693809Y-59452380D01*
X165789047Y-59500000D01*
X165836666Y-59547619D01*
X165884285Y-59642857D01*
X165931904Y-59833333D01*
X165931904Y-60071428D01*
X165884285Y-60261904D01*
X165836666Y-60357142D01*
X165789047Y-60404761D01*
X165693809Y-60452380D01*
X165598571Y-60452380D01*
X165503333Y-60404761D01*
X165455714Y-60357142D01*
X165408095Y-60261904D01*
X165360476Y-60071428D01*
X165360476Y-59833333D01*
X165408095Y-59642857D01*
X165455714Y-59547619D01*
X165503333Y-59500000D01*
X165598571Y-59452380D01*
X154527142Y-69102380D02*
X154193809Y-68626190D01*
X153955714Y-69102380D02*
X153955714Y-68102380D01*
X154336666Y-68102380D01*
X154431904Y-68150000D01*
X154479523Y-68197619D01*
X154527142Y-68292857D01*
X154527142Y-68435714D01*
X154479523Y-68530952D01*
X154431904Y-68578571D01*
X154336666Y-68626190D01*
X153955714Y-68626190D01*
X154908095Y-68197619D02*
X154955714Y-68150000D01*
X155050952Y-68102380D01*
X155289047Y-68102380D01*
X155384285Y-68150000D01*
X155431904Y-68197619D01*
X155479523Y-68292857D01*
X155479523Y-68388095D01*
X155431904Y-68530952D01*
X154860476Y-69102380D01*
X155479523Y-69102380D01*
X156431904Y-69102380D02*
X155860476Y-69102380D01*
X156146190Y-69102380D02*
X156146190Y-68102380D01*
X156050952Y-68245238D01*
X155955714Y-68340476D01*
X155860476Y-68388095D01*
X149777142Y-68852380D02*
X149443809Y-68376190D01*
X149205714Y-68852380D02*
X149205714Y-67852380D01*
X149586666Y-67852380D01*
X149681904Y-67900000D01*
X149729523Y-67947619D01*
X149777142Y-68042857D01*
X149777142Y-68185714D01*
X149729523Y-68280952D01*
X149681904Y-68328571D01*
X149586666Y-68376190D01*
X149205714Y-68376190D01*
X150158095Y-67947619D02*
X150205714Y-67900000D01*
X150300952Y-67852380D01*
X150539047Y-67852380D01*
X150634285Y-67900000D01*
X150681904Y-67947619D01*
X150729523Y-68042857D01*
X150729523Y-68138095D01*
X150681904Y-68280952D01*
X150110476Y-68852380D01*
X150729523Y-68852380D01*
X151110476Y-67947619D02*
X151158095Y-67900000D01*
X151253333Y-67852380D01*
X151491428Y-67852380D01*
X151586666Y-67900000D01*
X151634285Y-67947619D01*
X151681904Y-68042857D01*
X151681904Y-68138095D01*
X151634285Y-68280952D01*
X151062857Y-68852380D01*
X151681904Y-68852380D01*
X144082666Y-74194761D02*
X144225523Y-74242380D01*
X144463619Y-74242380D01*
X144558857Y-74194761D01*
X144606476Y-74147142D01*
X144654095Y-74051904D01*
X144654095Y-73956666D01*
X144606476Y-73861428D01*
X144558857Y-73813809D01*
X144463619Y-73766190D01*
X144273142Y-73718571D01*
X144177904Y-73670952D01*
X144130285Y-73623333D01*
X144082666Y-73528095D01*
X144082666Y-73432857D01*
X144130285Y-73337619D01*
X144177904Y-73290000D01*
X144273142Y-73242380D01*
X144511238Y-73242380D01*
X144654095Y-73290000D01*
X144987428Y-73242380D02*
X145225523Y-74242380D01*
X145416000Y-73528095D01*
X145606476Y-74242380D01*
X145844571Y-73242380D01*
X146177904Y-73337619D02*
X146225523Y-73290000D01*
X146320761Y-73242380D01*
X146558857Y-73242380D01*
X146654095Y-73290000D01*
X146701714Y-73337619D01*
X146749333Y-73432857D01*
X146749333Y-73528095D01*
X146701714Y-73670952D01*
X146130285Y-74242380D01*
X146749333Y-74242380D01*
X149158095Y-73952380D02*
X149158095Y-74761904D01*
X149205714Y-74857142D01*
X149253333Y-74904761D01*
X149348571Y-74952380D01*
X149539047Y-74952380D01*
X149634285Y-74904761D01*
X149681904Y-74857142D01*
X149729523Y-74761904D01*
X149729523Y-73952380D01*
X150158095Y-74047619D02*
X150205714Y-74000000D01*
X150300952Y-73952380D01*
X150539047Y-73952380D01*
X150634285Y-74000000D01*
X150681904Y-74047619D01*
X150729523Y-74142857D01*
X150729523Y-74238095D01*
X150681904Y-74380952D01*
X150110476Y-74952380D01*
X150729523Y-74952380D01*
X160110476Y-75122380D02*
X160110476Y-75836666D01*
X160062857Y-75979523D01*
X159967619Y-76074761D01*
X159824761Y-76122380D01*
X159729523Y-76122380D01*
X161110476Y-76122380D02*
X160539047Y-76122380D01*
X160824761Y-76122380D02*
X160824761Y-75122380D01*
X160729523Y-75265238D01*
X160634285Y-75360476D01*
X160539047Y-75408095D01*
X161443809Y-75122380D02*
X162062857Y-75122380D01*
X161729523Y-75503333D01*
X161872380Y-75503333D01*
X161967619Y-75550952D01*
X162015238Y-75598571D01*
X162062857Y-75693809D01*
X162062857Y-75931904D01*
X162015238Y-76027142D01*
X161967619Y-76074761D01*
X161872380Y-76122380D01*
X161586666Y-76122380D01*
X161491428Y-76074761D01*
X161443809Y-76027142D01*
X155860476Y-75122380D02*
X155860476Y-75836666D01*
X155812857Y-75979523D01*
X155717619Y-76074761D01*
X155574761Y-76122380D01*
X155479523Y-76122380D01*
X156860476Y-76122380D02*
X156289047Y-76122380D01*
X156574761Y-76122380D02*
X156574761Y-75122380D01*
X156479523Y-75265238D01*
X156384285Y-75360476D01*
X156289047Y-75408095D01*
X157717619Y-75455714D02*
X157717619Y-76122380D01*
X157479523Y-75074761D02*
X157241428Y-75789047D01*
X157860476Y-75789047D01*
X170324761Y-60797619D02*
X170229523Y-60750000D01*
X170134285Y-60654761D01*
X169991428Y-60511904D01*
X169896190Y-60464285D01*
X169800952Y-60464285D01*
X169848571Y-60702380D02*
X169753333Y-60654761D01*
X169658095Y-60559523D01*
X169610476Y-60369047D01*
X169610476Y-60035714D01*
X169658095Y-59845238D01*
X169753333Y-59750000D01*
X169848571Y-59702380D01*
X170039047Y-59702380D01*
X170134285Y-59750000D01*
X170229523Y-59845238D01*
X170277142Y-60035714D01*
X170277142Y-60369047D01*
X170229523Y-60559523D01*
X170134285Y-60654761D01*
X170039047Y-60702380D01*
X169848571Y-60702380D01*
X171229523Y-60702380D02*
X170658095Y-60702380D01*
X170943809Y-60702380D02*
X170943809Y-59702380D01*
X170848571Y-59845238D01*
X170753333Y-59940476D01*
X170658095Y-59988095D01*
X171574761Y-71297619D02*
X171479523Y-71250000D01*
X171384285Y-71154761D01*
X171241428Y-71011904D01*
X171146190Y-70964285D01*
X171050952Y-70964285D01*
X171098571Y-71202380D02*
X171003333Y-71154761D01*
X170908095Y-71059523D01*
X170860476Y-70869047D01*
X170860476Y-70535714D01*
X170908095Y-70345238D01*
X171003333Y-70250000D01*
X171098571Y-70202380D01*
X171289047Y-70202380D01*
X171384285Y-70250000D01*
X171479523Y-70345238D01*
X171527142Y-70535714D01*
X171527142Y-70869047D01*
X171479523Y-71059523D01*
X171384285Y-71154761D01*
X171289047Y-71202380D01*
X171098571Y-71202380D01*
X171908095Y-70297619D02*
X171955714Y-70250000D01*
X172050952Y-70202380D01*
X172289047Y-70202380D01*
X172384285Y-70250000D01*
X172431904Y-70297619D01*
X172479523Y-70392857D01*
X172479523Y-70488095D01*
X172431904Y-70630952D01*
X171860476Y-71202380D01*
X172479523Y-71202380D01*
X175324761Y-74547619D02*
X175229523Y-74500000D01*
X175134285Y-74404761D01*
X174991428Y-74261904D01*
X174896190Y-74214285D01*
X174800952Y-74214285D01*
X174848571Y-74452380D02*
X174753333Y-74404761D01*
X174658095Y-74309523D01*
X174610476Y-74119047D01*
X174610476Y-73785714D01*
X174658095Y-73595238D01*
X174753333Y-73500000D01*
X174848571Y-73452380D01*
X175039047Y-73452380D01*
X175134285Y-73500000D01*
X175229523Y-73595238D01*
X175277142Y-73785714D01*
X175277142Y-74119047D01*
X175229523Y-74309523D01*
X175134285Y-74404761D01*
X175039047Y-74452380D01*
X174848571Y-74452380D01*
X175610476Y-73452380D02*
X176229523Y-73452380D01*
X175896190Y-73833333D01*
X176039047Y-73833333D01*
X176134285Y-73880952D01*
X176181904Y-73928571D01*
X176229523Y-74023809D01*
X176229523Y-74261904D01*
X176181904Y-74357142D01*
X176134285Y-74404761D01*
X176039047Y-74452380D01*
X175753333Y-74452380D01*
X175658095Y-74404761D01*
X175610476Y-74357142D01*
X170324761Y-53547619D02*
X170229523Y-53500000D01*
X170134285Y-53404761D01*
X169991428Y-53261904D01*
X169896190Y-53214285D01*
X169800952Y-53214285D01*
X169848571Y-53452380D02*
X169753333Y-53404761D01*
X169658095Y-53309523D01*
X169610476Y-53119047D01*
X169610476Y-52785714D01*
X169658095Y-52595238D01*
X169753333Y-52500000D01*
X169848571Y-52452380D01*
X170039047Y-52452380D01*
X170134285Y-52500000D01*
X170229523Y-52595238D01*
X170277142Y-52785714D01*
X170277142Y-53119047D01*
X170229523Y-53309523D01*
X170134285Y-53404761D01*
X170039047Y-53452380D01*
X169848571Y-53452380D01*
X171134285Y-52785714D02*
X171134285Y-53452380D01*
X170896190Y-52404761D02*
X170658095Y-53119047D01*
X171277142Y-53119047D01*
M02*
