G04 #@! TF.GenerationSoftware,KiCad,Pcbnew,(5.1.5)-3*
G04 #@! TF.CreationDate,2020-07-07T21:27:08-07:00*
G04 #@! TF.ProjectId,tool_head,746f6f6c-5f68-4656-9164-2e6b69636164,B*
G04 #@! TF.SameCoordinates,Original*
G04 #@! TF.FileFunction,Legend,Top*
G04 #@! TF.FilePolarity,Positive*
%FSLAX46Y46*%
G04 Gerber Fmt 4.6, Leading zero omitted, Abs format (unit mm)*
G04 Created by KiCad (PCBNEW (5.1.5)-3) date 2020-07-07 21:27:08*
%MOMM*%
%LPD*%
G04 APERTURE LIST*
%ADD10C,0.300000*%
%ADD11C,0.150000*%
%ADD12C,0.250000*%
%ADD13C,0.010000*%
%ADD14C,0.120000*%
G04 APERTURE END LIST*
D10*
X147027142Y-41178571D02*
X147884285Y-41178571D01*
X147455714Y-42678571D02*
X147455714Y-41178571D01*
X148670000Y-41178571D02*
X148812857Y-41178571D01*
X148955714Y-41250000D01*
X149027142Y-41321428D01*
X149098571Y-41464285D01*
X149170000Y-41750000D01*
X149170000Y-42107142D01*
X149098571Y-42392857D01*
X149027142Y-42535714D01*
X148955714Y-42607142D01*
X148812857Y-42678571D01*
X148670000Y-42678571D01*
X148527142Y-42607142D01*
X148455714Y-42535714D01*
X148384285Y-42392857D01*
X148312857Y-42107142D01*
X148312857Y-41750000D01*
X148384285Y-41464285D01*
X148455714Y-41321428D01*
X148527142Y-41250000D01*
X148670000Y-41178571D01*
D11*
X179289047Y-61571428D02*
X180050952Y-61571428D01*
X179670000Y-61952380D02*
X179670000Y-61190476D01*
X179789047Y-49821428D02*
X180550952Y-49821428D01*
X180170000Y-50202380D02*
X180170000Y-49440476D01*
X162789047Y-81702380D02*
X162789047Y-80702380D01*
X163170000Y-80702380D01*
X163265238Y-80750000D01*
X163312857Y-80797619D01*
X163360476Y-80892857D01*
X163360476Y-81035714D01*
X163312857Y-81130952D01*
X163265238Y-81178571D01*
X163170000Y-81226190D01*
X162789047Y-81226190D01*
X163693809Y-80702380D02*
X163931904Y-81702380D01*
X164122380Y-80988095D01*
X164312857Y-81702380D01*
X164550952Y-80702380D01*
X164931904Y-81702380D02*
X164931904Y-80702380D01*
X165265238Y-81416666D01*
X165598571Y-80702380D01*
X165598571Y-81702380D01*
X166265238Y-80702380D02*
X166360476Y-80702380D01*
X166455714Y-80750000D01*
X166503333Y-80797619D01*
X166550952Y-80892857D01*
X166598571Y-81083333D01*
X166598571Y-81321428D01*
X166550952Y-81511904D01*
X166503333Y-81607142D01*
X166455714Y-81654761D01*
X166360476Y-81702380D01*
X166265238Y-81702380D01*
X166170000Y-81654761D01*
X166122380Y-81607142D01*
X166074761Y-81511904D01*
X166027142Y-81321428D01*
X166027142Y-81083333D01*
X166074761Y-80892857D01*
X166122380Y-80797619D01*
X166170000Y-80750000D01*
X166265238Y-80702380D01*
X151289047Y-81702380D02*
X151289047Y-80702380D01*
X151670000Y-80702380D01*
X151765238Y-80750000D01*
X151812857Y-80797619D01*
X151860476Y-80892857D01*
X151860476Y-81035714D01*
X151812857Y-81130952D01*
X151765238Y-81178571D01*
X151670000Y-81226190D01*
X151289047Y-81226190D01*
X152193809Y-80702380D02*
X152431904Y-81702380D01*
X152622380Y-80988095D01*
X152812857Y-81702380D01*
X153050952Y-80702380D01*
X153431904Y-81702380D02*
X153431904Y-80702380D01*
X153765238Y-81416666D01*
X154098571Y-80702380D01*
X154098571Y-81702380D01*
X155098571Y-81702380D02*
X154527142Y-81702380D01*
X154812857Y-81702380D02*
X154812857Y-80702380D01*
X154717619Y-80845238D01*
X154622380Y-80940476D01*
X154527142Y-80988095D01*
X173408095Y-50202380D02*
X173408095Y-49202380D01*
X173408095Y-49678571D02*
X173979523Y-49678571D01*
X173979523Y-50202380D02*
X173979523Y-49202380D01*
X174598571Y-50202380D02*
X174503333Y-50154761D01*
X174455714Y-50107142D01*
X174408095Y-50011904D01*
X174408095Y-49726190D01*
X174455714Y-49630952D01*
X174503333Y-49583333D01*
X174598571Y-49535714D01*
X174741428Y-49535714D01*
X174836666Y-49583333D01*
X174884285Y-49630952D01*
X174931904Y-49726190D01*
X174931904Y-50011904D01*
X174884285Y-50107142D01*
X174836666Y-50154761D01*
X174741428Y-50202380D01*
X174598571Y-50202380D01*
X175217619Y-49535714D02*
X175598571Y-49535714D01*
X175360476Y-49202380D02*
X175360476Y-50059523D01*
X175408095Y-50154761D01*
X175503333Y-50202380D01*
X175598571Y-50202380D01*
X176693809Y-49678571D02*
X177027142Y-49678571D01*
X177170000Y-50202380D02*
X176693809Y-50202380D01*
X176693809Y-49202380D01*
X177170000Y-49202380D01*
X177598571Y-49535714D02*
X177598571Y-50202380D01*
X177598571Y-49630952D02*
X177646190Y-49583333D01*
X177741428Y-49535714D01*
X177884285Y-49535714D01*
X177979523Y-49583333D01*
X178027142Y-49678571D01*
X178027142Y-50202380D01*
X178931904Y-50202380D02*
X178931904Y-49202380D01*
X178931904Y-50154761D02*
X178836666Y-50202380D01*
X178646190Y-50202380D01*
X178550952Y-50154761D01*
X178503333Y-50107142D01*
X178455714Y-50011904D01*
X178455714Y-49726190D01*
X178503333Y-49630952D01*
X178550952Y-49583333D01*
X178646190Y-49535714D01*
X178836666Y-49535714D01*
X178931904Y-49583333D01*
X144943809Y-58202380D02*
X144943809Y-57202380D01*
X145324761Y-57202380D01*
X145420000Y-57250000D01*
X145467619Y-57297619D01*
X145515238Y-57392857D01*
X145515238Y-57535714D01*
X145467619Y-57630952D01*
X145420000Y-57678571D01*
X145324761Y-57726190D01*
X144943809Y-57726190D01*
X145848571Y-57202380D02*
X146086666Y-58202380D01*
X146277142Y-57488095D01*
X146467619Y-58202380D01*
X146705714Y-57202380D01*
X147658095Y-58202380D02*
X147324761Y-57726190D01*
X147086666Y-58202380D02*
X147086666Y-57202380D01*
X147467619Y-57202380D01*
X147562857Y-57250000D01*
X147610476Y-57297619D01*
X147658095Y-57392857D01*
X147658095Y-57535714D01*
X147610476Y-57630952D01*
X147562857Y-57678571D01*
X147467619Y-57726190D01*
X147086666Y-57726190D01*
X148848571Y-58202380D02*
X148848571Y-57202380D01*
X149324761Y-58202380D02*
X149324761Y-57202380D01*
X149896190Y-58202380D01*
X149896190Y-57202380D01*
X167991428Y-81452380D02*
X167896190Y-81404761D01*
X167848571Y-81309523D01*
X167848571Y-80452380D01*
X168372380Y-81452380D02*
X168372380Y-80452380D01*
X168467619Y-81071428D02*
X168753333Y-81452380D01*
X168753333Y-80785714D02*
X168372380Y-81166666D01*
X169324761Y-81452380D02*
X169229523Y-81404761D01*
X169181904Y-81357142D01*
X169134285Y-81261904D01*
X169134285Y-80976190D01*
X169181904Y-80880952D01*
X169229523Y-80833333D01*
X169324761Y-80785714D01*
X169467619Y-80785714D01*
X169562857Y-80833333D01*
X169610476Y-80880952D01*
X169658095Y-80976190D01*
X169658095Y-81261904D01*
X169610476Y-81357142D01*
X169562857Y-81404761D01*
X169467619Y-81452380D01*
X169324761Y-81452380D01*
X170086666Y-80785714D02*
X170086666Y-81452380D01*
X170086666Y-80880952D02*
X170134285Y-80833333D01*
X170229523Y-80785714D01*
X170372380Y-80785714D01*
X170467619Y-80833333D01*
X170515238Y-80928571D01*
X170515238Y-81452380D01*
X171420000Y-80785714D02*
X171420000Y-81595238D01*
X171372380Y-81690476D01*
X171324761Y-81738095D01*
X171229523Y-81785714D01*
X171086666Y-81785714D01*
X170991428Y-81738095D01*
X171420000Y-81404761D02*
X171324761Y-81452380D01*
X171134285Y-81452380D01*
X171039047Y-81404761D01*
X170991428Y-81357142D01*
X170943809Y-81261904D01*
X170943809Y-80976190D01*
X170991428Y-80880952D01*
X171039047Y-80833333D01*
X171134285Y-80785714D01*
X171324761Y-80785714D01*
X171420000Y-80833333D01*
X172943809Y-80452380D02*
X172943809Y-81166666D01*
X172896190Y-81309523D01*
X172800952Y-81404761D01*
X172658095Y-81452380D01*
X172562857Y-81452380D01*
X173848571Y-80785714D02*
X173848571Y-81452380D01*
X173420000Y-80785714D02*
X173420000Y-81309523D01*
X173467619Y-81404761D01*
X173562857Y-81452380D01*
X173705714Y-81452380D01*
X173800952Y-81404761D01*
X173848571Y-81357142D01*
X174467619Y-81452380D02*
X174372380Y-81404761D01*
X174324761Y-81309523D01*
X174324761Y-80452380D01*
X174753333Y-80785714D02*
X174991428Y-81452380D01*
X175229523Y-80785714D02*
X174991428Y-81452380D01*
X174896190Y-81690476D01*
X174848571Y-81738095D01*
X174753333Y-81785714D01*
X176324761Y-80404761D02*
X175467619Y-81690476D01*
X176610476Y-80547619D02*
X176658095Y-80500000D01*
X176753333Y-80452380D01*
X176991428Y-80452380D01*
X177086666Y-80500000D01*
X177134285Y-80547619D01*
X177181904Y-80642857D01*
X177181904Y-80738095D01*
X177134285Y-80880952D01*
X176562857Y-81452380D01*
X177181904Y-81452380D01*
X177800952Y-80452380D02*
X177896190Y-80452380D01*
X177991428Y-80500000D01*
X178039047Y-80547619D01*
X178086666Y-80642857D01*
X178134285Y-80833333D01*
X178134285Y-81071428D01*
X178086666Y-81261904D01*
X178039047Y-81357142D01*
X177991428Y-81404761D01*
X177896190Y-81452380D01*
X177800952Y-81452380D01*
X177705714Y-81404761D01*
X177658095Y-81357142D01*
X177610476Y-81261904D01*
X177562857Y-81071428D01*
X177562857Y-80833333D01*
X177610476Y-80642857D01*
X177658095Y-80547619D01*
X177705714Y-80500000D01*
X177800952Y-80452380D01*
X178515238Y-80547619D02*
X178562857Y-80500000D01*
X178658095Y-80452380D01*
X178896190Y-80452380D01*
X178991428Y-80500000D01*
X179039047Y-80547619D01*
X179086666Y-80642857D01*
X179086666Y-80738095D01*
X179039047Y-80880952D01*
X178467619Y-81452380D01*
X179086666Y-81452380D01*
X179705714Y-80452380D02*
X179800952Y-80452380D01*
X179896190Y-80500000D01*
X179943809Y-80547619D01*
X179991428Y-80642857D01*
X180039047Y-80833333D01*
X180039047Y-81071428D01*
X179991428Y-81261904D01*
X179943809Y-81357142D01*
X179896190Y-81404761D01*
X179800952Y-81452380D01*
X179705714Y-81452380D01*
X179610476Y-81404761D01*
X179562857Y-81357142D01*
X179515238Y-81261904D01*
X179467619Y-81071428D01*
X179467619Y-80833333D01*
X179515238Y-80642857D01*
X179562857Y-80547619D01*
X179610476Y-80500000D01*
X179705714Y-80452380D01*
D12*
X162027142Y-44500000D02*
X161931904Y-44452380D01*
X161789047Y-44452380D01*
X161646190Y-44500000D01*
X161550952Y-44595238D01*
X161503333Y-44690476D01*
X161455714Y-44880952D01*
X161455714Y-45023809D01*
X161503333Y-45214285D01*
X161550952Y-45309523D01*
X161646190Y-45404761D01*
X161789047Y-45452380D01*
X161884285Y-45452380D01*
X162027142Y-45404761D01*
X162074761Y-45357142D01*
X162074761Y-45023809D01*
X161884285Y-45023809D01*
X162503333Y-45452380D02*
X162503333Y-44452380D01*
X162884285Y-44452380D01*
X162979523Y-44500000D01*
X163027142Y-44547619D01*
X163074761Y-44642857D01*
X163074761Y-44785714D01*
X163027142Y-44880952D01*
X162979523Y-44928571D01*
X162884285Y-44976190D01*
X162503333Y-44976190D01*
X163503333Y-45452380D02*
X163503333Y-44452380D01*
X164170000Y-44452380D02*
X164360476Y-44452380D01*
X164455714Y-44500000D01*
X164550952Y-44595238D01*
X164598571Y-44785714D01*
X164598571Y-45119047D01*
X164550952Y-45309523D01*
X164455714Y-45404761D01*
X164360476Y-45452380D01*
X164170000Y-45452380D01*
X164074761Y-45404761D01*
X163979523Y-45309523D01*
X163931904Y-45119047D01*
X163931904Y-44785714D01*
X163979523Y-44595238D01*
X164074761Y-44500000D01*
X164170000Y-44452380D01*
X165741428Y-44404761D02*
X164884285Y-45690476D01*
X165979523Y-44452380D02*
X166598571Y-44452380D01*
X166265238Y-44833333D01*
X166408095Y-44833333D01*
X166503333Y-44880952D01*
X166550952Y-44928571D01*
X166598571Y-45023809D01*
X166598571Y-45261904D01*
X166550952Y-45357142D01*
X166503333Y-45404761D01*
X166408095Y-45452380D01*
X166122380Y-45452380D01*
X166027142Y-45404761D01*
X165979523Y-45357142D01*
X167027142Y-45357142D02*
X167074761Y-45404761D01*
X167027142Y-45452380D01*
X166979523Y-45404761D01*
X167027142Y-45357142D01*
X167027142Y-45452380D01*
X167408095Y-44452380D02*
X168027142Y-44452380D01*
X167693809Y-44833333D01*
X167836666Y-44833333D01*
X167931904Y-44880952D01*
X167979523Y-44928571D01*
X168027142Y-45023809D01*
X168027142Y-45261904D01*
X167979523Y-45357142D01*
X167931904Y-45404761D01*
X167836666Y-45452380D01*
X167550952Y-45452380D01*
X167455714Y-45404761D01*
X167408095Y-45357142D01*
X168360476Y-44785714D02*
X168598571Y-45452380D01*
X168836666Y-44785714D01*
X169931904Y-44404761D02*
X169074761Y-45690476D01*
X170789047Y-44500000D02*
X170693809Y-44452380D01*
X170550952Y-44452380D01*
X170408095Y-44500000D01*
X170312857Y-44595238D01*
X170265238Y-44690476D01*
X170217619Y-44880952D01*
X170217619Y-45023809D01*
X170265238Y-45214285D01*
X170312857Y-45309523D01*
X170408095Y-45404761D01*
X170550952Y-45452380D01*
X170646190Y-45452380D01*
X170789047Y-45404761D01*
X170836666Y-45357142D01*
X170836666Y-45023809D01*
X170646190Y-45023809D01*
X171265238Y-45452380D02*
X171265238Y-44452380D01*
X171836666Y-45452380D01*
X171836666Y-44452380D01*
X172312857Y-45452380D02*
X172312857Y-44452380D01*
X172550952Y-44452380D01*
X172693809Y-44500000D01*
X172789047Y-44595238D01*
X172836666Y-44690476D01*
X172884285Y-44880952D01*
X172884285Y-45023809D01*
X172836666Y-45214285D01*
X172789047Y-45309523D01*
X172693809Y-45404761D01*
X172550952Y-45452380D01*
X172312857Y-45452380D01*
D13*
G36*
X152188600Y-49100150D02*
G01*
X152188600Y-52399849D01*
X150799308Y-53200524D01*
X150459339Y-53396185D01*
X150149012Y-53574267D01*
X149878882Y-53728754D01*
X149659505Y-53853630D01*
X149501439Y-53942877D01*
X149415239Y-53990478D01*
X149402308Y-53996770D01*
X149358181Y-53971166D01*
X149236791Y-53900713D01*
X149048745Y-53791566D01*
X148804649Y-53649881D01*
X148515109Y-53481815D01*
X148190731Y-53293525D01*
X148023000Y-53196162D01*
X146797648Y-52484876D01*
X147853666Y-52484876D01*
X147892441Y-52504402D01*
X148010479Y-52519187D01*
X148185467Y-52526891D01*
X148260066Y-52527479D01*
X148683400Y-52526959D01*
X148697821Y-52505076D01*
X149420000Y-52505076D01*
X149466850Y-52515563D01*
X149591616Y-52523500D01*
X149770623Y-52527596D01*
X149839100Y-52527886D01*
X150258200Y-52527772D01*
X150740800Y-51784043D01*
X150905838Y-51529678D01*
X151057963Y-51295166D01*
X151185863Y-51097951D01*
X151278223Y-50955476D01*
X151317288Y-50895156D01*
X151411177Y-50750000D01*
X150549093Y-50750000D01*
X149984546Y-51616076D01*
X149814034Y-51878735D01*
X149664186Y-52111619D01*
X149543286Y-52301683D01*
X149459618Y-52435882D01*
X149421465Y-52501172D01*
X149420000Y-52505076D01*
X148697821Y-52505076D01*
X149826400Y-50792603D01*
X150074036Y-50416432D01*
X150304037Y-50066255D01*
X150510420Y-49751238D01*
X150687202Y-49480551D01*
X150828399Y-49263361D01*
X150928029Y-49108837D01*
X150980108Y-49026148D01*
X150986333Y-49015123D01*
X150947558Y-48995597D01*
X150829520Y-48980812D01*
X150654532Y-48973108D01*
X150579933Y-48972520D01*
X150156600Y-48973040D01*
X149013600Y-50707396D01*
X148765963Y-51083567D01*
X148535962Y-51433744D01*
X148329579Y-51748761D01*
X148152797Y-52019448D01*
X148011600Y-52236638D01*
X147911970Y-52391162D01*
X147859891Y-52473851D01*
X147853666Y-52484876D01*
X146797648Y-52484876D01*
X146651400Y-52399983D01*
X146651400Y-50750000D01*
X147428822Y-50750000D01*
X148290906Y-50750000D01*
X148855453Y-49883923D01*
X149025965Y-49621264D01*
X149175813Y-49388380D01*
X149296713Y-49198316D01*
X149380381Y-49064117D01*
X149418534Y-48998827D01*
X149420000Y-48994923D01*
X149373149Y-48984436D01*
X149248383Y-48976499D01*
X149069376Y-48972403D01*
X149000900Y-48972113D01*
X148581800Y-48972227D01*
X148099200Y-49715956D01*
X147934161Y-49970321D01*
X147782036Y-50204833D01*
X147654136Y-50402048D01*
X147561776Y-50544523D01*
X147522711Y-50604843D01*
X147428822Y-50750000D01*
X146651400Y-50750000D01*
X146651400Y-49100150D01*
X149420000Y-47504552D01*
X152188600Y-49100150D01*
G37*
X152188600Y-49100150D02*
X152188600Y-52399849D01*
X150799308Y-53200524D01*
X150459339Y-53396185D01*
X150149012Y-53574267D01*
X149878882Y-53728754D01*
X149659505Y-53853630D01*
X149501439Y-53942877D01*
X149415239Y-53990478D01*
X149402308Y-53996770D01*
X149358181Y-53971166D01*
X149236791Y-53900713D01*
X149048745Y-53791566D01*
X148804649Y-53649881D01*
X148515109Y-53481815D01*
X148190731Y-53293525D01*
X148023000Y-53196162D01*
X146797648Y-52484876D01*
X147853666Y-52484876D01*
X147892441Y-52504402D01*
X148010479Y-52519187D01*
X148185467Y-52526891D01*
X148260066Y-52527479D01*
X148683400Y-52526959D01*
X148697821Y-52505076D01*
X149420000Y-52505076D01*
X149466850Y-52515563D01*
X149591616Y-52523500D01*
X149770623Y-52527596D01*
X149839100Y-52527886D01*
X150258200Y-52527772D01*
X150740800Y-51784043D01*
X150905838Y-51529678D01*
X151057963Y-51295166D01*
X151185863Y-51097951D01*
X151278223Y-50955476D01*
X151317288Y-50895156D01*
X151411177Y-50750000D01*
X150549093Y-50750000D01*
X149984546Y-51616076D01*
X149814034Y-51878735D01*
X149664186Y-52111619D01*
X149543286Y-52301683D01*
X149459618Y-52435882D01*
X149421465Y-52501172D01*
X149420000Y-52505076D01*
X148697821Y-52505076D01*
X149826400Y-50792603D01*
X150074036Y-50416432D01*
X150304037Y-50066255D01*
X150510420Y-49751238D01*
X150687202Y-49480551D01*
X150828399Y-49263361D01*
X150928029Y-49108837D01*
X150980108Y-49026148D01*
X150986333Y-49015123D01*
X150947558Y-48995597D01*
X150829520Y-48980812D01*
X150654532Y-48973108D01*
X150579933Y-48972520D01*
X150156600Y-48973040D01*
X149013600Y-50707396D01*
X148765963Y-51083567D01*
X148535962Y-51433744D01*
X148329579Y-51748761D01*
X148152797Y-52019448D01*
X148011600Y-52236638D01*
X147911970Y-52391162D01*
X147859891Y-52473851D01*
X147853666Y-52484876D01*
X146797648Y-52484876D01*
X146651400Y-52399983D01*
X146651400Y-50750000D01*
X147428822Y-50750000D01*
X148290906Y-50750000D01*
X148855453Y-49883923D01*
X149025965Y-49621264D01*
X149175813Y-49388380D01*
X149296713Y-49198316D01*
X149380381Y-49064117D01*
X149418534Y-48998827D01*
X149420000Y-48994923D01*
X149373149Y-48984436D01*
X149248383Y-48976499D01*
X149069376Y-48972403D01*
X149000900Y-48972113D01*
X148581800Y-48972227D01*
X148099200Y-49715956D01*
X147934161Y-49970321D01*
X147782036Y-50204833D01*
X147654136Y-50402048D01*
X147561776Y-50544523D01*
X147522711Y-50604843D01*
X147428822Y-50750000D01*
X146651400Y-50750000D01*
X146651400Y-49100150D01*
X149420000Y-47504552D01*
X152188600Y-49100150D01*
D14*
X158210000Y-51196078D02*
X158210000Y-50678922D01*
X159630000Y-51196078D02*
X159630000Y-50678922D01*
X152411422Y-78210000D02*
X152928578Y-78210000D01*
X152411422Y-76790000D02*
X152928578Y-76790000D01*
X162630000Y-51258578D02*
X162630000Y-50741422D01*
X161210000Y-51258578D02*
X161210000Y-50741422D01*
X152411422Y-78790000D02*
X152928578Y-78790000D01*
X152411422Y-80210000D02*
X152928578Y-80210000D01*
X158460000Y-45991422D02*
X158460000Y-46508578D01*
X159880000Y-45991422D02*
X159880000Y-46508578D01*
X158411422Y-72710000D02*
X158928578Y-72710000D01*
X158411422Y-71290000D02*
X158928578Y-71290000D01*
X162130000Y-61185000D02*
X162130000Y-58500000D01*
X160210000Y-61185000D02*
X162130000Y-61185000D01*
X160210000Y-58500000D02*
X160210000Y-61185000D01*
X166670000Y-63460000D02*
X169355000Y-63460000D01*
X169355000Y-63460000D02*
X169355000Y-61540000D01*
X169355000Y-61540000D02*
X166670000Y-61540000D01*
X166670000Y-70210000D02*
X169355000Y-70210000D01*
X169355000Y-70210000D02*
X169355000Y-68290000D01*
X169355000Y-68290000D02*
X166670000Y-68290000D01*
X170605000Y-75540000D02*
X167920000Y-75540000D01*
X170605000Y-77460000D02*
X170605000Y-75540000D01*
X167920000Y-77460000D02*
X170605000Y-77460000D01*
X167420000Y-58960000D02*
X170105000Y-58960000D01*
X170105000Y-58960000D02*
X170105000Y-57040000D01*
X170105000Y-57040000D02*
X167420000Y-57040000D01*
X159630000Y-64935000D02*
X159630000Y-62250000D01*
X157710000Y-64935000D02*
X159630000Y-64935000D01*
X157710000Y-62250000D02*
X157710000Y-64935000D01*
X151960000Y-62250000D02*
X151960000Y-64935000D01*
X151960000Y-64935000D02*
X153880000Y-64935000D01*
X153880000Y-64935000D02*
X153880000Y-62250000D01*
X143932500Y-49850000D02*
X143932500Y-50300000D01*
X142082500Y-49850000D02*
X143932500Y-49850000D01*
X139532500Y-57650000D02*
X139782500Y-57650000D01*
X139532500Y-49850000D02*
X139782500Y-49850000D01*
X142082500Y-57650000D02*
X143932500Y-57650000D01*
X143932500Y-57650000D02*
X143932500Y-57200000D01*
X144482500Y-52050000D02*
X144482500Y-52500000D01*
X144482500Y-52050000D02*
X144032500Y-52050000D01*
X180650000Y-62170000D02*
X180650000Y-72450000D01*
X180650000Y-72450000D02*
X183310000Y-72450000D01*
X183310000Y-72450000D02*
X183310000Y-62170000D01*
X183310000Y-62170000D02*
X180650000Y-62170000D01*
X183310000Y-63120000D02*
X189310000Y-63120000D01*
X189310000Y-63120000D02*
X189310000Y-63880000D01*
X189310000Y-63880000D02*
X183310000Y-63880000D01*
X183310000Y-63180000D02*
X189310000Y-63180000D01*
X183310000Y-63300000D02*
X189310000Y-63300000D01*
X183310000Y-63420000D02*
X189310000Y-63420000D01*
X183310000Y-63540000D02*
X189310000Y-63540000D01*
X183310000Y-63660000D02*
X189310000Y-63660000D01*
X183310000Y-63780000D02*
X189310000Y-63780000D01*
X180252929Y-63120000D02*
X180650000Y-63120000D01*
X180252929Y-63880000D02*
X180650000Y-63880000D01*
X177780000Y-63120000D02*
X178167071Y-63120000D01*
X177780000Y-63880000D02*
X178167071Y-63880000D01*
X180650000Y-64770000D02*
X183310000Y-64770000D01*
X183310000Y-65660000D02*
X189310000Y-65660000D01*
X189310000Y-65660000D02*
X189310000Y-66420000D01*
X189310000Y-66420000D02*
X183310000Y-66420000D01*
X180252929Y-65660000D02*
X180650000Y-65660000D01*
X180252929Y-66420000D02*
X180650000Y-66420000D01*
X177712929Y-65660000D02*
X178167071Y-65660000D01*
X177712929Y-66420000D02*
X178167071Y-66420000D01*
X180650000Y-67310000D02*
X183310000Y-67310000D01*
X183310000Y-68200000D02*
X189310000Y-68200000D01*
X189310000Y-68200000D02*
X189310000Y-68960000D01*
X189310000Y-68960000D02*
X183310000Y-68960000D01*
X180252929Y-68200000D02*
X180650000Y-68200000D01*
X180252929Y-68960000D02*
X180650000Y-68960000D01*
X177712929Y-68200000D02*
X178167071Y-68200000D01*
X177712929Y-68960000D02*
X178167071Y-68960000D01*
X180650000Y-69850000D02*
X183310000Y-69850000D01*
X183310000Y-70740000D02*
X189310000Y-70740000D01*
X189310000Y-70740000D02*
X189310000Y-71500000D01*
X189310000Y-71500000D02*
X183310000Y-71500000D01*
X180252929Y-70740000D02*
X180650000Y-70740000D01*
X180252929Y-71500000D02*
X180650000Y-71500000D01*
X177712929Y-70740000D02*
X178167071Y-70740000D01*
X177712929Y-71500000D02*
X178167071Y-71500000D01*
X175400000Y-63500000D02*
X175400000Y-62230000D01*
X175400000Y-62230000D02*
X176670000Y-62230000D01*
X140020000Y-58410000D02*
X140020000Y-58910000D01*
X140760000Y-58410000D02*
X140020000Y-58410000D01*
X143897000Y-65103000D02*
X143851000Y-65056000D01*
X146195000Y-67400000D02*
X146159000Y-67365000D01*
X143681000Y-65296000D02*
X143646000Y-65261000D01*
X145989000Y-67605000D02*
X145943000Y-67558000D01*
X150181000Y-68930000D02*
X140260000Y-68930000D01*
X150181000Y-58650000D02*
X140260000Y-58650000D01*
X140260000Y-58650000D02*
X140260000Y-68930000D01*
X150181000Y-58650000D02*
X150181000Y-68930000D01*
X147221000Y-58650000D02*
X147221000Y-68930000D01*
X142320000Y-58650000D02*
X142320000Y-68930000D01*
X140820000Y-58650000D02*
X140820000Y-68930000D01*
X146600000Y-66330000D02*
G75*
G03X146600000Y-66330000I-1680000J0D01*
G01*
X143239747Y-61278805D02*
G75*
G02X143385000Y-60566000I1680253J28805D01*
G01*
X144236958Y-59714574D02*
G75*
G02X145604000Y-59715000I683042J-1535426D01*
G01*
X146455426Y-60566958D02*
G75*
G02X146455000Y-61934000I-1535426J-683042D01*
G01*
X145603042Y-62785426D02*
G75*
G02X144236000Y-62785000I-683042J1535426D01*
G01*
X143385244Y-61933318D02*
G75*
G02X143240000Y-61250000I1534756J683318D01*
G01*
X177954756Y-57316682D02*
G75*
G02X178100000Y-58000000I-1534756J-683318D01*
G01*
X175736958Y-56464574D02*
G75*
G02X177104000Y-56465000I683042J-1535426D01*
G01*
X174884574Y-58683042D02*
G75*
G02X174885000Y-57316000I1535426J683042D01*
G01*
X177103042Y-59535426D02*
G75*
G02X175736000Y-59535000I-683042J1535426D01*
G01*
X178100253Y-57971195D02*
G75*
G02X177955000Y-58684000I-1680253J-28805D01*
G01*
X178100000Y-52920000D02*
G75*
G03X178100000Y-52920000I-1680000J0D01*
G01*
X180520000Y-60600000D02*
X180520000Y-50320000D01*
X179020000Y-60600000D02*
X179020000Y-50320000D01*
X174119000Y-60600000D02*
X174119000Y-50320000D01*
X171159000Y-60600000D02*
X171159000Y-50320000D01*
X181080000Y-60600000D02*
X181080000Y-50320000D01*
X171159000Y-60600000D02*
X181080000Y-60600000D01*
X171159000Y-50320000D02*
X181080000Y-50320000D01*
X175351000Y-51645000D02*
X175397000Y-51692000D01*
X177659000Y-53954000D02*
X177694000Y-53989000D01*
X175145000Y-51850000D02*
X175181000Y-51885000D01*
X177443000Y-54147000D02*
X177489000Y-54194000D01*
X180580000Y-60840000D02*
X181320000Y-60840000D01*
X181320000Y-60840000D02*
X181320000Y-60340000D01*
X157730000Y-46710000D02*
X157730000Y-40740000D01*
X157730000Y-40740000D02*
X150110000Y-40740000D01*
X150110000Y-40740000D02*
X150110000Y-46710000D01*
X150110000Y-46710000D02*
X157730000Y-46710000D01*
X154420000Y-46700000D02*
X154420000Y-45950000D01*
X154420000Y-45950000D02*
X153420000Y-45950000D01*
X153420000Y-45950000D02*
X153420000Y-46700000D01*
X153420000Y-46700000D02*
X154420000Y-46700000D01*
X157720000Y-46700000D02*
X157720000Y-45950000D01*
X157720000Y-45950000D02*
X155920000Y-45950000D01*
X155920000Y-45950000D02*
X155920000Y-46700000D01*
X155920000Y-46700000D02*
X157720000Y-46700000D01*
X151920000Y-46700000D02*
X151920000Y-45950000D01*
X151920000Y-45950000D02*
X150120000Y-45950000D01*
X150120000Y-45950000D02*
X150120000Y-46700000D01*
X150120000Y-46700000D02*
X151920000Y-46700000D01*
X157720000Y-44450000D02*
X156970000Y-44450000D01*
X156970000Y-44450000D02*
X156970000Y-43110000D01*
X153920000Y-41500000D02*
X155910000Y-41500000D01*
X150120000Y-44450000D02*
X150870000Y-44450000D01*
X150870000Y-44450000D02*
X150870000Y-41500000D01*
X150870000Y-41500000D02*
X153920000Y-41500000D01*
X156770000Y-47000000D02*
X158020000Y-47000000D01*
X158020000Y-47000000D02*
X158020000Y-45750000D01*
X170500000Y-44080000D02*
X170500000Y-41420000D01*
X165360000Y-44080000D02*
X170500000Y-44080000D01*
X165360000Y-41420000D02*
X170500000Y-41420000D01*
X165360000Y-44080000D02*
X165360000Y-41420000D01*
X164090000Y-44080000D02*
X162760000Y-44080000D01*
X162760000Y-44080000D02*
X162760000Y-42750000D01*
X172430000Y-65080000D02*
X170970000Y-65080000D01*
X172430000Y-61920000D02*
X170270000Y-61920000D01*
X172430000Y-61920000D02*
X172430000Y-62850000D01*
X172430000Y-65080000D02*
X172430000Y-64150000D01*
X172430000Y-69080000D02*
X172430000Y-68150000D01*
X172430000Y-65920000D02*
X172430000Y-66850000D01*
X172430000Y-65920000D02*
X170270000Y-65920000D01*
X172430000Y-69080000D02*
X170970000Y-69080000D01*
X172430000Y-74080000D02*
X170970000Y-74080000D01*
X172430000Y-70920000D02*
X170270000Y-70920000D01*
X172430000Y-70920000D02*
X172430000Y-71850000D01*
X172430000Y-74080000D02*
X172430000Y-73150000D01*
X169430000Y-56080000D02*
X169430000Y-55150000D01*
X169430000Y-52920000D02*
X169430000Y-53850000D01*
X169430000Y-52920000D02*
X167270000Y-52920000D01*
X169430000Y-56080000D02*
X167970000Y-56080000D01*
X152428578Y-71210000D02*
X151911422Y-71210000D01*
X152428578Y-69790000D02*
X151911422Y-69790000D01*
X161880000Y-56008578D02*
X161880000Y-55491422D01*
X160460000Y-56008578D02*
X160460000Y-55491422D01*
X163411422Y-63210000D02*
X163928578Y-63210000D01*
X163411422Y-61790000D02*
X163928578Y-61790000D01*
X163411422Y-69960000D02*
X163928578Y-69960000D01*
X163411422Y-68540000D02*
X163928578Y-68540000D01*
X164661422Y-75790000D02*
X165178578Y-75790000D01*
X164661422Y-77210000D02*
X165178578Y-77210000D01*
X164411422Y-54210000D02*
X164928578Y-54210000D01*
X164411422Y-52790000D02*
X164928578Y-52790000D01*
X163411422Y-64040000D02*
X163928578Y-64040000D01*
X163411422Y-65460000D02*
X163928578Y-65460000D01*
X163411422Y-72210000D02*
X163928578Y-72210000D01*
X163411422Y-70790000D02*
X163928578Y-70790000D01*
X164661422Y-79460000D02*
X165178578Y-79460000D01*
X164661422Y-78040000D02*
X165178578Y-78040000D01*
X164411422Y-55040000D02*
X164928578Y-55040000D01*
X164411422Y-56460000D02*
X164928578Y-56460000D01*
X167411422Y-64040000D02*
X167928578Y-64040000D01*
X167411422Y-65460000D02*
X167928578Y-65460000D01*
X158460000Y-42491422D02*
X158460000Y-43008578D01*
X159880000Y-42491422D02*
X159880000Y-43008578D01*
X158928578Y-70710000D02*
X158411422Y-70710000D01*
X158928578Y-69290000D02*
X158411422Y-69290000D01*
X167411422Y-72210000D02*
X167928578Y-72210000D01*
X167411422Y-70790000D02*
X167928578Y-70790000D01*
X168661422Y-78040000D02*
X169178578Y-78040000D01*
X168661422Y-79460000D02*
X169178578Y-79460000D01*
X164411422Y-57290000D02*
X164928578Y-57290000D01*
X164411422Y-58710000D02*
X164928578Y-58710000D01*
X157960000Y-67258578D02*
X157960000Y-66741422D01*
X159380000Y-67258578D02*
X159380000Y-66741422D01*
X153630000Y-67258578D02*
X153630000Y-66741422D01*
X152210000Y-67258578D02*
X152210000Y-66741422D01*
D11*
X141420000Y-72000000D02*
X141420000Y-70000000D01*
X142670000Y-72000000D02*
X141420000Y-72000000D01*
X141420000Y-70000000D02*
X142670000Y-70000000D01*
X149920000Y-72000000D02*
X148670000Y-72000000D01*
X149920000Y-70000000D02*
X149920000Y-72000000D01*
X148670000Y-70000000D02*
X149920000Y-70000000D01*
X148670000Y-72750000D02*
X148670000Y-69250000D01*
X142670000Y-69250000D02*
X142670000Y-72750000D01*
X142670000Y-69250000D02*
X148670000Y-69250000D01*
X148670000Y-72750000D02*
X142670000Y-72750000D01*
X152945000Y-60950000D02*
X157395000Y-60950000D01*
X151420000Y-54050000D02*
X157395000Y-54050000D01*
D14*
X151520000Y-75110000D02*
X153320000Y-75110000D01*
X153320000Y-71890000D02*
X150870000Y-71890000D01*
X159590000Y-81870000D02*
X162250000Y-81870000D01*
X159590000Y-79270000D02*
X159590000Y-81870000D01*
X162250000Y-79270000D02*
X162250000Y-81870000D01*
X159590000Y-79270000D02*
X162250000Y-79270000D01*
X159590000Y-78000000D02*
X159590000Y-76670000D01*
X159590000Y-76670000D02*
X160920000Y-76670000D01*
X155340000Y-76670000D02*
X156670000Y-76670000D01*
X155340000Y-78000000D02*
X155340000Y-76670000D01*
X155340000Y-79270000D02*
X158000000Y-79270000D01*
X158000000Y-79270000D02*
X158000000Y-81870000D01*
X155340000Y-79270000D02*
X155340000Y-81870000D01*
X155340000Y-81870000D02*
X158000000Y-81870000D01*
D11*
X157627142Y-51104166D02*
X157674761Y-51151785D01*
X157722380Y-51294642D01*
X157722380Y-51389880D01*
X157674761Y-51532738D01*
X157579523Y-51627976D01*
X157484285Y-51675595D01*
X157293809Y-51723214D01*
X157150952Y-51723214D01*
X156960476Y-51675595D01*
X156865238Y-51627976D01*
X156770000Y-51532738D01*
X156722380Y-51389880D01*
X156722380Y-51294642D01*
X156770000Y-51151785D01*
X156817619Y-51104166D01*
X157722380Y-50151785D02*
X157722380Y-50723214D01*
X157722380Y-50437500D02*
X156722380Y-50437500D01*
X156865238Y-50532738D01*
X156960476Y-50627976D01*
X157008095Y-50723214D01*
X149753333Y-77857142D02*
X149705714Y-77904761D01*
X149562857Y-77952380D01*
X149467619Y-77952380D01*
X149324761Y-77904761D01*
X149229523Y-77809523D01*
X149181904Y-77714285D01*
X149134285Y-77523809D01*
X149134285Y-77380952D01*
X149181904Y-77190476D01*
X149229523Y-77095238D01*
X149324761Y-77000000D01*
X149467619Y-76952380D01*
X149562857Y-76952380D01*
X149705714Y-77000000D01*
X149753333Y-77047619D01*
X150134285Y-77047619D02*
X150181904Y-77000000D01*
X150277142Y-76952380D01*
X150515238Y-76952380D01*
X150610476Y-77000000D01*
X150658095Y-77047619D01*
X150705714Y-77142857D01*
X150705714Y-77238095D01*
X150658095Y-77380952D01*
X150086666Y-77952380D01*
X150705714Y-77952380D01*
X160627142Y-51166666D02*
X160674761Y-51214285D01*
X160722380Y-51357142D01*
X160722380Y-51452380D01*
X160674761Y-51595238D01*
X160579523Y-51690476D01*
X160484285Y-51738095D01*
X160293809Y-51785714D01*
X160150952Y-51785714D01*
X159960476Y-51738095D01*
X159865238Y-51690476D01*
X159770000Y-51595238D01*
X159722380Y-51452380D01*
X159722380Y-51357142D01*
X159770000Y-51214285D01*
X159817619Y-51166666D01*
X159722380Y-50833333D02*
X159722380Y-50214285D01*
X160103333Y-50547619D01*
X160103333Y-50404761D01*
X160150952Y-50309523D01*
X160198571Y-50261904D01*
X160293809Y-50214285D01*
X160531904Y-50214285D01*
X160627142Y-50261904D01*
X160674761Y-50309523D01*
X160722380Y-50404761D01*
X160722380Y-50690476D01*
X160674761Y-50785714D01*
X160627142Y-50833333D01*
X149753333Y-79607142D02*
X149705714Y-79654761D01*
X149562857Y-79702380D01*
X149467619Y-79702380D01*
X149324761Y-79654761D01*
X149229523Y-79559523D01*
X149181904Y-79464285D01*
X149134285Y-79273809D01*
X149134285Y-79130952D01*
X149181904Y-78940476D01*
X149229523Y-78845238D01*
X149324761Y-78750000D01*
X149467619Y-78702380D01*
X149562857Y-78702380D01*
X149705714Y-78750000D01*
X149753333Y-78797619D01*
X150610476Y-79035714D02*
X150610476Y-79702380D01*
X150372380Y-78654761D02*
X150134285Y-79369047D01*
X150753333Y-79369047D01*
X161277142Y-47166666D02*
X161324761Y-47214285D01*
X161372380Y-47357142D01*
X161372380Y-47452380D01*
X161324761Y-47595238D01*
X161229523Y-47690476D01*
X161134285Y-47738095D01*
X160943809Y-47785714D01*
X160800952Y-47785714D01*
X160610476Y-47738095D01*
X160515238Y-47690476D01*
X160420000Y-47595238D01*
X160372380Y-47452380D01*
X160372380Y-47357142D01*
X160420000Y-47214285D01*
X160467619Y-47166666D01*
X160372380Y-46261904D02*
X160372380Y-46738095D01*
X160848571Y-46785714D01*
X160800952Y-46738095D01*
X160753333Y-46642857D01*
X160753333Y-46404761D01*
X160800952Y-46309523D01*
X160848571Y-46261904D01*
X160943809Y-46214285D01*
X161181904Y-46214285D01*
X161277142Y-46261904D01*
X161324761Y-46309523D01*
X161372380Y-46404761D01*
X161372380Y-46642857D01*
X161324761Y-46738095D01*
X161277142Y-46785714D01*
X161527142Y-71666666D02*
X161574761Y-71714285D01*
X161622380Y-71857142D01*
X161622380Y-71952380D01*
X161574761Y-72095238D01*
X161479523Y-72190476D01*
X161384285Y-72238095D01*
X161193809Y-72285714D01*
X161050952Y-72285714D01*
X160860476Y-72238095D01*
X160765238Y-72190476D01*
X160670000Y-72095238D01*
X160622380Y-71952380D01*
X160622380Y-71857142D01*
X160670000Y-71714285D01*
X160717619Y-71666666D01*
X160622380Y-70809523D02*
X160622380Y-71000000D01*
X160670000Y-71095238D01*
X160717619Y-71142857D01*
X160860476Y-71238095D01*
X161050952Y-71285714D01*
X161431904Y-71285714D01*
X161527142Y-71238095D01*
X161574761Y-71190476D01*
X161622380Y-71095238D01*
X161622380Y-70904761D01*
X161574761Y-70809523D01*
X161527142Y-70761904D01*
X161431904Y-70714285D01*
X161193809Y-70714285D01*
X161098571Y-70761904D01*
X161050952Y-70809523D01*
X161003333Y-70904761D01*
X161003333Y-71095238D01*
X161050952Y-71190476D01*
X161098571Y-71238095D01*
X161193809Y-71285714D01*
X159972380Y-60238095D02*
X158972380Y-60238095D01*
X158972380Y-60000000D01*
X159020000Y-59857142D01*
X159115238Y-59761904D01*
X159210476Y-59714285D01*
X159400952Y-59666666D01*
X159543809Y-59666666D01*
X159734285Y-59714285D01*
X159829523Y-59761904D01*
X159924761Y-59857142D01*
X159972380Y-60000000D01*
X159972380Y-60238095D01*
X159972380Y-58714285D02*
X159972380Y-59285714D01*
X159972380Y-59000000D02*
X158972380Y-59000000D01*
X159115238Y-59095238D01*
X159210476Y-59190476D01*
X159258095Y-59285714D01*
X166931904Y-66702380D02*
X166931904Y-65702380D01*
X167170000Y-65702380D01*
X167312857Y-65750000D01*
X167408095Y-65845238D01*
X167455714Y-65940476D01*
X167503333Y-66130952D01*
X167503333Y-66273809D01*
X167455714Y-66464285D01*
X167408095Y-66559523D01*
X167312857Y-66654761D01*
X167170000Y-66702380D01*
X166931904Y-66702380D01*
X167884285Y-65797619D02*
X167931904Y-65750000D01*
X168027142Y-65702380D01*
X168265238Y-65702380D01*
X168360476Y-65750000D01*
X168408095Y-65797619D01*
X168455714Y-65892857D01*
X168455714Y-65988095D01*
X168408095Y-66130952D01*
X167836666Y-66702380D01*
X168455714Y-66702380D01*
X166931904Y-73452380D02*
X166931904Y-72452380D01*
X167170000Y-72452380D01*
X167312857Y-72500000D01*
X167408095Y-72595238D01*
X167455714Y-72690476D01*
X167503333Y-72880952D01*
X167503333Y-73023809D01*
X167455714Y-73214285D01*
X167408095Y-73309523D01*
X167312857Y-73404761D01*
X167170000Y-73452380D01*
X166931904Y-73452380D01*
X167836666Y-72452380D02*
X168455714Y-72452380D01*
X168122380Y-72833333D01*
X168265238Y-72833333D01*
X168360476Y-72880952D01*
X168408095Y-72928571D01*
X168455714Y-73023809D01*
X168455714Y-73261904D01*
X168408095Y-73357142D01*
X168360476Y-73404761D01*
X168265238Y-73452380D01*
X167979523Y-73452380D01*
X167884285Y-73404761D01*
X167836666Y-73357142D01*
X170931904Y-79452380D02*
X170931904Y-78452380D01*
X171170000Y-78452380D01*
X171312857Y-78500000D01*
X171408095Y-78595238D01*
X171455714Y-78690476D01*
X171503333Y-78880952D01*
X171503333Y-79023809D01*
X171455714Y-79214285D01*
X171408095Y-79309523D01*
X171312857Y-79404761D01*
X171170000Y-79452380D01*
X170931904Y-79452380D01*
X172360476Y-78785714D02*
X172360476Y-79452380D01*
X172122380Y-78404761D02*
X171884285Y-79119047D01*
X172503333Y-79119047D01*
X167681904Y-60102380D02*
X167681904Y-59102380D01*
X167920000Y-59102380D01*
X168062857Y-59150000D01*
X168158095Y-59245238D01*
X168205714Y-59340476D01*
X168253333Y-59530952D01*
X168253333Y-59673809D01*
X168205714Y-59864285D01*
X168158095Y-59959523D01*
X168062857Y-60054761D01*
X167920000Y-60102380D01*
X167681904Y-60102380D01*
X169158095Y-59102380D02*
X168681904Y-59102380D01*
X168634285Y-59578571D01*
X168681904Y-59530952D01*
X168777142Y-59483333D01*
X169015238Y-59483333D01*
X169110476Y-59530952D01*
X169158095Y-59578571D01*
X169205714Y-59673809D01*
X169205714Y-59911904D01*
X169158095Y-60007142D01*
X169110476Y-60054761D01*
X169015238Y-60102380D01*
X168777142Y-60102380D01*
X168681904Y-60054761D01*
X168634285Y-60007142D01*
X157472380Y-63988095D02*
X156472380Y-63988095D01*
X156472380Y-63750000D01*
X156520000Y-63607142D01*
X156615238Y-63511904D01*
X156710476Y-63464285D01*
X156900952Y-63416666D01*
X157043809Y-63416666D01*
X157234285Y-63464285D01*
X157329523Y-63511904D01*
X157424761Y-63607142D01*
X157472380Y-63750000D01*
X157472380Y-63988095D01*
X156472380Y-62559523D02*
X156472380Y-62750000D01*
X156520000Y-62845238D01*
X156567619Y-62892857D01*
X156710476Y-62988095D01*
X156900952Y-63035714D01*
X157281904Y-63035714D01*
X157377142Y-62988095D01*
X157424761Y-62940476D01*
X157472380Y-62845238D01*
X157472380Y-62654761D01*
X157424761Y-62559523D01*
X157377142Y-62511904D01*
X157281904Y-62464285D01*
X157043809Y-62464285D01*
X156948571Y-62511904D01*
X156900952Y-62559523D01*
X156853333Y-62654761D01*
X156853333Y-62845238D01*
X156900952Y-62940476D01*
X156948571Y-62988095D01*
X157043809Y-63035714D01*
X151722380Y-63988095D02*
X150722380Y-63988095D01*
X150722380Y-63750000D01*
X150770000Y-63607142D01*
X150865238Y-63511904D01*
X150960476Y-63464285D01*
X151150952Y-63416666D01*
X151293809Y-63416666D01*
X151484285Y-63464285D01*
X151579523Y-63511904D01*
X151674761Y-63607142D01*
X151722380Y-63750000D01*
X151722380Y-63988095D01*
X150722380Y-63083333D02*
X150722380Y-62416666D01*
X151722380Y-62845238D01*
X144734880Y-54083333D02*
X145449166Y-54083333D01*
X145592023Y-54130952D01*
X145687261Y-54226190D01*
X145734880Y-54369047D01*
X145734880Y-54464285D01*
X145734880Y-53083333D02*
X145734880Y-53654761D01*
X145734880Y-53369047D02*
X144734880Y-53369047D01*
X144877738Y-53464285D01*
X144972976Y-53559523D01*
X145020595Y-53654761D01*
X177086666Y-60952380D02*
X177086666Y-61666666D01*
X177039047Y-61809523D01*
X176943809Y-61904761D01*
X176800952Y-61952380D01*
X176705714Y-61952380D01*
X177467619Y-60952380D02*
X178086666Y-60952380D01*
X177753333Y-61333333D01*
X177896190Y-61333333D01*
X177991428Y-61380952D01*
X178039047Y-61428571D01*
X178086666Y-61523809D01*
X178086666Y-61761904D01*
X178039047Y-61857142D01*
X177991428Y-61904761D01*
X177896190Y-61952380D01*
X177610476Y-61952380D01*
X177515238Y-61904761D01*
X177467619Y-61857142D01*
X140336666Y-68952380D02*
X140336666Y-69666666D01*
X140289047Y-69809523D01*
X140193809Y-69904761D01*
X140050952Y-69952380D01*
X139955714Y-69952380D01*
X141289047Y-68952380D02*
X140812857Y-68952380D01*
X140765238Y-69428571D01*
X140812857Y-69380952D01*
X140908095Y-69333333D01*
X141146190Y-69333333D01*
X141241428Y-69380952D01*
X141289047Y-69428571D01*
X141336666Y-69523809D01*
X141336666Y-69761904D01*
X141289047Y-69857142D01*
X141241428Y-69904761D01*
X141146190Y-69952380D01*
X140908095Y-69952380D01*
X140812857Y-69904761D01*
X140765238Y-69857142D01*
X179586666Y-47702380D02*
X179586666Y-48416666D01*
X179539047Y-48559523D01*
X179443809Y-48654761D01*
X179300952Y-48702380D01*
X179205714Y-48702380D01*
X180491428Y-47702380D02*
X180300952Y-47702380D01*
X180205714Y-47750000D01*
X180158095Y-47797619D01*
X180062857Y-47940476D01*
X180015238Y-48130952D01*
X180015238Y-48511904D01*
X180062857Y-48607142D01*
X180110476Y-48654761D01*
X180205714Y-48702380D01*
X180396190Y-48702380D01*
X180491428Y-48654761D01*
X180539047Y-48607142D01*
X180586666Y-48511904D01*
X180586666Y-48273809D01*
X180539047Y-48178571D01*
X180491428Y-48130952D01*
X180396190Y-48083333D01*
X180205714Y-48083333D01*
X180110476Y-48130952D01*
X180062857Y-48178571D01*
X180015238Y-48273809D01*
X148836666Y-42952380D02*
X148836666Y-43666666D01*
X148789047Y-43809523D01*
X148693809Y-43904761D01*
X148550952Y-43952380D01*
X148455714Y-43952380D01*
X149455714Y-43380952D02*
X149360476Y-43333333D01*
X149312857Y-43285714D01*
X149265238Y-43190476D01*
X149265238Y-43142857D01*
X149312857Y-43047619D01*
X149360476Y-43000000D01*
X149455714Y-42952380D01*
X149646190Y-42952380D01*
X149741428Y-43000000D01*
X149789047Y-43047619D01*
X149836666Y-43142857D01*
X149836666Y-43190476D01*
X149789047Y-43285714D01*
X149741428Y-43333333D01*
X149646190Y-43380952D01*
X149455714Y-43380952D01*
X149360476Y-43428571D01*
X149312857Y-43476190D01*
X149265238Y-43571428D01*
X149265238Y-43761904D01*
X149312857Y-43857142D01*
X149360476Y-43904761D01*
X149455714Y-43952380D01*
X149646190Y-43952380D01*
X149741428Y-43904761D01*
X149789047Y-43857142D01*
X149836666Y-43761904D01*
X149836666Y-43571428D01*
X149789047Y-43476190D01*
X149741428Y-43428571D01*
X149646190Y-43380952D01*
X171122380Y-43559523D02*
X171836666Y-43559523D01*
X171979523Y-43607142D01*
X172074761Y-43702380D01*
X172122380Y-43845238D01*
X172122380Y-43940476D01*
X172122380Y-42559523D02*
X172122380Y-43130952D01*
X172122380Y-42845238D02*
X171122380Y-42845238D01*
X171265238Y-42940476D01*
X171360476Y-43035714D01*
X171408095Y-43130952D01*
X171217619Y-42178571D02*
X171170000Y-42130952D01*
X171122380Y-42035714D01*
X171122380Y-41797619D01*
X171170000Y-41702380D01*
X171217619Y-41654761D01*
X171312857Y-41607142D01*
X171408095Y-41607142D01*
X171550952Y-41654761D01*
X172122380Y-42226190D01*
X172122380Y-41607142D01*
X173324761Y-62297619D02*
X173229523Y-62250000D01*
X173134285Y-62154761D01*
X172991428Y-62011904D01*
X172896190Y-61964285D01*
X172800952Y-61964285D01*
X172848571Y-62202380D02*
X172753333Y-62154761D01*
X172658095Y-62059523D01*
X172610476Y-61869047D01*
X172610476Y-61535714D01*
X172658095Y-61345238D01*
X172753333Y-61250000D01*
X172848571Y-61202380D01*
X173039047Y-61202380D01*
X173134285Y-61250000D01*
X173229523Y-61345238D01*
X173277142Y-61535714D01*
X173277142Y-61869047D01*
X173229523Y-62059523D01*
X173134285Y-62154761D01*
X173039047Y-62202380D01*
X172848571Y-62202380D01*
X174229523Y-62202380D02*
X173658095Y-62202380D01*
X173943809Y-62202380D02*
X173943809Y-61202380D01*
X173848571Y-61345238D01*
X173753333Y-61440476D01*
X173658095Y-61488095D01*
X173324761Y-66547619D02*
X173229523Y-66500000D01*
X173134285Y-66404761D01*
X172991428Y-66261904D01*
X172896190Y-66214285D01*
X172800952Y-66214285D01*
X172848571Y-66452380D02*
X172753333Y-66404761D01*
X172658095Y-66309523D01*
X172610476Y-66119047D01*
X172610476Y-65785714D01*
X172658095Y-65595238D01*
X172753333Y-65500000D01*
X172848571Y-65452380D01*
X173039047Y-65452380D01*
X173134285Y-65500000D01*
X173229523Y-65595238D01*
X173277142Y-65785714D01*
X173277142Y-66119047D01*
X173229523Y-66309523D01*
X173134285Y-66404761D01*
X173039047Y-66452380D01*
X172848571Y-66452380D01*
X173658095Y-65547619D02*
X173705714Y-65500000D01*
X173800952Y-65452380D01*
X174039047Y-65452380D01*
X174134285Y-65500000D01*
X174181904Y-65547619D01*
X174229523Y-65642857D01*
X174229523Y-65738095D01*
X174181904Y-65880952D01*
X173610476Y-66452380D01*
X174229523Y-66452380D01*
X173324761Y-71297619D02*
X173229523Y-71250000D01*
X173134285Y-71154761D01*
X172991428Y-71011904D01*
X172896190Y-70964285D01*
X172800952Y-70964285D01*
X172848571Y-71202380D02*
X172753333Y-71154761D01*
X172658095Y-71059523D01*
X172610476Y-70869047D01*
X172610476Y-70535714D01*
X172658095Y-70345238D01*
X172753333Y-70250000D01*
X172848571Y-70202380D01*
X173039047Y-70202380D01*
X173134285Y-70250000D01*
X173229523Y-70345238D01*
X173277142Y-70535714D01*
X173277142Y-70869047D01*
X173229523Y-71059523D01*
X173134285Y-71154761D01*
X173039047Y-71202380D01*
X172848571Y-71202380D01*
X173610476Y-70202380D02*
X174229523Y-70202380D01*
X173896190Y-70583333D01*
X174039047Y-70583333D01*
X174134285Y-70630952D01*
X174181904Y-70678571D01*
X174229523Y-70773809D01*
X174229523Y-71011904D01*
X174181904Y-71107142D01*
X174134285Y-71154761D01*
X174039047Y-71202380D01*
X173753333Y-71202380D01*
X173658095Y-71154761D01*
X173610476Y-71107142D01*
X168574761Y-52547619D02*
X168479523Y-52500000D01*
X168384285Y-52404761D01*
X168241428Y-52261904D01*
X168146190Y-52214285D01*
X168050952Y-52214285D01*
X168098571Y-52452380D02*
X168003333Y-52404761D01*
X167908095Y-52309523D01*
X167860476Y-52119047D01*
X167860476Y-51785714D01*
X167908095Y-51595238D01*
X168003333Y-51500000D01*
X168098571Y-51452380D01*
X168289047Y-51452380D01*
X168384285Y-51500000D01*
X168479523Y-51595238D01*
X168527142Y-51785714D01*
X168527142Y-52119047D01*
X168479523Y-52309523D01*
X168384285Y-52404761D01*
X168289047Y-52452380D01*
X168098571Y-52452380D01*
X169384285Y-51785714D02*
X169384285Y-52452380D01*
X169146190Y-51404761D02*
X168908095Y-52119047D01*
X169527142Y-52119047D01*
X155122380Y-70666666D02*
X154646190Y-71000000D01*
X155122380Y-71238095D02*
X154122380Y-71238095D01*
X154122380Y-70857142D01*
X154170000Y-70761904D01*
X154217619Y-70714285D01*
X154312857Y-70666666D01*
X154455714Y-70666666D01*
X154550952Y-70714285D01*
X154598571Y-70761904D01*
X154646190Y-70857142D01*
X154646190Y-71238095D01*
X154217619Y-70285714D02*
X154170000Y-70238095D01*
X154122380Y-70142857D01*
X154122380Y-69904761D01*
X154170000Y-69809523D01*
X154217619Y-69761904D01*
X154312857Y-69714285D01*
X154408095Y-69714285D01*
X154550952Y-69761904D01*
X155122380Y-70333333D01*
X155122380Y-69714285D01*
X159972380Y-55916666D02*
X159496190Y-56250000D01*
X159972380Y-56488095D02*
X158972380Y-56488095D01*
X158972380Y-56107142D01*
X159020000Y-56011904D01*
X159067619Y-55964285D01*
X159162857Y-55916666D01*
X159305714Y-55916666D01*
X159400952Y-55964285D01*
X159448571Y-56011904D01*
X159496190Y-56107142D01*
X159496190Y-56488095D01*
X158972380Y-55583333D02*
X158972380Y-54964285D01*
X159353333Y-55297619D01*
X159353333Y-55154761D01*
X159400952Y-55059523D01*
X159448571Y-55011904D01*
X159543809Y-54964285D01*
X159781904Y-54964285D01*
X159877142Y-55011904D01*
X159924761Y-55059523D01*
X159972380Y-55154761D01*
X159972380Y-55440476D01*
X159924761Y-55535714D01*
X159877142Y-55583333D01*
X163503333Y-61302380D02*
X163170000Y-60826190D01*
X162931904Y-61302380D02*
X162931904Y-60302380D01*
X163312857Y-60302380D01*
X163408095Y-60350000D01*
X163455714Y-60397619D01*
X163503333Y-60492857D01*
X163503333Y-60635714D01*
X163455714Y-60730952D01*
X163408095Y-60778571D01*
X163312857Y-60826190D01*
X162931904Y-60826190D01*
X163836666Y-60302380D02*
X164503333Y-60302380D01*
X164074761Y-61302380D01*
X163503333Y-68052380D02*
X163170000Y-67576190D01*
X162931904Y-68052380D02*
X162931904Y-67052380D01*
X163312857Y-67052380D01*
X163408095Y-67100000D01*
X163455714Y-67147619D01*
X163503333Y-67242857D01*
X163503333Y-67385714D01*
X163455714Y-67480952D01*
X163408095Y-67528571D01*
X163312857Y-67576190D01*
X162931904Y-67576190D01*
X164074761Y-67480952D02*
X163979523Y-67433333D01*
X163931904Y-67385714D01*
X163884285Y-67290476D01*
X163884285Y-67242857D01*
X163931904Y-67147619D01*
X163979523Y-67100000D01*
X164074761Y-67052380D01*
X164265238Y-67052380D01*
X164360476Y-67100000D01*
X164408095Y-67147619D01*
X164455714Y-67242857D01*
X164455714Y-67290476D01*
X164408095Y-67385714D01*
X164360476Y-67433333D01*
X164265238Y-67480952D01*
X164074761Y-67480952D01*
X163979523Y-67528571D01*
X163931904Y-67576190D01*
X163884285Y-67671428D01*
X163884285Y-67861904D01*
X163931904Y-67957142D01*
X163979523Y-68004761D01*
X164074761Y-68052380D01*
X164265238Y-68052380D01*
X164360476Y-68004761D01*
X164408095Y-67957142D01*
X164455714Y-67861904D01*
X164455714Y-67671428D01*
X164408095Y-67576190D01*
X164360476Y-67528571D01*
X164265238Y-67480952D01*
X164753333Y-75702380D02*
X164420000Y-75226190D01*
X164181904Y-75702380D02*
X164181904Y-74702380D01*
X164562857Y-74702380D01*
X164658095Y-74750000D01*
X164705714Y-74797619D01*
X164753333Y-74892857D01*
X164753333Y-75035714D01*
X164705714Y-75130952D01*
X164658095Y-75178571D01*
X164562857Y-75226190D01*
X164181904Y-75226190D01*
X165229523Y-75702380D02*
X165420000Y-75702380D01*
X165515238Y-75654761D01*
X165562857Y-75607142D01*
X165658095Y-75464285D01*
X165705714Y-75273809D01*
X165705714Y-74892857D01*
X165658095Y-74797619D01*
X165610476Y-74750000D01*
X165515238Y-74702380D01*
X165324761Y-74702380D01*
X165229523Y-74750000D01*
X165181904Y-74797619D01*
X165134285Y-74892857D01*
X165134285Y-75130952D01*
X165181904Y-75226190D01*
X165229523Y-75273809D01*
X165324761Y-75321428D01*
X165515238Y-75321428D01*
X165610476Y-75273809D01*
X165658095Y-75226190D01*
X165705714Y-75130952D01*
X164027142Y-52302380D02*
X163693809Y-51826190D01*
X163455714Y-52302380D02*
X163455714Y-51302380D01*
X163836666Y-51302380D01*
X163931904Y-51350000D01*
X163979523Y-51397619D01*
X164027142Y-51492857D01*
X164027142Y-51635714D01*
X163979523Y-51730952D01*
X163931904Y-51778571D01*
X163836666Y-51826190D01*
X163455714Y-51826190D01*
X164979523Y-52302380D02*
X164408095Y-52302380D01*
X164693809Y-52302380D02*
X164693809Y-51302380D01*
X164598571Y-51445238D01*
X164503333Y-51540476D01*
X164408095Y-51588095D01*
X165598571Y-51302380D02*
X165693809Y-51302380D01*
X165789047Y-51350000D01*
X165836666Y-51397619D01*
X165884285Y-51492857D01*
X165931904Y-51683333D01*
X165931904Y-51921428D01*
X165884285Y-52111904D01*
X165836666Y-52207142D01*
X165789047Y-52254761D01*
X165693809Y-52302380D01*
X165598571Y-52302380D01*
X165503333Y-52254761D01*
X165455714Y-52207142D01*
X165408095Y-52111904D01*
X165360476Y-51921428D01*
X165360476Y-51683333D01*
X165408095Y-51492857D01*
X165455714Y-51397619D01*
X165503333Y-51350000D01*
X165598571Y-51302380D01*
X161872380Y-65392857D02*
X161396190Y-65726190D01*
X161872380Y-65964285D02*
X160872380Y-65964285D01*
X160872380Y-65583333D01*
X160920000Y-65488095D01*
X160967619Y-65440476D01*
X161062857Y-65392857D01*
X161205714Y-65392857D01*
X161300952Y-65440476D01*
X161348571Y-65488095D01*
X161396190Y-65583333D01*
X161396190Y-65964285D01*
X161872380Y-64440476D02*
X161872380Y-65011904D01*
X161872380Y-64726190D02*
X160872380Y-64726190D01*
X161015238Y-64821428D01*
X161110476Y-64916666D01*
X161158095Y-65011904D01*
X161872380Y-63488095D02*
X161872380Y-64059523D01*
X161872380Y-63773809D02*
X160872380Y-63773809D01*
X161015238Y-63869047D01*
X161110476Y-63964285D01*
X161158095Y-64059523D01*
X161777142Y-73702380D02*
X161443809Y-73226190D01*
X161205714Y-73702380D02*
X161205714Y-72702380D01*
X161586666Y-72702380D01*
X161681904Y-72750000D01*
X161729523Y-72797619D01*
X161777142Y-72892857D01*
X161777142Y-73035714D01*
X161729523Y-73130952D01*
X161681904Y-73178571D01*
X161586666Y-73226190D01*
X161205714Y-73226190D01*
X162729523Y-73702380D02*
X162158095Y-73702380D01*
X162443809Y-73702380D02*
X162443809Y-72702380D01*
X162348571Y-72845238D01*
X162253333Y-72940476D01*
X162158095Y-72988095D01*
X163110476Y-72797619D02*
X163158095Y-72750000D01*
X163253333Y-72702380D01*
X163491428Y-72702380D01*
X163586666Y-72750000D01*
X163634285Y-72797619D01*
X163681904Y-72892857D01*
X163681904Y-72988095D01*
X163634285Y-73130952D01*
X163062857Y-73702380D01*
X163681904Y-73702380D01*
X163122380Y-79142857D02*
X162646190Y-79476190D01*
X163122380Y-79714285D02*
X162122380Y-79714285D01*
X162122380Y-79333333D01*
X162170000Y-79238095D01*
X162217619Y-79190476D01*
X162312857Y-79142857D01*
X162455714Y-79142857D01*
X162550952Y-79190476D01*
X162598571Y-79238095D01*
X162646190Y-79333333D01*
X162646190Y-79714285D01*
X163122380Y-78190476D02*
X163122380Y-78761904D01*
X163122380Y-78476190D02*
X162122380Y-78476190D01*
X162265238Y-78571428D01*
X162360476Y-78666666D01*
X162408095Y-78761904D01*
X162122380Y-77857142D02*
X162122380Y-77238095D01*
X162503333Y-77571428D01*
X162503333Y-77428571D01*
X162550952Y-77333333D01*
X162598571Y-77285714D01*
X162693809Y-77238095D01*
X162931904Y-77238095D01*
X163027142Y-77285714D01*
X163074761Y-77333333D01*
X163122380Y-77428571D01*
X163122380Y-77714285D01*
X163074761Y-77809523D01*
X163027142Y-77857142D01*
X163122380Y-56392857D02*
X162646190Y-56726190D01*
X163122380Y-56964285D02*
X162122380Y-56964285D01*
X162122380Y-56583333D01*
X162170000Y-56488095D01*
X162217619Y-56440476D01*
X162312857Y-56392857D01*
X162455714Y-56392857D01*
X162550952Y-56440476D01*
X162598571Y-56488095D01*
X162646190Y-56583333D01*
X162646190Y-56964285D01*
X163122380Y-55440476D02*
X163122380Y-56011904D01*
X163122380Y-55726190D02*
X162122380Y-55726190D01*
X162265238Y-55821428D01*
X162360476Y-55916666D01*
X162408095Y-56011904D01*
X162455714Y-54583333D02*
X163122380Y-54583333D01*
X162074761Y-54821428D02*
X162789047Y-55059523D01*
X162789047Y-54440476D01*
X167027142Y-61452380D02*
X166693809Y-60976190D01*
X166455714Y-61452380D02*
X166455714Y-60452380D01*
X166836666Y-60452380D01*
X166931904Y-60500000D01*
X166979523Y-60547619D01*
X167027142Y-60642857D01*
X167027142Y-60785714D01*
X166979523Y-60880952D01*
X166931904Y-60928571D01*
X166836666Y-60976190D01*
X166455714Y-60976190D01*
X167979523Y-61452380D02*
X167408095Y-61452380D01*
X167693809Y-61452380D02*
X167693809Y-60452380D01*
X167598571Y-60595238D01*
X167503333Y-60690476D01*
X167408095Y-60738095D01*
X168884285Y-60452380D02*
X168408095Y-60452380D01*
X168360476Y-60928571D01*
X168408095Y-60880952D01*
X168503333Y-60833333D01*
X168741428Y-60833333D01*
X168836666Y-60880952D01*
X168884285Y-60928571D01*
X168931904Y-61023809D01*
X168931904Y-61261904D01*
X168884285Y-61357142D01*
X168836666Y-61404761D01*
X168741428Y-61452380D01*
X168503333Y-61452380D01*
X168408095Y-61404761D01*
X168360476Y-61357142D01*
X161122380Y-43392857D02*
X160646190Y-43726190D01*
X161122380Y-43964285D02*
X160122380Y-43964285D01*
X160122380Y-43583333D01*
X160170000Y-43488095D01*
X160217619Y-43440476D01*
X160312857Y-43392857D01*
X160455714Y-43392857D01*
X160550952Y-43440476D01*
X160598571Y-43488095D01*
X160646190Y-43583333D01*
X160646190Y-43964285D01*
X161122380Y-42440476D02*
X161122380Y-43011904D01*
X161122380Y-42726190D02*
X160122380Y-42726190D01*
X160265238Y-42821428D01*
X160360476Y-42916666D01*
X160408095Y-43011904D01*
X160122380Y-41583333D02*
X160122380Y-41773809D01*
X160170000Y-41869047D01*
X160217619Y-41916666D01*
X160360476Y-42011904D01*
X160550952Y-42059523D01*
X160931904Y-42059523D01*
X161027142Y-42011904D01*
X161074761Y-41964285D01*
X161122380Y-41869047D01*
X161122380Y-41678571D01*
X161074761Y-41583333D01*
X161027142Y-41535714D01*
X160931904Y-41488095D01*
X160693809Y-41488095D01*
X160598571Y-41535714D01*
X160550952Y-41583333D01*
X160503333Y-41678571D01*
X160503333Y-41869047D01*
X160550952Y-41964285D01*
X160598571Y-42011904D01*
X160693809Y-42059523D01*
X161372380Y-69892857D02*
X160896190Y-70226190D01*
X161372380Y-70464285D02*
X160372380Y-70464285D01*
X160372380Y-70083333D01*
X160420000Y-69988095D01*
X160467619Y-69940476D01*
X160562857Y-69892857D01*
X160705714Y-69892857D01*
X160800952Y-69940476D01*
X160848571Y-69988095D01*
X160896190Y-70083333D01*
X160896190Y-70464285D01*
X161372380Y-68940476D02*
X161372380Y-69511904D01*
X161372380Y-69226190D02*
X160372380Y-69226190D01*
X160515238Y-69321428D01*
X160610476Y-69416666D01*
X160658095Y-69511904D01*
X160372380Y-68607142D02*
X160372380Y-67940476D01*
X161372380Y-68369047D01*
X167277142Y-68202380D02*
X166943809Y-67726190D01*
X166705714Y-68202380D02*
X166705714Y-67202380D01*
X167086666Y-67202380D01*
X167181904Y-67250000D01*
X167229523Y-67297619D01*
X167277142Y-67392857D01*
X167277142Y-67535714D01*
X167229523Y-67630952D01*
X167181904Y-67678571D01*
X167086666Y-67726190D01*
X166705714Y-67726190D01*
X168229523Y-68202380D02*
X167658095Y-68202380D01*
X167943809Y-68202380D02*
X167943809Y-67202380D01*
X167848571Y-67345238D01*
X167753333Y-67440476D01*
X167658095Y-67488095D01*
X168800952Y-67630952D02*
X168705714Y-67583333D01*
X168658095Y-67535714D01*
X168610476Y-67440476D01*
X168610476Y-67392857D01*
X168658095Y-67297619D01*
X168705714Y-67250000D01*
X168800952Y-67202380D01*
X168991428Y-67202380D01*
X169086666Y-67250000D01*
X169134285Y-67297619D01*
X169181904Y-67392857D01*
X169181904Y-67440476D01*
X169134285Y-67535714D01*
X169086666Y-67583333D01*
X168991428Y-67630952D01*
X168800952Y-67630952D01*
X168705714Y-67678571D01*
X168658095Y-67726190D01*
X168610476Y-67821428D01*
X168610476Y-68011904D01*
X168658095Y-68107142D01*
X168705714Y-68154761D01*
X168800952Y-68202380D01*
X168991428Y-68202380D01*
X169086666Y-68154761D01*
X169134285Y-68107142D01*
X169181904Y-68011904D01*
X169181904Y-67821428D01*
X169134285Y-67726190D01*
X169086666Y-67678571D01*
X168991428Y-67630952D01*
X171277142Y-77202380D02*
X170943809Y-76726190D01*
X170705714Y-77202380D02*
X170705714Y-76202380D01*
X171086666Y-76202380D01*
X171181904Y-76250000D01*
X171229523Y-76297619D01*
X171277142Y-76392857D01*
X171277142Y-76535714D01*
X171229523Y-76630952D01*
X171181904Y-76678571D01*
X171086666Y-76726190D01*
X170705714Y-76726190D01*
X172229523Y-77202380D02*
X171658095Y-77202380D01*
X171943809Y-77202380D02*
X171943809Y-76202380D01*
X171848571Y-76345238D01*
X171753333Y-76440476D01*
X171658095Y-76488095D01*
X172705714Y-77202380D02*
X172896190Y-77202380D01*
X172991428Y-77154761D01*
X173039047Y-77107142D01*
X173134285Y-76964285D01*
X173181904Y-76773809D01*
X173181904Y-76392857D01*
X173134285Y-76297619D01*
X173086666Y-76250000D01*
X172991428Y-76202380D01*
X172800952Y-76202380D01*
X172705714Y-76250000D01*
X172658095Y-76297619D01*
X172610476Y-76392857D01*
X172610476Y-76630952D01*
X172658095Y-76726190D01*
X172705714Y-76773809D01*
X172800952Y-76821428D01*
X172991428Y-76821428D01*
X173086666Y-76773809D01*
X173134285Y-76726190D01*
X173181904Y-76630952D01*
X164027142Y-59952380D02*
X163693809Y-59476190D01*
X163455714Y-59952380D02*
X163455714Y-58952380D01*
X163836666Y-58952380D01*
X163931904Y-59000000D01*
X163979523Y-59047619D01*
X164027142Y-59142857D01*
X164027142Y-59285714D01*
X163979523Y-59380952D01*
X163931904Y-59428571D01*
X163836666Y-59476190D01*
X163455714Y-59476190D01*
X164408095Y-59047619D02*
X164455714Y-59000000D01*
X164550952Y-58952380D01*
X164789047Y-58952380D01*
X164884285Y-59000000D01*
X164931904Y-59047619D01*
X164979523Y-59142857D01*
X164979523Y-59238095D01*
X164931904Y-59380952D01*
X164360476Y-59952380D01*
X164979523Y-59952380D01*
X165598571Y-58952380D02*
X165693809Y-58952380D01*
X165789047Y-59000000D01*
X165836666Y-59047619D01*
X165884285Y-59142857D01*
X165931904Y-59333333D01*
X165931904Y-59571428D01*
X165884285Y-59761904D01*
X165836666Y-59857142D01*
X165789047Y-59904761D01*
X165693809Y-59952380D01*
X165598571Y-59952380D01*
X165503333Y-59904761D01*
X165455714Y-59857142D01*
X165408095Y-59761904D01*
X165360476Y-59571428D01*
X165360476Y-59333333D01*
X165408095Y-59142857D01*
X165455714Y-59047619D01*
X165503333Y-59000000D01*
X165598571Y-58952380D01*
X157472380Y-67642857D02*
X156996190Y-67976190D01*
X157472380Y-68214285D02*
X156472380Y-68214285D01*
X156472380Y-67833333D01*
X156520000Y-67738095D01*
X156567619Y-67690476D01*
X156662857Y-67642857D01*
X156805714Y-67642857D01*
X156900952Y-67690476D01*
X156948571Y-67738095D01*
X156996190Y-67833333D01*
X156996190Y-68214285D01*
X156567619Y-67261904D02*
X156520000Y-67214285D01*
X156472380Y-67119047D01*
X156472380Y-66880952D01*
X156520000Y-66785714D01*
X156567619Y-66738095D01*
X156662857Y-66690476D01*
X156758095Y-66690476D01*
X156900952Y-66738095D01*
X157472380Y-67309523D01*
X157472380Y-66690476D01*
X157472380Y-65738095D02*
X157472380Y-66309523D01*
X157472380Y-66023809D02*
X156472380Y-66023809D01*
X156615238Y-66119047D01*
X156710476Y-66214285D01*
X156758095Y-66309523D01*
X151722380Y-67642857D02*
X151246190Y-67976190D01*
X151722380Y-68214285D02*
X150722380Y-68214285D01*
X150722380Y-67833333D01*
X150770000Y-67738095D01*
X150817619Y-67690476D01*
X150912857Y-67642857D01*
X151055714Y-67642857D01*
X151150952Y-67690476D01*
X151198571Y-67738095D01*
X151246190Y-67833333D01*
X151246190Y-68214285D01*
X150817619Y-67261904D02*
X150770000Y-67214285D01*
X150722380Y-67119047D01*
X150722380Y-66880952D01*
X150770000Y-66785714D01*
X150817619Y-66738095D01*
X150912857Y-66690476D01*
X151008095Y-66690476D01*
X151150952Y-66738095D01*
X151722380Y-67309523D01*
X151722380Y-66690476D01*
X150817619Y-66309523D02*
X150770000Y-66261904D01*
X150722380Y-66166666D01*
X150722380Y-65928571D01*
X150770000Y-65833333D01*
X150817619Y-65785714D01*
X150912857Y-65738095D01*
X151008095Y-65738095D01*
X151150952Y-65785714D01*
X151722380Y-66357142D01*
X151722380Y-65738095D01*
X144082666Y-73944761D02*
X144225523Y-73992380D01*
X144463619Y-73992380D01*
X144558857Y-73944761D01*
X144606476Y-73897142D01*
X144654095Y-73801904D01*
X144654095Y-73706666D01*
X144606476Y-73611428D01*
X144558857Y-73563809D01*
X144463619Y-73516190D01*
X144273142Y-73468571D01*
X144177904Y-73420952D01*
X144130285Y-73373333D01*
X144082666Y-73278095D01*
X144082666Y-73182857D01*
X144130285Y-73087619D01*
X144177904Y-73040000D01*
X144273142Y-72992380D01*
X144511238Y-72992380D01*
X144654095Y-73040000D01*
X144987428Y-72992380D02*
X145225523Y-73992380D01*
X145416000Y-73278095D01*
X145606476Y-73992380D01*
X145844571Y-72992380D01*
X146177904Y-73087619D02*
X146225523Y-73040000D01*
X146320761Y-72992380D01*
X146558857Y-72992380D01*
X146654095Y-73040000D01*
X146701714Y-73087619D01*
X146749333Y-73182857D01*
X146749333Y-73278095D01*
X146701714Y-73420952D01*
X146130285Y-73992380D01*
X146749333Y-73992380D01*
X154408095Y-52652380D02*
X154408095Y-53461904D01*
X154455714Y-53557142D01*
X154503333Y-53604761D01*
X154598571Y-53652380D01*
X154789047Y-53652380D01*
X154884285Y-53604761D01*
X154931904Y-53557142D01*
X154979523Y-53461904D01*
X154979523Y-52652380D01*
X155979523Y-53652380D02*
X155408095Y-53652380D01*
X155693809Y-53652380D02*
X155693809Y-52652380D01*
X155598571Y-52795238D01*
X155503333Y-52890476D01*
X155408095Y-52938095D01*
X148658095Y-73952380D02*
X148658095Y-74761904D01*
X148705714Y-74857142D01*
X148753333Y-74904761D01*
X148848571Y-74952380D01*
X149039047Y-74952380D01*
X149134285Y-74904761D01*
X149181904Y-74857142D01*
X149229523Y-74761904D01*
X149229523Y-73952380D01*
X149658095Y-74047619D02*
X149705714Y-74000000D01*
X149800952Y-73952380D01*
X150039047Y-73952380D01*
X150134285Y-74000000D01*
X150181904Y-74047619D01*
X150229523Y-74142857D01*
X150229523Y-74238095D01*
X150181904Y-74380952D01*
X149610476Y-74952380D01*
X150229523Y-74952380D01*
X160110476Y-75122380D02*
X160110476Y-75836666D01*
X160062857Y-75979523D01*
X159967619Y-76074761D01*
X159824761Y-76122380D01*
X159729523Y-76122380D01*
X161110476Y-76122380D02*
X160539047Y-76122380D01*
X160824761Y-76122380D02*
X160824761Y-75122380D01*
X160729523Y-75265238D01*
X160634285Y-75360476D01*
X160539047Y-75408095D01*
X161443809Y-75122380D02*
X162062857Y-75122380D01*
X161729523Y-75503333D01*
X161872380Y-75503333D01*
X161967619Y-75550952D01*
X162015238Y-75598571D01*
X162062857Y-75693809D01*
X162062857Y-75931904D01*
X162015238Y-76027142D01*
X161967619Y-76074761D01*
X161872380Y-76122380D01*
X161586666Y-76122380D01*
X161491428Y-76074761D01*
X161443809Y-76027142D01*
X155860476Y-75122380D02*
X155860476Y-75836666D01*
X155812857Y-75979523D01*
X155717619Y-76074761D01*
X155574761Y-76122380D01*
X155479523Y-76122380D01*
X156860476Y-76122380D02*
X156289047Y-76122380D01*
X156574761Y-76122380D02*
X156574761Y-75122380D01*
X156479523Y-75265238D01*
X156384285Y-75360476D01*
X156289047Y-75408095D01*
X157717619Y-75455714D02*
X157717619Y-76122380D01*
X157479523Y-75074761D02*
X157241428Y-75789047D01*
X157860476Y-75789047D01*
M02*
