G04 #@! TF.GenerationSoftware,KiCad,Pcbnew,(5.1.5)-3*
G04 #@! TF.CreationDate,2020-10-12T20:48:49-07:00*
G04 #@! TF.ProjectId,tool_head,746f6f6c-5f68-4656-9164-2e6b69636164,B*
G04 #@! TF.SameCoordinates,Original*
G04 #@! TF.FileFunction,Soldermask,Bot*
G04 #@! TF.FilePolarity,Negative*
%FSLAX46Y46*%
G04 Gerber Fmt 4.6, Leading zero omitted, Abs format (unit mm)*
G04 Created by KiCad (PCBNEW (5.1.5)-3) date 2020-10-12 20:48:49*
%MOMM*%
%LPD*%
G04 APERTURE LIST*
%ADD10C,0.100000*%
G04 APERTURE END LIST*
D10*
G36*
X161033512Y-79643927D02*
G01*
X161182812Y-79673624D01*
X161346784Y-79741544D01*
X161494354Y-79840147D01*
X161619853Y-79965646D01*
X161718456Y-80113216D01*
X161786376Y-80277188D01*
X161821000Y-80451259D01*
X161821000Y-80628741D01*
X161786376Y-80802812D01*
X161718456Y-80966784D01*
X161619853Y-81114354D01*
X161494354Y-81239853D01*
X161346784Y-81338456D01*
X161182812Y-81406376D01*
X161033512Y-81436073D01*
X161008742Y-81441000D01*
X160831258Y-81441000D01*
X160806488Y-81436073D01*
X160657188Y-81406376D01*
X160493216Y-81338456D01*
X160345646Y-81239853D01*
X160220147Y-81114354D01*
X160121544Y-80966784D01*
X160053624Y-80802812D01*
X160019000Y-80628741D01*
X160019000Y-80451259D01*
X160053624Y-80277188D01*
X160121544Y-80113216D01*
X160220147Y-79965646D01*
X160345646Y-79840147D01*
X160493216Y-79741544D01*
X160657188Y-79673624D01*
X160806488Y-79643927D01*
X160831258Y-79639000D01*
X161008742Y-79639000D01*
X161033512Y-79643927D01*
G37*
G36*
X156783512Y-79643927D02*
G01*
X156932812Y-79673624D01*
X157096784Y-79741544D01*
X157244354Y-79840147D01*
X157369853Y-79965646D01*
X157468456Y-80113216D01*
X157536376Y-80277188D01*
X157571000Y-80451259D01*
X157571000Y-80628741D01*
X157536376Y-80802812D01*
X157468456Y-80966784D01*
X157369853Y-81114354D01*
X157244354Y-81239853D01*
X157096784Y-81338456D01*
X156932812Y-81406376D01*
X156783512Y-81436073D01*
X156758742Y-81441000D01*
X156581258Y-81441000D01*
X156556488Y-81436073D01*
X156407188Y-81406376D01*
X156243216Y-81338456D01*
X156095646Y-81239853D01*
X155970147Y-81114354D01*
X155871544Y-80966784D01*
X155803624Y-80802812D01*
X155769000Y-80628741D01*
X155769000Y-80451259D01*
X155803624Y-80277188D01*
X155871544Y-80113216D01*
X155970147Y-79965646D01*
X156095646Y-79840147D01*
X156243216Y-79741544D01*
X156407188Y-79673624D01*
X156556488Y-79643927D01*
X156581258Y-79639000D01*
X156758742Y-79639000D01*
X156783512Y-79643927D01*
G37*
G36*
X157571000Y-78901000D02*
G01*
X155769000Y-78901000D01*
X155769000Y-77099000D01*
X157571000Y-77099000D01*
X157571000Y-78901000D01*
G37*
G36*
X161821000Y-78901000D02*
G01*
X160019000Y-78901000D01*
X160019000Y-77099000D01*
X161821000Y-77099000D01*
X161821000Y-78901000D01*
G37*
G36*
X149190104Y-70359585D02*
G01*
X149358626Y-70429389D01*
X149510291Y-70530728D01*
X149639272Y-70659709D01*
X149740611Y-70811374D01*
X149810415Y-70979896D01*
X149846000Y-71158797D01*
X149846000Y-71341203D01*
X149810415Y-71520104D01*
X149740611Y-71688626D01*
X149639272Y-71840291D01*
X149510291Y-71969272D01*
X149358626Y-72070611D01*
X149190104Y-72140415D01*
X149011203Y-72176000D01*
X148828797Y-72176000D01*
X148649896Y-72140415D01*
X148481374Y-72070611D01*
X148329709Y-71969272D01*
X148200728Y-71840291D01*
X148099389Y-71688626D01*
X148029585Y-71520104D01*
X147994000Y-71341203D01*
X147994000Y-71158797D01*
X148029585Y-70979896D01*
X148099389Y-70811374D01*
X148200728Y-70659709D01*
X148329709Y-70530728D01*
X148481374Y-70429389D01*
X148649896Y-70359585D01*
X148828797Y-70324000D01*
X149011203Y-70324000D01*
X149190104Y-70359585D01*
G37*
G36*
X142690104Y-70359585D02*
G01*
X142858626Y-70429389D01*
X143010291Y-70530728D01*
X143139272Y-70659709D01*
X143240611Y-70811374D01*
X143310415Y-70979896D01*
X143346000Y-71158797D01*
X143346000Y-71341203D01*
X143310415Y-71520104D01*
X143240611Y-71688626D01*
X143139272Y-71840291D01*
X143010291Y-71969272D01*
X142858626Y-72070611D01*
X142690104Y-72140415D01*
X142511203Y-72176000D01*
X142328797Y-72176000D01*
X142149896Y-72140415D01*
X141981374Y-72070611D01*
X141829709Y-71969272D01*
X141700728Y-71840291D01*
X141599389Y-71688626D01*
X141529585Y-71520104D01*
X141494000Y-71341203D01*
X141494000Y-71158797D01*
X141529585Y-70979896D01*
X141599389Y-70811374D01*
X141700728Y-70659709D01*
X141829709Y-70530728D01*
X141981374Y-70429389D01*
X142149896Y-70359585D01*
X142328797Y-70324000D01*
X142511203Y-70324000D01*
X142690104Y-70359585D01*
G37*
G36*
X176783512Y-70223927D02*
G01*
X176932812Y-70253624D01*
X177096784Y-70321544D01*
X177244354Y-70420147D01*
X177369853Y-70545646D01*
X177468456Y-70693216D01*
X177536376Y-70857188D01*
X177571000Y-71031259D01*
X177571000Y-71208741D01*
X177536376Y-71382812D01*
X177468456Y-71546784D01*
X177369853Y-71694354D01*
X177244354Y-71819853D01*
X177096784Y-71918456D01*
X176932812Y-71986376D01*
X176783512Y-72016073D01*
X176758742Y-72021000D01*
X176581258Y-72021000D01*
X176556488Y-72016073D01*
X176407188Y-71986376D01*
X176243216Y-71918456D01*
X176095646Y-71819853D01*
X175970147Y-71694354D01*
X175871544Y-71546784D01*
X175803624Y-71382812D01*
X175769000Y-71208741D01*
X175769000Y-71031259D01*
X175803624Y-70857188D01*
X175871544Y-70693216D01*
X175970147Y-70545646D01*
X176095646Y-70420147D01*
X176243216Y-70321544D01*
X176407188Y-70253624D01*
X176556488Y-70223927D01*
X176581258Y-70219000D01*
X176758742Y-70219000D01*
X176783512Y-70223927D01*
G37*
G36*
X179323512Y-70223927D02*
G01*
X179472812Y-70253624D01*
X179636784Y-70321544D01*
X179784354Y-70420147D01*
X179909853Y-70545646D01*
X180008456Y-70693216D01*
X180076376Y-70857188D01*
X180111000Y-71031259D01*
X180111000Y-71208741D01*
X180076376Y-71382812D01*
X180008456Y-71546784D01*
X179909853Y-71694354D01*
X179784354Y-71819853D01*
X179636784Y-71918456D01*
X179472812Y-71986376D01*
X179323512Y-72016073D01*
X179298742Y-72021000D01*
X179121258Y-72021000D01*
X179096488Y-72016073D01*
X178947188Y-71986376D01*
X178783216Y-71918456D01*
X178635646Y-71819853D01*
X178510147Y-71694354D01*
X178411544Y-71546784D01*
X178343624Y-71382812D01*
X178309000Y-71208741D01*
X178309000Y-71031259D01*
X178343624Y-70857188D01*
X178411544Y-70693216D01*
X178510147Y-70545646D01*
X178635646Y-70420147D01*
X178783216Y-70321544D01*
X178947188Y-70253624D01*
X179096488Y-70223927D01*
X179121258Y-70219000D01*
X179298742Y-70219000D01*
X179323512Y-70223927D01*
G37*
G36*
X179323512Y-67683927D02*
G01*
X179472812Y-67713624D01*
X179636784Y-67781544D01*
X179784354Y-67880147D01*
X179909853Y-68005646D01*
X180008456Y-68153216D01*
X180076376Y-68317188D01*
X180111000Y-68491259D01*
X180111000Y-68668741D01*
X180076376Y-68842812D01*
X180008456Y-69006784D01*
X179909853Y-69154354D01*
X179784354Y-69279853D01*
X179636784Y-69378456D01*
X179472812Y-69446376D01*
X179323512Y-69476073D01*
X179298742Y-69481000D01*
X179121258Y-69481000D01*
X179096488Y-69476073D01*
X178947188Y-69446376D01*
X178783216Y-69378456D01*
X178635646Y-69279853D01*
X178510147Y-69154354D01*
X178411544Y-69006784D01*
X178343624Y-68842812D01*
X178309000Y-68668741D01*
X178309000Y-68491259D01*
X178343624Y-68317188D01*
X178411544Y-68153216D01*
X178510147Y-68005646D01*
X178635646Y-67880147D01*
X178783216Y-67781544D01*
X178947188Y-67713624D01*
X179096488Y-67683927D01*
X179121258Y-67679000D01*
X179298742Y-67679000D01*
X179323512Y-67683927D01*
G37*
G36*
X176783512Y-67683927D02*
G01*
X176932812Y-67713624D01*
X177096784Y-67781544D01*
X177244354Y-67880147D01*
X177369853Y-68005646D01*
X177468456Y-68153216D01*
X177536376Y-68317188D01*
X177571000Y-68491259D01*
X177571000Y-68668741D01*
X177536376Y-68842812D01*
X177468456Y-69006784D01*
X177369853Y-69154354D01*
X177244354Y-69279853D01*
X177096784Y-69378456D01*
X176932812Y-69446376D01*
X176783512Y-69476073D01*
X176758742Y-69481000D01*
X176581258Y-69481000D01*
X176556488Y-69476073D01*
X176407188Y-69446376D01*
X176243216Y-69378456D01*
X176095646Y-69279853D01*
X175970147Y-69154354D01*
X175871544Y-69006784D01*
X175803624Y-68842812D01*
X175769000Y-68668741D01*
X175769000Y-68491259D01*
X175803624Y-68317188D01*
X175871544Y-68153216D01*
X175970147Y-68005646D01*
X176095646Y-67880147D01*
X176243216Y-67781544D01*
X176407188Y-67713624D01*
X176556488Y-67683927D01*
X176581258Y-67679000D01*
X176758742Y-67679000D01*
X176783512Y-67683927D01*
G37*
G36*
X141346355Y-67852140D02*
G01*
X141410118Y-67858420D01*
X141481742Y-67880147D01*
X141532836Y-67895646D01*
X141645925Y-67956094D01*
X141745054Y-68037446D01*
X141826406Y-68136575D01*
X141886854Y-68249664D01*
X141886855Y-68249668D01*
X141924080Y-68372382D01*
X141936649Y-68500000D01*
X141924080Y-68627618D01*
X141911605Y-68668741D01*
X141886854Y-68750336D01*
X141826406Y-68863425D01*
X141745054Y-68962554D01*
X141645925Y-69043906D01*
X141532836Y-69104354D01*
X141500904Y-69114040D01*
X141410118Y-69141580D01*
X141346355Y-69147860D01*
X141314474Y-69151000D01*
X140550526Y-69151000D01*
X140518645Y-69147860D01*
X140454882Y-69141580D01*
X140364096Y-69114040D01*
X140332164Y-69104354D01*
X140219075Y-69043906D01*
X140119946Y-68962554D01*
X140038594Y-68863425D01*
X139978146Y-68750336D01*
X139953395Y-68668741D01*
X139940920Y-68627618D01*
X139928351Y-68500000D01*
X139940920Y-68372382D01*
X139978145Y-68249668D01*
X139978146Y-68249664D01*
X140038594Y-68136575D01*
X140119946Y-68037446D01*
X140219075Y-67956094D01*
X140332164Y-67895646D01*
X140383258Y-67880147D01*
X140454882Y-67858420D01*
X140518645Y-67852140D01*
X140550526Y-67849000D01*
X141314474Y-67849000D01*
X141346355Y-67852140D01*
G37*
G36*
X143858848Y-66753820D02*
G01*
X143858850Y-66753821D01*
X143858851Y-66753821D01*
X144000074Y-66812317D01*
X144000077Y-66812319D01*
X144127169Y-66897239D01*
X144235261Y-67005331D01*
X144320181Y-67132423D01*
X144320183Y-67132426D01*
X144378679Y-67273649D01*
X144378680Y-67273652D01*
X144408500Y-67423569D01*
X144408500Y-67576431D01*
X144381211Y-67713625D01*
X144378679Y-67726351D01*
X144320183Y-67867574D01*
X144320181Y-67867577D01*
X144235261Y-67994669D01*
X144127169Y-68102761D01*
X144000077Y-68187681D01*
X144000074Y-68187683D01*
X143858851Y-68246179D01*
X143858850Y-68246179D01*
X143858848Y-68246180D01*
X143708931Y-68276000D01*
X143556069Y-68276000D01*
X143406152Y-68246180D01*
X143406150Y-68246179D01*
X143406149Y-68246179D01*
X143264926Y-68187683D01*
X143264923Y-68187681D01*
X143137831Y-68102761D01*
X143029739Y-67994669D01*
X142944819Y-67867577D01*
X142944817Y-67867574D01*
X142886321Y-67726351D01*
X142883790Y-67713625D01*
X142856500Y-67576431D01*
X142856500Y-67423569D01*
X142886320Y-67273652D01*
X142886321Y-67273649D01*
X142944817Y-67132426D01*
X142944819Y-67132423D01*
X143029739Y-67005331D01*
X143137831Y-66897239D01*
X143264923Y-66812319D01*
X143264926Y-66812317D01*
X143406149Y-66753821D01*
X143406150Y-66753821D01*
X143406152Y-66753820D01*
X143556069Y-66724000D01*
X143708931Y-66724000D01*
X143858848Y-66753820D01*
G37*
G36*
X179323512Y-65143927D02*
G01*
X179472812Y-65173624D01*
X179636784Y-65241544D01*
X179784354Y-65340147D01*
X179909853Y-65465646D01*
X180008456Y-65613216D01*
X180076376Y-65777188D01*
X180111000Y-65951259D01*
X180111000Y-66128741D01*
X180076376Y-66302812D01*
X180008456Y-66466784D01*
X179909853Y-66614354D01*
X179784354Y-66739853D01*
X179636784Y-66838456D01*
X179472812Y-66906376D01*
X179323512Y-66936073D01*
X179298742Y-66941000D01*
X179121258Y-66941000D01*
X179096488Y-66936073D01*
X178947188Y-66906376D01*
X178783216Y-66838456D01*
X178635646Y-66739853D01*
X178510147Y-66614354D01*
X178411544Y-66466784D01*
X178343624Y-66302812D01*
X178309000Y-66128741D01*
X178309000Y-65951259D01*
X178343624Y-65777188D01*
X178411544Y-65613216D01*
X178510147Y-65465646D01*
X178635646Y-65340147D01*
X178783216Y-65241544D01*
X178947188Y-65173624D01*
X179096488Y-65143927D01*
X179121258Y-65139000D01*
X179298742Y-65139000D01*
X179323512Y-65143927D01*
G37*
G36*
X176783512Y-65143927D02*
G01*
X176932812Y-65173624D01*
X177096784Y-65241544D01*
X177244354Y-65340147D01*
X177369853Y-65465646D01*
X177468456Y-65613216D01*
X177536376Y-65777188D01*
X177571000Y-65951259D01*
X177571000Y-66128741D01*
X177536376Y-66302812D01*
X177468456Y-66466784D01*
X177369853Y-66614354D01*
X177244354Y-66739853D01*
X177096784Y-66838456D01*
X176932812Y-66906376D01*
X176783512Y-66936073D01*
X176758742Y-66941000D01*
X176581258Y-66941000D01*
X176556488Y-66936073D01*
X176407188Y-66906376D01*
X176243216Y-66838456D01*
X176095646Y-66739853D01*
X175970147Y-66614354D01*
X175871544Y-66466784D01*
X175803624Y-66302812D01*
X175769000Y-66128741D01*
X175769000Y-65951259D01*
X175803624Y-65777188D01*
X175871544Y-65613216D01*
X175970147Y-65465646D01*
X176095646Y-65340147D01*
X176243216Y-65241544D01*
X176407188Y-65173624D01*
X176556488Y-65143927D01*
X176581258Y-65139000D01*
X176758742Y-65139000D01*
X176783512Y-65143927D01*
G37*
G36*
X179323512Y-62603927D02*
G01*
X179472812Y-62633624D01*
X179636784Y-62701544D01*
X179784354Y-62800147D01*
X179909853Y-62925646D01*
X180008456Y-63073216D01*
X180076376Y-63237188D01*
X180111000Y-63411259D01*
X180111000Y-63588741D01*
X180076376Y-63762812D01*
X180008456Y-63926784D01*
X179909853Y-64074354D01*
X179784354Y-64199853D01*
X179636784Y-64298456D01*
X179472812Y-64366376D01*
X179323512Y-64396073D01*
X179298742Y-64401000D01*
X179121258Y-64401000D01*
X179096488Y-64396073D01*
X178947188Y-64366376D01*
X178783216Y-64298456D01*
X178635646Y-64199853D01*
X178510147Y-64074354D01*
X178411544Y-63926784D01*
X178343624Y-63762812D01*
X178309000Y-63588741D01*
X178309000Y-63411259D01*
X178343624Y-63237188D01*
X178411544Y-63073216D01*
X178510147Y-62925646D01*
X178635646Y-62800147D01*
X178783216Y-62701544D01*
X178947188Y-62633624D01*
X179096488Y-62603927D01*
X179121258Y-62599000D01*
X179298742Y-62599000D01*
X179323512Y-62603927D01*
G37*
G36*
X177571000Y-64401000D02*
G01*
X175769000Y-64401000D01*
X175769000Y-62599000D01*
X177571000Y-62599000D01*
X177571000Y-64401000D01*
G37*
G36*
X143858848Y-61753820D02*
G01*
X143858850Y-61753821D01*
X143858851Y-61753821D01*
X144000074Y-61812317D01*
X144000077Y-61812319D01*
X144127169Y-61897239D01*
X144235261Y-62005331D01*
X144320181Y-62132423D01*
X144320183Y-62132426D01*
X144378679Y-62273649D01*
X144378680Y-62273652D01*
X144408500Y-62423569D01*
X144408500Y-62576431D01*
X144383614Y-62701544D01*
X144378679Y-62726351D01*
X144320183Y-62867574D01*
X144320181Y-62867577D01*
X144235261Y-62994669D01*
X144127169Y-63102761D01*
X144000077Y-63187681D01*
X144000074Y-63187683D01*
X143858851Y-63246179D01*
X143858850Y-63246179D01*
X143858848Y-63246180D01*
X143708931Y-63276000D01*
X143556069Y-63276000D01*
X143406152Y-63246180D01*
X143406150Y-63246179D01*
X143406149Y-63246179D01*
X143264926Y-63187683D01*
X143264923Y-63187681D01*
X143137831Y-63102761D01*
X143029739Y-62994669D01*
X142944819Y-62867577D01*
X142944817Y-62867574D01*
X142886321Y-62726351D01*
X142881387Y-62701544D01*
X142856500Y-62576431D01*
X142856500Y-62423569D01*
X142886320Y-62273652D01*
X142886321Y-62273649D01*
X142944817Y-62132426D01*
X142944819Y-62132423D01*
X143029739Y-62005331D01*
X143137831Y-61897239D01*
X143264923Y-61812319D01*
X143264926Y-61812317D01*
X143406149Y-61753821D01*
X143406150Y-61753821D01*
X143406152Y-61753820D01*
X143556069Y-61724000D01*
X143708931Y-61724000D01*
X143858848Y-61753820D01*
G37*
G36*
X141346355Y-60852140D02*
G01*
X141410118Y-60858420D01*
X141500904Y-60885960D01*
X141532836Y-60895646D01*
X141645925Y-60956094D01*
X141745054Y-61037446D01*
X141826406Y-61136575D01*
X141886854Y-61249664D01*
X141886855Y-61249668D01*
X141924080Y-61372382D01*
X141936649Y-61500000D01*
X141924080Y-61627618D01*
X141896540Y-61718404D01*
X141886854Y-61750336D01*
X141826406Y-61863425D01*
X141745054Y-61962554D01*
X141645925Y-62043906D01*
X141532836Y-62104354D01*
X141500904Y-62114040D01*
X141410118Y-62141580D01*
X141346355Y-62147860D01*
X141314474Y-62151000D01*
X140550526Y-62151000D01*
X140518645Y-62147860D01*
X140454882Y-62141580D01*
X140364096Y-62114040D01*
X140332164Y-62104354D01*
X140219075Y-62043906D01*
X140119946Y-61962554D01*
X140038594Y-61863425D01*
X139978146Y-61750336D01*
X139968460Y-61718404D01*
X139940920Y-61627618D01*
X139928351Y-61500000D01*
X139940920Y-61372382D01*
X139978145Y-61249668D01*
X139978146Y-61249664D01*
X140038594Y-61136575D01*
X140119946Y-61037446D01*
X140219075Y-60956094D01*
X140332164Y-60895646D01*
X140364096Y-60885960D01*
X140454882Y-60858420D01*
X140518645Y-60852140D01*
X140550526Y-60849000D01*
X141314474Y-60849000D01*
X141346355Y-60852140D01*
G37*
G36*
X177771000Y-59351000D02*
G01*
X175069000Y-59351000D01*
X175069000Y-56649000D01*
X177771000Y-56649000D01*
X177771000Y-59351000D01*
G37*
G36*
X146271000Y-58101000D02*
G01*
X143569000Y-58101000D01*
X143569000Y-55399000D01*
X146271000Y-55399000D01*
X146271000Y-58101000D01*
G37*
G36*
X176814072Y-51620918D02*
G01*
X177059939Y-51722759D01*
X177281212Y-51870610D01*
X177469390Y-52058788D01*
X177617241Y-52280061D01*
X177719082Y-52525928D01*
X177771000Y-52786938D01*
X177771000Y-53053062D01*
X177719082Y-53314072D01*
X177617241Y-53559939D01*
X177469390Y-53781212D01*
X177281212Y-53969390D01*
X177059939Y-54117241D01*
X177059938Y-54117242D01*
X177059937Y-54117242D01*
X176814072Y-54219082D01*
X176553063Y-54271000D01*
X176286937Y-54271000D01*
X176025928Y-54219082D01*
X175780063Y-54117242D01*
X175780062Y-54117242D01*
X175780061Y-54117241D01*
X175558788Y-53969390D01*
X175370610Y-53781212D01*
X175222759Y-53559939D01*
X175120918Y-53314072D01*
X175069000Y-53053062D01*
X175069000Y-52786938D01*
X175120918Y-52525928D01*
X175222759Y-52280061D01*
X175370610Y-52058788D01*
X175558788Y-51870610D01*
X175780061Y-51722759D01*
X176025928Y-51620918D01*
X176286937Y-51569000D01*
X176553063Y-51569000D01*
X176814072Y-51620918D01*
G37*
G36*
X145314072Y-50370918D02*
G01*
X145559939Y-50472759D01*
X145781212Y-50620610D01*
X145969390Y-50808788D01*
X146117241Y-51030061D01*
X146219082Y-51275928D01*
X146271000Y-51536938D01*
X146271000Y-51803062D01*
X146219082Y-52064072D01*
X146117241Y-52309939D01*
X145969390Y-52531212D01*
X145781212Y-52719390D01*
X145559939Y-52867241D01*
X145559938Y-52867242D01*
X145559937Y-52867242D01*
X145314072Y-52969082D01*
X145053063Y-53021000D01*
X144786937Y-53021000D01*
X144525928Y-52969082D01*
X144280063Y-52867242D01*
X144280062Y-52867242D01*
X144280061Y-52867241D01*
X144058788Y-52719390D01*
X143870610Y-52531212D01*
X143722759Y-52309939D01*
X143620918Y-52064072D01*
X143569000Y-51803062D01*
X143569000Y-51536938D01*
X143620918Y-51275928D01*
X143722759Y-51030061D01*
X143870610Y-50808788D01*
X144058788Y-50620610D01*
X144280061Y-50472759D01*
X144525928Y-50370918D01*
X144786937Y-50319000D01*
X145053063Y-50319000D01*
X145314072Y-50370918D01*
G37*
G36*
X155076564Y-47739389D02*
G01*
X155267833Y-47818615D01*
X155267835Y-47818616D01*
X155439973Y-47933635D01*
X155586365Y-48080027D01*
X155701385Y-48252167D01*
X155780611Y-48443436D01*
X155821000Y-48646484D01*
X155821000Y-48853516D01*
X155780611Y-49056564D01*
X155701385Y-49247833D01*
X155701384Y-49247835D01*
X155586365Y-49419973D01*
X155439973Y-49566365D01*
X155267835Y-49681384D01*
X155267834Y-49681385D01*
X155267833Y-49681385D01*
X155076564Y-49760611D01*
X154873516Y-49801000D01*
X154666484Y-49801000D01*
X154463436Y-49760611D01*
X154272167Y-49681385D01*
X154272166Y-49681385D01*
X154272165Y-49681384D01*
X154100027Y-49566365D01*
X153953635Y-49419973D01*
X153838616Y-49247835D01*
X153838615Y-49247833D01*
X153759389Y-49056564D01*
X153719000Y-48853516D01*
X153719000Y-48646484D01*
X153759389Y-48443436D01*
X153838615Y-48252167D01*
X153953635Y-48080027D01*
X154100027Y-47933635D01*
X154272165Y-47818616D01*
X154272167Y-47818615D01*
X154463436Y-47739389D01*
X154666484Y-47699000D01*
X154873516Y-47699000D01*
X155076564Y-47739389D01*
G37*
G36*
X166476564Y-47739389D02*
G01*
X166667833Y-47818615D01*
X166667835Y-47818616D01*
X166839973Y-47933635D01*
X166986365Y-48080027D01*
X167101385Y-48252167D01*
X167180611Y-48443436D01*
X167221000Y-48646484D01*
X167221000Y-48853516D01*
X167180611Y-49056564D01*
X167101385Y-49247833D01*
X167101384Y-49247835D01*
X166986365Y-49419973D01*
X166839973Y-49566365D01*
X166667835Y-49681384D01*
X166667834Y-49681385D01*
X166667833Y-49681385D01*
X166476564Y-49760611D01*
X166273516Y-49801000D01*
X166066484Y-49801000D01*
X165863436Y-49760611D01*
X165672167Y-49681385D01*
X165672166Y-49681385D01*
X165672165Y-49681384D01*
X165500027Y-49566365D01*
X165353635Y-49419973D01*
X165238616Y-49247835D01*
X165238615Y-49247833D01*
X165159389Y-49056564D01*
X165119000Y-48853516D01*
X165119000Y-48646484D01*
X165159389Y-48443436D01*
X165238615Y-48252167D01*
X165353635Y-48080027D01*
X165500027Y-47933635D01*
X165672165Y-47818616D01*
X165672167Y-47818615D01*
X165863436Y-47739389D01*
X166066484Y-47699000D01*
X166273516Y-47699000D01*
X166476564Y-47739389D01*
G37*
G36*
X152846627Y-43212037D02*
G01*
X153016466Y-43263557D01*
X153172991Y-43347222D01*
X153208729Y-43376552D01*
X153310186Y-43459814D01*
X153393448Y-43561271D01*
X153422778Y-43597009D01*
X153506443Y-43753534D01*
X153557963Y-43923374D01*
X153571000Y-44055743D01*
X153571000Y-44444258D01*
X153557963Y-44576627D01*
X153506443Y-44746466D01*
X153422778Y-44902991D01*
X153393448Y-44938729D01*
X153310186Y-45040186D01*
X153172989Y-45152779D01*
X153016467Y-45236442D01*
X153016465Y-45236443D01*
X152846626Y-45287963D01*
X152670000Y-45305359D01*
X152493373Y-45287963D01*
X152323534Y-45236443D01*
X152167009Y-45152778D01*
X152124750Y-45118097D01*
X152029814Y-45040186D01*
X151917221Y-44902989D01*
X151833558Y-44746467D01*
X151833557Y-44746465D01*
X151782037Y-44576626D01*
X151769000Y-44444257D01*
X151769000Y-44055742D01*
X151782037Y-43923373D01*
X151833557Y-43753534D01*
X151917222Y-43597009D01*
X152029815Y-43459815D01*
X152167010Y-43347222D01*
X152323535Y-43263557D01*
X152493374Y-43212037D01*
X152670000Y-43194641D01*
X152846627Y-43212037D01*
G37*
G36*
X155928600Y-43202989D02*
G01*
X155961652Y-43213015D01*
X155992103Y-43229292D01*
X156018799Y-43251201D01*
X156040708Y-43277897D01*
X156056985Y-43308348D01*
X156067011Y-43341400D01*
X156071000Y-43381903D01*
X156071000Y-45118097D01*
X156067011Y-45158600D01*
X156056985Y-45191652D01*
X156040708Y-45222103D01*
X156018799Y-45248799D01*
X155992103Y-45270708D01*
X155961652Y-45286985D01*
X155928600Y-45297011D01*
X155888097Y-45301000D01*
X154451903Y-45301000D01*
X154411400Y-45297011D01*
X154378348Y-45286985D01*
X154347897Y-45270708D01*
X154321201Y-45248799D01*
X154299292Y-45222103D01*
X154283015Y-45191652D01*
X154272989Y-45158600D01*
X154269000Y-45118097D01*
X154269000Y-43381903D01*
X154272989Y-43341400D01*
X154283015Y-43308348D01*
X154299292Y-43277897D01*
X154321201Y-43251201D01*
X154347897Y-43229292D01*
X154378348Y-43213015D01*
X154411400Y-43202989D01*
X154451903Y-43199000D01*
X155888097Y-43199000D01*
X155928600Y-43202989D01*
G37*
G36*
X169283512Y-41853927D02*
G01*
X169432812Y-41883624D01*
X169596784Y-41951544D01*
X169744354Y-42050147D01*
X169869853Y-42175646D01*
X169968456Y-42323216D01*
X170036376Y-42487188D01*
X170071000Y-42661259D01*
X170071000Y-42838741D01*
X170036376Y-43012812D01*
X169968456Y-43176784D01*
X169869853Y-43324354D01*
X169744354Y-43449853D01*
X169596784Y-43548456D01*
X169432812Y-43616376D01*
X169283512Y-43646073D01*
X169258742Y-43651000D01*
X169081258Y-43651000D01*
X169056488Y-43646073D01*
X168907188Y-43616376D01*
X168743216Y-43548456D01*
X168595646Y-43449853D01*
X168470147Y-43324354D01*
X168371544Y-43176784D01*
X168303624Y-43012812D01*
X168269000Y-42838741D01*
X168269000Y-42661259D01*
X168303624Y-42487188D01*
X168371544Y-42323216D01*
X168470147Y-42175646D01*
X168595646Y-42050147D01*
X168743216Y-41951544D01*
X168907188Y-41883624D01*
X169056488Y-41853927D01*
X169081258Y-41849000D01*
X169258742Y-41849000D01*
X169283512Y-41853927D01*
G37*
G36*
X166743512Y-41853927D02*
G01*
X166892812Y-41883624D01*
X167056784Y-41951544D01*
X167204354Y-42050147D01*
X167329853Y-42175646D01*
X167428456Y-42323216D01*
X167496376Y-42487188D01*
X167531000Y-42661259D01*
X167531000Y-42838741D01*
X167496376Y-43012812D01*
X167428456Y-43176784D01*
X167329853Y-43324354D01*
X167204354Y-43449853D01*
X167056784Y-43548456D01*
X166892812Y-43616376D01*
X166743512Y-43646073D01*
X166718742Y-43651000D01*
X166541258Y-43651000D01*
X166516488Y-43646073D01*
X166367188Y-43616376D01*
X166203216Y-43548456D01*
X166055646Y-43449853D01*
X165930147Y-43324354D01*
X165831544Y-43176784D01*
X165763624Y-43012812D01*
X165729000Y-42838741D01*
X165729000Y-42661259D01*
X165763624Y-42487188D01*
X165831544Y-42323216D01*
X165930147Y-42175646D01*
X166055646Y-42050147D01*
X166203216Y-41951544D01*
X166367188Y-41883624D01*
X166516488Y-41853927D01*
X166541258Y-41849000D01*
X166718742Y-41849000D01*
X166743512Y-41853927D01*
G37*
G36*
X164991000Y-43651000D02*
G01*
X163189000Y-43651000D01*
X163189000Y-41849000D01*
X164991000Y-41849000D01*
X164991000Y-43651000D01*
G37*
G36*
X156959890Y-41624017D02*
G01*
X157078364Y-41673091D01*
X157184988Y-41744335D01*
X157275665Y-41835012D01*
X157308147Y-41883624D01*
X157346910Y-41941638D01*
X157395983Y-42060110D01*
X157421000Y-42185881D01*
X157421000Y-42314119D01*
X157419190Y-42323218D01*
X157395983Y-42439890D01*
X157346909Y-42558364D01*
X157275665Y-42664988D01*
X157184988Y-42755665D01*
X157078364Y-42826909D01*
X157078363Y-42826910D01*
X157078362Y-42826910D01*
X156959890Y-42875983D01*
X156834119Y-42901000D01*
X156705881Y-42901000D01*
X156580110Y-42875983D01*
X156461638Y-42826910D01*
X156461637Y-42826910D01*
X156461636Y-42826909D01*
X156355012Y-42755665D01*
X156264335Y-42664988D01*
X156193091Y-42558364D01*
X156144017Y-42439890D01*
X156120810Y-42323218D01*
X156119000Y-42314119D01*
X156119000Y-42185881D01*
X156144017Y-42060110D01*
X156193090Y-41941638D01*
X156231854Y-41883624D01*
X156264335Y-41835012D01*
X156355012Y-41744335D01*
X156461636Y-41673091D01*
X156580110Y-41624017D01*
X156705881Y-41599000D01*
X156834119Y-41599000D01*
X156959890Y-41624017D01*
G37*
M02*
